G04 DipTrace 3.3.1.1*
G04 bottom_dendy_gamepad_Remastered_rev2.7.gbl*
%MOMM*%
G04 #@! TF.FileFunction,Copper,L2,Bot*
G04 #@! TF.Part,Single*
%ADD14C,0.5*%
%ADD15C,1.0*%
%ADD21C,0.3*%
G04 #@! TA.AperFunction,ViaPad*
%ADD17C,2.0*%
G04 #@! TA.AperFunction,ComponentPad*
%ADD18C,1.5*%
G04 #@! TA.AperFunction,Nonconductor*
%ADD19C,0.11767*%
%ADD22C,0.2353*%
%ADD23C,0.2745*%
G04 #@! TA.AperFunction,ComponentPad*
%ADD25C,2.0*%
%ADD26C,3.0*%
%ADD27O,4.0X2.0*%
%ADD28R,5.0X2.0*%
%ADD29C,3.0*%
%ADD31C,2.5*%
G04 #@! TA.AperFunction,ViaPad*
%ADD32C,0.7*%
%FSLAX35Y35*%
G04*
G71*
G90*
G75*
G01*
G04 Bottom*
%LPD*%
X4556373Y3794293D2*
D17*
Y4302323D1*
X4381727Y4476970D1*
X3699030D1*
X3556140Y4619860D1*
D3*
D32*
X6890240Y3016317D3*
X7382417D3*
X1063046Y5194910D2*
D14*
X4382238D1*
X4762290D2*
X4893931D1*
X5139634D2*
X5656092D1*
X5901704D2*
X8383176D1*
X8763228D2*
X9433449D1*
X9491118D2*
X9846249D1*
X9903918D2*
X10258957D1*
X10316717D2*
X12066561D1*
X1063046Y5145243D2*
X1251105D1*
X1447499D2*
X4382238D1*
X4762290D2*
X4836600D1*
X5196965D2*
X5598671D1*
X5959035D2*
X6442772D1*
X6639165D2*
X8383176D1*
X8763228D2*
X9313957D1*
X9610520D2*
X9726757D1*
X10023319D2*
X10139556D1*
X10436118D2*
X11682108D1*
X11878501D2*
X12066561D1*
X1063046Y5095577D2*
X1157863D1*
X1540741D2*
X4382238D1*
X4762290D2*
X4805520D1*
X5228137D2*
X5567590D1*
X5990207D2*
X6349530D1*
X6732408D2*
X8383176D1*
X8763228D2*
X9268749D1*
X9655819D2*
X9681506D1*
X10068618D2*
X10094348D1*
X10481418D2*
X11588866D1*
X11971743D2*
X12066561D1*
X1063046Y5045910D2*
X1107915D1*
X1590689D2*
X4382238D1*
X4762199D2*
X4789296D1*
X5244270D2*
X5551366D1*
X6006340D2*
X6299582D1*
X6782355D2*
X8383176D1*
X8763137D2*
X9243592D1*
X10506483D2*
X11538918D1*
X12021691D2*
X12066561D1*
X1622772Y4996243D2*
X4415233D1*
X4729204D2*
X4784829D1*
X5248736D2*
X5546900D1*
X6010806D2*
X6267499D1*
X6814439D2*
X8416171D1*
X8730142D2*
X9231926D1*
X10518241D2*
X11506743D1*
X1643007Y4946577D2*
X4791392D1*
X5242173D2*
X5553462D1*
X6004335D2*
X6247264D1*
X6834673D2*
X9231379D1*
X10518697D2*
X11486600D1*
X1653762Y4896910D2*
X4809986D1*
X5223579D2*
X5572056D1*
X5985650D2*
X6236509D1*
X6845428D2*
X9242043D1*
X10508033D2*
X11475845D1*
X1656132Y4847243D2*
X4844712D1*
X5188853D2*
X5606783D1*
X5951014D2*
X6234139D1*
X6847798D2*
X7793918D1*
X8114087D2*
X9265741D1*
X10484335D2*
X11473475D1*
X1650207Y4797577D2*
X3455103D1*
X3657147D2*
X4910793D1*
X5122772D2*
X5672954D1*
X5884842D2*
X6240064D1*
X6841874D2*
X7731483D1*
X8176522D2*
X9308671D1*
X9615897D2*
X9721470D1*
X10028697D2*
X10134270D1*
X10441496D2*
X11479400D1*
X1635533Y4747910D2*
X3394947D1*
X3718762D2*
X6254738D1*
X6827199D2*
X7692746D1*
X8215259D2*
X9406561D1*
X9518007D2*
X9819361D1*
X9930806D2*
X10232069D1*
X10343605D2*
X11494074D1*
X1610559Y4698243D2*
X3364960D1*
X3768436D2*
X6279712D1*
X6802316D2*
X7667772D1*
X8240142D2*
X11518957D1*
X12041561D2*
X12066561D1*
X1063046Y4648577D2*
X1126691D1*
X1571913D2*
X3351197D1*
X4493319D2*
X6318358D1*
X6763579D2*
X7653098D1*
X8254908D2*
X11557694D1*
X12002915D2*
X12066561D1*
X1063046Y4598910D2*
X1189126D1*
X1509478D2*
X3350194D1*
X4550467D2*
X6380793D1*
X6701145D2*
X7647173D1*
X8260832D2*
X11620129D1*
X11940480D2*
X12066561D1*
X1063046Y4549243D2*
X3361861D1*
X4600142D2*
X7649452D1*
X8258462D2*
X12066561D1*
X1063046Y4499577D2*
X3388840D1*
X4649816D2*
X7660207D1*
X8247707D2*
X12066561D1*
X1063046Y4449910D2*
X3435415D1*
X4699491D2*
X7680441D1*
X8227473D2*
X12066561D1*
X1063046Y4400243D2*
X3485090D1*
X4738046D2*
X7712525D1*
X8195480D2*
X12066561D1*
X1063046Y4350577D2*
X3534764D1*
X4757551D2*
X7762473D1*
X8145533D2*
X12066561D1*
X1063046Y4300910D2*
X3595012D1*
X4763384D2*
X7855533D1*
X8052382D2*
X12066561D1*
X1063046Y4251243D2*
X4316796D1*
X4763384D2*
X12066561D1*
X1063046Y4201577D2*
X4349335D1*
X4763384D2*
X12066561D1*
X1063046Y4151910D2*
X4349335D1*
X4763384D2*
X12066561D1*
X1063046Y4102243D2*
X3734829D1*
X3949087D2*
X4349335D1*
X4763384D2*
X12066561D1*
X1063046Y4052577D2*
X3661822D1*
X4022095D2*
X4349335D1*
X4763384D2*
X5033384D1*
X5381262D2*
X12066561D1*
X1063046Y4002910D2*
X3622538D1*
X4061379D2*
X4349335D1*
X4763384D2*
X4966392D1*
X5448254D2*
X12066561D1*
X1063046Y3953243D2*
X3599660D1*
X4084348D2*
X4199400D1*
X5477421D2*
X12066561D1*
X1063046Y3903577D2*
X3588449D1*
X4095559D2*
X4199400D1*
X5488723D2*
X12066561D1*
X1063046Y3853910D2*
X3587447D1*
X4096561D2*
X4199400D1*
X5485715D2*
X12066561D1*
X1063046Y3804243D2*
X3596470D1*
X4087447D2*
X4199400D1*
X4913410D2*
X4947227D1*
X5467395D2*
X12066561D1*
X1063046Y3754577D2*
X3616796D1*
X4067121D2*
X4199400D1*
X4913410D2*
X4987811D1*
X5426835D2*
X12066561D1*
X1063046Y3704910D2*
X3652069D1*
X4031848D2*
X4199400D1*
X4913410D2*
X12066561D1*
X1063046Y3655243D2*
X3714686D1*
X3969230D2*
X4199400D1*
X4913410D2*
X12066561D1*
X1063046Y3605577D2*
X4199400D1*
X4913410D2*
X12066561D1*
X1063046Y3555910D2*
X4224374D1*
X4888345D2*
X12066561D1*
X1063046Y3506243D2*
X4224374D1*
X4888345D2*
X12066561D1*
X1063046Y3456577D2*
X4224374D1*
X4888345D2*
X8737004D1*
X8896939D2*
X9063944D1*
X9347655D2*
X10202538D1*
X10362473D2*
X10977642D1*
X11137577D2*
X11627512D1*
X11933007D2*
X12066561D1*
X1063046Y3406910D2*
X4224374D1*
X4888345D2*
X6952824D1*
X7227876D2*
X7435350D1*
X7710493D2*
X8676027D1*
X11271288D2*
X11576743D1*
X11983866D2*
X12066561D1*
X1063046Y3357243D2*
X4224374D1*
X4888345D2*
X6911444D1*
X7269257D2*
X7394061D1*
X7751874D2*
X8646132D1*
X11283775D2*
X11547030D1*
X12013579D2*
X12066561D1*
X1063046Y3307577D2*
X4224374D1*
X4888345D2*
X6890480D1*
X7290220D2*
X7373007D1*
X7772837D2*
X8637746D1*
X11268189D2*
X11530624D1*
X12029895D2*
X12066561D1*
X1063046Y3257910D2*
X4224374D1*
X4888345D2*
X6883371D1*
X7297329D2*
X7365988D1*
X7779947D2*
X8648228D1*
X11246861D2*
X11524973D1*
X12035637D2*
X12066561D1*
X1063046Y3208243D2*
X4224374D1*
X4888345D2*
X6888749D1*
X7291952D2*
X7371275D1*
X7774569D2*
X8682681D1*
X11223072D2*
X11529257D1*
X12031353D2*
X12066561D1*
X1063046Y3158577D2*
X4224374D1*
X4888345D2*
X6907525D1*
X7273085D2*
X7390142D1*
X7755702D2*
X9548475D1*
X9700025D2*
X10085233D1*
X10289191D2*
X11544022D1*
X12016496D2*
X12066561D1*
X1063046Y3108910D2*
X4224374D1*
X4888345D2*
X6945350D1*
X7235350D2*
X7427876D1*
X7717967D2*
X11571639D1*
X11988970D2*
X12066561D1*
X1063046Y3059243D2*
X4224374D1*
X4888345D2*
X7033579D1*
X7147121D2*
X7516105D1*
X7629738D2*
X11618579D1*
X11941939D2*
X12066561D1*
X1063046Y3009577D2*
X4224374D1*
X4888345D2*
X11723488D1*
X11837121D2*
X12066561D1*
X1063046Y2959910D2*
X4224374D1*
X4888345D2*
X8745845D1*
X11130741D2*
X12066561D1*
X1063046Y2910243D2*
X4224374D1*
X4888345D2*
X8731353D1*
X11166379D2*
X12066561D1*
X1063046Y2860577D2*
X4224374D1*
X4888345D2*
X7792277D1*
X8020572D2*
X8747303D1*
X11183423D2*
X12066561D1*
X1063046Y2810910D2*
X7723007D1*
X8089751D2*
X8786678D1*
X11185064D2*
X12066561D1*
X1063046Y2761243D2*
X7685090D1*
X8127759D2*
X8799348D1*
X11176770D2*
X12066561D1*
X1063046Y2711577D2*
X7662941D1*
X8149816D2*
X8801900D1*
X11154803D2*
X12066561D1*
X1063046Y2661910D2*
X7652460D1*
X8160298D2*
X8834530D1*
X8951626D2*
X9005337D1*
X10246079D2*
X10302980D1*
X11102030D2*
X12066561D1*
X1063046Y2612243D2*
X7652095D1*
X8160663D2*
X12066561D1*
X1063046Y2562577D2*
X7661848D1*
X8150910D2*
X12066561D1*
X1063046Y2512910D2*
X7682993D1*
X8129764D2*
X12066561D1*
X1063046Y2463243D2*
X7719543D1*
X8093215D2*
X12066561D1*
X1063046Y2413577D2*
X7785168D1*
X8027590D2*
X12066561D1*
X1063046Y2363910D2*
X12066561D1*
X1063046Y2314243D2*
X12066561D1*
X1063046Y2264577D2*
X12066561D1*
X1063046Y2214910D2*
X12066561D1*
X1063046Y2165243D2*
X12066561D1*
X1063046Y2115577D2*
X12066561D1*
X1063046Y2065910D2*
X12066561D1*
X1063046Y2016243D2*
X12066561D1*
X1063046Y1966577D2*
X12066561D1*
X1063046Y1916910D2*
X12066561D1*
X1063046Y1867243D2*
X12066561D1*
X1063046Y1817577D2*
X12066561D1*
X1063046Y1767910D2*
X12066561D1*
X1063046Y1718243D2*
X12066561D1*
X1063046Y1668577D2*
X12066561D1*
X1063046Y1618910D2*
X12066561D1*
X1063046Y1569243D2*
X1260402D1*
X1438202D2*
X3943918D1*
X4152707D2*
X5940194D1*
X6189178D2*
X11655767D1*
X11904751D2*
X12066561D1*
X1063046Y1519577D2*
X1176913D1*
X1521600D2*
X3876926D1*
X4219699D2*
X5876210D1*
X6253163D2*
X11591783D1*
X11968736D2*
X12066561D1*
X1063046Y1469910D2*
X1134439D1*
X1564074D2*
X3841926D1*
X4254699D2*
X5840298D1*
X6289074D2*
X11555871D1*
X12004647D2*
X12066561D1*
X1063046Y1420243D2*
X1109465D1*
X1589048D2*
X3823059D1*
X4273566D2*
X5819608D1*
X6309764D2*
X11535181D1*
X12025337D2*
X12066561D1*
X1063046Y1370577D2*
X1096662D1*
X1601809D2*
X3816405D1*
X4280220D2*
X5810220D1*
X6319152D2*
X11525793D1*
X12034725D2*
X12066561D1*
X1063046Y1320910D2*
X1094294D1*
X1604270D2*
X3820689D1*
X4275936D2*
X5810949D1*
X6318423D2*
X10765637D1*
X10982629D2*
X11526522D1*
X12033996D2*
X12066561D1*
X1063046Y1271243D2*
X1101809D1*
X1596796D2*
X3836639D1*
X4259986D2*
X4385155D1*
X4759283D2*
X5821796D1*
X6307577D2*
X8386092D1*
X8760220D2*
X10722707D1*
X11218150D2*
X11537368D1*
X12023150D2*
X12066561D1*
X1063046Y1221577D2*
X1120311D1*
X1578293D2*
X3867538D1*
X4229178D2*
X4382238D1*
X4762290D2*
X5844400D1*
X6284973D2*
X8383176D1*
X8763228D2*
X10723527D1*
X11234647D2*
X11559973D1*
X12000546D2*
X12066561D1*
X1063046Y1171910D2*
X1153033D1*
X1545572D2*
X3924230D1*
X4172395D2*
X4382238D1*
X4762290D2*
X5883046D1*
X6246327D2*
X8383176D1*
X8763228D2*
X10746587D1*
X11234647D2*
X11598618D1*
X11961900D2*
X12066561D1*
X1063046Y1122243D2*
X1209816D1*
X1488788D2*
X4382238D1*
X4762290D2*
X5954230D1*
X6175142D2*
X8383176D1*
X8763228D2*
X10772199D1*
X11218150D2*
X11669803D1*
X11890715D2*
X12066561D1*
X1063046Y1072577D2*
X4382238D1*
X4762290D2*
X8383176D1*
X8763228D2*
X12066561D1*
X12071554Y4779044D2*
X12067975Y4766135D1*
X12060027Y4744204D1*
X12050410Y4722951D1*
X12039181Y4702504D1*
X12026407Y4682984D1*
X12012165Y4664509D1*
X11996539Y4647188D1*
X11979623Y4631125D1*
X11961518Y4616416D1*
X11942331Y4603148D1*
X11922177Y4591400D1*
X11901177Y4581243D1*
X11879456Y4572738D1*
X11857142Y4565934D1*
X11834370Y4560873D1*
X11811276Y4557584D1*
X11787996Y4556089D1*
X11764671Y4556394D1*
X11741438Y4558499D1*
X11718438Y4562390D1*
X11695806Y4568046D1*
X11673679Y4575431D1*
X11652187Y4584503D1*
X11631460Y4595206D1*
X11611621Y4607477D1*
X11592788Y4621242D1*
X11575074Y4636421D1*
X11558584Y4652921D1*
X11543417Y4670645D1*
X11529663Y4689487D1*
X11517405Y4709334D1*
X11506715Y4730068D1*
X11497657Y4751565D1*
X11490286Y4773697D1*
X11484644Y4796332D1*
X11480767Y4819335D1*
X11478677Y4842569D1*
X11478387Y4865895D1*
X11479898Y4889173D1*
X11483201Y4912266D1*
X11488276Y4935034D1*
X11495094Y4957343D1*
X11503614Y4979060D1*
X11513784Y5000053D1*
X11525544Y5020200D1*
X11538824Y5039378D1*
X11553545Y5057474D1*
X11569619Y5074380D1*
X11586950Y5089995D1*
X11605434Y5104225D1*
X11624962Y5116986D1*
X11645416Y5128202D1*
X11666675Y5137806D1*
X11688611Y5145740D1*
X11711095Y5151958D1*
X11733992Y5156421D1*
X11757165Y5159104D1*
X11780475Y5159990D1*
X11803785Y5159074D1*
X11826954Y5156362D1*
X11849845Y5151870D1*
X11872321Y5145624D1*
X11894247Y5137662D1*
X11915494Y5128031D1*
X11935934Y5116789D1*
X11955445Y5104003D1*
X11973911Y5089749D1*
X11991222Y5074112D1*
X12007275Y5057186D1*
X12021973Y5039071D1*
X12035228Y5019876D1*
X12046963Y4999715D1*
X12057107Y4978708D1*
X12065599Y4956981D1*
X12071566Y4937366D1*
X12071543Y5244576D1*
X8758145D1*
X8757874Y5044632D1*
X8754124Y5027265D1*
X8750025Y5019888D1*
X8740485Y5006857D1*
X8725031Y4996252D1*
X8717686Y4993543D1*
X8701159Y4990569D1*
X8442238Y4990859D1*
X8424872Y4994609D1*
X8417495Y4998709D1*
X8404463Y5008248D1*
X8393859Y5023702D1*
X8391150Y5031048D1*
X8388176Y5047574D1*
X8388157Y5244605D1*
X4757206Y5244576D1*
X4756954Y5044632D1*
X4753204Y5027265D1*
X4749105Y5019888D1*
X4739565Y5006857D1*
X4724111Y4996252D1*
X4716766Y4993543D1*
X4700239Y4990569D1*
X4441318Y4990859D1*
X4423952Y4994609D1*
X4416574Y4998708D1*
X4403543Y5008248D1*
X4392939Y5023702D1*
X4390229Y5031048D1*
X4387256Y5047574D1*
X4387236Y5244605D1*
X1057979Y5244577D1*
X1058000Y4937715D1*
X1064094Y4957343D1*
X1072614Y4979060D1*
X1082784Y5000053D1*
X1094544Y5020200D1*
X1107824Y5039378D1*
X1122545Y5057474D1*
X1138619Y5074380D1*
X1155950Y5089995D1*
X1174434Y5104225D1*
X1193962Y5116986D1*
X1214416Y5128202D1*
X1235675Y5137806D1*
X1257611Y5145740D1*
X1280095Y5151958D1*
X1302992Y5156421D1*
X1326165Y5159104D1*
X1349475Y5159990D1*
X1372785Y5159074D1*
X1395954Y5156362D1*
X1418845Y5151870D1*
X1441321Y5145624D1*
X1463247Y5137662D1*
X1484494Y5128031D1*
X1504934Y5116789D1*
X1524445Y5104003D1*
X1542911Y5089749D1*
X1560222Y5074112D1*
X1576275Y5057186D1*
X1590973Y5039071D1*
X1604228Y5019876D1*
X1615963Y4999715D1*
X1626107Y4978708D1*
X1634599Y4956981D1*
X1641388Y4934663D1*
X1646435Y4911888D1*
X1649708Y4888792D1*
X1651283Y4857990D1*
X1650382Y4834680D1*
X1647685Y4811509D1*
X1643207Y4788615D1*
X1636975Y4766135D1*
X1629027Y4744204D1*
X1619410Y4722951D1*
X1608181Y4702504D1*
X1595407Y4682984D1*
X1581165Y4664509D1*
X1565539Y4647188D1*
X1548623Y4631125D1*
X1530518Y4616416D1*
X1511331Y4603148D1*
X1491177Y4591400D1*
X1470177Y4581243D1*
X1448456Y4572738D1*
X1426142Y4565934D1*
X1403370Y4560873D1*
X1380276Y4557584D1*
X1356996Y4556089D1*
X1333671Y4556394D1*
X1310438Y4558499D1*
X1287438Y4562390D1*
X1264806Y4568046D1*
X1242679Y4575431D1*
X1221187Y4584503D1*
X1200460Y4595206D1*
X1180621Y4607477D1*
X1161788Y4621242D1*
X1144074Y4636421D1*
X1127584Y4652921D1*
X1112417Y4670645D1*
X1098663Y4689487D1*
X1086405Y4709334D1*
X1075715Y4730068D1*
X1066657Y4751565D1*
X1057985Y4778914D1*
X1058000Y1058001D1*
X4387258Y1058000D1*
X4387546Y1257945D1*
X4391296Y1275312D1*
X4395395Y1282689D1*
X4404935Y1295720D1*
X4420389Y1306325D1*
X4427734Y1309034D1*
X4444261Y1312007D1*
X4704143Y1311546D1*
X4722362Y1307216D1*
X4738076Y1296992D1*
X4743389Y1291241D1*
X4753204Y1275312D1*
X4757090Y1256967D1*
X4757264Y1057972D1*
X8388214Y1058000D1*
X8388466Y1257945D1*
X8392216Y1275312D1*
X8396315Y1282689D1*
X8405855Y1295720D1*
X8421309Y1306325D1*
X8428654Y1309034D1*
X8445181Y1312008D1*
X8704102Y1311718D1*
X8721468Y1307968D1*
X8728845Y1303868D1*
X8741877Y1294328D1*
X8752481Y1278875D1*
X8755190Y1271529D1*
X8758164Y1255003D1*
X8758183Y1057972D1*
X12071582Y1058000D1*
X12071543Y4778091D1*
X12029815Y1329649D2*
X12027505Y1310129D1*
X12023670Y1290851D1*
X12018334Y1271933D1*
X12011531Y1253492D1*
X12003302Y1235641D1*
X11993698Y1218491D1*
X11982777Y1202148D1*
X11970608Y1186712D1*
X11957266Y1172278D1*
X11942832Y1158935D1*
X11927396Y1146766D1*
X11911052Y1135846D1*
X11893902Y1126241D1*
X11876052Y1118012D1*
X11857611Y1111209D1*
X11838692Y1105873D1*
X11819414Y1102039D1*
X11799894Y1099728D1*
X11780253Y1098957D1*
X11760612Y1099728D1*
X11741093Y1102039D1*
X11721814Y1105873D1*
X11702896Y1111209D1*
X11684455Y1118012D1*
X11666604Y1126241D1*
X11649455Y1135846D1*
X11633111Y1146766D1*
X11617675Y1158935D1*
X11603241Y1172278D1*
X11589898Y1186712D1*
X11577729Y1202148D1*
X11566809Y1218491D1*
X11557205Y1235641D1*
X11548975Y1253492D1*
X11542172Y1271933D1*
X11536837Y1290851D1*
X11533002Y1310129D1*
X11530692Y1329649D1*
X11529920Y1349290D1*
X11530692Y1368931D1*
X11533002Y1388451D1*
X11536837Y1407729D1*
X11542172Y1426647D1*
X11548975Y1445088D1*
X11557205Y1462939D1*
X11566809Y1480089D1*
X11577729Y1496432D1*
X11589898Y1511868D1*
X11603241Y1526302D1*
X11617675Y1539645D1*
X11633111Y1551814D1*
X11649455Y1562734D1*
X11666604Y1572339D1*
X11684455Y1580568D1*
X11702896Y1587371D1*
X11721814Y1592707D1*
X11741093Y1596541D1*
X11760612Y1598852D1*
X11780253Y1599623D1*
X11799894Y1598852D1*
X11819414Y1596541D1*
X11838692Y1592707D1*
X11857611Y1587371D1*
X11876052Y1580568D1*
X11893902Y1572339D1*
X11911052Y1562734D1*
X11927396Y1551814D1*
X11942832Y1539645D1*
X11957266Y1526302D1*
X11970608Y1511868D1*
X11982777Y1496432D1*
X11993698Y1480089D1*
X12003302Y1462939D1*
X12011531Y1445088D1*
X12018334Y1426647D1*
X12023670Y1407729D1*
X12027505Y1388451D1*
X12029815Y1368931D1*
X12030587Y1349290D1*
X12029815Y1329649D1*
X1598845Y1313749D2*
X1596535Y1294229D1*
X1592700Y1274951D1*
X1587364Y1256033D1*
X1580561Y1237592D1*
X1572332Y1219741D1*
X1562728Y1202591D1*
X1551807Y1186248D1*
X1539638Y1170812D1*
X1526296Y1156378D1*
X1511862Y1143035D1*
X1496426Y1130866D1*
X1480082Y1119946D1*
X1462932Y1110341D1*
X1445082Y1102112D1*
X1426641Y1095309D1*
X1407722Y1089973D1*
X1388444Y1086139D1*
X1368924Y1083828D1*
X1349283Y1083057D1*
X1329642Y1083828D1*
X1310123Y1086139D1*
X1290844Y1089973D1*
X1271926Y1095309D1*
X1253485Y1102112D1*
X1235634Y1110341D1*
X1218485Y1119946D1*
X1202141Y1130866D1*
X1186705Y1143035D1*
X1172271Y1156378D1*
X1158928Y1170812D1*
X1146759Y1186248D1*
X1135839Y1202591D1*
X1126235Y1219741D1*
X1118005Y1237592D1*
X1111202Y1256033D1*
X1105867Y1274951D1*
X1102032Y1294229D1*
X1099722Y1313749D1*
X1098950Y1333390D1*
X1099722Y1353031D1*
X1102032Y1372551D1*
X1105867Y1391829D1*
X1111202Y1410747D1*
X1118005Y1429188D1*
X1126235Y1447039D1*
X1135839Y1464189D1*
X1146759Y1480532D1*
X1158928Y1495968D1*
X1172271Y1510402D1*
X1186705Y1523745D1*
X1202141Y1535914D1*
X1218485Y1546834D1*
X1235634Y1556439D1*
X1253485Y1564668D1*
X1271926Y1571471D1*
X1290844Y1576807D1*
X1310123Y1580641D1*
X1329642Y1582952D1*
X1349283Y1583723D1*
X1368924Y1582952D1*
X1388444Y1580641D1*
X1407722Y1576807D1*
X1426641Y1571471D1*
X1445082Y1564668D1*
X1462932Y1556439D1*
X1480082Y1546834D1*
X1496426Y1535914D1*
X1511862Y1523745D1*
X1526296Y1510402D1*
X1539638Y1495968D1*
X1551807Y1480532D1*
X1562728Y1464189D1*
X1572332Y1447039D1*
X1580561Y1429188D1*
X1587364Y1410747D1*
X1592700Y1391829D1*
X1596535Y1372551D1*
X1598845Y1353031D1*
X1599617Y1333390D1*
X1598845Y1313749D1*
X6314245Y1329649D2*
X6311935Y1310129D1*
X6308100Y1290851D1*
X6302764Y1271933D1*
X6295961Y1253492D1*
X6287732Y1235641D1*
X6278128Y1218491D1*
X6267207Y1202148D1*
X6255038Y1186712D1*
X6241696Y1172278D1*
X6227262Y1158935D1*
X6211826Y1146766D1*
X6195482Y1135846D1*
X6178332Y1126241D1*
X6160482Y1118012D1*
X6142041Y1111209D1*
X6123122Y1105873D1*
X6103844Y1102039D1*
X6084324Y1099728D1*
X6064683Y1098957D1*
X6045042Y1099728D1*
X6025523Y1102039D1*
X6006244Y1105873D1*
X5987326Y1111209D1*
X5968885Y1118012D1*
X5951034Y1126241D1*
X5933885Y1135846D1*
X5917541Y1146766D1*
X5902105Y1158935D1*
X5887671Y1172278D1*
X5874328Y1186712D1*
X5862159Y1202148D1*
X5851239Y1218491D1*
X5841635Y1235641D1*
X5833405Y1253492D1*
X5826602Y1271933D1*
X5821267Y1290851D1*
X5817432Y1310129D1*
X5815122Y1329649D1*
X5814350Y1349290D1*
X5815122Y1368931D1*
X5817432Y1388451D1*
X5821267Y1407729D1*
X5826602Y1426647D1*
X5833405Y1445088D1*
X5841635Y1462939D1*
X5851239Y1480089D1*
X5862159Y1496432D1*
X5874328Y1511868D1*
X5887671Y1526302D1*
X5902105Y1539645D1*
X5917541Y1551814D1*
X5933885Y1562734D1*
X5951034Y1572339D1*
X5968885Y1580568D1*
X5987326Y1587371D1*
X6006244Y1592707D1*
X6025523Y1596541D1*
X6045042Y1598852D1*
X6064683Y1599623D1*
X6084324Y1598852D1*
X6103844Y1596541D1*
X6123122Y1592707D1*
X6142041Y1587371D1*
X6160482Y1580568D1*
X6178332Y1572339D1*
X6195482Y1562734D1*
X6211826Y1551814D1*
X6227262Y1539645D1*
X6241696Y1526302D1*
X6255038Y1511868D1*
X6267207Y1496432D1*
X6278128Y1480089D1*
X6287732Y1462939D1*
X6295961Y1445088D1*
X6302764Y1426647D1*
X6308100Y1407729D1*
X6311935Y1388451D1*
X6314245Y1368931D1*
X6315017Y1349290D1*
X6314245Y1329649D1*
X6842082Y4834680D2*
X6839385Y4811509D1*
X6834907Y4788615D1*
X6828675Y4766135D1*
X6820727Y4744204D1*
X6811110Y4722951D1*
X6799881Y4702504D1*
X6787107Y4682984D1*
X6772865Y4664509D1*
X6757239Y4647188D1*
X6740323Y4631125D1*
X6722218Y4616416D1*
X6703031Y4603148D1*
X6682877Y4591400D1*
X6661877Y4581243D1*
X6640156Y4572738D1*
X6617842Y4565934D1*
X6595070Y4560873D1*
X6571976Y4557584D1*
X6548696Y4556089D1*
X6525371Y4556394D1*
X6502138Y4558499D1*
X6479138Y4562390D1*
X6456506Y4568046D1*
X6434379Y4575431D1*
X6412887Y4584503D1*
X6392160Y4595206D1*
X6372321Y4607477D1*
X6353488Y4621242D1*
X6335774Y4636421D1*
X6319284Y4652921D1*
X6304117Y4670645D1*
X6290363Y4689487D1*
X6278105Y4709334D1*
X6267415Y4730068D1*
X6258357Y4751565D1*
X6250986Y4773697D1*
X6245344Y4796332D1*
X6241467Y4819335D1*
X6239377Y4842569D1*
X6239087Y4865895D1*
X6240598Y4889173D1*
X6243901Y4912266D1*
X6248976Y4935034D1*
X6255794Y4957343D1*
X6264314Y4979060D1*
X6274484Y5000053D1*
X6286244Y5020200D1*
X6299524Y5039378D1*
X6314245Y5057474D1*
X6330319Y5074380D1*
X6347650Y5089995D1*
X6366134Y5104225D1*
X6385662Y5116986D1*
X6406116Y5128202D1*
X6427375Y5137806D1*
X6449311Y5145740D1*
X6471795Y5151958D1*
X6494692Y5156421D1*
X6517865Y5159104D1*
X6541175Y5159990D1*
X6564485Y5159074D1*
X6587654Y5156362D1*
X6610545Y5151870D1*
X6633021Y5145624D1*
X6654947Y5137662D1*
X6676194Y5128031D1*
X6696634Y5116789D1*
X6716145Y5104003D1*
X6734611Y5089749D1*
X6751922Y5074112D1*
X6767975Y5057186D1*
X6782673Y5039071D1*
X6795928Y5019876D1*
X6807663Y4999715D1*
X6817807Y4978708D1*
X6826299Y4956981D1*
X6833088Y4934663D1*
X6838135Y4911888D1*
X6841408Y4888792D1*
X6842983Y4857990D1*
X6842082Y4834680D1*
X5243084Y4983080D2*
X5240989Y4965379D1*
X5237511Y4947898D1*
X5232673Y4930743D1*
X5226504Y4914021D1*
X5219042Y4897834D1*
X5210333Y4882283D1*
X5200430Y4867463D1*
X5189395Y4853465D1*
X5177297Y4840377D1*
X5164208Y4828278D1*
X5150211Y4817243D1*
X5135391Y4807341D1*
X5119839Y4798632D1*
X5103652Y4791169D1*
X5086930Y4785000D1*
X5069775Y4780162D1*
X5052294Y4776685D1*
X5034594Y4774590D1*
X5016783Y4773890D1*
X4998973Y4774590D1*
X4981273Y4776685D1*
X4963791Y4780162D1*
X4946636Y4785000D1*
X4929914Y4791169D1*
X4913727Y4798632D1*
X4898176Y4807341D1*
X4883356Y4817243D1*
X4869359Y4828278D1*
X4856270Y4840377D1*
X4844171Y4853465D1*
X4833136Y4867463D1*
X4823234Y4882283D1*
X4814525Y4897834D1*
X4807063Y4914021D1*
X4800894Y4930743D1*
X4796055Y4947898D1*
X4792578Y4965379D1*
X4790483Y4983080D1*
X4789783Y5000890D1*
X4790483Y5018700D1*
X4792578Y5036401D1*
X4796055Y5053882D1*
X4800894Y5071037D1*
X4807063Y5087759D1*
X4814525Y5103946D1*
X4823234Y5119497D1*
X4833136Y5134317D1*
X4844171Y5148315D1*
X4856270Y5161403D1*
X4869359Y5173502D1*
X4883356Y5184537D1*
X4898176Y5194439D1*
X4913727Y5203148D1*
X4929914Y5210611D1*
X4946636Y5216780D1*
X4963791Y5221618D1*
X4981273Y5225095D1*
X4998973Y5227190D1*
X5016783Y5227890D1*
X5034594Y5227190D1*
X5052294Y5225095D1*
X5069775Y5221618D1*
X5086930Y5216780D1*
X5103652Y5210611D1*
X5119839Y5203148D1*
X5135391Y5194439D1*
X5150211Y5184537D1*
X5164208Y5173502D1*
X5177297Y5161403D1*
X5189395Y5148315D1*
X5200430Y5134317D1*
X5210333Y5119497D1*
X5219042Y5103946D1*
X5226504Y5087759D1*
X5232673Y5071037D1*
X5237511Y5053882D1*
X5240989Y5036401D1*
X5243084Y5018700D1*
X5243783Y5000890D1*
X5243084Y4983080D1*
X6005184D2*
X6003089Y4965379D1*
X5999611Y4947898D1*
X5994773Y4930743D1*
X5988604Y4914021D1*
X5981142Y4897834D1*
X5972433Y4882283D1*
X5962530Y4867463D1*
X5951495Y4853465D1*
X5939397Y4840377D1*
X5926308Y4828278D1*
X5912311Y4817243D1*
X5897491Y4807341D1*
X5881939Y4798632D1*
X5865752Y4791169D1*
X5849030Y4785000D1*
X5831875Y4780162D1*
X5814394Y4776685D1*
X5796694Y4774590D1*
X5778883Y4773890D1*
X5761073Y4774590D1*
X5743373Y4776685D1*
X5725891Y4780162D1*
X5708736Y4785000D1*
X5692014Y4791169D1*
X5675827Y4798632D1*
X5660276Y4807341D1*
X5645456Y4817243D1*
X5631459Y4828278D1*
X5618370Y4840377D1*
X5606271Y4853465D1*
X5595236Y4867463D1*
X5585334Y4882283D1*
X5576625Y4897834D1*
X5569163Y4914021D1*
X5562994Y4930743D1*
X5558155Y4947898D1*
X5554678Y4965379D1*
X5552583Y4983080D1*
X5551883Y5000890D1*
X5552583Y5018700D1*
X5554678Y5036401D1*
X5558155Y5053882D1*
X5562994Y5071037D1*
X5569163Y5087759D1*
X5576625Y5103946D1*
X5585334Y5119497D1*
X5595236Y5134317D1*
X5606271Y5148315D1*
X5618370Y5161403D1*
X5631459Y5173502D1*
X5645456Y5184537D1*
X5660276Y5194439D1*
X5675827Y5203148D1*
X5692014Y5210611D1*
X5708736Y5216780D1*
X5725891Y5221618D1*
X5743373Y5225095D1*
X5761073Y5227190D1*
X5778883Y5227890D1*
X5796694Y5227190D1*
X5814394Y5225095D1*
X5831875Y5221618D1*
X5849030Y5216780D1*
X5865752Y5210611D1*
X5881939Y5203148D1*
X5897491Y5194439D1*
X5912311Y5184537D1*
X5926308Y5173502D1*
X5939397Y5161403D1*
X5951495Y5148315D1*
X5962530Y5134317D1*
X5972433Y5119497D1*
X5981142Y5103946D1*
X5988604Y5087759D1*
X5994773Y5071037D1*
X5999611Y5053882D1*
X6003089Y5036401D1*
X6005184Y5018700D1*
X6005883Y5000890D1*
X6005184Y4983080D1*
X8155945Y2615649D2*
X8153635Y2596129D1*
X8149800Y2576851D1*
X8144464Y2557933D1*
X8137661Y2539492D1*
X8129432Y2521641D1*
X8119828Y2504491D1*
X8108907Y2488148D1*
X8096738Y2472712D1*
X8083396Y2458278D1*
X8068962Y2444935D1*
X8053526Y2432766D1*
X8037182Y2421846D1*
X8020032Y2412241D1*
X8002182Y2404012D1*
X7983741Y2397209D1*
X7964822Y2391873D1*
X7945544Y2388039D1*
X7926024Y2385728D1*
X7906383Y2384957D1*
X7886742Y2385728D1*
X7867223Y2388039D1*
X7847944Y2391873D1*
X7829026Y2397209D1*
X7810585Y2404012D1*
X7792734Y2412241D1*
X7775585Y2421846D1*
X7759241Y2432766D1*
X7743805Y2444935D1*
X7729371Y2458278D1*
X7716028Y2472712D1*
X7703859Y2488148D1*
X7692939Y2504491D1*
X7683335Y2521641D1*
X7675105Y2539492D1*
X7668302Y2557933D1*
X7662967Y2576851D1*
X7659132Y2596129D1*
X7656822Y2615649D1*
X7656050Y2635290D1*
X7656822Y2654931D1*
X7659132Y2674451D1*
X7662967Y2693729D1*
X7668302Y2712647D1*
X7675105Y2731088D1*
X7683335Y2748939D1*
X7692939Y2766089D1*
X7703859Y2782432D1*
X7716028Y2797868D1*
X7729371Y2812302D1*
X7743805Y2825645D1*
X7759241Y2837814D1*
X7775585Y2848734D1*
X7792734Y2858339D1*
X7810585Y2866568D1*
X7829026Y2873371D1*
X7847944Y2878707D1*
X7867223Y2882541D1*
X7886742Y2884852D1*
X7906383Y2885623D1*
X7926024Y2884852D1*
X7945544Y2882541D1*
X7964822Y2878707D1*
X7983741Y2873371D1*
X8002182Y2866568D1*
X8020032Y2858339D1*
X8037182Y2848734D1*
X8053526Y2837814D1*
X8068962Y2825645D1*
X8083396Y2812302D1*
X8096738Y2797868D1*
X8108907Y2782432D1*
X8119828Y2766089D1*
X8129432Y2748939D1*
X8137661Y2731088D1*
X8144464Y2712647D1*
X8149800Y2693729D1*
X8153635Y2674451D1*
X8155945Y2654931D1*
X8156717Y2635290D1*
X8155945Y2615649D1*
X4091545Y3854049D2*
X4089235Y3834529D1*
X4085400Y3815251D1*
X4080064Y3796333D1*
X4073261Y3777892D1*
X4065032Y3760041D1*
X4055428Y3742891D1*
X4044507Y3726548D1*
X4032338Y3711112D1*
X4018996Y3696678D1*
X4004562Y3683335D1*
X3989126Y3671166D1*
X3972782Y3660246D1*
X3955632Y3650641D1*
X3937782Y3642412D1*
X3919341Y3635609D1*
X3900422Y3630273D1*
X3881144Y3626439D1*
X3861624Y3624128D1*
X3841983Y3623357D1*
X3822342Y3624128D1*
X3802823Y3626439D1*
X3783544Y3630273D1*
X3764626Y3635609D1*
X3746185Y3642412D1*
X3728334Y3650641D1*
X3711185Y3660246D1*
X3694841Y3671166D1*
X3679405Y3683335D1*
X3664971Y3696678D1*
X3651628Y3711112D1*
X3639459Y3726548D1*
X3628539Y3742891D1*
X3618935Y3760041D1*
X3610705Y3777892D1*
X3603902Y3796333D1*
X3598567Y3815251D1*
X3594732Y3834529D1*
X3592422Y3854049D1*
X3591650Y3873690D1*
X3592422Y3893331D1*
X3594732Y3912851D1*
X3598567Y3932129D1*
X3603902Y3951047D1*
X3610705Y3969488D1*
X3618935Y3987339D1*
X3628539Y4004489D1*
X3639459Y4020832D1*
X3651628Y4036268D1*
X3664971Y4050702D1*
X3679405Y4064045D1*
X3694841Y4076214D1*
X3711185Y4087134D1*
X3728334Y4096739D1*
X3746185Y4104968D1*
X3764626Y4111771D1*
X3783544Y4117107D1*
X3802823Y4120941D1*
X3822342Y4123252D1*
X3841983Y4124023D1*
X3861624Y4123252D1*
X3881144Y4120941D1*
X3900422Y4117107D1*
X3919341Y4111771D1*
X3937782Y4104968D1*
X3955632Y4096739D1*
X3972782Y4087134D1*
X3989126Y4076214D1*
X4004562Y4064045D1*
X4018996Y4050702D1*
X4032338Y4036268D1*
X4044507Y4020832D1*
X4055428Y4004489D1*
X4065032Y3987339D1*
X4073261Y3969488D1*
X4080064Y3951047D1*
X4085400Y3932129D1*
X4089235Y3912851D1*
X4091545Y3893331D1*
X4092317Y3873690D1*
X4091545Y3854049D1*
X12029845Y3234849D2*
X12027535Y3215329D1*
X12023700Y3196051D1*
X12018364Y3177133D1*
X12011561Y3158692D1*
X12003332Y3140841D1*
X11993728Y3123691D1*
X11982807Y3107348D1*
X11970638Y3091912D1*
X11957296Y3077478D1*
X11942862Y3064135D1*
X11927426Y3051966D1*
X11911082Y3041046D1*
X11893932Y3031441D1*
X11876082Y3023212D1*
X11857641Y3016409D1*
X11838722Y3011073D1*
X11819444Y3007239D1*
X11799924Y3004928D1*
X11780283Y3004157D1*
X11760642Y3004928D1*
X11741123Y3007239D1*
X11721844Y3011073D1*
X11702926Y3016409D1*
X11684485Y3023212D1*
X11666634Y3031441D1*
X11649485Y3041046D1*
X11633141Y3051966D1*
X11617705Y3064135D1*
X11603271Y3077478D1*
X11589928Y3091912D1*
X11577759Y3107348D1*
X11566839Y3123691D1*
X11557235Y3140841D1*
X11549005Y3158692D1*
X11542202Y3177133D1*
X11536867Y3196051D1*
X11533032Y3215329D1*
X11530722Y3234849D1*
X11529950Y3254490D1*
X11530722Y3274131D1*
X11533032Y3293651D1*
X11536867Y3312929D1*
X11542202Y3331847D1*
X11549005Y3350288D1*
X11557235Y3368139D1*
X11566839Y3385289D1*
X11577759Y3401632D1*
X11589928Y3417068D1*
X11603271Y3431502D1*
X11617705Y3444845D1*
X11633141Y3457014D1*
X11649485Y3467934D1*
X11666634Y3477539D1*
X11684485Y3485768D1*
X11702926Y3492571D1*
X11721844Y3497907D1*
X11741123Y3501741D1*
X11760642Y3504052D1*
X11780283Y3504823D1*
X11799924Y3504052D1*
X11819444Y3501741D1*
X11838722Y3497907D1*
X11857641Y3492571D1*
X11876082Y3485768D1*
X11893932Y3477539D1*
X11911082Y3467934D1*
X11927426Y3457014D1*
X11942862Y3444845D1*
X11957296Y3431502D1*
X11970638Y3417068D1*
X11982807Y3401632D1*
X11993728Y3385289D1*
X12003332Y3368139D1*
X12011561Y3350288D1*
X12018364Y3331847D1*
X12023700Y3312929D1*
X12027535Y3293651D1*
X12029845Y3274131D1*
X12030617Y3254490D1*
X12029845Y3234849D1*
X8255082Y4564780D2*
X8252385Y4541609D1*
X8247907Y4518715D1*
X8241675Y4496235D1*
X8233727Y4474304D1*
X8224110Y4453051D1*
X8212881Y4432604D1*
X8200107Y4413084D1*
X8185865Y4394609D1*
X8170239Y4377288D1*
X8153323Y4361225D1*
X8135218Y4346516D1*
X8116031Y4333248D1*
X8095877Y4321500D1*
X8074877Y4311343D1*
X8053156Y4302838D1*
X8030842Y4296034D1*
X8008070Y4290973D1*
X7984976Y4287684D1*
X7961696Y4286189D1*
X7938371Y4286494D1*
X7915138Y4288599D1*
X7892138Y4292490D1*
X7869506Y4298146D1*
X7847379Y4305531D1*
X7825887Y4314603D1*
X7805160Y4325306D1*
X7785321Y4337577D1*
X7766488Y4351342D1*
X7748774Y4366521D1*
X7732284Y4383021D1*
X7717117Y4400745D1*
X7703363Y4419587D1*
X7691105Y4439434D1*
X7680415Y4460168D1*
X7671357Y4481665D1*
X7663986Y4503797D1*
X7658344Y4526432D1*
X7654467Y4549435D1*
X7652377Y4572669D1*
X7652087Y4595995D1*
X7653598Y4619273D1*
X7656901Y4642366D1*
X7661976Y4665134D1*
X7668794Y4687443D1*
X7677314Y4709160D1*
X7687484Y4730153D1*
X7699244Y4750300D1*
X7712524Y4769478D1*
X7727245Y4787574D1*
X7743319Y4804480D1*
X7760650Y4820095D1*
X7779134Y4834325D1*
X7798662Y4847086D1*
X7819116Y4858302D1*
X7840375Y4867906D1*
X7862311Y4875840D1*
X7884795Y4882058D1*
X7907692Y4886521D1*
X7930865Y4889204D1*
X7954175Y4890090D1*
X7977485Y4889174D1*
X8000654Y4886462D1*
X8023545Y4881970D1*
X8046021Y4875724D1*
X8067947Y4867762D1*
X8089194Y4858131D1*
X8109634Y4846889D1*
X8129145Y4834103D1*
X8147611Y4819849D1*
X8164922Y4804212D1*
X8180975Y4787286D1*
X8195673Y4769171D1*
X8208928Y4749976D1*
X8220663Y4729815D1*
X8230807Y4708808D1*
X8239299Y4687081D1*
X8246088Y4664763D1*
X8251135Y4641988D1*
X8254408Y4618892D1*
X8255983Y4588090D1*
X8255082Y4564780D1*
X10081367Y4874900D2*
X10068606Y4850559D1*
X10058704Y4835739D1*
X10047669Y4821742D1*
X10035570Y4808653D1*
X10022481Y4796555D1*
X10008484Y4785520D1*
X9993664Y4775617D1*
X9978113Y4766908D1*
X9961926Y4759446D1*
X9945204Y4753277D1*
X9928049Y4748439D1*
X9910567Y4744961D1*
X9892867Y4742866D1*
X9875057Y4742167D1*
X9857246Y4742866D1*
X9839546Y4744961D1*
X9822065Y4748439D1*
X9804910Y4753277D1*
X9788188Y4759446D1*
X9772001Y4766908D1*
X9756449Y4775617D1*
X9741629Y4785520D1*
X9727632Y4796555D1*
X9714543Y4808653D1*
X9702445Y4821742D1*
X9691410Y4835739D1*
X9681507Y4850559D1*
X9668746Y4874900D1*
X9655813Y4850559D1*
X9645910Y4835739D1*
X9634875Y4821742D1*
X9622777Y4808653D1*
X9609688Y4796555D1*
X9595691Y4785520D1*
X9580871Y4775617D1*
X9565319Y4766908D1*
X9549132Y4759446D1*
X9532410Y4753277D1*
X9515255Y4748439D1*
X9497774Y4744961D1*
X9480074Y4742866D1*
X9462263Y4742167D1*
X9444453Y4742866D1*
X9426753Y4744961D1*
X9409271Y4748439D1*
X9392116Y4753277D1*
X9375394Y4759446D1*
X9359207Y4766908D1*
X9343656Y4775617D1*
X9328836Y4785520D1*
X9314839Y4796555D1*
X9301750Y4808653D1*
X9289651Y4821742D1*
X9278616Y4835739D1*
X9268714Y4850559D1*
X9260005Y4866111D1*
X9252543Y4882298D1*
X9246374Y4899020D1*
X9241535Y4916175D1*
X9238058Y4933656D1*
X9235963Y4951356D1*
X9235263Y4969167D1*
X9235963Y4986977D1*
X9238058Y5004677D1*
X9241535Y5022159D1*
X9246374Y5039314D1*
X9252543Y5056036D1*
X9260005Y5072223D1*
X9268714Y5087774D1*
X9278616Y5102594D1*
X9289651Y5116591D1*
X9301750Y5129680D1*
X9314839Y5141779D1*
X9328836Y5152814D1*
X9343656Y5162716D1*
X9359207Y5171425D1*
X9375394Y5178887D1*
X9392116Y5185056D1*
X9409271Y5189895D1*
X9426753Y5193372D1*
X9444453Y5195467D1*
X9462263Y5196167D1*
X9480074Y5195467D1*
X9497774Y5193372D1*
X9515255Y5189895D1*
X9532410Y5185056D1*
X9549132Y5178887D1*
X9565319Y5171425D1*
X9580871Y5162716D1*
X9595691Y5152814D1*
X9609688Y5141779D1*
X9622777Y5129680D1*
X9634875Y5116591D1*
X9645910Y5102594D1*
X9655813Y5087774D1*
X9668574Y5063434D1*
X9681507Y5087774D1*
X9691410Y5102594D1*
X9702445Y5116591D1*
X9714543Y5129680D1*
X9727632Y5141779D1*
X9741629Y5152814D1*
X9756449Y5162716D1*
X9772001Y5171425D1*
X9788188Y5178887D1*
X9804910Y5185056D1*
X9822065Y5189895D1*
X9839546Y5193372D1*
X9857246Y5195467D1*
X9875057Y5196167D1*
X9892867Y5195467D1*
X9910567Y5193372D1*
X9928049Y5189895D1*
X9945204Y5185056D1*
X9961926Y5178887D1*
X9978113Y5171425D1*
X9993664Y5162716D1*
X10008484Y5152814D1*
X10022481Y5141779D1*
X10035570Y5129680D1*
X10047669Y5116591D1*
X10058704Y5102594D1*
X10068606Y5087774D1*
X10081367Y5063434D1*
X10094301Y5087774D1*
X10104203Y5102594D1*
X10115238Y5116591D1*
X10127337Y5129680D1*
X10140425Y5141779D1*
X10154423Y5152814D1*
X10169243Y5162716D1*
X10184794Y5171425D1*
X10200981Y5178887D1*
X10217703Y5185056D1*
X10234858Y5189895D1*
X10252339Y5193372D1*
X10270040Y5195467D1*
X10287850Y5196167D1*
X10305660Y5195467D1*
X10323361Y5193372D1*
X10340842Y5189895D1*
X10357997Y5185056D1*
X10374719Y5178887D1*
X10390906Y5171425D1*
X10406457Y5162716D1*
X10421277Y5152814D1*
X10435275Y5141779D1*
X10448363Y5129680D1*
X10460462Y5116591D1*
X10471497Y5102594D1*
X10481399Y5087774D1*
X10490108Y5072223D1*
X10497571Y5056036D1*
X10503740Y5039314D1*
X10508578Y5022159D1*
X10512055Y5004677D1*
X10514150Y4986977D1*
X10514850Y4969167D1*
X10514150Y4951356D1*
X10512055Y4933656D1*
X10508578Y4916175D1*
X10503740Y4899020D1*
X10497571Y4882298D1*
X10490108Y4866111D1*
X10481399Y4850559D1*
X10471497Y4835739D1*
X10460462Y4821742D1*
X10448363Y4808653D1*
X10435275Y4796555D1*
X10421277Y4785520D1*
X10406457Y4775617D1*
X10390906Y4766908D1*
X10374719Y4759446D1*
X10357997Y4753277D1*
X10340842Y4748439D1*
X10323361Y4744961D1*
X10305660Y4742866D1*
X10287850Y4742167D1*
X10270040Y4742866D1*
X10252339Y4744961D1*
X10234858Y4748439D1*
X10217703Y4753277D1*
X10200981Y4759446D1*
X10184794Y4766908D1*
X10169243Y4775617D1*
X10154423Y4785520D1*
X10140425Y4796555D1*
X10127337Y4808653D1*
X10115238Y4821742D1*
X10104203Y4835739D1*
X10094301Y4850559D1*
X10081540Y4874900D1*
X5107371Y3712555D2*
X5079628Y3714732D1*
X5052621Y3721216D1*
X5026960Y3731845D1*
X5003279Y3746357D1*
X4982159Y3764395D1*
X4964121Y3785515D1*
X4949609Y3809197D1*
X4938980Y3834857D1*
X4932496Y3861864D1*
X4930317Y3889553D1*
X4932496Y3917242D1*
X4938980Y3944249D1*
X4949609Y3969910D1*
X4964121Y3993591D1*
X4982159Y4014711D1*
X5003279Y4032749D1*
X5026960Y4047261D1*
X5052621Y4057890D1*
X5079628Y4064374D1*
X5107371Y4066551D1*
X5321204Y4066008D1*
X5348636Y4061663D1*
X5375052Y4053080D1*
X5399799Y4040471D1*
X5422269Y4024145D1*
X5441909Y4004506D1*
X5458234Y3982036D1*
X5470843Y3957288D1*
X5479426Y3930873D1*
X5483771Y3903441D1*
Y3875666D1*
X5479426Y3848234D1*
X5470843Y3821818D1*
X5458234Y3797071D1*
X5441909Y3774601D1*
X5422269Y3754961D1*
X5399799Y3738636D1*
X5375052Y3726027D1*
X5348636Y3717444D1*
X5321204Y3713099D1*
X5260650Y3712553D1*
X5107317Y3712644D1*
X4227707Y3996293D2*
X4354308D1*
X4354373Y4218577D1*
X4298108Y4274917D1*
X3699030Y4274970D1*
X3683181Y4275593D1*
X3667430Y4277457D1*
X3651874Y4280551D1*
X3636609Y4284857D1*
X3621728Y4290346D1*
X3607324Y4296987D1*
X3593485Y4304737D1*
X3580297Y4313549D1*
X3567841Y4323368D1*
X3539695Y4350634D1*
X3402538Y4488671D1*
X3392719Y4501127D1*
X3383907Y4514315D1*
X3376157Y4528154D1*
X3369516Y4542558D1*
X3364027Y4557439D1*
X3359721Y4572704D1*
X3356627Y4588260D1*
X3354763Y4604011D1*
X3354140Y4619860D1*
X3354763Y4635709D1*
X3356627Y4651460D1*
X3359721Y4667016D1*
X3364027Y4682281D1*
X3369516Y4697162D1*
X3376157Y4711566D1*
X3383907Y4725405D1*
X3392719Y4738593D1*
X3402538Y4751049D1*
X3413304Y4762696D1*
X3424951Y4773462D1*
X3437407Y4783281D1*
X3450595Y4792093D1*
X3464434Y4799843D1*
X3478838Y4806484D1*
X3493719Y4811973D1*
X3508984Y4816279D1*
X3524540Y4819373D1*
X3540291Y4821237D1*
X3556140Y4821860D1*
X3571989Y4821237D1*
X3587740Y4819373D1*
X3603296Y4816279D1*
X3618561Y4811973D1*
X3633442Y4806484D1*
X3647846Y4799843D1*
X3661685Y4792093D1*
X3674873Y4783281D1*
X3687329Y4773462D1*
X3715475Y4746196D1*
X3782696Y4678975D1*
X4381727Y4678970D1*
X4397575Y4678347D1*
X4413326Y4676483D1*
X4428883Y4673389D1*
X4444148Y4669083D1*
X4459029Y4663594D1*
X4473433Y4656953D1*
X4487271Y4649203D1*
X4500459Y4640391D1*
X4512915Y4630572D1*
X4541061Y4603306D1*
X4709976Y4433512D1*
X4719795Y4421056D1*
X4728607Y4407868D1*
X4736357Y4394030D1*
X4742997Y4379626D1*
X4748487Y4364745D1*
X4752792Y4349479D1*
X4755887Y4333923D1*
X4757751Y4318172D1*
X4758374Y4278990D1*
Y3996347D1*
X4908373Y3996293D1*
Y3592293D1*
X4883308D1*
X4883374Y2855293D1*
X4229374D1*
X4229373Y3592343D1*
X4204373Y3592293D1*
Y3996293D1*
X4227707D1*
X4275272Y1360497D2*
X4273595Y1337234D1*
X4269540Y1314266D1*
X4263150Y1291836D1*
X4254492Y1270179D1*
X4243658Y1249525D1*
X4230761Y1230092D1*
X4215939Y1212085D1*
X4199347Y1195694D1*
X4181161Y1181092D1*
X4161572Y1168433D1*
X4140788Y1157850D1*
X4119028Y1149457D1*
X4096521Y1143340D1*
X4073505Y1139565D1*
X4050224Y1138171D1*
X4026923Y1139174D1*
X4003847Y1142562D1*
X3981241Y1148301D1*
X3959343Y1156328D1*
X3938384Y1166560D1*
X3918586Y1178889D1*
X3900157Y1193184D1*
X3883293Y1209295D1*
X3868170Y1227051D1*
X3854949Y1246265D1*
X3843770Y1266734D1*
X3834750Y1288242D1*
X3827984Y1310562D1*
X3823545Y1333459D1*
X3821478Y1356690D1*
X3821806Y1380011D1*
X3824525Y1403175D1*
X3829607Y1425938D1*
X3836997Y1448059D1*
X3846619Y1469305D1*
X3858369Y1489452D1*
X3872125Y1508287D1*
X3887741Y1525610D1*
X3905052Y1541240D1*
X3923875Y1555012D1*
X3944012Y1566779D1*
X3965250Y1576418D1*
X3987365Y1583826D1*
X4010124Y1588927D1*
X4033285Y1591665D1*
X4056606Y1592012D1*
X4079839Y1589964D1*
X4102739Y1585544D1*
X4125065Y1578797D1*
X4146581Y1569794D1*
X4167059Y1558632D1*
X4186284Y1545427D1*
X4204052Y1530319D1*
X4220177Y1513468D1*
X4234487Y1495051D1*
X4246832Y1475263D1*
X4257082Y1454313D1*
X4265127Y1432421D1*
X4270884Y1409820D1*
X4274292Y1386747D1*
X4275320Y1365163D1*
X4275272Y1360497D1*
X7774317Y3238638D2*
X7772453Y3222887D1*
X7769359Y3207331D1*
X7765053Y3192065D1*
X7759564Y3177185D1*
X7752923Y3162781D1*
X7745173Y3148942D1*
X7736361Y3135754D1*
X7726542Y3123298D1*
X7715776Y3111651D1*
X7704129Y3100885D1*
X7691673Y3091065D1*
X7678485Y3082253D1*
X7664646Y3074503D1*
X7650242Y3067863D1*
X7635361Y3062373D1*
X7620096Y3058068D1*
X7604540Y3054974D1*
X7588789Y3053109D1*
X7572940Y3052487D1*
X7557091Y3053109D1*
X7541340Y3054974D1*
X7525784Y3058068D1*
X7510519Y3062373D1*
X7495638Y3067863D1*
X7481234Y3074503D1*
X7467395Y3082253D1*
X7454207Y3091065D1*
X7441751Y3100885D1*
X7430104Y3111651D1*
X7419338Y3123298D1*
X7409519Y3135754D1*
X7400707Y3148942D1*
X7392957Y3162781D1*
X7386316Y3177185D1*
X7380827Y3192065D1*
X7376521Y3207331D1*
X7373427Y3222887D1*
X7371563Y3238638D1*
X7370940Y3254487D1*
X7371563Y3270335D1*
X7373427Y3286086D1*
X7376521Y3301643D1*
X7380827Y3316908D1*
X7386316Y3331789D1*
X7392957Y3346193D1*
X7400707Y3360031D1*
X7409519Y3373219D1*
X7419338Y3385675D1*
X7430104Y3397322D1*
X7441751Y3408089D1*
X7454207Y3417908D1*
X7467395Y3426720D1*
X7481234Y3434470D1*
X7495638Y3441110D1*
X7510519Y3446600D1*
X7525784Y3450905D1*
X7541340Y3454000D1*
X7557091Y3455864D1*
X7572940Y3456487D1*
X7588789Y3455864D1*
X7604540Y3454000D1*
X7620096Y3450905D1*
X7635361Y3446600D1*
X7650242Y3441110D1*
X7664646Y3434470D1*
X7678485Y3426720D1*
X7691673Y3417908D1*
X7704129Y3408089D1*
X7715776Y3397322D1*
X7726542Y3385675D1*
X7736361Y3373219D1*
X7745173Y3360031D1*
X7752923Y3346193D1*
X7759564Y3331789D1*
X7765053Y3316908D1*
X7769359Y3301643D1*
X7772453Y3286086D1*
X7774317Y3270335D1*
X7774940Y3254487D1*
X7774317Y3238638D1*
X7291724D2*
X7289860Y3222887D1*
X7286765Y3207331D1*
X7282460Y3192065D1*
X7276970Y3177185D1*
X7270330Y3162781D1*
X7262580Y3148942D1*
X7253768Y3135754D1*
X7243949Y3123298D1*
X7233182Y3111651D1*
X7221535Y3100885D1*
X7209079Y3091065D1*
X7195891Y3082253D1*
X7182053Y3074503D1*
X7167649Y3067863D1*
X7152768Y3062373D1*
X7137503Y3058068D1*
X7121946Y3054974D1*
X7106195Y3053109D1*
X7090347Y3052487D1*
X7074498Y3053109D1*
X7058747Y3054974D1*
X7043191Y3058068D1*
X7027925Y3062373D1*
X7013045Y3067863D1*
X6998641Y3074503D1*
X6984802Y3082253D1*
X6971614Y3091065D1*
X6959158Y3100885D1*
X6947511Y3111651D1*
X6936745Y3123298D1*
X6926925Y3135754D1*
X6918113Y3148942D1*
X6910363Y3162781D1*
X6903723Y3177185D1*
X6898233Y3192065D1*
X6893928Y3207331D1*
X6890834Y3222887D1*
X6888969Y3238638D1*
X6888347Y3254487D1*
X6888969Y3270335D1*
X6890834Y3286086D1*
X6893928Y3301643D1*
X6898233Y3316908D1*
X6903723Y3331789D1*
X6910363Y3346193D1*
X6918113Y3360031D1*
X6926925Y3373219D1*
X6936745Y3385675D1*
X6947511Y3397322D1*
X6959158Y3408089D1*
X6971614Y3417908D1*
X6984802Y3426720D1*
X6998641Y3434470D1*
X7013045Y3441110D1*
X7027925Y3446600D1*
X7043191Y3450905D1*
X7058747Y3454000D1*
X7074498Y3455864D1*
X7090347Y3456487D1*
X7106195Y3455864D1*
X7121946Y3454000D1*
X7137503Y3450905D1*
X7152768Y3446600D1*
X7167649Y3441110D1*
X7182053Y3434470D1*
X7195891Y3426720D1*
X7209079Y3417908D1*
X7221535Y3408089D1*
X7233182Y3397322D1*
X7243949Y3385675D1*
X7253768Y3373219D1*
X7262580Y3360031D1*
X7270330Y3346193D1*
X7276970Y3331789D1*
X7282460Y3316908D1*
X7286765Y3301643D1*
X7289860Y3286086D1*
X7291724Y3270335D1*
X7292347Y3254487D1*
X7291724Y3238638D1*
X11229670Y1198933D2*
X11229421Y1164877D1*
X11227435Y1152341D1*
X11223513Y1140271D1*
X11217751Y1128962D1*
X11210291Y1118694D1*
X11201316Y1109719D1*
X11191048Y1102259D1*
X11179739Y1096497D1*
X11167669Y1092575D1*
X11155133Y1090589D1*
X11142441D1*
X11129905Y1092575D1*
X11117834Y1096497D1*
X11113351Y1098564D1*
X11102831Y1094299D1*
X11090490Y1091336D1*
X11073457Y1090340D1*
X11054463Y1091300D1*
X11042090Y1094236D1*
X11032742Y1094584D1*
X11020435Y1091483D1*
X11007794Y1090345D1*
X10995130Y1091199D1*
X10988864Y1092374D1*
X10980422Y1092574D1*
X10967886Y1090589D1*
X10904151D1*
X10896904Y1091485D1*
X10884264Y1090345D1*
X10871600Y1091197D1*
X10865334Y1092371D1*
X10845762Y1090450D1*
X10833074Y1090784D1*
X10820595Y1093098D1*
X10808631Y1097336D1*
X10797478Y1103393D1*
X10787409Y1111120D1*
X10778674Y1120328D1*
X10771486Y1130788D1*
X10730340Y1216751D1*
X10726418Y1228821D1*
X10724433Y1241357D1*
Y1254049D1*
X10726418Y1266585D1*
X10730340Y1278656D1*
X10736102Y1289965D1*
X10743562Y1300233D1*
X10752537Y1309208D1*
X10762805Y1316668D1*
X10774114Y1322430D1*
X10786185Y1326352D1*
X10798721Y1328337D1*
X10862456D1*
X10874992Y1326352D1*
X10887063Y1322430D1*
X10892504Y1320041D1*
X10904266Y1324811D1*
X10916629Y1327683D1*
X10934518Y1328587D1*
X10949606Y1328338D1*
X10962142Y1326352D1*
X10974235Y1322420D1*
X10992011Y1313553D1*
X11002369Y1306218D1*
X11007101Y1301946D1*
X11010897Y1301147D1*
X11023457Y1302974D1*
X11036148Y1302814D1*
X11048005Y1300915D1*
X11060541Y1302901D1*
X11083585Y1302946D1*
X11096159Y1301047D1*
X11100678Y1300915D1*
X11113214Y1302901D1*
X11142441D1*
X11155133D1*
X11167669Y1300915D1*
X11179739Y1296993D1*
X11191048Y1291231D1*
X11201316Y1283771D1*
X11210291Y1274796D1*
X11217751Y1264528D1*
X11223513Y1253219D1*
X11227435Y1241149D1*
X11229421Y1228613D1*
X11229670Y1198933D1*
X10917373Y2956327D2*
X10932270Y2970760D1*
X10943596Y2978857D1*
X10972323Y2993275D1*
X10985564Y2997577D1*
X10999315Y2999755D1*
X11040200Y3000029D1*
X11053089Y2999099D1*
X11066666Y2996014D1*
X11083012Y2989154D1*
X11104172Y2978235D1*
X11115388Y2969986D1*
X11141651Y2943489D1*
X11149853Y2932239D1*
X11164715Y2903246D1*
X11175763Y2870721D1*
X11179013Y2857183D1*
X11180105Y2843303D1*
X11179776Y2793014D1*
X11177492Y2779280D1*
X11165002Y2741599D1*
X11153331Y2717912D1*
X11146055Y2706041D1*
X11133631Y2692076D1*
X11114807Y2673669D1*
X11103520Y2665518D1*
X11074234Y2650678D1*
X11060993Y2646376D1*
X11047241Y2644198D1*
X11006121Y2643925D1*
X10992244Y2645041D1*
X10978711Y2648315D1*
X10962477Y2655396D1*
X10957102Y2658146D1*
X10946895Y2652461D1*
X10933884Y2647508D1*
X10920257Y2644652D1*
X10906352Y2643962D1*
X10892509Y2645456D1*
X10879071Y2649098D1*
X10866368Y2654796D1*
X10854713Y2662412D1*
X10844393Y2671757D1*
X10840870Y2675797D1*
X10832210Y2666824D1*
X10821181Y2658328D1*
X10808957Y2651662D1*
X10795842Y2646991D1*
X10782157Y2644428D1*
X10768240Y2644038D1*
X10754433Y2645830D1*
X10745238Y2648267D1*
X10731700Y2645017D1*
X10717820Y2643925D1*
X10703940Y2645017D1*
X10690402Y2648267D1*
X10683842Y2650690D1*
X10673021Y2647013D1*
X10659339Y2644437D1*
X10645422Y2644034D1*
X10631614Y2645812D1*
X10615767Y2650679D1*
X10602526Y2646376D1*
X10588775Y2644198D1*
X10574852D1*
X10561101Y2646376D1*
X10554331Y2648267D1*
X10540793Y2645017D1*
X10526913Y2643925D1*
X10409499Y2644198D1*
X10395747Y2646376D1*
X10388974Y2648267D1*
X10375436Y2645017D1*
X10361557Y2643925D1*
X10347677Y2645017D1*
X10334139Y2648267D1*
X10321276Y2653595D1*
X10309405Y2660870D1*
X10298819Y2669912D1*
X10289777Y2680499D1*
X10282502Y2692370D1*
X10277174Y2705232D1*
X10274588Y2715434D1*
X10271106Y2702798D1*
X10265407Y2690095D1*
X10257792Y2678440D1*
X10248447Y2668120D1*
X10237602Y2659388D1*
X10225525Y2652461D1*
X10212514Y2647508D1*
X10198887Y2644652D1*
X10184982Y2643962D1*
X10171139Y2645456D1*
X10157701Y2649098D1*
X10144998Y2654796D1*
X10133343Y2662412D1*
X10123023Y2671757D1*
X10119500Y2675797D1*
X10110840Y2666824D1*
X10099811Y2658328D1*
X10087587Y2651662D1*
X10074472Y2646991D1*
X10060787Y2644428D1*
X10046870Y2644038D1*
X10033063Y2645830D1*
X10023868Y2648267D1*
X10010330Y2645017D1*
X9996450Y2643925D1*
X9928850Y2644290D1*
X9915126Y2646637D1*
X9877843Y2659145D1*
X9868802Y2656999D1*
X9856397Y2650679D1*
X9843156Y2646376D1*
X9829405Y2644198D1*
X9703343Y2643925D1*
X9689464Y2645017D1*
X9675858Y2648267D1*
X9662320Y2645017D1*
X9648440Y2643925D1*
X9580843Y2644290D1*
X9567120Y2646637D1*
X9529844Y2659141D1*
X9520795Y2656999D1*
X9508390Y2650679D1*
X9495149Y2646376D1*
X9481398Y2644198D1*
X9363980Y2643925D1*
X9350100Y2645017D1*
X9336498Y2648267D1*
X9322960Y2645017D1*
X9309080Y2643925D1*
X9295200Y2645017D1*
X9281662Y2648267D1*
X9268800Y2653595D1*
X9256929Y2660870D1*
X9249559Y2666938D1*
X9239347Y2658929D1*
X9227206Y2652114D1*
X9214149Y2647281D1*
X9200497Y2644551D1*
X9186586Y2643990D1*
X9172758Y2645612D1*
X9162494Y2648267D1*
X9148956Y2645017D1*
X9135077Y2643925D1*
X9067476Y2644290D1*
X9053753Y2646637D1*
X9016494Y2659134D1*
X9004053Y2665382D1*
X8992742Y2673501D1*
X8972493Y2693133D1*
X8964850Y2680499D1*
X8955808Y2669912D1*
X8945221Y2660870D1*
X8933350Y2653595D1*
X8920488Y2648267D1*
X8906950Y2645017D1*
X8893070Y2643925D1*
X8879190Y2645017D1*
X8865652Y2648267D1*
X8852790Y2653595D1*
X8840919Y2660870D1*
X8830332Y2669912D1*
X8821290Y2680499D1*
X8814015Y2692370D1*
X8808687Y2705232D1*
X8805437Y2718770D1*
X8804345Y2732650D1*
Y2795085D1*
X8751622Y2861524D1*
X8744739Y2873627D1*
X8739834Y2886656D1*
X8737027Y2900293D1*
X8736389Y2914201D1*
X8737934Y2928038D1*
X8741625Y2941462D1*
X8747370Y2954144D1*
X8755028Y2965771D1*
X8764411Y2976057D1*
X8775288Y2984748D1*
X8787390Y2991631D1*
X8800420Y2996536D1*
X8814057Y2999343D1*
X8827965Y2999981D1*
X8841801Y2998436D1*
X8855226Y2994745D1*
X8867908Y2989000D1*
X8879535Y2981342D1*
X8889820Y2971959D1*
X8893044Y2968235D1*
X8901273Y2976851D1*
X8912263Y2985398D1*
X8924455Y2992121D1*
X8937549Y2996854D1*
X8951221Y2999480D1*
X8965137Y2999935D1*
X8978952Y2998208D1*
X8992326Y2994341D1*
X9004931Y2988429D1*
X9012710Y2983378D1*
X9032334Y2990471D1*
X9054811Y2997577D1*
X9068562Y2999755D1*
X9135077Y3000029D1*
X9148956Y2998936D1*
X9162559Y2995686D1*
X9176097Y2998936D1*
X9189977Y3000028D1*
X9203856Y2998936D1*
X9217394Y2995686D1*
X9230257Y2990358D1*
X9242128Y2983083D1*
X9249497Y2977016D1*
X9262721Y2986954D1*
X9275126Y2993275D1*
X9288368Y2997577D1*
X9302119Y2999755D1*
X9316041D1*
X9329792Y2997577D1*
X9336562Y2995686D1*
X9350100Y2998936D1*
X9363980Y3000028D1*
X9481398Y2999755D1*
X9495149Y2997577D1*
X9508390Y2993275D1*
X9520818Y2986939D1*
X9529412Y2984834D1*
X9568178Y2997577D1*
X9581929Y2999755D1*
X9648440Y3000029D1*
X9662320Y2998936D1*
X9675858Y2995686D1*
X9688720Y2990358D1*
X9694821Y2986939D1*
X9699342Y2987081D1*
X9712450Y2993331D1*
X9725723Y2997535D1*
X9739517Y2999612D1*
X9786758Y2999562D1*
X9800509Y2997384D1*
X9813775Y2993070D1*
X9842337Y2978860D1*
X9853719Y2970795D1*
X9870652Y2981696D1*
X9888597Y2988781D1*
X9916184Y2997577D1*
X9929935Y2999755D1*
X9996450Y3000029D1*
X10010330Y2998936D1*
X10023868Y2995686D1*
X10036730Y2990358D1*
X10048601Y2983084D1*
X10058657Y2975834D1*
X10069501Y2984565D1*
X10081578Y2991492D1*
X10094590Y2996445D1*
X10108216Y2999302D1*
X10122122Y2999991D1*
X10135964Y2998497D1*
X10149402Y2994856D1*
X10162105Y2989157D1*
X10173760Y2981542D1*
X10184080Y2972197D1*
X10193357Y2962133D1*
X10206861Y2974238D1*
X10218677Y2981601D1*
X10236570Y2988716D1*
X10264194Y2997577D1*
X10277945Y2999755D1*
X10361557Y3000028D1*
X10375436Y2998936D1*
X10389042Y2995686D1*
X10402580Y2998936D1*
X10416460Y3000029D1*
X10533875Y2999755D1*
X10547626Y2997577D1*
X10554356Y2995677D1*
X10570480Y2999302D1*
X10584385Y2999991D1*
X10598227Y2998497D1*
X10611665Y2994856D1*
X10624368Y2989157D1*
X10636023Y2981542D1*
X10650353Y2968926D1*
X10660198Y2978771D1*
X10671461Y2986954D1*
X10683866Y2993275D1*
X10697108Y2997577D1*
X10710859Y2999755D1*
X10724781D1*
X10738532Y2997577D1*
X10751774Y2993275D1*
X10764179Y2986954D1*
X10780027Y2975834D1*
X10790871Y2984565D1*
X10802948Y2991492D1*
X10815960Y2996445D1*
X10829586Y2999302D1*
X10843492Y2999991D1*
X10857334Y2998497D1*
X10870772Y2994856D1*
X10883475Y2989157D1*
X10895130Y2981542D1*
X10905450Y2972197D1*
X10914196Y2961329D1*
X11262633Y3306227D2*
X11226041Y3221268D1*
X11219058Y3209580D1*
X11210332Y3199129D1*
X11200079Y3190171D1*
X11188551Y3182928D1*
X11176031Y3177577D1*
X11162829Y3174251D1*
X11149269Y3173030D1*
X11135685Y3173946D1*
X11122411Y3176976D1*
X11109775Y3182045D1*
X11102938Y3185811D1*
X11090807Y3179629D1*
X11077858Y3175422D1*
X11064411Y3173292D1*
X11050796D1*
X11037348Y3175422D1*
X11024400Y3179629D1*
X11017539Y3182859D1*
X11003207Y3176946D1*
X10989930Y3173932D1*
X10976345Y3173031D1*
X10962786Y3174267D1*
X10950327Y3177390D1*
X10937641Y3174250D1*
X10924080Y3173030D1*
X10910496Y3173947D1*
X10897223Y3176978D1*
X10884587Y3182048D1*
X10878584Y3185324D1*
X10874179Y3183848D1*
X10858899Y3177272D1*
X10845660Y3174093D1*
X10827741Y3173025D1*
X10803805Y3173273D1*
X10790352Y3175363D1*
X10777391Y3179532D1*
X10756596Y3189750D1*
X10751609Y3189964D1*
X10730800Y3179629D1*
X10717852Y3175422D1*
X10704404Y3173292D1*
X10669145Y3173272D1*
X10655692Y3175362D1*
X10642731Y3179531D1*
X10633844Y3183726D1*
X10618892Y3177271D1*
X10605653Y3174093D1*
X10592080Y3173025D1*
X10578507Y3174093D1*
X10565268Y3177271D1*
X10552016Y3182859D1*
X10538705Y3177271D1*
X10525466Y3174093D1*
X10511893Y3173025D1*
X10498320Y3174093D1*
X10485081Y3177271D1*
X10471737Y3182911D1*
X10458349Y3177271D1*
X10445110Y3174093D1*
X10431537Y3173025D1*
X10417964Y3174093D1*
X10407987Y3176270D1*
X10394633Y3173621D1*
X10381028Y3173093D1*
X10367508Y3174701D1*
X10354406Y3178403D1*
X10342045Y3184110D1*
X10330728Y3191680D1*
X10320735Y3200927D1*
X10312312Y3211624D1*
X10301332Y3228075D1*
X10299232Y3221661D1*
X10300196Y3208080D1*
X10299024Y3194516D1*
X10295744Y3181301D1*
X10290437Y3168763D1*
X10283234Y3157209D1*
X10274313Y3146925D1*
X10263892Y3138162D1*
X10249331Y3129689D1*
X10231530Y3121090D1*
X10218549Y3116982D1*
X10205059Y3114955D1*
X10170236Y3115005D1*
X10156788Y3117135D1*
X10143816Y3121354D1*
X10117958Y3134222D1*
X10106846Y3142090D1*
X10093098Y3155509D1*
X10084374Y3165962D1*
X10080640Y3171693D1*
X10077860Y3174093D1*
X10059940Y3173025D1*
X10035994Y3173273D1*
X10026983Y3174093D1*
X10013410Y3173025D1*
X9999837Y3174093D1*
X9990005Y3176311D1*
X9973158Y3173292D1*
X9959542D1*
X9946095Y3175422D1*
X9933146Y3179630D1*
X9926286Y3182859D1*
X9912975Y3177271D1*
X9899736Y3174093D1*
X9886163Y3173025D1*
X9872590Y3174093D1*
X9859351Y3177271D1*
X9846007Y3182911D1*
X9832622Y3177271D1*
X9819383Y3174093D1*
X9805810Y3173025D1*
X9792237Y3174093D1*
X9778998Y3177271D1*
X9764214Y3183717D1*
X9749175Y3177271D1*
X9735936Y3174093D1*
X9717983Y3173025D1*
X9703318D1*
X9698240Y3163412D1*
X9690237Y3152397D1*
X9680610Y3142770D1*
X9669595Y3134767D1*
X9657464Y3128586D1*
X9644515Y3124379D1*
X9631068Y3122249D1*
X9617452D1*
X9604005Y3124379D1*
X9591056Y3128586D1*
X9578925Y3134767D1*
X9567910Y3142770D1*
X9558283Y3152397D1*
X9550280Y3163412D1*
X9543022Y3178464D1*
X9520098Y3189263D1*
X9512815Y3193090D1*
X9486247Y3179629D1*
X9473298Y3175422D1*
X9459851Y3173292D1*
X9424762Y3173272D1*
X9415743Y3174093D1*
X9402170Y3173025D1*
X9388597Y3174093D1*
X9375358Y3177271D1*
X9360574Y3183717D1*
X9345532Y3177271D1*
X9332293Y3174093D1*
X9314340Y3173025D1*
X9290261Y3173273D1*
X9281253Y3174093D1*
X9267680Y3173025D1*
X9254107Y3174093D1*
X9244275Y3176310D1*
X9227428Y3173292D1*
X9118533Y3173025D1*
X9104960Y3174093D1*
X9091721Y3177272D1*
X9084097Y3180198D1*
X9069828Y3175422D1*
X9056381Y3173292D1*
X9027521Y3173025D1*
X9013924Y3174122D1*
X8991287Y3173025D1*
X8977714Y3174093D1*
X8964475Y3177271D1*
X8954192Y3181423D1*
X8936369Y3175677D1*
X8922949Y3173382D1*
X8893183Y3173025D1*
X8879610Y3174093D1*
X8866346Y3177281D1*
X8854157Y3181399D1*
X8843792Y3177271D1*
X8830553Y3174093D1*
X8816980Y3173025D1*
X8802493Y3174275D1*
X8787962Y3173026D1*
X8759129Y3173292D1*
X8745682Y3175422D1*
X8732733Y3179629D1*
X8705986Y3193303D1*
X8694965Y3201343D1*
X8671146Y3224957D1*
X8663079Y3235924D1*
X8656828Y3248019D1*
X8647174Y3276344D1*
X8643926Y3289566D1*
X8642785Y3306488D1*
X8643052Y3324888D1*
X8645182Y3338335D1*
X8654417Y3367226D1*
X8659693Y3379777D1*
X8666868Y3391348D1*
X8681304Y3407195D1*
X8695100Y3420613D1*
X8706115Y3428616D1*
X8727134Y3439485D1*
X8733368Y3442299D1*
X8736819Y3446127D1*
X8743001Y3458258D1*
X8751003Y3469273D1*
X8760631Y3478900D1*
X8771645Y3486903D1*
X8783776Y3493084D1*
X8796725Y3497291D1*
X8810172Y3499421D1*
X8823788D1*
X8837235Y3497291D1*
X8850184Y3493084D1*
X8862315Y3486903D1*
X8873329Y3478900D1*
X8882957Y3469273D1*
X8890959Y3458258D1*
X8895971Y3448665D1*
X8922346Y3448341D1*
X8935782Y3446140D1*
X8954220Y3440324D1*
X8964475Y3444399D1*
X8977714Y3447577D1*
X8991287Y3448645D1*
X9004860Y3447577D1*
X9018099Y3444399D1*
X9031351Y3438811D1*
X9044661Y3444398D1*
X9057900Y3447577D1*
X9062155Y3448080D1*
X9073298Y3461082D1*
X9084099Y3471500D1*
X9095116Y3479500D1*
X9116117Y3490359D1*
X9128735Y3495473D1*
X9141998Y3498551D1*
X9160749Y3499519D1*
X9190871Y3499251D1*
X9204318Y3497121D1*
X9217291Y3492903D1*
X9225791Y3488914D1*
X9240868Y3495442D1*
X9254107Y3498620D1*
X9267680Y3499689D1*
X9281253Y3498620D1*
X9294492Y3495442D1*
X9307071Y3490232D1*
X9318679Y3483118D1*
X9329032Y3474276D1*
X9337875Y3463923D1*
X9344989Y3452314D1*
X9348918Y3443206D1*
X9360515Y3437989D1*
X9375358Y3444399D1*
X9388597Y3447577D1*
X9402170Y3448645D1*
X9416657Y3447395D1*
X9431313Y3448645D1*
X9458791Y3448455D1*
X9472264Y3446489D1*
X9485263Y3442441D1*
X9507564Y3431701D1*
X9519194Y3431786D1*
X9540240Y3442136D1*
X9553201Y3446306D1*
X9566681Y3448398D1*
X9601921Y3448378D1*
X9610687Y3447577D1*
X9624260Y3448645D1*
X9637833Y3447577D1*
X9651072Y3444399D1*
X9662321Y3439801D1*
X9673648Y3444398D1*
X9686887Y3447577D1*
X9704841Y3448645D1*
X9728514Y3448427D1*
X9741977Y3446399D1*
X9754957Y3442290D1*
X9775030Y3432553D1*
X9795657Y3442441D1*
X9808656Y3446490D1*
X9822155Y3448455D1*
X9856418Y3448378D1*
X9869865Y3446248D1*
X9876447Y3444389D1*
X9882256Y3444718D1*
X9895533Y3447736D1*
X9916757Y3448645D1*
X9936604Y3448378D1*
X9952777Y3447577D1*
X9966350Y3448645D1*
X9979923Y3447577D1*
X9989755Y3445359D1*
X10006602Y3448378D1*
X10020218D1*
X10028980Y3447577D1*
X10046900Y3448645D1*
X10070035Y3448455D1*
X10083507Y3446490D1*
X10096507Y3442441D1*
X10113549Y3434317D1*
X10127645Y3439005D1*
X10141092Y3441134D1*
X10154708D1*
X10163716Y3440372D1*
X10181423Y3441402D1*
X10199114Y3441400D1*
X10201003Y3442827D1*
X10206710Y3455189D1*
X10214280Y3466505D1*
X10223527Y3476498D1*
X10234224Y3484921D1*
X10246107Y3491568D1*
X10258883Y3496273D1*
X10272237Y3498923D1*
X10285842Y3499450D1*
X10299362Y3497842D1*
X10312464Y3494140D1*
X10324825Y3488433D1*
X10336142Y3480863D1*
X10346135Y3471616D1*
X10354558Y3460919D1*
X10381830Y3420057D1*
X10394524Y3429166D1*
X10421387Y3442441D1*
X10434386Y3446489D1*
X10447885Y3448455D1*
X10482144Y3448378D1*
X10495592Y3446248D1*
X10502174Y3444389D1*
X10507994Y3444721D1*
X10521270Y3447737D1*
X10542487Y3448645D1*
X10562334Y3448378D1*
X10578507Y3447577D1*
X10592080Y3448645D1*
X10605653Y3447577D1*
X10618892Y3444399D1*
X10633723Y3437927D1*
X10648885Y3444399D1*
X10662124Y3447577D1*
X10680077Y3448645D1*
X10704404Y3448378D1*
X10717852Y3446248D1*
X10730825Y3442030D1*
X10751497Y3431932D1*
X10757259Y3432421D1*
X10777153Y3442041D1*
X10790102Y3446248D1*
X10803549Y3448378D1*
X10837835Y3448455D1*
X10851307Y3446490D1*
X10864307Y3442441D1*
X10886584Y3431714D1*
X10898151Y3424533D1*
X10911350Y3412699D1*
X10913104Y3410924D1*
X10923308Y3423232D1*
X10933661Y3432074D1*
X10945269Y3439188D1*
X10957848Y3444399D1*
X10971087Y3447577D1*
X10978411Y3448400D1*
X10983624Y3458258D1*
X10991627Y3469273D1*
X11001254Y3478900D1*
X11012269Y3486903D1*
X11024400Y3493084D1*
X11037348Y3497291D1*
X11050796Y3499421D1*
X11064411D1*
X11077858Y3497291D1*
X11090807Y3493084D1*
X11102938Y3486903D1*
X11113953Y3478900D1*
X11123580Y3469273D1*
X11131583Y3458258D1*
X11137764Y3446127D1*
X11139542Y3441308D1*
X11148349Y3436809D1*
X11159904Y3442452D1*
X11172905Y3446496D1*
X11186378Y3448456D1*
X11199992Y3448285D1*
X11213412Y3445986D1*
X11226306Y3441616D1*
X11238359Y3435283D1*
X11249272Y3427142D1*
X11258777Y3417395D1*
X11266641Y3406280D1*
X11272669Y3394072D1*
X11276713Y3381072D1*
X11278673Y3367599D1*
X11278502Y3353985D1*
X11276203Y3340565D1*
X11271833Y3327670D1*
X11262633Y3306227D1*
X4048320Y1592072D2*
D18*
Y1138254D1*
X3821411Y1365163D2*
X4275229D1*
D25*
X4048317Y2651153D3*
D26*
X9875057Y4969167D3*
X10287850D3*
D25*
X2254253Y2651153D3*
D27*
X5207317Y3889553D3*
D18*
X1206393Y3651383D3*
D25*
X3159223Y3540247D3*
D18*
X1428667Y3873657D3*
X1539803Y3984793D3*
D25*
X2063733Y1777937D3*
D18*
X1984350Y4429340D3*
X1762077Y4207067D3*
D25*
X6334557Y2127223D3*
D18*
X1873213Y4318203D3*
X2095487Y4540477D3*
D25*
X4683383Y2095470D3*
D18*
X2206623Y4651613D3*
X2317760Y4762750D3*
D25*
X9621027Y2063717D3*
D18*
X1650940Y4095930D3*
X2428897Y4873887D3*
D25*
X11176940Y2063717D3*
D18*
X2540033Y4985023D3*
X1095257Y3540247D3*
D25*
X11208693Y3905410D3*
D18*
X2651170Y5096160D3*
D26*
X9462263Y4969167D3*
D25*
X9605150Y3905410D3*
D18*
X2762307Y5207297D3*
D28*
X4556373Y3794293D3*
Y3540293D3*
Y3286293D3*
Y3032293D3*
Y2778187D3*
D29*
X4048320Y1365163D3*
D18*
X1317530Y3762520D3*
D31*
X7572940Y3254487D3*
X7090347D3*
X11148787Y1222267D2*
D19*
Y1171223D1*
X11192097Y3361880D2*
D22*
X11148297Y3259790D1*
X11104663Y3361880D1*
X11057603Y3412923D2*
Y3259790D1*
X10984660Y3361880D2*
X11057603Y3288937D1*
X11028460Y3318080D2*
X10977417Y3259790D1*
X10923113Y3274447D2*
X10930360Y3267037D1*
X10923113Y3259790D1*
X10915703Y3267037D1*
X10923113Y3274447D1*
X10781043Y3339980D2*
X10795700Y3354637D1*
X10810357Y3361880D1*
X10832087D1*
X10846743Y3354637D1*
X10861230Y3339980D1*
X10868643Y3318080D1*
Y3303590D1*
X10861230Y3281690D1*
X10846743Y3267203D1*
X10832087Y3259790D1*
X10810357D1*
X10795700Y3267203D1*
X10781043Y3281690D1*
X10697597Y3361880D2*
X10712083Y3354637D1*
X10726740Y3339980D1*
X10733983Y3318080D1*
Y3303590D1*
X10726740Y3281690D1*
X10712083Y3267203D1*
X10697597Y3259790D1*
X10675697D1*
X10661040Y3267203D1*
X10646553Y3281690D1*
X10639140Y3303590D1*
Y3318080D1*
X10646553Y3339980D1*
X10661040Y3354637D1*
X10675697Y3361880D1*
X10697597D1*
X10592080D2*
Y3259790D1*
Y3332737D2*
X10570180Y3354637D1*
X10555527Y3361880D1*
X10533793D1*
X10519137Y3354637D1*
X10511893Y3332737D1*
Y3259790D1*
Y3332737D2*
X10489993Y3354637D1*
X10475337Y3361880D1*
X10453607D1*
X10438950Y3354637D1*
X10431537Y3332737D1*
Y3259790D1*
X10384480D2*
X10282390Y3412753D1*
X10147900Y3354637D2*
Y3237890D1*
X10155143Y3216160D1*
X10162390Y3208747D1*
X10177043Y3201503D1*
X10198943D1*
X10213433Y3208747D1*
X10147900Y3332737D2*
X10162390Y3347223D1*
X10177043Y3354637D1*
X10198943D1*
X10213433Y3347223D1*
X10228090Y3332737D1*
X10235333Y3310837D1*
Y3296180D1*
X10228090Y3274447D1*
X10213433Y3259790D1*
X10198943Y3252550D1*
X10177043D1*
X10162390Y3259790D1*
X10147900Y3274447D1*
X10013410Y3361880D2*
Y3259790D1*
Y3339980D2*
X10027900Y3354637D1*
X10042553Y3361880D1*
X10064287D1*
X10078943Y3354637D1*
X10093430Y3339980D1*
X10100843Y3318080D1*
Y3303590D1*
X10093430Y3281690D1*
X10078943Y3267203D1*
X10064287Y3259790D1*
X10042553D1*
X10027900Y3267203D1*
X10013410Y3281690D1*
X9966350Y3361880D2*
Y3259790D1*
Y3332737D2*
X9944453Y3354637D1*
X9929797Y3361880D1*
X9908063D1*
X9893410Y3354637D1*
X9886163Y3332737D1*
Y3259790D1*
Y3332737D2*
X9864263Y3354637D1*
X9849610Y3361880D1*
X9827877D1*
X9813220Y3354637D1*
X9805810Y3332737D1*
Y3259790D1*
X9758750Y3318080D2*
X9671317D1*
Y3332737D1*
X9678560Y3347390D1*
X9685807Y3354637D1*
X9700460Y3361880D1*
X9722363D1*
X9736850Y3354637D1*
X9751507Y3339980D1*
X9758750Y3318080D1*
Y3303590D1*
X9751507Y3281690D1*
X9736850Y3267203D1*
X9722363Y3259790D1*
X9700460D1*
X9685807Y3267203D1*
X9671317Y3281690D1*
X9624260Y3361880D2*
Y3208747D1*
Y3339980D2*
X9609603Y3354467D1*
X9595113Y3361880D1*
X9573213D1*
X9558560Y3354467D1*
X9544073Y3339980D1*
X9536660Y3318080D1*
Y3303423D1*
X9544073Y3281690D1*
X9558560Y3267037D1*
X9573213Y3259790D1*
X9595113D1*
X9609603Y3267037D1*
X9624260Y3281690D1*
X9402170Y3361880D2*
Y3259790D1*
Y3339980D2*
X9416657Y3354637D1*
X9431313Y3361880D1*
X9453043D1*
X9467700Y3354637D1*
X9482187Y3339980D1*
X9489600Y3318080D1*
Y3303590D1*
X9482187Y3281690D1*
X9467700Y3267203D1*
X9453043Y3259790D1*
X9431313D1*
X9416657Y3267203D1*
X9402170Y3281690D1*
X9267680Y3412923D2*
Y3259790D1*
Y3339980D2*
X9282167Y3354637D1*
X9296820Y3361880D1*
X9318720D1*
X9333210Y3354637D1*
X9347867Y3339980D1*
X9355110Y3318080D1*
Y3303590D1*
X9347867Y3281690D1*
X9333210Y3267203D1*
X9318720Y3259790D1*
X9296820D1*
X9282167Y3267203D1*
X9267680Y3281690D1*
X9213207Y3376367D2*
Y3383610D1*
X9205963Y3398267D1*
X9198720Y3405510D1*
X9184063Y3412753D1*
X9154920D1*
X9140433Y3405510D1*
X9133187Y3398267D1*
X9125777Y3383610D1*
Y3369123D1*
X9133187Y3354467D1*
X9147677Y3332737D1*
X9220620Y3259790D1*
X9118533D1*
X9071473Y3361880D2*
Y3288937D1*
X9064230Y3267203D1*
X9049573Y3259790D1*
X9027673D1*
X9013187Y3267203D1*
X8991287Y3288937D1*
Y3361880D2*
Y3259790D1*
X8864040Y3339980D2*
X8871283Y3354637D1*
X8893183Y3361880D1*
X8915083D1*
X8936983Y3354637D1*
X8944227Y3339980D1*
X8936983Y3325490D1*
X8922327Y3318080D1*
X8885940Y3310837D1*
X8871283Y3303590D1*
X8864040Y3288937D1*
Y3281690D1*
X8871283Y3267203D1*
X8893183Y3259790D1*
X8915083D1*
X8936983Y3267203D1*
X8944227Y3281690D1*
X8816980Y3412923D2*
Y3259790D1*
Y3339980D2*
X8802323Y3354637D1*
X8787837Y3361880D1*
X8765937D1*
X8751450Y3354637D1*
X8736793Y3339980D1*
X8729550Y3318080D1*
Y3303590D1*
X8736793Y3281690D1*
X8751450Y3267203D1*
X8765937Y3259790D1*
X8787837D1*
X8802323Y3267203D1*
X8816980Y3281690D1*
X11148787Y1200367D2*
D19*
X11145080Y1211317D1*
X11137837Y1218643D1*
X11130510Y1222267D1*
X11119560D1*
X11096030Y1200367D2*
X11052313D1*
Y1207693D1*
X11055937Y1215023D1*
X11059560Y1218643D1*
X11066887Y1222267D1*
X11077837D1*
X11085080Y1218643D1*
X11092407Y1211317D1*
X11096030Y1200367D1*
Y1193123D1*
X11092407Y1182173D1*
X11085080Y1174930D1*
X11077837Y1171223D1*
X11066887D1*
X11059560Y1174930D1*
X11052313Y1182173D1*
X11028787Y1222267D2*
X11006887Y1171223D1*
X10985070Y1222267D1*
X10957833Y1229510D2*
Y1233133D1*
X10954210Y1240460D1*
X10950590Y1244080D1*
X10943260Y1247703D1*
X10928690D1*
X10921447Y1244080D1*
X10917823Y1240460D1*
X10914120Y1233133D1*
Y1225890D1*
X10917823Y1218560D1*
X10925067Y1207693D1*
X10961540Y1171223D1*
X10910497D1*
X10883343Y1178550D2*
X10886967Y1174843D1*
X10883343Y1171223D1*
X10879640Y1174843D1*
X10883343Y1178550D1*
X10841537Y1171223D2*
X10805067Y1247703D1*
X10856110D1*
X10963823Y2868853D2*
D23*
X10972277Y2885753D1*
X10989373Y2902853D1*
X11006277Y2911303D1*
X11040280D1*
X11057377Y2902853D1*
X11074280Y2885753D1*
X11082927Y2868853D1*
X11091380Y2843303D1*
Y2800653D1*
X11082927Y2775300D1*
X11074280Y2758200D1*
X11057377Y2741300D1*
X11040280Y2732650D1*
X11006277D1*
X10989373Y2741300D1*
X10972277Y2758200D1*
X10963823Y2775300D1*
Y2800653D1*
X11006277D1*
X10772720Y2732650D2*
X10840920Y2911303D1*
X10908923Y2732650D1*
X10883373Y2792203D2*
X10798270D1*
X10581813Y2732650D2*
Y2911303D1*
X10649817Y2732650D1*
X10717820Y2911303D1*
Y2732650D1*
X10416460Y2911303D2*
X10526913D1*
Y2732650D1*
X10416460D1*
X10526913Y2826203D2*
X10458910D1*
X10361557Y2817753D2*
X10284907D1*
X10259553Y2826203D1*
X10250907Y2834850D1*
X10242453Y2851753D1*
Y2877303D1*
X10250907Y2894207D1*
X10259553Y2902853D1*
X10284907Y2911303D1*
X10361557D1*
Y2732650D1*
X10051350D2*
X10119550Y2911303D1*
X10187553Y2732650D1*
X10162003Y2792203D2*
X10076900D1*
X9996450Y2911303D2*
Y2732650D1*
X9936897D1*
X9911347Y2741300D1*
X9894250Y2758200D1*
X9885797Y2775300D1*
X9877347Y2800653D1*
Y2843303D1*
X9885797Y2868853D1*
X9894250Y2885753D1*
X9911347Y2902853D1*
X9936897Y2911303D1*
X9996450D1*
X9813797Y2868657D2*
Y2877107D1*
X9805347Y2894207D1*
X9796893Y2902657D1*
X9779797Y2911110D1*
X9745793D1*
X9728893Y2902657D1*
X9720440Y2894207D1*
X9711793Y2877107D1*
Y2860203D1*
X9720440Y2843107D1*
X9737343Y2817753D1*
X9822443Y2732650D1*
X9703343D1*
X9648440Y2911303D2*
Y2732650D1*
X9588890D1*
X9563340Y2741300D1*
X9546240Y2758200D1*
X9537790Y2775300D1*
X9529340Y2800653D1*
Y2843303D1*
X9537790Y2868853D1*
X9546240Y2885753D1*
X9563340Y2902853D1*
X9588890Y2911303D1*
X9648440D1*
X9363980D2*
X9474437D1*
Y2732650D1*
X9363980D1*
X9474437Y2826203D2*
X9406433D1*
X9189977Y2911303D2*
Y2732650D1*
X9309080Y2911303D1*
Y2732650D1*
X9135077Y2911303D2*
Y2732650D1*
X9075523D1*
X9049973Y2741300D1*
X9032877Y2758200D1*
X9024423Y2775300D1*
X9015973Y2800653D1*
Y2843303D1*
X9024423Y2868853D1*
X9032877Y2885753D1*
X9049973Y2902853D1*
X9075523Y2911303D1*
X9135077D1*
X8961070D2*
X8893070Y2826203D1*
Y2732650D1*
X8825067Y2911303D2*
X8893070Y2826203D1*
X4556373Y8096870D2*
D17*
Y8604900D1*
X4381727Y8779547D1*
X3699030D1*
X3556140Y8922437D1*
D3*
D32*
X6890240Y7318893D3*
X7382417D3*
X1063046Y9497487D2*
D14*
X4382238D1*
X4762290D2*
X4893931D1*
X5139634D2*
X5656092D1*
X5901704D2*
X8383176D1*
X8763228D2*
X9433449D1*
X9491118D2*
X9846249D1*
X9903918D2*
X10258957D1*
X10316717D2*
X12066561D1*
X1063046Y9447820D2*
X1251105D1*
X1447499D2*
X4382238D1*
X4762290D2*
X4836600D1*
X5196965D2*
X5598671D1*
X5959035D2*
X6442772D1*
X6639165D2*
X8383176D1*
X8763228D2*
X9313957D1*
X9610520D2*
X9726757D1*
X10023319D2*
X10139556D1*
X10436118D2*
X11682108D1*
X11878501D2*
X12066561D1*
X1063046Y9398153D2*
X1157863D1*
X1540741D2*
X4382238D1*
X4762290D2*
X4805520D1*
X5228137D2*
X5567590D1*
X5990207D2*
X6349530D1*
X6732408D2*
X8383176D1*
X8763228D2*
X9268749D1*
X9655819D2*
X9681506D1*
X10068618D2*
X10094348D1*
X10481418D2*
X11588866D1*
X11971743D2*
X12066561D1*
X1063046Y9348487D2*
X1107915D1*
X1590689D2*
X4382238D1*
X4762199D2*
X4789296D1*
X5244270D2*
X5551366D1*
X6006340D2*
X6299582D1*
X6782355D2*
X8383176D1*
X8763137D2*
X9243592D1*
X10506483D2*
X11538918D1*
X12021691D2*
X12066561D1*
X1622772Y9298820D2*
X4415233D1*
X4729204D2*
X4784829D1*
X5248736D2*
X5546900D1*
X6010806D2*
X6267499D1*
X6814439D2*
X8416171D1*
X8730142D2*
X9231926D1*
X10518241D2*
X11506743D1*
X1643007Y9249153D2*
X4791392D1*
X5242173D2*
X5553462D1*
X6004335D2*
X6247264D1*
X6834673D2*
X9231379D1*
X10518697D2*
X11486600D1*
X1653762Y9199487D2*
X4809986D1*
X5223579D2*
X5572056D1*
X5985650D2*
X6236509D1*
X6845428D2*
X9242043D1*
X10508033D2*
X11475845D1*
X1656132Y9149820D2*
X4844712D1*
X5188853D2*
X5606783D1*
X5951014D2*
X6234139D1*
X6847798D2*
X7793918D1*
X8114087D2*
X9265741D1*
X10484335D2*
X11473475D1*
X1650207Y9100153D2*
X3455103D1*
X3657147D2*
X4910793D1*
X5122772D2*
X5672954D1*
X5884842D2*
X6240064D1*
X6841874D2*
X7731483D1*
X8176522D2*
X9308671D1*
X9615897D2*
X9721470D1*
X10028697D2*
X10134270D1*
X10441496D2*
X11479400D1*
X1635533Y9050487D2*
X3394947D1*
X3718762D2*
X6254738D1*
X6827199D2*
X7692746D1*
X8215259D2*
X9406561D1*
X9518007D2*
X9819361D1*
X9930806D2*
X10232069D1*
X10343605D2*
X11494074D1*
X1610559Y9000820D2*
X3364960D1*
X3768436D2*
X6279712D1*
X6802316D2*
X7667772D1*
X8240142D2*
X11518957D1*
X12041561D2*
X12066561D1*
X1063046Y8951153D2*
X1126691D1*
X1571913D2*
X3351197D1*
X4493319D2*
X6318358D1*
X6763579D2*
X7653098D1*
X8254908D2*
X11557694D1*
X12002915D2*
X12066561D1*
X1063046Y8901487D2*
X1189126D1*
X1509478D2*
X3350194D1*
X4550467D2*
X6380793D1*
X6701145D2*
X7647173D1*
X8260832D2*
X11620129D1*
X11940480D2*
X12066561D1*
X1063046Y8851820D2*
X3361861D1*
X4600142D2*
X7649452D1*
X8258462D2*
X12066561D1*
X1063046Y8802153D2*
X3388840D1*
X4649816D2*
X7660207D1*
X8247707D2*
X12066561D1*
X1063046Y8752487D2*
X3435415D1*
X4699491D2*
X7680441D1*
X8227473D2*
X12066561D1*
X1063046Y8702820D2*
X3485090D1*
X4738046D2*
X7712525D1*
X8195480D2*
X12066561D1*
X1063046Y8653153D2*
X3534764D1*
X4757551D2*
X7762473D1*
X8145533D2*
X12066561D1*
X1063046Y8603487D2*
X3595012D1*
X4763384D2*
X7855533D1*
X8052382D2*
X12066561D1*
X1063046Y8553820D2*
X4316796D1*
X4763384D2*
X12066561D1*
X1063046Y8504153D2*
X4349335D1*
X4763384D2*
X12066561D1*
X1063046Y8454487D2*
X4349335D1*
X4763384D2*
X12066561D1*
X1063046Y8404820D2*
X3734829D1*
X3949087D2*
X4349335D1*
X4763384D2*
X12066561D1*
X1063046Y8355153D2*
X3661822D1*
X4022095D2*
X4349335D1*
X4763384D2*
X5033384D1*
X5381262D2*
X12066561D1*
X1063046Y8305487D2*
X3622538D1*
X4061379D2*
X4349335D1*
X4763384D2*
X4966392D1*
X5448254D2*
X12066561D1*
X1063046Y8255820D2*
X3599660D1*
X4084348D2*
X4199400D1*
X5477421D2*
X12066561D1*
X1063046Y8206153D2*
X3588449D1*
X4095559D2*
X4199400D1*
X5488723D2*
X12066561D1*
X1063046Y8156487D2*
X3587447D1*
X4096561D2*
X4199400D1*
X5485715D2*
X12066561D1*
X1063046Y8106820D2*
X3596470D1*
X4087447D2*
X4199400D1*
X4913410D2*
X4947227D1*
X5467395D2*
X12066561D1*
X1063046Y8057153D2*
X3616796D1*
X4067121D2*
X4199400D1*
X4913410D2*
X4987811D1*
X5426835D2*
X12066561D1*
X1063046Y8007487D2*
X3652069D1*
X4031848D2*
X4199400D1*
X4913410D2*
X12066561D1*
X1063046Y7957820D2*
X3714686D1*
X3969230D2*
X4199400D1*
X4913410D2*
X12066561D1*
X1063046Y7908153D2*
X4199400D1*
X4913410D2*
X12066561D1*
X1063046Y7858487D2*
X4224374D1*
X4888345D2*
X12066561D1*
X1063046Y7808820D2*
X4224374D1*
X4888345D2*
X12066561D1*
X1063046Y7759153D2*
X4224374D1*
X4888345D2*
X8737004D1*
X8896939D2*
X9063944D1*
X9347655D2*
X10202538D1*
X10362473D2*
X10977642D1*
X11137577D2*
X11627512D1*
X11933007D2*
X12066561D1*
X1063046Y7709487D2*
X4224374D1*
X4888345D2*
X6952824D1*
X7227876D2*
X7435350D1*
X7710493D2*
X8676027D1*
X11271288D2*
X11576743D1*
X11983866D2*
X12066561D1*
X1063046Y7659820D2*
X4224374D1*
X4888345D2*
X6911444D1*
X7269257D2*
X7394061D1*
X7751874D2*
X8646132D1*
X11283775D2*
X11547030D1*
X12013579D2*
X12066561D1*
X1063046Y7610153D2*
X4224374D1*
X4888345D2*
X6890480D1*
X7290220D2*
X7373007D1*
X7772837D2*
X8637746D1*
X11268189D2*
X11530624D1*
X12029895D2*
X12066561D1*
X1063046Y7560487D2*
X4224374D1*
X4888345D2*
X6883371D1*
X7297329D2*
X7365988D1*
X7779947D2*
X8648228D1*
X11246861D2*
X11524973D1*
X12035637D2*
X12066561D1*
X1063046Y7510820D2*
X4224374D1*
X4888345D2*
X6888749D1*
X7291952D2*
X7371275D1*
X7774569D2*
X8682681D1*
X11223072D2*
X11529257D1*
X12031353D2*
X12066561D1*
X1063046Y7461153D2*
X4224374D1*
X4888345D2*
X6907525D1*
X7273085D2*
X7390142D1*
X7755702D2*
X9548475D1*
X9700025D2*
X10085233D1*
X10289191D2*
X11544022D1*
X12016496D2*
X12066561D1*
X1063046Y7411487D2*
X4224374D1*
X4888345D2*
X6945350D1*
X7235350D2*
X7427876D1*
X7717967D2*
X11571639D1*
X11988970D2*
X12066561D1*
X1063046Y7361820D2*
X4224374D1*
X4888345D2*
X7033579D1*
X7147121D2*
X7516105D1*
X7629738D2*
X11618579D1*
X11941939D2*
X12066561D1*
X1063046Y7312153D2*
X4224374D1*
X4888345D2*
X11723488D1*
X11837121D2*
X12066561D1*
X1063046Y7262487D2*
X4224374D1*
X4888345D2*
X8745845D1*
X11130741D2*
X12066561D1*
X1063046Y7212820D2*
X4224374D1*
X4888345D2*
X8731353D1*
X11166379D2*
X12066561D1*
X1063046Y7163153D2*
X4224374D1*
X4888345D2*
X7792277D1*
X8020572D2*
X8747303D1*
X11183423D2*
X12066561D1*
X1063046Y7113487D2*
X7723007D1*
X8089751D2*
X8786678D1*
X11185064D2*
X12066561D1*
X1063046Y7063820D2*
X7685090D1*
X8127759D2*
X8799348D1*
X11176770D2*
X12066561D1*
X1063046Y7014153D2*
X7662941D1*
X8149816D2*
X8801900D1*
X11154803D2*
X12066561D1*
X1063046Y6964487D2*
X7652460D1*
X8160298D2*
X8834530D1*
X8951626D2*
X9005337D1*
X10246079D2*
X10302980D1*
X11102030D2*
X12066561D1*
X1063046Y6914820D2*
X7652095D1*
X8160663D2*
X12066561D1*
X1063046Y6865153D2*
X7661848D1*
X8150910D2*
X12066561D1*
X1063046Y6815487D2*
X7682993D1*
X8129764D2*
X12066561D1*
X1063046Y6765820D2*
X7719543D1*
X8093215D2*
X12066561D1*
X1063046Y6716153D2*
X7785168D1*
X8027590D2*
X12066561D1*
X1063046Y6666487D2*
X12066561D1*
X1063046Y6616820D2*
X12066561D1*
X1063046Y6567153D2*
X12066561D1*
X1063046Y6517487D2*
X12066561D1*
X1063046Y6467820D2*
X12066561D1*
X1063046Y6418153D2*
X12066561D1*
X1063046Y6368487D2*
X12066561D1*
X1063046Y6318820D2*
X12066561D1*
X1063046Y6269153D2*
X12066561D1*
X1063046Y6219487D2*
X12066561D1*
X1063046Y6169820D2*
X12066561D1*
X1063046Y6120153D2*
X12066561D1*
X1063046Y6070487D2*
X12066561D1*
X1063046Y6020820D2*
X12066561D1*
X1063046Y5971153D2*
X12066561D1*
X1063046Y5921487D2*
X12066561D1*
X1063046Y5871820D2*
X1260402D1*
X1438202D2*
X3943918D1*
X4152707D2*
X5940194D1*
X6189178D2*
X11655767D1*
X11904751D2*
X12066561D1*
X1063046Y5822153D2*
X1176913D1*
X1521600D2*
X3876926D1*
X4219699D2*
X5876210D1*
X6253163D2*
X11591783D1*
X11968736D2*
X12066561D1*
X1063046Y5772487D2*
X1134439D1*
X1564074D2*
X3841926D1*
X4254699D2*
X5840298D1*
X6289074D2*
X11555871D1*
X12004647D2*
X12066561D1*
X1063046Y5722820D2*
X1109465D1*
X1589048D2*
X3823059D1*
X4273566D2*
X5819608D1*
X6309764D2*
X11535181D1*
X12025337D2*
X12066561D1*
X1063046Y5673153D2*
X1096662D1*
X1601809D2*
X3816405D1*
X4280220D2*
X5810220D1*
X6319152D2*
X11525793D1*
X12034725D2*
X12066561D1*
X1063046Y5623487D2*
X1094294D1*
X1604270D2*
X3820689D1*
X4275936D2*
X5810949D1*
X6318423D2*
X10765637D1*
X10982629D2*
X11526522D1*
X12033996D2*
X12066561D1*
X1063046Y5573820D2*
X1101809D1*
X1596796D2*
X3836639D1*
X4259986D2*
X4385155D1*
X4759283D2*
X5821796D1*
X6307577D2*
X8386092D1*
X8760220D2*
X10722707D1*
X11218150D2*
X11537368D1*
X12023150D2*
X12066561D1*
X1063046Y5524153D2*
X1120311D1*
X1578293D2*
X3867538D1*
X4229178D2*
X4382238D1*
X4762290D2*
X5844400D1*
X6284973D2*
X8383176D1*
X8763228D2*
X10723527D1*
X11234647D2*
X11559973D1*
X12000546D2*
X12066561D1*
X1063046Y5474487D2*
X1153033D1*
X1545572D2*
X3924230D1*
X4172395D2*
X4382238D1*
X4762290D2*
X5883046D1*
X6246327D2*
X8383176D1*
X8763228D2*
X10746587D1*
X11234647D2*
X11598618D1*
X11961900D2*
X12066561D1*
X1063046Y5424820D2*
X1209816D1*
X1488788D2*
X4382238D1*
X4762290D2*
X5954230D1*
X6175142D2*
X8383176D1*
X8763228D2*
X10772199D1*
X11218150D2*
X11669803D1*
X11890715D2*
X12066561D1*
X1063046Y5375153D2*
X4382238D1*
X4762290D2*
X8383176D1*
X8763228D2*
X12066561D1*
X12071554Y9081620D2*
X12067975Y9068712D1*
X12060027Y9046780D1*
X12050410Y9025527D1*
X12039181Y9005080D1*
X12026407Y8985561D1*
X12012165Y8967086D1*
X11996539Y8949765D1*
X11979623Y8933702D1*
X11961518Y8918993D1*
X11942331Y8905725D1*
X11922177Y8893977D1*
X11901177Y8883820D1*
X11879456Y8875314D1*
X11857142Y8868511D1*
X11834370Y8863450D1*
X11811276Y8860161D1*
X11787996Y8858665D1*
X11764671Y8858970D1*
X11741438Y8861075D1*
X11718438Y8864967D1*
X11695806Y8870623D1*
X11673679Y8878008D1*
X11652187Y8887079D1*
X11631460Y8897782D1*
X11611621Y8910053D1*
X11592788Y8923819D1*
X11575074Y8938997D1*
X11558584Y8955498D1*
X11543417Y8973222D1*
X11529663Y8992063D1*
X11517405Y9011910D1*
X11506715Y9032644D1*
X11497657Y9054141D1*
X11490286Y9076274D1*
X11484644Y9098909D1*
X11480767Y9121912D1*
X11478677Y9145146D1*
X11478387Y9168471D1*
X11479898Y9191750D1*
X11483201Y9214843D1*
X11488276Y9237611D1*
X11495094Y9259920D1*
X11503614Y9281636D1*
X11513784Y9302630D1*
X11525544Y9322776D1*
X11538824Y9341955D1*
X11553545Y9360051D1*
X11569619Y9376957D1*
X11586950Y9392571D1*
X11605434Y9406802D1*
X11624962Y9419563D1*
X11645416Y9430779D1*
X11666675Y9440383D1*
X11688611Y9448317D1*
X11711095Y9454534D1*
X11733992Y9458998D1*
X11757165Y9461680D1*
X11780475Y9462567D1*
X11803785Y9461651D1*
X11826954Y9458939D1*
X11849845Y9454446D1*
X11872321Y9448200D1*
X11894247Y9440238D1*
X11915494Y9430607D1*
X11935934Y9419366D1*
X11955445Y9406579D1*
X11973911Y9392325D1*
X11991222Y9376689D1*
X12007275Y9359762D1*
X12021973Y9341648D1*
X12035228Y9322452D1*
X12046963Y9302291D1*
X12057107Y9281285D1*
X12065599Y9259558D1*
X12071566Y9239943D1*
X12071543Y9547152D1*
X8758145Y9547153D1*
X8757874Y9347208D1*
X8754124Y9329842D1*
X8750025Y9322465D1*
X8740485Y9309433D1*
X8725031Y9298829D1*
X8717686Y9296120D1*
X8701159Y9293146D1*
X8442238Y9293436D1*
X8424872Y9297186D1*
X8417495Y9301285D1*
X8404463Y9310825D1*
X8393859Y9326279D1*
X8391150Y9333624D1*
X8388176Y9350151D1*
X8388157Y9547181D1*
X4757206Y9547153D1*
X4756954Y9347208D1*
X4753204Y9329842D1*
X4749105Y9322464D1*
X4739565Y9309433D1*
X4724111Y9298829D1*
X4716766Y9296119D1*
X4700239Y9293146D1*
X4441318Y9293436D1*
X4423952Y9297186D1*
X4416574Y9301285D1*
X4403543Y9310825D1*
X4392939Y9326279D1*
X4390229Y9333624D1*
X4387256Y9350151D1*
X4387236Y9547181D1*
X1057979Y9547153D1*
X1058000Y9240291D1*
X1064094Y9259920D1*
X1072614Y9281636D1*
X1082784Y9302630D1*
X1094544Y9322776D1*
X1107824Y9341955D1*
X1122545Y9360051D1*
X1138619Y9376957D1*
X1155950Y9392571D1*
X1174434Y9406802D1*
X1193962Y9419563D1*
X1214416Y9430779D1*
X1235675Y9440383D1*
X1257611Y9448317D1*
X1280095Y9454534D1*
X1302992Y9458998D1*
X1326165Y9461680D1*
X1349475Y9462567D1*
X1372785Y9461651D1*
X1395954Y9458939D1*
X1418845Y9454446D1*
X1441321Y9448200D1*
X1463247Y9440238D1*
X1484494Y9430607D1*
X1504934Y9419366D1*
X1524445Y9406579D1*
X1542911Y9392325D1*
X1560222Y9376689D1*
X1576275Y9359762D1*
X1590973Y9341648D1*
X1604228Y9322452D1*
X1615963Y9302291D1*
X1626107Y9281285D1*
X1634599Y9259558D1*
X1641388Y9237240D1*
X1646435Y9214465D1*
X1649708Y9191368D1*
X1651283Y9160567D1*
X1650382Y9137257D1*
X1647685Y9114085D1*
X1643207Y9091192D1*
X1636975Y9068712D1*
X1629027Y9046780D1*
X1619410Y9025527D1*
X1608181Y9005080D1*
X1595407Y8985561D1*
X1581165Y8967086D1*
X1565539Y8949765D1*
X1548623Y8933702D1*
X1530518Y8918993D1*
X1511331Y8905725D1*
X1491177Y8893977D1*
X1470177Y8883820D1*
X1448456Y8875314D1*
X1426142Y8868511D1*
X1403370Y8863450D1*
X1380276Y8860161D1*
X1356996Y8858665D1*
X1333671Y8858970D1*
X1310438Y8861075D1*
X1287438Y8864967D1*
X1264806Y8870623D1*
X1242679Y8878008D1*
X1221187Y8887079D1*
X1200460Y8897782D1*
X1180621Y8910053D1*
X1161788Y8923819D1*
X1144074Y8938997D1*
X1127584Y8955498D1*
X1112417Y8973222D1*
X1098663Y8992063D1*
X1086405Y9011910D1*
X1075715Y9032644D1*
X1066657Y9054141D1*
X1057985Y9081490D1*
X1058000Y5360578D1*
X4387258Y5360577D1*
X4387546Y5560522D1*
X4391296Y5577888D1*
X4395395Y5585265D1*
X4404935Y5598297D1*
X4420389Y5608901D1*
X4427734Y5611610D1*
X4444261Y5614584D1*
X4704143Y5614123D1*
X4722362Y5609793D1*
X4738076Y5599568D1*
X4743389Y5593817D1*
X4753204Y5577889D1*
X4757090Y5559544D1*
X4757264Y5360549D1*
X8388214Y5360577D1*
X8388466Y5560522D1*
X8392216Y5577888D1*
X8396315Y5585266D1*
X8405855Y5598297D1*
X8421309Y5608901D1*
X8428654Y5611611D1*
X8445181Y5614584D1*
X8704102Y5614294D1*
X8721468Y5610544D1*
X8728845Y5606445D1*
X8741877Y5596905D1*
X8752481Y5581451D1*
X8755190Y5574106D1*
X8758164Y5557579D1*
X8758183Y5360549D1*
X12071582Y5360577D1*
X12071543Y9080668D1*
X12029815Y5632226D2*
X12027505Y5612706D1*
X12023670Y5593428D1*
X12018334Y5574509D1*
X12011531Y5556068D1*
X12003302Y5538218D1*
X11993698Y5521068D1*
X11982777Y5504724D1*
X11970608Y5489288D1*
X11957266Y5474854D1*
X11942832Y5461512D1*
X11927396Y5449343D1*
X11911052Y5438422D1*
X11893902Y5428818D1*
X11876052Y5420589D1*
X11857611Y5413786D1*
X11838692Y5408450D1*
X11819414Y5404615D1*
X11799894Y5402305D1*
X11780253Y5401533D1*
X11760612Y5402305D1*
X11741093Y5404615D1*
X11721814Y5408450D1*
X11702896Y5413786D1*
X11684455Y5420589D1*
X11666604Y5428818D1*
X11649455Y5438422D1*
X11633111Y5449343D1*
X11617675Y5461512D1*
X11603241Y5474854D1*
X11589898Y5489288D1*
X11577729Y5504724D1*
X11566809Y5521068D1*
X11557205Y5538218D1*
X11548975Y5556068D1*
X11542172Y5574509D1*
X11536837Y5593428D1*
X11533002Y5612706D1*
X11530692Y5632226D1*
X11529920Y5651867D1*
X11530692Y5671508D1*
X11533002Y5691027D1*
X11536837Y5710306D1*
X11542172Y5729224D1*
X11548975Y5747665D1*
X11557205Y5765516D1*
X11566809Y5782665D1*
X11577729Y5799009D1*
X11589898Y5814445D1*
X11603241Y5828879D1*
X11617675Y5842222D1*
X11633111Y5854391D1*
X11649455Y5865311D1*
X11666604Y5874915D1*
X11684455Y5883145D1*
X11702896Y5889948D1*
X11721814Y5895283D1*
X11741093Y5899118D1*
X11760612Y5901428D1*
X11780253Y5902200D1*
X11799894Y5901428D1*
X11819414Y5899118D1*
X11838692Y5895283D1*
X11857611Y5889948D1*
X11876052Y5883145D1*
X11893902Y5874915D1*
X11911052Y5865311D1*
X11927396Y5854391D1*
X11942832Y5842222D1*
X11957266Y5828879D1*
X11970608Y5814445D1*
X11982777Y5799009D1*
X11993698Y5782665D1*
X12003302Y5765516D1*
X12011531Y5747665D1*
X12018334Y5729224D1*
X12023670Y5710306D1*
X12027505Y5691027D1*
X12029815Y5671508D1*
X12030587Y5651867D1*
X12029815Y5632226D1*
X1598845Y5616326D2*
X1596535Y5596806D1*
X1592700Y5577528D1*
X1587364Y5558609D1*
X1580561Y5540168D1*
X1572332Y5522318D1*
X1562728Y5505168D1*
X1551807Y5488824D1*
X1539638Y5473388D1*
X1526296Y5458954D1*
X1511862Y5445612D1*
X1496426Y5433443D1*
X1480082Y5422522D1*
X1462932Y5412918D1*
X1445082Y5404689D1*
X1426641Y5397886D1*
X1407722Y5392550D1*
X1388444Y5388715D1*
X1368924Y5386405D1*
X1349283Y5385633D1*
X1329642Y5386405D1*
X1310123Y5388715D1*
X1290844Y5392550D1*
X1271926Y5397886D1*
X1253485Y5404689D1*
X1235634Y5412918D1*
X1218485Y5422522D1*
X1202141Y5433443D1*
X1186705Y5445612D1*
X1172271Y5458954D1*
X1158928Y5473388D1*
X1146759Y5488824D1*
X1135839Y5505168D1*
X1126235Y5522318D1*
X1118005Y5540168D1*
X1111202Y5558609D1*
X1105867Y5577528D1*
X1102032Y5596806D1*
X1099722Y5616326D1*
X1098950Y5635967D1*
X1099722Y5655608D1*
X1102032Y5675127D1*
X1105867Y5694406D1*
X1111202Y5713324D1*
X1118005Y5731765D1*
X1126235Y5749616D1*
X1135839Y5766765D1*
X1146759Y5783109D1*
X1158928Y5798545D1*
X1172271Y5812979D1*
X1186705Y5826322D1*
X1202141Y5838491D1*
X1218485Y5849411D1*
X1235634Y5859015D1*
X1253485Y5867245D1*
X1271926Y5874048D1*
X1290844Y5879383D1*
X1310123Y5883218D1*
X1329642Y5885528D1*
X1349283Y5886300D1*
X1368924Y5885528D1*
X1388444Y5883218D1*
X1407722Y5879383D1*
X1426641Y5874048D1*
X1445082Y5867245D1*
X1462932Y5859015D1*
X1480082Y5849411D1*
X1496426Y5838491D1*
X1511862Y5826322D1*
X1526296Y5812979D1*
X1539638Y5798545D1*
X1551807Y5783109D1*
X1562728Y5766765D1*
X1572332Y5749616D1*
X1580561Y5731765D1*
X1587364Y5713324D1*
X1592700Y5694406D1*
X1596535Y5675127D1*
X1598845Y5655608D1*
X1599617Y5635967D1*
X1598845Y5616326D1*
X6314245Y5632226D2*
X6311935Y5612706D1*
X6308100Y5593428D1*
X6302764Y5574509D1*
X6295961Y5556068D1*
X6287732Y5538218D1*
X6278128Y5521068D1*
X6267207Y5504724D1*
X6255038Y5489288D1*
X6241696Y5474854D1*
X6227262Y5461512D1*
X6211826Y5449343D1*
X6195482Y5438422D1*
X6178332Y5428818D1*
X6160482Y5420589D1*
X6142041Y5413786D1*
X6123122Y5408450D1*
X6103844Y5404615D1*
X6084324Y5402305D1*
X6064683Y5401533D1*
X6045042Y5402305D1*
X6025523Y5404615D1*
X6006244Y5408450D1*
X5987326Y5413786D1*
X5968885Y5420589D1*
X5951034Y5428818D1*
X5933885Y5438422D1*
X5917541Y5449343D1*
X5902105Y5461512D1*
X5887671Y5474854D1*
X5874328Y5489288D1*
X5862159Y5504724D1*
X5851239Y5521068D1*
X5841635Y5538218D1*
X5833405Y5556068D1*
X5826602Y5574509D1*
X5821267Y5593428D1*
X5817432Y5612706D1*
X5815122Y5632226D1*
X5814350Y5651867D1*
X5815122Y5671508D1*
X5817432Y5691027D1*
X5821267Y5710306D1*
X5826602Y5729224D1*
X5833405Y5747665D1*
X5841635Y5765516D1*
X5851239Y5782665D1*
X5862159Y5799009D1*
X5874328Y5814445D1*
X5887671Y5828879D1*
X5902105Y5842222D1*
X5917541Y5854391D1*
X5933885Y5865311D1*
X5951034Y5874915D1*
X5968885Y5883145D1*
X5987326Y5889948D1*
X6006244Y5895283D1*
X6025523Y5899118D1*
X6045042Y5901428D1*
X6064683Y5902200D1*
X6084324Y5901428D1*
X6103844Y5899118D1*
X6123122Y5895283D1*
X6142041Y5889948D1*
X6160482Y5883145D1*
X6178332Y5874915D1*
X6195482Y5865311D1*
X6211826Y5854391D1*
X6227262Y5842222D1*
X6241696Y5828879D1*
X6255038Y5814445D1*
X6267207Y5799009D1*
X6278128Y5782665D1*
X6287732Y5765516D1*
X6295961Y5747665D1*
X6302764Y5729224D1*
X6308100Y5710306D1*
X6311935Y5691027D1*
X6314245Y5671508D1*
X6315017Y5651867D1*
X6314245Y5632226D1*
X6842082Y9137257D2*
X6839385Y9114085D1*
X6834907Y9091192D1*
X6828675Y9068712D1*
X6820727Y9046780D1*
X6811110Y9025527D1*
X6799881Y9005080D1*
X6787107Y8985561D1*
X6772865Y8967086D1*
X6757239Y8949765D1*
X6740323Y8933702D1*
X6722218Y8918993D1*
X6703031Y8905725D1*
X6682877Y8893977D1*
X6661877Y8883820D1*
X6640156Y8875314D1*
X6617842Y8868511D1*
X6595070Y8863450D1*
X6571976Y8860161D1*
X6548696Y8858665D1*
X6525371Y8858970D1*
X6502138Y8861075D1*
X6479138Y8864967D1*
X6456506Y8870623D1*
X6434379Y8878008D1*
X6412887Y8887079D1*
X6392160Y8897782D1*
X6372321Y8910053D1*
X6353488Y8923819D1*
X6335774Y8938997D1*
X6319284Y8955498D1*
X6304117Y8973222D1*
X6290363Y8992063D1*
X6278105Y9011910D1*
X6267415Y9032644D1*
X6258357Y9054141D1*
X6250986Y9076274D1*
X6245344Y9098909D1*
X6241467Y9121912D1*
X6239377Y9145146D1*
X6239087Y9168471D1*
X6240598Y9191750D1*
X6243901Y9214843D1*
X6248976Y9237611D1*
X6255794Y9259920D1*
X6264314Y9281636D1*
X6274484Y9302630D1*
X6286244Y9322776D1*
X6299524Y9341955D1*
X6314245Y9360051D1*
X6330319Y9376957D1*
X6347650Y9392571D1*
X6366134Y9406802D1*
X6385662Y9419563D1*
X6406116Y9430779D1*
X6427375Y9440383D1*
X6449311Y9448317D1*
X6471795Y9454534D1*
X6494692Y9458998D1*
X6517865Y9461680D1*
X6541175Y9462567D1*
X6564485Y9461651D1*
X6587654Y9458939D1*
X6610545Y9454446D1*
X6633021Y9448200D1*
X6654947Y9440238D1*
X6676194Y9430607D1*
X6696634Y9419366D1*
X6716145Y9406579D1*
X6734611Y9392325D1*
X6751922Y9376689D1*
X6767975Y9359762D1*
X6782673Y9341648D1*
X6795928Y9322452D1*
X6807663Y9302291D1*
X6817807Y9281285D1*
X6826299Y9259558D1*
X6833088Y9237240D1*
X6838135Y9214465D1*
X6841408Y9191368D1*
X6842983Y9160567D1*
X6842082Y9137257D1*
X5243084Y9285656D2*
X5240989Y9267956D1*
X5237511Y9250475D1*
X5232673Y9233320D1*
X5226504Y9216598D1*
X5219042Y9200411D1*
X5210333Y9184859D1*
X5200430Y9170039D1*
X5189395Y9156042D1*
X5177297Y9142953D1*
X5164208Y9130855D1*
X5150211Y9119820D1*
X5135391Y9109917D1*
X5119839Y9101208D1*
X5103652Y9093746D1*
X5086930Y9087577D1*
X5069775Y9082739D1*
X5052294Y9079261D1*
X5034594Y9077166D1*
X5016783Y9076467D1*
X4998973Y9077166D1*
X4981273Y9079261D1*
X4963791Y9082739D1*
X4946636Y9087577D1*
X4929914Y9093746D1*
X4913727Y9101208D1*
X4898176Y9109917D1*
X4883356Y9119820D1*
X4869359Y9130855D1*
X4856270Y9142953D1*
X4844171Y9156042D1*
X4833136Y9170039D1*
X4823234Y9184859D1*
X4814525Y9200411D1*
X4807063Y9216598D1*
X4800894Y9233320D1*
X4796055Y9250475D1*
X4792578Y9267956D1*
X4790483Y9285656D1*
X4789783Y9303467D1*
X4790483Y9321277D1*
X4792578Y9338977D1*
X4796055Y9356459D1*
X4800894Y9373614D1*
X4807063Y9390336D1*
X4814525Y9406523D1*
X4823234Y9422074D1*
X4833136Y9436894D1*
X4844171Y9450891D1*
X4856270Y9463980D1*
X4869359Y9476079D1*
X4883356Y9487114D1*
X4898176Y9497016D1*
X4913727Y9505725D1*
X4929914Y9513187D1*
X4946636Y9519356D1*
X4963791Y9524195D1*
X4981273Y9527672D1*
X4998973Y9529767D1*
X5016783Y9530467D1*
X5034594Y9529767D1*
X5052294Y9527672D1*
X5069775Y9524195D1*
X5086930Y9519356D1*
X5103652Y9513187D1*
X5119839Y9505725D1*
X5135391Y9497016D1*
X5150211Y9487114D1*
X5164208Y9476079D1*
X5177297Y9463980D1*
X5189395Y9450891D1*
X5200430Y9436894D1*
X5210333Y9422074D1*
X5219042Y9406523D1*
X5226504Y9390336D1*
X5232673Y9373614D1*
X5237511Y9356459D1*
X5240989Y9338977D1*
X5243084Y9321277D1*
X5243783Y9303467D1*
X5243084Y9285656D1*
X6005184D2*
X6003089Y9267956D1*
X5999611Y9250475D1*
X5994773Y9233320D1*
X5988604Y9216598D1*
X5981142Y9200411D1*
X5972433Y9184859D1*
X5962530Y9170039D1*
X5951495Y9156042D1*
X5939397Y9142953D1*
X5926308Y9130855D1*
X5912311Y9119820D1*
X5897491Y9109917D1*
X5881939Y9101208D1*
X5865752Y9093746D1*
X5849030Y9087577D1*
X5831875Y9082739D1*
X5814394Y9079261D1*
X5796694Y9077166D1*
X5778883Y9076467D1*
X5761073Y9077166D1*
X5743373Y9079261D1*
X5725891Y9082739D1*
X5708736Y9087577D1*
X5692014Y9093746D1*
X5675827Y9101208D1*
X5660276Y9109917D1*
X5645456Y9119820D1*
X5631459Y9130855D1*
X5618370Y9142953D1*
X5606271Y9156042D1*
X5595236Y9170039D1*
X5585334Y9184859D1*
X5576625Y9200411D1*
X5569163Y9216598D1*
X5562994Y9233320D1*
X5558155Y9250475D1*
X5554678Y9267956D1*
X5552583Y9285656D1*
X5551883Y9303467D1*
X5552583Y9321277D1*
X5554678Y9338977D1*
X5558155Y9356459D1*
X5562994Y9373614D1*
X5569163Y9390336D1*
X5576625Y9406523D1*
X5585334Y9422074D1*
X5595236Y9436894D1*
X5606271Y9450891D1*
X5618370Y9463980D1*
X5631459Y9476079D1*
X5645456Y9487114D1*
X5660276Y9497016D1*
X5675827Y9505725D1*
X5692014Y9513187D1*
X5708736Y9519356D1*
X5725891Y9524195D1*
X5743373Y9527672D1*
X5761073Y9529767D1*
X5778883Y9530467D1*
X5796694Y9529767D1*
X5814394Y9527672D1*
X5831875Y9524195D1*
X5849030Y9519356D1*
X5865752Y9513187D1*
X5881939Y9505725D1*
X5897491Y9497016D1*
X5912311Y9487114D1*
X5926308Y9476079D1*
X5939397Y9463980D1*
X5951495Y9450891D1*
X5962530Y9436894D1*
X5972433Y9422074D1*
X5981142Y9406523D1*
X5988604Y9390336D1*
X5994773Y9373614D1*
X5999611Y9356459D1*
X6003089Y9338977D1*
X6005184Y9321277D1*
X6005883Y9303467D1*
X6005184Y9285656D1*
X8155945Y6918226D2*
X8153635Y6898706D1*
X8149800Y6879428D1*
X8144464Y6860509D1*
X8137661Y6842068D1*
X8129432Y6824218D1*
X8119828Y6807068D1*
X8108907Y6790724D1*
X8096738Y6775288D1*
X8083396Y6760854D1*
X8068962Y6747512D1*
X8053526Y6735343D1*
X8037182Y6724422D1*
X8020032Y6714818D1*
X8002182Y6706589D1*
X7983741Y6699786D1*
X7964822Y6694450D1*
X7945544Y6690615D1*
X7926024Y6688305D1*
X7906383Y6687533D1*
X7886742Y6688305D1*
X7867223Y6690615D1*
X7847944Y6694450D1*
X7829026Y6699786D1*
X7810585Y6706589D1*
X7792734Y6714818D1*
X7775585Y6724422D1*
X7759241Y6735343D1*
X7743805Y6747512D1*
X7729371Y6760854D1*
X7716028Y6775288D1*
X7703859Y6790724D1*
X7692939Y6807068D1*
X7683335Y6824218D1*
X7675105Y6842068D1*
X7668302Y6860509D1*
X7662967Y6879428D1*
X7659132Y6898706D1*
X7656822Y6918226D1*
X7656050Y6937867D1*
X7656822Y6957508D1*
X7659132Y6977027D1*
X7662967Y6996306D1*
X7668302Y7015224D1*
X7675105Y7033665D1*
X7683335Y7051516D1*
X7692939Y7068665D1*
X7703859Y7085009D1*
X7716028Y7100445D1*
X7729371Y7114879D1*
X7743805Y7128222D1*
X7759241Y7140391D1*
X7775585Y7151311D1*
X7792734Y7160915D1*
X7810585Y7169145D1*
X7829026Y7175948D1*
X7847944Y7181283D1*
X7867223Y7185118D1*
X7886742Y7187428D1*
X7906383Y7188200D1*
X7926024Y7187428D1*
X7945544Y7185118D1*
X7964822Y7181283D1*
X7983741Y7175948D1*
X8002182Y7169145D1*
X8020032Y7160915D1*
X8037182Y7151311D1*
X8053526Y7140391D1*
X8068962Y7128222D1*
X8083396Y7114879D1*
X8096738Y7100445D1*
X8108907Y7085009D1*
X8119828Y7068665D1*
X8129432Y7051516D1*
X8137661Y7033665D1*
X8144464Y7015224D1*
X8149800Y6996306D1*
X8153635Y6977027D1*
X8155945Y6957508D1*
X8156717Y6937867D1*
X8155945Y6918226D1*
X4091545Y8156626D2*
X4089235Y8137106D1*
X4085400Y8117828D1*
X4080064Y8098909D1*
X4073261Y8080468D1*
X4065032Y8062618D1*
X4055428Y8045468D1*
X4044507Y8029124D1*
X4032338Y8013688D1*
X4018996Y7999254D1*
X4004562Y7985912D1*
X3989126Y7973743D1*
X3972782Y7962822D1*
X3955632Y7953218D1*
X3937782Y7944989D1*
X3919341Y7938186D1*
X3900422Y7932850D1*
X3881144Y7929015D1*
X3861624Y7926705D1*
X3841983Y7925933D1*
X3822342Y7926705D1*
X3802823Y7929015D1*
X3783544Y7932850D1*
X3764626Y7938186D1*
X3746185Y7944989D1*
X3728334Y7953218D1*
X3711185Y7962822D1*
X3694841Y7973743D1*
X3679405Y7985912D1*
X3664971Y7999254D1*
X3651628Y8013688D1*
X3639459Y8029124D1*
X3628539Y8045468D1*
X3618935Y8062618D1*
X3610705Y8080468D1*
X3603902Y8098909D1*
X3598567Y8117828D1*
X3594732Y8137106D1*
X3592422Y8156626D1*
X3591650Y8176267D1*
X3592422Y8195908D1*
X3594732Y8215427D1*
X3598567Y8234706D1*
X3603902Y8253624D1*
X3610705Y8272065D1*
X3618935Y8289916D1*
X3628539Y8307065D1*
X3639459Y8323409D1*
X3651628Y8338845D1*
X3664971Y8353279D1*
X3679405Y8366622D1*
X3694841Y8378791D1*
X3711185Y8389711D1*
X3728334Y8399315D1*
X3746185Y8407545D1*
X3764626Y8414348D1*
X3783544Y8419683D1*
X3802823Y8423518D1*
X3822342Y8425828D1*
X3841983Y8426600D1*
X3861624Y8425828D1*
X3881144Y8423518D1*
X3900422Y8419683D1*
X3919341Y8414348D1*
X3937782Y8407545D1*
X3955632Y8399315D1*
X3972782Y8389711D1*
X3989126Y8378791D1*
X4004562Y8366622D1*
X4018996Y8353279D1*
X4032338Y8338845D1*
X4044507Y8323409D1*
X4055428Y8307065D1*
X4065032Y8289916D1*
X4073261Y8272065D1*
X4080064Y8253624D1*
X4085400Y8234706D1*
X4089235Y8215427D1*
X4091545Y8195908D1*
X4092317Y8176267D1*
X4091545Y8156626D1*
X12029845Y7537426D2*
X12027535Y7517906D1*
X12023700Y7498628D1*
X12018364Y7479709D1*
X12011561Y7461268D1*
X12003332Y7443418D1*
X11993728Y7426268D1*
X11982807Y7409924D1*
X11970638Y7394488D1*
X11957296Y7380054D1*
X11942862Y7366712D1*
X11927426Y7354543D1*
X11911082Y7343622D1*
X11893932Y7334018D1*
X11876082Y7325789D1*
X11857641Y7318986D1*
X11838722Y7313650D1*
X11819444Y7309815D1*
X11799924Y7307505D1*
X11780283Y7306733D1*
X11760642Y7307505D1*
X11741123Y7309815D1*
X11721844Y7313650D1*
X11702926Y7318986D1*
X11684485Y7325789D1*
X11666634Y7334018D1*
X11649485Y7343622D1*
X11633141Y7354543D1*
X11617705Y7366712D1*
X11603271Y7380054D1*
X11589928Y7394488D1*
X11577759Y7409924D1*
X11566839Y7426268D1*
X11557235Y7443418D1*
X11549005Y7461268D1*
X11542202Y7479709D1*
X11536867Y7498628D1*
X11533032Y7517906D1*
X11530722Y7537426D1*
X11529950Y7557067D1*
X11530722Y7576708D1*
X11533032Y7596227D1*
X11536867Y7615506D1*
X11542202Y7634424D1*
X11549005Y7652865D1*
X11557235Y7670716D1*
X11566839Y7687865D1*
X11577759Y7704209D1*
X11589928Y7719645D1*
X11603271Y7734079D1*
X11617705Y7747422D1*
X11633141Y7759591D1*
X11649485Y7770511D1*
X11666634Y7780115D1*
X11684485Y7788345D1*
X11702926Y7795148D1*
X11721844Y7800483D1*
X11741123Y7804318D1*
X11760642Y7806628D1*
X11780283Y7807400D1*
X11799924Y7806628D1*
X11819444Y7804318D1*
X11838722Y7800483D1*
X11857641Y7795148D1*
X11876082Y7788345D1*
X11893932Y7780115D1*
X11911082Y7770511D1*
X11927426Y7759591D1*
X11942862Y7747422D1*
X11957296Y7734079D1*
X11970638Y7719645D1*
X11982807Y7704209D1*
X11993728Y7687865D1*
X12003332Y7670716D1*
X12011561Y7652865D1*
X12018364Y7634424D1*
X12023700Y7615506D1*
X12027535Y7596227D1*
X12029845Y7576708D1*
X12030617Y7557067D1*
X12029845Y7537426D1*
X8255082Y8867357D2*
X8252385Y8844185D1*
X8247907Y8821292D1*
X8241675Y8798812D1*
X8233727Y8776880D1*
X8224110Y8755627D1*
X8212881Y8735180D1*
X8200107Y8715661D1*
X8185865Y8697186D1*
X8170239Y8679865D1*
X8153323Y8663802D1*
X8135218Y8649093D1*
X8116031Y8635825D1*
X8095877Y8624077D1*
X8074877Y8613920D1*
X8053156Y8605414D1*
X8030842Y8598611D1*
X8008070Y8593550D1*
X7984976Y8590261D1*
X7961696Y8588765D1*
X7938371Y8589070D1*
X7915138Y8591175D1*
X7892138Y8595067D1*
X7869506Y8600723D1*
X7847379Y8608108D1*
X7825887Y8617179D1*
X7805160Y8627882D1*
X7785321Y8640153D1*
X7766488Y8653919D1*
X7748774Y8669097D1*
X7732284Y8685598D1*
X7717117Y8703322D1*
X7703363Y8722163D1*
X7691105Y8742010D1*
X7680415Y8762744D1*
X7671357Y8784241D1*
X7663986Y8806374D1*
X7658344Y8829009D1*
X7654467Y8852012D1*
X7652377Y8875246D1*
X7652087Y8898571D1*
X7653598Y8921850D1*
X7656901Y8944943D1*
X7661976Y8967711D1*
X7668794Y8990020D1*
X7677314Y9011736D1*
X7687484Y9032730D1*
X7699244Y9052876D1*
X7712524Y9072055D1*
X7727245Y9090151D1*
X7743319Y9107057D1*
X7760650Y9122671D1*
X7779134Y9136902D1*
X7798662Y9149663D1*
X7819116Y9160879D1*
X7840375Y9170483D1*
X7862311Y9178417D1*
X7884795Y9184634D1*
X7907692Y9189098D1*
X7930865Y9191780D1*
X7954175Y9192667D1*
X7977485Y9191751D1*
X8000654Y9189039D1*
X8023545Y9184546D1*
X8046021Y9178300D1*
X8067947Y9170338D1*
X8089194Y9160707D1*
X8109634Y9149466D1*
X8129145Y9136679D1*
X8147611Y9122425D1*
X8164922Y9106789D1*
X8180975Y9089862D1*
X8195673Y9071748D1*
X8208928Y9052552D1*
X8220663Y9032391D1*
X8230807Y9011385D1*
X8239299Y8989658D1*
X8246088Y8967340D1*
X8251135Y8944565D1*
X8254408Y8921468D1*
X8255983Y8890667D1*
X8255082Y8867357D1*
X10081367Y9177476D2*
X10068606Y9153136D1*
X10058704Y9138316D1*
X10047669Y9124319D1*
X10035570Y9111230D1*
X10022481Y9099131D1*
X10008484Y9088096D1*
X9993664Y9078194D1*
X9978113Y9069485D1*
X9961926Y9062023D1*
X9945204Y9055854D1*
X9928049Y9051015D1*
X9910567Y9047538D1*
X9892867Y9045443D1*
X9875057Y9044743D1*
X9857246Y9045443D1*
X9839546Y9047538D1*
X9822065Y9051015D1*
X9804910Y9055854D1*
X9788188Y9062023D1*
X9772001Y9069485D1*
X9756449Y9078194D1*
X9741629Y9088096D1*
X9727632Y9099131D1*
X9714543Y9111230D1*
X9702445Y9124319D1*
X9691410Y9138316D1*
X9681507Y9153136D1*
X9668746Y9177476D1*
X9655813Y9153136D1*
X9645910Y9138316D1*
X9634875Y9124319D1*
X9622777Y9111230D1*
X9609688Y9099131D1*
X9595691Y9088096D1*
X9580871Y9078194D1*
X9565319Y9069485D1*
X9549132Y9062023D1*
X9532410Y9055854D1*
X9515255Y9051015D1*
X9497774Y9047538D1*
X9480074Y9045443D1*
X9462263Y9044743D1*
X9444453Y9045443D1*
X9426753Y9047538D1*
X9409271Y9051015D1*
X9392116Y9055854D1*
X9375394Y9062023D1*
X9359207Y9069485D1*
X9343656Y9078194D1*
X9328836Y9088096D1*
X9314839Y9099131D1*
X9301750Y9111230D1*
X9289651Y9124319D1*
X9278616Y9138316D1*
X9268714Y9153136D1*
X9260005Y9168687D1*
X9252543Y9184874D1*
X9246374Y9201596D1*
X9241535Y9218751D1*
X9238058Y9236233D1*
X9235963Y9253933D1*
X9235263Y9271743D1*
X9235963Y9289554D1*
X9238058Y9307254D1*
X9241535Y9324735D1*
X9246374Y9341890D1*
X9252543Y9358612D1*
X9260005Y9374799D1*
X9268714Y9390351D1*
X9278616Y9405171D1*
X9289651Y9419168D1*
X9301750Y9432257D1*
X9314839Y9444355D1*
X9328836Y9455390D1*
X9343656Y9465293D1*
X9359207Y9474002D1*
X9375394Y9481464D1*
X9392116Y9487633D1*
X9409271Y9492471D1*
X9426753Y9495949D1*
X9444453Y9498044D1*
X9462263Y9498743D1*
X9480074Y9498044D1*
X9497774Y9495949D1*
X9515255Y9492471D1*
X9532410Y9487633D1*
X9549132Y9481464D1*
X9565319Y9474002D1*
X9580871Y9465293D1*
X9595691Y9455390D1*
X9609688Y9444355D1*
X9622777Y9432257D1*
X9634875Y9419168D1*
X9645910Y9405171D1*
X9655813Y9390351D1*
X9668574Y9366010D1*
X9681507Y9390351D1*
X9691410Y9405171D1*
X9702445Y9419168D1*
X9714543Y9432257D1*
X9727632Y9444355D1*
X9741629Y9455390D1*
X9756449Y9465293D1*
X9772001Y9474002D1*
X9788188Y9481464D1*
X9804910Y9487633D1*
X9822065Y9492471D1*
X9839546Y9495949D1*
X9857246Y9498044D1*
X9875057Y9498743D1*
X9892867Y9498044D1*
X9910567Y9495949D1*
X9928049Y9492471D1*
X9945204Y9487633D1*
X9961926Y9481464D1*
X9978113Y9474002D1*
X9993664Y9465293D1*
X10008484Y9455390D1*
X10022481Y9444355D1*
X10035570Y9432257D1*
X10047669Y9419168D1*
X10058704Y9405171D1*
X10068606Y9390351D1*
X10081367Y9366010D1*
X10094301Y9390351D1*
X10104203Y9405171D1*
X10115238Y9419168D1*
X10127337Y9432257D1*
X10140425Y9444355D1*
X10154423Y9455390D1*
X10169243Y9465293D1*
X10184794Y9474002D1*
X10200981Y9481464D1*
X10217703Y9487633D1*
X10234858Y9492471D1*
X10252339Y9495949D1*
X10270040Y9498044D1*
X10287850Y9498743D1*
X10305660Y9498044D1*
X10323361Y9495949D1*
X10340842Y9492471D1*
X10357997Y9487633D1*
X10374719Y9481464D1*
X10390906Y9474002D1*
X10406457Y9465293D1*
X10421277Y9455390D1*
X10435275Y9444355D1*
X10448363Y9432257D1*
X10460462Y9419168D1*
X10471497Y9405171D1*
X10481399Y9390351D1*
X10490108Y9374799D1*
X10497571Y9358612D1*
X10503740Y9341890D1*
X10508578Y9324735D1*
X10512055Y9307254D1*
X10514150Y9289554D1*
X10514850Y9271743D1*
X10514150Y9253933D1*
X10512055Y9236233D1*
X10508578Y9218751D1*
X10503740Y9201596D1*
X10497571Y9184874D1*
X10490108Y9168687D1*
X10481399Y9153136D1*
X10471497Y9138316D1*
X10460462Y9124319D1*
X10448363Y9111230D1*
X10435275Y9099131D1*
X10421277Y9088096D1*
X10406457Y9078194D1*
X10390906Y9069485D1*
X10374719Y9062023D1*
X10357997Y9055854D1*
X10340842Y9051015D1*
X10323361Y9047538D1*
X10305660Y9045443D1*
X10287850Y9044743D1*
X10270040Y9045443D1*
X10252339Y9047538D1*
X10234858Y9051015D1*
X10217703Y9055854D1*
X10200981Y9062023D1*
X10184794Y9069485D1*
X10169243Y9078194D1*
X10154423Y9088096D1*
X10140425Y9099131D1*
X10127337Y9111230D1*
X10115238Y9124319D1*
X10104203Y9138316D1*
X10094301Y9153136D1*
X10081540Y9177476D1*
X5107371Y8015132D2*
X5079628Y8017309D1*
X5052621Y8023793D1*
X5026960Y8034422D1*
X5003279Y8048934D1*
X4982159Y8066972D1*
X4964121Y8088092D1*
X4949609Y8111774D1*
X4938980Y8137434D1*
X4932496Y8164441D1*
X4930317Y8192130D1*
X4932496Y8219819D1*
X4938980Y8246826D1*
X4949609Y8272486D1*
X4964121Y8296168D1*
X4982159Y8317288D1*
X5003279Y8335326D1*
X5026960Y8349838D1*
X5052621Y8360467D1*
X5079628Y8366951D1*
X5107371Y8369128D1*
X5321204Y8368584D1*
X5348636Y8364239D1*
X5375052Y8355657D1*
X5399799Y8343047D1*
X5422269Y8326722D1*
X5441909Y8307082D1*
X5458234Y8284612D1*
X5470843Y8259865D1*
X5479426Y8233450D1*
X5483771Y8206017D1*
Y8178243D1*
X5479426Y8150810D1*
X5470843Y8124395D1*
X5458234Y8099648D1*
X5441909Y8077178D1*
X5422269Y8057538D1*
X5399799Y8041213D1*
X5375052Y8028603D1*
X5348636Y8020021D1*
X5321204Y8015676D1*
X5260650Y8015130D1*
X5107317Y8015221D1*
X4227707Y8298870D2*
X4354308D1*
X4354373Y8521154D1*
X4298108Y8577494D1*
X3699030Y8577547D1*
X3683181Y8578169D1*
X3667430Y8580034D1*
X3651874Y8583128D1*
X3636609Y8587433D1*
X3621728Y8592923D1*
X3607324Y8599563D1*
X3593485Y8607313D1*
X3580297Y8616125D1*
X3567841Y8625945D1*
X3539695Y8653210D1*
X3402538Y8791248D1*
X3392719Y8803704D1*
X3383907Y8816892D1*
X3376157Y8830731D1*
X3369516Y8845135D1*
X3364027Y8860015D1*
X3359721Y8875281D1*
X3356627Y8890837D1*
X3354763Y8906588D1*
X3354140Y8922437D1*
X3354763Y8938285D1*
X3356627Y8954036D1*
X3359721Y8969593D1*
X3364027Y8984858D1*
X3369516Y8999739D1*
X3376157Y9014143D1*
X3383907Y9027981D1*
X3392719Y9041169D1*
X3402538Y9053625D1*
X3413304Y9065272D1*
X3424951Y9076039D1*
X3437407Y9085858D1*
X3450595Y9094670D1*
X3464434Y9102420D1*
X3478838Y9109060D1*
X3493719Y9114550D1*
X3508984Y9118855D1*
X3524540Y9121950D1*
X3540291Y9123814D1*
X3556140Y9124437D1*
X3571989Y9123814D1*
X3587740Y9121950D1*
X3603296Y9118855D1*
X3618561Y9114550D1*
X3633442Y9109060D1*
X3647846Y9102420D1*
X3661685Y9094670D1*
X3674873Y9085858D1*
X3687329Y9076039D1*
X3715475Y9048773D1*
X3782696Y8981552D1*
X4381727Y8981547D1*
X4397575Y8980924D1*
X4413326Y8979060D1*
X4428883Y8975965D1*
X4444148Y8971660D1*
X4459029Y8966170D1*
X4473433Y8959530D1*
X4487271Y8951780D1*
X4500459Y8942968D1*
X4512915Y8933149D1*
X4541061Y8905883D1*
X4709976Y8736089D1*
X4719795Y8723633D1*
X4728607Y8710445D1*
X4736357Y8696606D1*
X4742997Y8682202D1*
X4748487Y8667322D1*
X4752792Y8652056D1*
X4755887Y8636500D1*
X4757751Y8620749D1*
X4758374Y8581567D1*
Y8298923D1*
X4908373Y8298870D1*
Y7894870D1*
X4883308D1*
X4883374Y7157870D1*
X4229374D1*
X4229373Y7894919D1*
X4204373Y7894870D1*
Y8298870D1*
X4227707D1*
X4275272Y5663074D2*
X4273595Y5639811D1*
X4269540Y5616843D1*
X4263150Y5594412D1*
X4254492Y5572756D1*
X4243658Y5552102D1*
X4230761Y5532669D1*
X4215939Y5514662D1*
X4199347Y5498271D1*
X4181161Y5483668D1*
X4161572Y5471009D1*
X4140788Y5460427D1*
X4119028Y5452033D1*
X4096521Y5445917D1*
X4073505Y5442141D1*
X4050224Y5440748D1*
X4026923Y5441751D1*
X4003847Y5445139D1*
X3981241Y5450877D1*
X3959343Y5458905D1*
X3938384Y5469137D1*
X3918586Y5481466D1*
X3900157Y5495761D1*
X3883293Y5511872D1*
X3868170Y5529628D1*
X3854949Y5548842D1*
X3843770Y5569311D1*
X3834750Y5590819D1*
X3827984Y5613139D1*
X3823545Y5636036D1*
X3821478Y5659267D1*
X3821806Y5682588D1*
X3824525Y5705752D1*
X3829607Y5728515D1*
X3836997Y5750636D1*
X3846619Y5771882D1*
X3858369Y5792029D1*
X3872125Y5810863D1*
X3887741Y5828187D1*
X3905052Y5843817D1*
X3923875Y5857588D1*
X3944012Y5869355D1*
X3965250Y5878994D1*
X3987365Y5886403D1*
X4010124Y5891503D1*
X4033285Y5894242D1*
X4056606Y5894589D1*
X4079839Y5892541D1*
X4102739Y5888120D1*
X4125065Y5881373D1*
X4146581Y5872371D1*
X4167059Y5861208D1*
X4186284Y5848004D1*
X4204052Y5832896D1*
X4220177Y5816045D1*
X4234487Y5797628D1*
X4246832Y5777840D1*
X4257082Y5756889D1*
X4265127Y5734998D1*
X4270884Y5712397D1*
X4274292Y5689324D1*
X4275320Y5667740D1*
X4275272Y5663074D1*
X7774317Y7541215D2*
X7772453Y7525464D1*
X7769359Y7509907D1*
X7765053Y7494642D1*
X7759564Y7479761D1*
X7752923Y7465357D1*
X7745173Y7451519D1*
X7736361Y7438331D1*
X7726542Y7425875D1*
X7715776Y7414228D1*
X7704129Y7403461D1*
X7691673Y7393642D1*
X7678485Y7384830D1*
X7664646Y7377080D1*
X7650242Y7370440D1*
X7635361Y7364950D1*
X7620096Y7360645D1*
X7604540Y7357550D1*
X7588789Y7355686D1*
X7572940Y7355063D1*
X7557091Y7355686D1*
X7541340Y7357550D1*
X7525784Y7360645D1*
X7510519Y7364950D1*
X7495638Y7370440D1*
X7481234Y7377080D1*
X7467395Y7384830D1*
X7454207Y7393642D1*
X7441751Y7403461D1*
X7430104Y7414228D1*
X7419338Y7425875D1*
X7409519Y7438331D1*
X7400707Y7451519D1*
X7392957Y7465357D1*
X7386316Y7479761D1*
X7380827Y7494642D1*
X7376521Y7509907D1*
X7373427Y7525464D1*
X7371563Y7541215D1*
X7370940Y7557063D1*
X7371563Y7572912D1*
X7373427Y7588663D1*
X7376521Y7604219D1*
X7380827Y7619485D1*
X7386316Y7634365D1*
X7392957Y7648769D1*
X7400707Y7662608D1*
X7409519Y7675796D1*
X7419338Y7688252D1*
X7430104Y7699899D1*
X7441751Y7710665D1*
X7454207Y7720485D1*
X7467395Y7729297D1*
X7481234Y7737047D1*
X7495638Y7743687D1*
X7510519Y7749177D1*
X7525784Y7753482D1*
X7541340Y7756576D1*
X7557091Y7758441D1*
X7572940Y7759063D1*
X7588789Y7758441D1*
X7604540Y7756576D1*
X7620096Y7753482D1*
X7635361Y7749177D1*
X7650242Y7743687D1*
X7664646Y7737047D1*
X7678485Y7729297D1*
X7691673Y7720485D1*
X7704129Y7710665D1*
X7715776Y7699899D1*
X7726542Y7688252D1*
X7736361Y7675796D1*
X7745173Y7662608D1*
X7752923Y7648769D1*
X7759564Y7634365D1*
X7765053Y7619485D1*
X7769359Y7604219D1*
X7772453Y7588663D1*
X7774317Y7572912D1*
X7774940Y7557063D1*
X7774317Y7541215D1*
X7291724D2*
X7289860Y7525464D1*
X7286765Y7509907D1*
X7282460Y7494642D1*
X7276970Y7479761D1*
X7270330Y7465357D1*
X7262580Y7451519D1*
X7253768Y7438331D1*
X7243949Y7425875D1*
X7233182Y7414228D1*
X7221535Y7403461D1*
X7209079Y7393642D1*
X7195891Y7384830D1*
X7182053Y7377080D1*
X7167649Y7370440D1*
X7152768Y7364950D1*
X7137503Y7360645D1*
X7121946Y7357550D1*
X7106195Y7355686D1*
X7090347Y7355063D1*
X7074498Y7355686D1*
X7058747Y7357550D1*
X7043191Y7360645D1*
X7027925Y7364950D1*
X7013045Y7370440D1*
X6998641Y7377080D1*
X6984802Y7384830D1*
X6971614Y7393642D1*
X6959158Y7403461D1*
X6947511Y7414228D1*
X6936745Y7425875D1*
X6926925Y7438331D1*
X6918113Y7451519D1*
X6910363Y7465357D1*
X6903723Y7479761D1*
X6898233Y7494642D1*
X6893928Y7509907D1*
X6890834Y7525464D1*
X6888969Y7541215D1*
X6888347Y7557063D1*
X6888969Y7572912D1*
X6890834Y7588663D1*
X6893928Y7604219D1*
X6898233Y7619485D1*
X6903723Y7634365D1*
X6910363Y7648769D1*
X6918113Y7662608D1*
X6926925Y7675796D1*
X6936745Y7688252D1*
X6947511Y7699899D1*
X6959158Y7710665D1*
X6971614Y7720485D1*
X6984802Y7729297D1*
X6998641Y7737047D1*
X7013045Y7743687D1*
X7027925Y7749177D1*
X7043191Y7753482D1*
X7058747Y7756576D1*
X7074498Y7758441D1*
X7090347Y7759063D1*
X7106195Y7758441D1*
X7121946Y7756576D1*
X7137503Y7753482D1*
X7152768Y7749177D1*
X7167649Y7743687D1*
X7182053Y7737047D1*
X7195891Y7729297D1*
X7209079Y7720485D1*
X7221535Y7710665D1*
X7233182Y7699899D1*
X7243949Y7688252D1*
X7253768Y7675796D1*
X7262580Y7662608D1*
X7270330Y7648769D1*
X7276970Y7634365D1*
X7282460Y7619485D1*
X7286765Y7604219D1*
X7289860Y7588663D1*
X7291724Y7572912D1*
X7292347Y7557063D1*
X7291724Y7541215D1*
X11229670Y5501510D2*
X11229421Y5467454D1*
X11227435Y5454918D1*
X11223513Y5442847D1*
X11217751Y5431539D1*
X11210291Y5421270D1*
X11201316Y5412296D1*
X11191048Y5404836D1*
X11179739Y5399073D1*
X11167669Y5395151D1*
X11155133Y5393166D1*
X11142441D1*
X11129905Y5395151D1*
X11117834Y5399073D1*
X11113351Y5401140D1*
X11102831Y5396875D1*
X11090490Y5393912D1*
X11073457Y5392917D1*
X11054463Y5393876D1*
X11042090Y5396812D1*
X11032742Y5397160D1*
X11020435Y5394059D1*
X11007794Y5392922D1*
X10995130Y5393775D1*
X10988864Y5394951D1*
X10980422Y5395151D1*
X10967886Y5393166D1*
X10904151D1*
X10896904Y5394062D1*
X10884264Y5392922D1*
X10871600Y5393774D1*
X10865334Y5394948D1*
X10845762Y5393027D1*
X10833074Y5393360D1*
X10820595Y5395675D1*
X10808631Y5399913D1*
X10797478Y5405970D1*
X10787409Y5413697D1*
X10778674Y5422905D1*
X10771486Y5433365D1*
X10730340Y5519327D1*
X10726418Y5531398D1*
X10724433Y5543934D1*
Y5556626D1*
X10726418Y5569162D1*
X10730340Y5581233D1*
X10736102Y5592541D1*
X10743562Y5602810D1*
X10752537Y5611784D1*
X10762805Y5619244D1*
X10774114Y5625007D1*
X10786185Y5628929D1*
X10798721Y5630914D1*
X10862456D1*
X10874992Y5628929D1*
X10887063Y5625007D1*
X10892504Y5622618D1*
X10904266Y5627388D1*
X10916629Y5630259D1*
X10934518Y5631164D1*
X10949606Y5630914D1*
X10962142Y5628929D1*
X10974235Y5624996D1*
X10992011Y5616130D1*
X11002369Y5608795D1*
X11007101Y5604523D1*
X11010897Y5603724D1*
X11023457Y5605551D1*
X11036148Y5605391D1*
X11048005Y5603492D1*
X11060541Y5605478D1*
X11083585Y5605522D1*
X11096159Y5603623D1*
X11100678Y5603492D1*
X11113214Y5605478D1*
X11142441Y5605477D1*
X11155133D1*
X11167669Y5603492D1*
X11179739Y5599570D1*
X11191048Y5593808D1*
X11201316Y5586348D1*
X11210291Y5577373D1*
X11217751Y5567105D1*
X11223513Y5555796D1*
X11227435Y5543725D1*
X11229421Y5531189D1*
X11229670Y5501510D1*
X10917373Y7258904D2*
X10932270Y7273337D1*
X10943596Y7281434D1*
X10972323Y7295851D1*
X10985564Y7300154D1*
X10999315Y7302332D1*
X11040200Y7302605D1*
X11053089Y7301676D1*
X11066666Y7298591D1*
X11083012Y7291730D1*
X11104172Y7280811D1*
X11115388Y7272563D1*
X11141651Y7246065D1*
X11149853Y7234815D1*
X11164715Y7205822D1*
X11175763Y7173298D1*
X11179013Y7159760D1*
X11180105Y7145880D1*
X11179776Y7095590D1*
X11177492Y7081856D1*
X11165002Y7044176D1*
X11153331Y7020488D1*
X11146055Y7008618D1*
X11133631Y6994652D1*
X11114807Y6976246D1*
X11103520Y6968094D1*
X11074234Y6953255D1*
X11060993Y6948953D1*
X11047241Y6946775D1*
X11006121Y6946501D1*
X10992244Y6947618D1*
X10978711Y6950892D1*
X10962477Y6957972D1*
X10957102Y6960723D1*
X10946895Y6955038D1*
X10933884Y6950085D1*
X10920257Y6947228D1*
X10906352Y6946539D1*
X10892509Y6948033D1*
X10879071Y6951674D1*
X10866368Y6957373D1*
X10854713Y6964988D1*
X10844393Y6974333D1*
X10840870Y6978374D1*
X10832210Y6969401D1*
X10821181Y6960905D1*
X10808957Y6954239D1*
X10795842Y6949567D1*
X10782157Y6947005D1*
X10768240Y6946615D1*
X10754433Y6948406D1*
X10745238Y6950844D1*
X10731700Y6947594D1*
X10717820Y6946501D1*
X10703940Y6947594D1*
X10690402Y6950844D1*
X10683842Y6953267D1*
X10673021Y6949590D1*
X10659339Y6947014D1*
X10645422Y6946610D1*
X10631614Y6948389D1*
X10615767Y6953255D1*
X10602526Y6948953D1*
X10588775Y6946775D1*
X10574852D1*
X10561101Y6948953D1*
X10554331Y6950844D1*
X10540793Y6947594D1*
X10526913Y6946501D1*
X10409499Y6946775D1*
X10395747Y6948953D1*
X10388974Y6950844D1*
X10375436Y6947594D1*
X10361557Y6946502D1*
X10347677Y6947594D1*
X10334139Y6950844D1*
X10321276Y6956172D1*
X10309405Y6963447D1*
X10298819Y6972489D1*
X10289777Y6983075D1*
X10282502Y6994946D1*
X10277174Y7007809D1*
X10274588Y7018011D1*
X10271106Y7005375D1*
X10265407Y6992672D1*
X10257792Y6981017D1*
X10248447Y6970696D1*
X10237602Y6961965D1*
X10225525Y6955038D1*
X10212514Y6950085D1*
X10198887Y6947228D1*
X10184982Y6946539D1*
X10171139Y6948033D1*
X10157701Y6951674D1*
X10144998Y6957373D1*
X10133343Y6964988D1*
X10123023Y6974333D1*
X10119500Y6978374D1*
X10110840Y6969401D1*
X10099811Y6960905D1*
X10087587Y6954239D1*
X10074472Y6949567D1*
X10060787Y6947005D1*
X10046870Y6946615D1*
X10033063Y6948406D1*
X10023868Y6950844D1*
X10010330Y6947594D1*
X9996450Y6946502D1*
X9928850Y6946867D1*
X9915126Y6949214D1*
X9877843Y6961721D1*
X9868802Y6959576D1*
X9856397Y6953255D1*
X9843156Y6948953D1*
X9829405Y6946775D1*
X9703343Y6946501D1*
X9689464Y6947594D1*
X9675858Y6950844D1*
X9662320Y6947594D1*
X9648440Y6946501D1*
X9580843Y6946867D1*
X9567120Y6949214D1*
X9529844Y6961718D1*
X9520795Y6959576D1*
X9508390Y6953255D1*
X9495149Y6948953D1*
X9481398Y6946775D1*
X9363980Y6946502D1*
X9350100Y6947594D1*
X9336498Y6950844D1*
X9322960Y6947594D1*
X9309080Y6946502D1*
X9295200Y6947594D1*
X9281662Y6950844D1*
X9268800Y6956172D1*
X9256929Y6963447D1*
X9249559Y6969514D1*
X9239347Y6961506D1*
X9227206Y6954690D1*
X9214149Y6949858D1*
X9200497Y6947127D1*
X9186586Y6946566D1*
X9172758Y6948188D1*
X9162494Y6950844D1*
X9148956Y6947594D1*
X9135077Y6946501D1*
X9067476Y6946867D1*
X9053753Y6949214D1*
X9016494Y6961710D1*
X9004053Y6967959D1*
X8992742Y6976077D1*
X8972493Y6995709D1*
X8964850Y6983075D1*
X8955808Y6972489D1*
X8945221Y6963447D1*
X8933350Y6956172D1*
X8920488Y6950844D1*
X8906950Y6947594D1*
X8893070Y6946502D1*
X8879190Y6947594D1*
X8865652Y6950844D1*
X8852790Y6956172D1*
X8840919Y6963447D1*
X8830332Y6972489D1*
X8821290Y6983075D1*
X8814015Y6994946D1*
X8808687Y7007809D1*
X8805437Y7021347D1*
X8804345Y7035227D1*
Y7097662D1*
X8751622Y7164101D1*
X8744739Y7176203D1*
X8739834Y7189233D1*
X8737027Y7202870D1*
X8736389Y7216778D1*
X8737934Y7230614D1*
X8741625Y7244039D1*
X8747370Y7256721D1*
X8755028Y7268348D1*
X8764411Y7278634D1*
X8775288Y7287325D1*
X8787390Y7294208D1*
X8800420Y7299113D1*
X8814057Y7301919D1*
X8827965Y7302558D1*
X8841801Y7301013D1*
X8855226Y7297322D1*
X8867908Y7291577D1*
X8879535Y7283918D1*
X8889820Y7274536D1*
X8893044Y7270811D1*
X8901273Y7279428D1*
X8912263Y7287975D1*
X8924455Y7294698D1*
X8937549Y7299430D1*
X8951221Y7302057D1*
X8965137Y7302512D1*
X8978952Y7300784D1*
X8992326Y7296917D1*
X9004931Y7291005D1*
X9012710Y7285954D1*
X9032334Y7293048D1*
X9054811Y7300154D1*
X9068562Y7302332D1*
X9135077Y7302605D1*
X9148956Y7301513D1*
X9162559Y7298263D1*
X9176097Y7301513D1*
X9189977Y7302605D1*
X9203856Y7301513D1*
X9217394Y7298263D1*
X9230257Y7292935D1*
X9242128Y7285660D1*
X9249497Y7279592D1*
X9262721Y7289531D1*
X9275126Y7295851D1*
X9288368Y7300154D1*
X9302119Y7302332D1*
X9316041D1*
X9329792Y7300154D1*
X9336562Y7298263D1*
X9350100Y7301513D1*
X9363980Y7302605D1*
X9481398Y7302332D1*
X9495149Y7300154D1*
X9508390Y7295851D1*
X9520818Y7289515D1*
X9529412Y7287411D1*
X9568178Y7300154D1*
X9581929Y7302332D1*
X9648440Y7302605D1*
X9662320Y7301513D1*
X9675858Y7298263D1*
X9688720Y7292935D1*
X9694821Y7289516D1*
X9699342Y7289657D1*
X9712450Y7295908D1*
X9725723Y7300112D1*
X9739517Y7302188D1*
X9786758Y7302138D1*
X9800509Y7299960D1*
X9813775Y7295647D1*
X9842337Y7281437D1*
X9853719Y7273371D1*
X9870652Y7284273D1*
X9888597Y7291358D1*
X9916184Y7300154D1*
X9929935Y7302332D1*
X9996450Y7302605D1*
X10010330Y7301513D1*
X10023868Y7298263D1*
X10036730Y7292935D1*
X10048601Y7285660D1*
X10058657Y7278410D1*
X10069501Y7287142D1*
X10081578Y7294069D1*
X10094590Y7299022D1*
X10108216Y7301878D1*
X10122122Y7302568D1*
X10135964Y7301074D1*
X10149402Y7297432D1*
X10162105Y7291734D1*
X10173760Y7284118D1*
X10184080Y7274773D1*
X10193357Y7264709D1*
X10206861Y7276814D1*
X10218677Y7284178D1*
X10236570Y7291293D1*
X10264194Y7300154D1*
X10277945Y7302332D1*
X10361557Y7302605D1*
X10375436Y7301513D1*
X10389042Y7298263D1*
X10402580Y7301513D1*
X10416460Y7302605D1*
X10533875Y7302332D1*
X10547626Y7300154D1*
X10554356Y7298253D1*
X10570480Y7301878D1*
X10584385Y7302568D1*
X10598227Y7301074D1*
X10611665Y7297432D1*
X10624368Y7291734D1*
X10636023Y7284118D1*
X10650353Y7271502D1*
X10660198Y7281347D1*
X10671461Y7289531D1*
X10683866Y7295851D1*
X10697108Y7300154D1*
X10710859Y7302332D1*
X10724781D1*
X10738532Y7300154D1*
X10751774Y7295851D1*
X10764179Y7289531D1*
X10780027Y7278410D1*
X10790871Y7287142D1*
X10802948Y7294069D1*
X10815960Y7299022D1*
X10829586Y7301878D1*
X10843492Y7302568D1*
X10857334Y7301074D1*
X10870772Y7297432D1*
X10883475Y7291734D1*
X10895130Y7284118D1*
X10905450Y7274773D1*
X10914196Y7263906D1*
X11262633Y7608804D2*
X11226041Y7523845D1*
X11219058Y7512157D1*
X11210332Y7501706D1*
X11200079Y7492748D1*
X11188551Y7485505D1*
X11176031Y7480154D1*
X11162829Y7476827D1*
X11149269Y7475607D1*
X11135685Y7476523D1*
X11122411Y7479553D1*
X11109775Y7484622D1*
X11102938Y7488387D1*
X11090807Y7482206D1*
X11077858Y7477999D1*
X11064411Y7475869D1*
X11050796D1*
X11037348Y7477999D1*
X11024400Y7482206D1*
X11017539Y7485435D1*
X11003207Y7479523D1*
X10989930Y7476509D1*
X10976345Y7475608D1*
X10962786Y7476844D1*
X10950327Y7479967D1*
X10937641Y7476826D1*
X10924080Y7475607D1*
X10910496Y7476524D1*
X10897223Y7479554D1*
X10884587Y7484624D1*
X10878584Y7487901D1*
X10874179Y7486425D1*
X10858899Y7479848D1*
X10845660Y7476670D1*
X10827741Y7475602D1*
X10803805Y7475849D1*
X10790352Y7477939D1*
X10777391Y7482108D1*
X10756596Y7492326D1*
X10751609Y7492541D1*
X10730800Y7482206D1*
X10717852Y7477999D1*
X10704404Y7475869D1*
X10669145Y7475849D1*
X10655692Y7477939D1*
X10642731Y7482108D1*
X10633844Y7486303D1*
X10618892Y7479848D1*
X10605653Y7476669D1*
X10592080Y7475601D1*
X10578507Y7476669D1*
X10565268Y7479848D1*
X10552016Y7485435D1*
X10538705Y7479848D1*
X10525466Y7476670D1*
X10511893Y7475602D1*
X10498320Y7476670D1*
X10485081Y7479848D1*
X10471737Y7485488D1*
X10458349Y7479848D1*
X10445110Y7476670D1*
X10431537Y7475601D1*
X10417964Y7476670D1*
X10407987Y7478847D1*
X10394633Y7476197D1*
X10381028Y7475670D1*
X10367508Y7477278D1*
X10354406Y7480980D1*
X10342045Y7486687D1*
X10330728Y7494257D1*
X10320735Y7503504D1*
X10312312Y7514201D1*
X10301332Y7530652D1*
X10299232Y7524238D1*
X10300196Y7510657D1*
X10299024Y7497092D1*
X10295744Y7483878D1*
X10290437Y7471340D1*
X10283234Y7459786D1*
X10274313Y7449501D1*
X10263892Y7440739D1*
X10249331Y7432266D1*
X10231530Y7423667D1*
X10218549Y7419559D1*
X10205059Y7417532D1*
X10170236Y7417582D1*
X10156788Y7419712D1*
X10143816Y7423930D1*
X10117958Y7436798D1*
X10106846Y7444667D1*
X10093098Y7458086D1*
X10084374Y7468539D1*
X10080640Y7474269D1*
X10077860Y7476670D1*
X10059940Y7475602D1*
X10035994Y7475850D1*
X10026983Y7476670D1*
X10013410Y7475601D1*
X9999837Y7476670D1*
X9990005Y7478887D1*
X9973158Y7475869D1*
X9959542D1*
X9946095Y7477999D1*
X9933146Y7482206D1*
X9926286Y7485436D1*
X9912975Y7479848D1*
X9899736Y7476670D1*
X9886163Y7475601D1*
X9872590Y7476670D1*
X9859351Y7479848D1*
X9846007Y7485487D1*
X9832622Y7479848D1*
X9819383Y7476670D1*
X9805810Y7475601D1*
X9792237Y7476670D1*
X9778998Y7479848D1*
X9764214Y7486294D1*
X9749175Y7479848D1*
X9735936Y7476670D1*
X9717983Y7475601D1*
X9703318D1*
X9698240Y7465989D1*
X9690237Y7454974D1*
X9680610Y7445347D1*
X9669595Y7437344D1*
X9657464Y7431163D1*
X9644515Y7426955D1*
X9631068Y7424826D1*
X9617452D1*
X9604005Y7426955D1*
X9591056Y7431163D1*
X9578925Y7437344D1*
X9567910Y7445347D1*
X9558283Y7454974D1*
X9550280Y7465989D1*
X9543022Y7481041D1*
X9520098Y7491839D1*
X9512815Y7495666D1*
X9486247Y7482206D1*
X9473298Y7477999D1*
X9459851Y7475869D1*
X9424762Y7475849D1*
X9415743Y7476670D1*
X9402170Y7475602D1*
X9388597Y7476670D1*
X9375358Y7479848D1*
X9360574Y7486294D1*
X9345532Y7479848D1*
X9332293Y7476670D1*
X9314340Y7475601D1*
X9290261Y7475850D1*
X9281253Y7476670D1*
X9267680Y7475601D1*
X9254107Y7476670D1*
X9244275Y7478887D1*
X9227428Y7475869D1*
X9118533Y7475602D1*
X9104960Y7476670D1*
X9091721Y7479848D1*
X9084097Y7482774D1*
X9069828Y7477999D1*
X9056381Y7475869D1*
X9027521Y7475602D1*
X9013924Y7476699D1*
X8991287Y7475601D1*
X8977714Y7476670D1*
X8964475Y7479848D1*
X8954192Y7484000D1*
X8936369Y7478253D1*
X8922949Y7475959D1*
X8893183Y7475602D1*
X8879610Y7476670D1*
X8866346Y7479857D1*
X8854157Y7483976D1*
X8843792Y7479848D1*
X8830553Y7476670D1*
X8816980Y7475602D1*
X8802493Y7476851D1*
X8787962Y7475602D1*
X8759129Y7475869D1*
X8745682Y7477999D1*
X8732733Y7482206D1*
X8705986Y7495880D1*
X8694965Y7503920D1*
X8671146Y7527533D1*
X8663079Y7538501D1*
X8656828Y7550596D1*
X8647174Y7578921D1*
X8643926Y7592143D1*
X8642785Y7609065D1*
X8643052Y7627464D1*
X8645182Y7640912D1*
X8654417Y7669802D1*
X8659693Y7682353D1*
X8666868Y7693925D1*
X8681304Y7709772D1*
X8695100Y7723190D1*
X8706115Y7731193D1*
X8727134Y7742062D1*
X8733368Y7744876D1*
X8736819Y7748704D1*
X8743001Y7760835D1*
X8751003Y7771849D1*
X8760631Y7781477D1*
X8771645Y7789479D1*
X8783776Y7795661D1*
X8796725Y7799868D1*
X8810172Y7801998D1*
X8823788D1*
X8837235Y7799868D1*
X8850184Y7795661D1*
X8862315Y7789479D1*
X8873329Y7781477D1*
X8882957Y7771849D1*
X8890959Y7760835D1*
X8895971Y7751241D1*
X8922346Y7750917D1*
X8935782Y7748717D1*
X8954220Y7742900D1*
X8964475Y7746975D1*
X8977714Y7750154D1*
X8991287Y7751222D1*
X9004860Y7750154D1*
X9018099Y7746975D1*
X9031351Y7741388D1*
X9044661Y7746975D1*
X9057900Y7750154D1*
X9062155Y7750657D1*
X9073298Y7763658D1*
X9084099Y7774077D1*
X9095116Y7782077D1*
X9116117Y7792935D1*
X9128735Y7798050D1*
X9141998Y7801128D1*
X9160749Y7802095D1*
X9190871Y7801828D1*
X9204318Y7799698D1*
X9217291Y7795480D1*
X9225791Y7791491D1*
X9240868Y7798019D1*
X9254107Y7801197D1*
X9267680Y7802265D1*
X9281253Y7801197D1*
X9294492Y7798019D1*
X9307071Y7792809D1*
X9318679Y7785695D1*
X9329032Y7776852D1*
X9337875Y7766499D1*
X9344989Y7754891D1*
X9348918Y7745782D1*
X9360515Y7740566D1*
X9375358Y7746975D1*
X9388597Y7750154D1*
X9402170Y7751222D1*
X9416657Y7749972D1*
X9431313Y7751222D1*
X9458791Y7751031D1*
X9472264Y7749066D1*
X9485263Y7745018D1*
X9507564Y7734277D1*
X9519194Y7734363D1*
X9540240Y7744712D1*
X9553201Y7748882D1*
X9566681Y7750975D1*
X9601921Y7750954D1*
X9610687Y7750154D1*
X9624260Y7751222D1*
X9637833Y7750154D1*
X9651072Y7746975D1*
X9662321Y7742378D1*
X9673648Y7746975D1*
X9686887Y7750153D1*
X9704841Y7751222D1*
X9728514Y7751003D1*
X9741977Y7748976D1*
X9754957Y7744867D1*
X9775030Y7735130D1*
X9795657Y7745018D1*
X9808656Y7749066D1*
X9822155Y7751032D1*
X9856418Y7750954D1*
X9869865Y7748825D1*
X9876447Y7746966D1*
X9882256Y7747295D1*
X9895533Y7750312D1*
X9916757Y7751222D1*
X9936604Y7750954D1*
X9952777Y7750154D1*
X9966350Y7751222D1*
X9979923Y7750154D1*
X9989755Y7747936D1*
X10006602Y7750954D1*
X10020218D1*
X10028980Y7750154D1*
X10046900Y7751222D1*
X10070035Y7751031D1*
X10083507Y7749066D1*
X10096507Y7745018D1*
X10113549Y7736894D1*
X10127645Y7741581D1*
X10141092Y7743711D1*
X10154708D1*
X10163716Y7742949D1*
X10181423Y7743978D1*
X10199114Y7743977D1*
X10201003Y7745404D1*
X10206710Y7757765D1*
X10214280Y7769082D1*
X10223527Y7779075D1*
X10234224Y7787498D1*
X10246107Y7794144D1*
X10258883Y7798850D1*
X10272237Y7801499D1*
X10285842Y7802027D1*
X10299362Y7800419D1*
X10312464Y7796717D1*
X10324825Y7791010D1*
X10336142Y7783440D1*
X10346135Y7774193D1*
X10354558Y7763496D1*
X10381830Y7722634D1*
X10394524Y7731742D1*
X10421387Y7745018D1*
X10434386Y7749066D1*
X10447885Y7751032D1*
X10482144Y7750954D1*
X10495592Y7748824D1*
X10502174Y7746966D1*
X10507994Y7747297D1*
X10521270Y7750313D1*
X10542487Y7751222D1*
X10562334Y7750954D1*
X10578507Y7750154D1*
X10592080Y7751222D1*
X10605653Y7750154D1*
X10618892Y7746975D1*
X10633723Y7740504D1*
X10648885Y7746975D1*
X10662124Y7750154D1*
X10680077Y7751222D1*
X10704404Y7750955D1*
X10717852Y7748825D1*
X10730825Y7744606D1*
X10751497Y7734509D1*
X10757259Y7734998D1*
X10777153Y7744617D1*
X10790102Y7748825D1*
X10803549Y7750954D1*
X10837835Y7751031D1*
X10851307Y7749066D1*
X10864307Y7745018D1*
X10886584Y7734291D1*
X10898151Y7727109D1*
X10911350Y7715275D1*
X10913104Y7713501D1*
X10923308Y7725809D1*
X10933661Y7734651D1*
X10945269Y7741765D1*
X10957848Y7746975D1*
X10971087Y7750154D1*
X10978411Y7750976D1*
X10983624Y7760835D1*
X10991627Y7771849D1*
X11001254Y7781477D1*
X11012269Y7789479D1*
X11024400Y7795661D1*
X11037348Y7799868D1*
X11050796Y7801998D1*
X11064411D1*
X11077858Y7799868D1*
X11090807Y7795661D1*
X11102938Y7789479D1*
X11113953Y7781477D1*
X11123580Y7771849D1*
X11131583Y7760835D1*
X11137764Y7748704D1*
X11139542Y7743885D1*
X11148349Y7739385D1*
X11159904Y7745029D1*
X11172905Y7749073D1*
X11186378Y7751033D1*
X11199992Y7750862D1*
X11213412Y7748563D1*
X11226306Y7744193D1*
X11238359Y7737860D1*
X11249272Y7729719D1*
X11258777Y7719971D1*
X11266641Y7708857D1*
X11272669Y7696649D1*
X11276713Y7683648D1*
X11278673Y7670175D1*
X11278502Y7656561D1*
X11276203Y7643142D1*
X11271833Y7630247D1*
X11262633Y7608804D1*
X4048320Y5894649D2*
D18*
Y5440831D1*
X3821411Y5667740D2*
X4275229D1*
D25*
X4048317Y6953730D3*
D26*
X9875057Y9271743D3*
X10287850D3*
D25*
X2254253Y6953730D3*
D27*
X5207317Y8192130D3*
D18*
X1206393Y7953960D3*
D25*
X3159223Y7842823D3*
D18*
X1428667Y8176233D3*
X1539803Y8287370D3*
D25*
X2063733Y6080513D3*
D18*
X1984350Y8731917D3*
X1762077Y8509643D3*
D25*
X6334557Y6429800D3*
D18*
X1873213Y8620780D3*
X2095487Y8843053D3*
D25*
X4683383Y6398047D3*
D18*
X2206623Y8954190D3*
X2317760Y9065327D3*
D25*
X9621027Y6366293D3*
D18*
X1650940Y8398507D3*
X2428897Y9176463D3*
D25*
X11176940Y6366293D3*
D18*
X2540033Y9287600D3*
X1095257Y7842823D3*
D25*
X11208693Y8207987D3*
D18*
X2651170Y9398737D3*
D26*
X9462263Y9271743D3*
D25*
X9605150Y8207987D3*
D18*
X2762307Y9509873D3*
D28*
X4556373Y8096870D3*
Y7842870D3*
Y7588870D3*
Y7334870D3*
Y7080763D3*
D29*
X4048320Y5667740D3*
D18*
X1317530Y8065097D3*
D31*
X7572940Y7557063D3*
X7090347D3*
X11148787Y5524843D2*
D19*
Y5473800D1*
X11192097Y7664457D2*
D22*
X11148297Y7562367D1*
X11104663Y7664457D1*
X11057603Y7715500D2*
Y7562367D1*
X10984660Y7664457D2*
X11057603Y7591513D1*
X11028460Y7620657D2*
X10977417Y7562367D1*
X10923113Y7577023D2*
X10930360Y7569613D1*
X10923113Y7562367D1*
X10915703Y7569613D1*
X10923113Y7577023D1*
X10781043Y7642557D2*
X10795700Y7657213D1*
X10810357Y7664457D1*
X10832087D1*
X10846743Y7657213D1*
X10861230Y7642557D1*
X10868643Y7620657D1*
Y7606167D1*
X10861230Y7584267D1*
X10846743Y7569780D1*
X10832087Y7562367D1*
X10810357D1*
X10795700Y7569780D1*
X10781043Y7584267D1*
X10697597Y7664457D2*
X10712083Y7657213D1*
X10726740Y7642557D1*
X10733983Y7620657D1*
Y7606167D1*
X10726740Y7584267D1*
X10712083Y7569780D1*
X10697597Y7562367D1*
X10675697D1*
X10661040Y7569780D1*
X10646553Y7584267D1*
X10639140Y7606167D1*
Y7620657D1*
X10646553Y7642557D1*
X10661040Y7657213D1*
X10675697Y7664457D1*
X10697597D1*
X10592080D2*
Y7562367D1*
Y7635313D2*
X10570180Y7657213D1*
X10555527Y7664457D1*
X10533793D1*
X10519137Y7657213D1*
X10511893Y7635313D1*
Y7562367D1*
Y7635313D2*
X10489993Y7657213D1*
X10475337Y7664457D1*
X10453607D1*
X10438950Y7657213D1*
X10431537Y7635313D1*
Y7562367D1*
X10384480D2*
X10282390Y7715330D1*
X10147900Y7657213D2*
Y7540467D1*
X10155143Y7518737D1*
X10162390Y7511323D1*
X10177043Y7504080D1*
X10198943D1*
X10213433Y7511323D1*
X10147900Y7635313D2*
X10162390Y7649800D1*
X10177043Y7657213D1*
X10198943D1*
X10213433Y7649800D1*
X10228090Y7635313D1*
X10235333Y7613413D1*
Y7598757D1*
X10228090Y7577023D1*
X10213433Y7562367D1*
X10198943Y7555127D1*
X10177043D1*
X10162390Y7562367D1*
X10147900Y7577023D1*
X10013410Y7664457D2*
Y7562367D1*
Y7642557D2*
X10027900Y7657213D1*
X10042553Y7664457D1*
X10064287D1*
X10078943Y7657213D1*
X10093430Y7642557D1*
X10100843Y7620657D1*
Y7606167D1*
X10093430Y7584267D1*
X10078943Y7569780D1*
X10064287Y7562367D1*
X10042553D1*
X10027900Y7569780D1*
X10013410Y7584267D1*
X9966350Y7664457D2*
Y7562367D1*
Y7635313D2*
X9944453Y7657213D1*
X9929797Y7664457D1*
X9908063D1*
X9893410Y7657213D1*
X9886163Y7635313D1*
Y7562367D1*
Y7635313D2*
X9864263Y7657213D1*
X9849610Y7664457D1*
X9827877D1*
X9813220Y7657213D1*
X9805810Y7635313D1*
Y7562367D1*
X9758750Y7620657D2*
X9671317D1*
Y7635313D1*
X9678560Y7649967D1*
X9685807Y7657213D1*
X9700460Y7664457D1*
X9722363D1*
X9736850Y7657213D1*
X9751507Y7642557D1*
X9758750Y7620657D1*
Y7606167D1*
X9751507Y7584267D1*
X9736850Y7569780D1*
X9722363Y7562367D1*
X9700460D1*
X9685807Y7569780D1*
X9671317Y7584267D1*
X9624260Y7664457D2*
Y7511323D1*
Y7642557D2*
X9609603Y7657043D1*
X9595113Y7664457D1*
X9573213D1*
X9558560Y7657043D1*
X9544073Y7642557D1*
X9536660Y7620657D1*
Y7606000D1*
X9544073Y7584267D1*
X9558560Y7569613D1*
X9573213Y7562367D1*
X9595113D1*
X9609603Y7569613D1*
X9624260Y7584267D1*
X9402170Y7664457D2*
Y7562367D1*
Y7642557D2*
X9416657Y7657213D1*
X9431313Y7664457D1*
X9453043D1*
X9467700Y7657213D1*
X9482187Y7642557D1*
X9489600Y7620657D1*
Y7606167D1*
X9482187Y7584267D1*
X9467700Y7569780D1*
X9453043Y7562367D1*
X9431313D1*
X9416657Y7569780D1*
X9402170Y7584267D1*
X9267680Y7715500D2*
Y7562367D1*
Y7642557D2*
X9282167Y7657213D1*
X9296820Y7664457D1*
X9318720D1*
X9333210Y7657213D1*
X9347867Y7642557D1*
X9355110Y7620657D1*
Y7606167D1*
X9347867Y7584267D1*
X9333210Y7569780D1*
X9318720Y7562367D1*
X9296820D1*
X9282167Y7569780D1*
X9267680Y7584267D1*
X9213207Y7678943D2*
Y7686187D1*
X9205963Y7700843D1*
X9198720Y7708087D1*
X9184063Y7715330D1*
X9154920D1*
X9140433Y7708087D1*
X9133187Y7700843D1*
X9125777Y7686187D1*
Y7671700D1*
X9133187Y7657043D1*
X9147677Y7635313D1*
X9220620Y7562367D1*
X9118533D1*
X9071473Y7664457D2*
Y7591513D1*
X9064230Y7569780D1*
X9049573Y7562367D1*
X9027673D1*
X9013187Y7569780D1*
X8991287Y7591513D1*
Y7664457D2*
Y7562367D1*
X8864040Y7642557D2*
X8871283Y7657213D1*
X8893183Y7664457D1*
X8915083D1*
X8936983Y7657213D1*
X8944227Y7642557D1*
X8936983Y7628067D1*
X8922327Y7620657D1*
X8885940Y7613413D1*
X8871283Y7606167D1*
X8864040Y7591513D1*
Y7584267D1*
X8871283Y7569780D1*
X8893183Y7562367D1*
X8915083D1*
X8936983Y7569780D1*
X8944227Y7584267D1*
X8816980Y7715500D2*
Y7562367D1*
Y7642557D2*
X8802323Y7657213D1*
X8787837Y7664457D1*
X8765937D1*
X8751450Y7657213D1*
X8736793Y7642557D1*
X8729550Y7620657D1*
Y7606167D1*
X8736793Y7584267D1*
X8751450Y7569780D1*
X8765937Y7562367D1*
X8787837D1*
X8802323Y7569780D1*
X8816980Y7584267D1*
X11148787Y5502943D2*
D19*
X11145080Y5513893D1*
X11137837Y5521220D1*
X11130510Y5524843D1*
X11119560D1*
X11096030Y5502943D2*
X11052313D1*
Y5510270D1*
X11055937Y5517600D1*
X11059560Y5521220D1*
X11066887Y5524843D1*
X11077837D1*
X11085080Y5521220D1*
X11092407Y5513893D1*
X11096030Y5502943D1*
Y5495700D1*
X11092407Y5484750D1*
X11085080Y5477507D1*
X11077837Y5473800D1*
X11066887D1*
X11059560Y5477507D1*
X11052313Y5484750D1*
X11028787Y5524843D2*
X11006887Y5473800D1*
X10985070Y5524843D1*
X10957833Y5532087D2*
Y5535710D1*
X10954210Y5543037D1*
X10950590Y5546657D1*
X10943260Y5550280D1*
X10928690D1*
X10921447Y5546657D1*
X10917823Y5543037D1*
X10914120Y5535710D1*
Y5528467D1*
X10917823Y5521137D1*
X10925067Y5510270D1*
X10961540Y5473800D1*
X10910497D1*
X10883343Y5481127D2*
X10886967Y5477420D1*
X10883343Y5473800D1*
X10879640Y5477420D1*
X10883343Y5481127D1*
X10841537Y5473800D2*
X10805067Y5550280D1*
X10856110D1*
X10963823Y7171430D2*
D23*
X10972277Y7188330D1*
X10989373Y7205430D1*
X11006277Y7213880D1*
X11040280D1*
X11057377Y7205430D1*
X11074280Y7188330D1*
X11082927Y7171430D1*
X11091380Y7145880D1*
Y7103230D1*
X11082927Y7077877D1*
X11074280Y7060777D1*
X11057377Y7043877D1*
X11040280Y7035227D1*
X11006277D1*
X10989373Y7043877D1*
X10972277Y7060777D1*
X10963823Y7077877D1*
Y7103230D1*
X11006277D1*
X10772720Y7035227D2*
X10840920Y7213880D1*
X10908923Y7035227D1*
X10883373Y7094780D2*
X10798270D1*
X10581813Y7035227D2*
Y7213880D1*
X10649817Y7035227D1*
X10717820Y7213880D1*
Y7035227D1*
X10416460Y7213880D2*
X10526913D1*
Y7035227D1*
X10416460D1*
X10526913Y7128780D2*
X10458910D1*
X10361557Y7120330D2*
X10284907D1*
X10259553Y7128780D1*
X10250907Y7137427D1*
X10242453Y7154330D1*
Y7179880D1*
X10250907Y7196783D1*
X10259553Y7205430D1*
X10284907Y7213880D1*
X10361557D1*
Y7035227D1*
X10051350D2*
X10119550Y7213880D1*
X10187553Y7035227D1*
X10162003Y7094780D2*
X10076900D1*
X9996450Y7213880D2*
Y7035227D1*
X9936897D1*
X9911347Y7043877D1*
X9894250Y7060777D1*
X9885797Y7077877D1*
X9877347Y7103230D1*
Y7145880D1*
X9885797Y7171430D1*
X9894250Y7188330D1*
X9911347Y7205430D1*
X9936897Y7213880D1*
X9996450D1*
X9813797Y7171233D2*
Y7179683D1*
X9805347Y7196783D1*
X9796893Y7205233D1*
X9779797Y7213687D1*
X9745793D1*
X9728893Y7205233D1*
X9720440Y7196783D1*
X9711793Y7179683D1*
Y7162780D1*
X9720440Y7145683D1*
X9737343Y7120330D1*
X9822443Y7035227D1*
X9703343D1*
X9648440Y7213880D2*
Y7035227D1*
X9588890D1*
X9563340Y7043877D1*
X9546240Y7060777D1*
X9537790Y7077877D1*
X9529340Y7103230D1*
Y7145880D1*
X9537790Y7171430D1*
X9546240Y7188330D1*
X9563340Y7205430D1*
X9588890Y7213880D1*
X9648440D1*
X9363980D2*
X9474437D1*
Y7035227D1*
X9363980D1*
X9474437Y7128780D2*
X9406433D1*
X9189977Y7213880D2*
Y7035227D1*
X9309080Y7213880D1*
Y7035227D1*
X9135077Y7213880D2*
Y7035227D1*
X9075523D1*
X9049973Y7043877D1*
X9032877Y7060777D1*
X9024423Y7077877D1*
X9015973Y7103230D1*
Y7145880D1*
X9024423Y7171430D1*
X9032877Y7188330D1*
X9049973Y7205430D1*
X9075523Y7213880D1*
X9135077D1*
X8961070D2*
X8893070Y7128780D1*
Y7035227D1*
X8825067Y7213880D2*
X8893070Y7128780D1*
G04 Bottom Clear*
%LPC*%
D14*
X3556140Y4619860D3*
D21*
X6890240Y3016317D3*
X7382417D3*
D14*
X4048317Y2651153D3*
D15*
X9875057Y4969167D3*
X10287850D3*
D14*
X2254253Y2651153D3*
D15*
X5207317Y3889553D3*
X1206393Y3651383D3*
D14*
X3159223Y3540247D3*
D15*
X1428667Y3873657D3*
X1539803Y3984793D3*
D14*
X2063733Y1777937D3*
D15*
X1984350Y4429340D3*
X1762077Y4207067D3*
D14*
X6334557Y2127223D3*
D15*
X1873213Y4318203D3*
X2095487Y4540477D3*
D14*
X4683383Y2095470D3*
D15*
X2206623Y4651613D3*
X2317760Y4762750D3*
D14*
X9621027Y2063717D3*
D15*
X1650940Y4095930D3*
X2428897Y4873887D3*
D14*
X11176940Y2063717D3*
D15*
X2540033Y4985023D3*
X1095257Y3540247D3*
D14*
X11208693Y3905410D3*
D15*
X2651170Y5096160D3*
X9462263Y4969167D3*
D14*
X9605150Y3905410D3*
D15*
X2762307Y5207297D3*
X4556373Y3794293D3*
Y3540293D3*
Y3286293D3*
Y3032293D3*
Y2778187D3*
D14*
X4048320Y1365163D3*
D15*
X1317530Y3762520D3*
X7572940Y3254487D3*
X7090347D3*
D14*
X3556140Y8922437D3*
D21*
X6890240Y7318893D3*
X7382417D3*
D14*
X4048317Y6953730D3*
D15*
X9875057Y9271743D3*
X10287850D3*
D14*
X2254253Y6953730D3*
D15*
X5207317Y8192130D3*
X1206393Y7953960D3*
D14*
X3159223Y7842823D3*
D15*
X1428667Y8176233D3*
X1539803Y8287370D3*
D14*
X2063733Y6080513D3*
D15*
X1984350Y8731917D3*
X1762077Y8509643D3*
D14*
X6334557Y6429800D3*
D15*
X1873213Y8620780D3*
X2095487Y8843053D3*
D14*
X4683383Y6398047D3*
D15*
X2206623Y8954190D3*
X2317760Y9065327D3*
D14*
X9621027Y6366293D3*
D15*
X1650940Y8398507D3*
X2428897Y9176463D3*
D14*
X11176940Y6366293D3*
D15*
X2540033Y9287600D3*
X1095257Y7842823D3*
D14*
X11208693Y8207987D3*
D15*
X2651170Y9398737D3*
X9462263Y9271743D3*
D14*
X9605150Y8207987D3*
D15*
X2762307Y9509873D3*
X4556373Y8096870D3*
Y7842870D3*
Y7588870D3*
Y7334870D3*
Y7080763D3*
D14*
X4048320Y5667740D3*
D15*
X1317530Y8065097D3*
X7572940Y7557063D3*
X7090347D3*
M02*
