G04 DipTrace 3.3.1.3*
G04 board_outline_dendy_gamepad_Remastered_rev2.9_4021.gml*
%MOMM*%
G04 #@! TF.FileFunction,Profile*
G04 #@! TF.Part,Single*
%ADD11C,0.14*%
%FSLAX35Y35*%
G04*
G71*
G90*
G75*
G01*
G04 BoardOutline*
%LPD*%
X12129543Y1000000D2*
D11*
X8700187Y1000020D1*
Y1254047D1*
X8446160D1*
Y1000020D1*
X4699267D1*
Y1254047D1*
X4445240D1*
Y1000020D1*
X1000003D1*
X1000000Y5302577D1*
X4445240Y5302597D1*
Y5048570D1*
X4699267D1*
Y5302597D1*
X8446160D1*
Y5048570D1*
X8700187D1*
Y5302597D1*
X12129547D1*
X12129543Y5096180D1*
X11573860D1*
G03X11430970Y4953290I-7938J-134952D01*
G01*
Y4111827D1*
G03X11573860Y3968937I134952J-7938D01*
G01*
X12129543D1*
Y1000000D1*
Y5302597D2*
X8700187Y5302617D1*
Y5556643D1*
X8446160D1*
Y5302617D1*
X4699267D1*
Y5556643D1*
X4445240D1*
Y5302617D1*
X1000003D1*
X1000000Y9605173D1*
X4445240Y9605193D1*
Y9351167D1*
X4699267D1*
Y9605193D1*
X8446160D1*
Y9351167D1*
X8700187D1*
Y9605193D1*
X12129547D1*
X12129543Y9398777D1*
X11573860D1*
G03X11430970Y9255887I-7938J-134952D01*
G01*
Y8414423D1*
G03X11573860Y8271533I134952J-7938D01*
G01*
X12129543D1*
Y5302597D1*
X1000000Y9605193D2*
X12129547D1*
Y1000000D1*
X1000000D1*
Y9605193D1*
M02*
