G04 DipTrace 3.3.1.3*
G04 bottom_mask_dendy_gamepad_Remastered_rev2.9_4021.gbs*
%MOMM*%
G04 #@! TF.FileFunction,Soldermask,Bot*
G04 #@! TF.Part,Single*
%ADD30C,3.0*%
%ADD31C,5.0*%
%ADD32C,6.0*%
%ADD33C,2.5*%
%ADD34C,2.0*%
%ADD35C,4.5*%
%ADD40R,2.2X0.8*%
%ADD44R,1.5X1.7*%
%ADD46R,5.2X2.2*%
%ADD48C,1.7*%
%ADD50R,1.7X1.5*%
%ADD52C,2.2*%
%FSLAX35Y35*%
G04*
G71*
G90*
G75*
G01*
G04 BotMask*
%LPD*%
D52*
X2968707Y2667050D3*
X4048207D3*
X2301887Y2635297D3*
X1222387D3*
X2651173Y2301887D3*
Y1222387D3*
X2619420Y3000460D3*
Y4079960D3*
X7430050Y2111367D3*
X6350550D3*
X4699263D3*
X5778763D3*
X8525540Y2047860D3*
X9605040D3*
X11208697Y2079613D3*
X10129197D3*
X9605153Y3921307D3*
X8525653D3*
X11208697D3*
X10129197D3*
D50*
X7176023Y3048090D3*
Y3238090D3*
X7398297Y3048610D3*
Y3238610D3*
D30*
X11780257Y1349310D3*
D31*
X1349300Y4762740D3*
D30*
X1349287Y1333410D3*
X6064687Y1349310D3*
D32*
X6541000Y4858000D3*
D30*
X5016787Y5000910D3*
X5778887D3*
D33*
X7906387Y2635310D3*
X3841987Y3873710D3*
D34*
X11780287Y3254510D3*
D35*
X7953987Y4588110D3*
D48*
X1206397Y3651403D3*
X1428670Y3873677D3*
X1539807Y3984813D3*
X1984353Y4429360D3*
X1762080Y4207087D3*
X1873217Y4318223D3*
X2095490Y4540497D3*
X2206627Y4651633D3*
X2317763Y4762770D3*
X1650943Y4095950D3*
X2428900Y4873907D3*
X2540037Y4985043D3*
X1111137Y3540267D3*
X2651173Y5096180D3*
X2746433Y5191440D3*
D46*
X6560450Y4155920D3*
Y3901920D3*
Y3647920D3*
Y3393920D3*
Y3139813D3*
D48*
X1317533Y3762540D3*
D50*
X7176023Y4048320D3*
Y3858320D3*
Y3667280D3*
Y3477280D3*
X5397837Y4334100D3*
Y4144100D3*
X5175563Y4334100D3*
Y4144100D3*
X4953290Y4334100D3*
Y4144100D3*
X4731017Y4334100D3*
Y4144100D3*
D44*
X5778877Y3746663D3*
X5588877D3*
X5778877Y3524390D3*
X5588877D3*
X5778877Y3302117D3*
X5588877D3*
X5778617Y3079583D3*
X5588617D3*
D40*
X8065117Y3889553D3*
Y3762553D3*
Y3635553D3*
Y3508553D3*
X7525117D3*
Y3635553D3*
Y3762553D3*
Y3889553D3*
D52*
X2968707Y6969647D3*
X4048207D3*
X2301887Y6937893D3*
X1222387D3*
X2651173Y6604483D3*
Y5524983D3*
X2619420Y7303057D3*
Y8382557D3*
X7430050Y6413963D3*
X6350550D3*
X4699263D3*
X5778763D3*
X8525540Y6350457D3*
X9605040D3*
X11208697Y6382210D3*
X10129197D3*
X9605153Y8223903D3*
X8525653D3*
X11208697D3*
X10129197D3*
D50*
X7176023Y7350687D3*
Y7540687D3*
X7398297Y7351207D3*
Y7541207D3*
D30*
X11780257Y5651907D3*
D31*
X1349300Y9065337D3*
D30*
X1349287Y5636007D3*
X6064687Y5651907D3*
D32*
X6541000Y9160597D3*
D30*
X5016787Y9303507D3*
X5778887D3*
D33*
X7906387Y6937907D3*
X3841987Y8176307D3*
D34*
X11780287Y7557107D3*
D35*
X7953987Y8890707D3*
D48*
X1206397Y7954000D3*
X1428670Y8176273D3*
X1539807Y8287410D3*
X1984353Y8731957D3*
X1762080Y8509683D3*
X1873217Y8620820D3*
X2095490Y8843093D3*
X2206627Y8954230D3*
X2317763Y9065367D3*
X1650943Y8398547D3*
X2428900Y9176503D3*
X2540037Y9287640D3*
X1111137Y7842863D3*
X2651173Y9398777D3*
X2746433Y9494037D3*
D46*
X6560450Y8458517D3*
Y8204517D3*
Y7950517D3*
Y7696517D3*
Y7442410D3*
D48*
X1317533Y8065137D3*
D50*
X7176023Y8350917D3*
Y8160917D3*
Y7969877D3*
Y7779877D3*
X5397837Y8636697D3*
Y8446697D3*
X5175563Y8636697D3*
Y8446697D3*
X4953290Y8636697D3*
Y8446697D3*
X4731017Y8636697D3*
Y8446697D3*
D44*
X5778877Y8049260D3*
X5588877D3*
X5778877Y7826987D3*
X5588877D3*
X5778877Y7604713D3*
X5588877D3*
X5778617Y7382180D3*
X5588617D3*
D40*
X8065117Y8192150D3*
Y8065150D3*
Y7938150D3*
Y7811150D3*
X7525117D3*
Y7938150D3*
Y8065150D3*
Y8192150D3*
M02*
