M48
METRIC,0000.00
T01C0.3
T02C0.5
T03C1.0
T04C2.0
T05C2.5
T06C3.0
T07C4.5
T08C5.0
T09C6.0
%
T01
X+001667Y+001746
X+003207Y+002080
X+004286Y+001191
X+004874Y+001191
X+005652Y+002873
X+005938Y+002746
X+005779Y+003175
X+005525Y+003239
X+005398Y+003159
X+005144Y+003159
X+005144Y+003699
X+005271Y+003699
X+005398Y+003924
X+005398Y+004144
X+005382Y+004334
X+005160Y+004334
X+005175Y+004144
X+004953Y+004144
X+004937Y+004334
X+004731Y+004334
X+004730Y+004144
X+004890Y+003699
X+005589Y+003524
X+005969Y+003524
X+006096Y+003648
X+006366Y+003699
X+006366Y+003588
X+006366Y+003445
X+006366Y+003334
X+006366Y+003191
X+006366Y+003080
X+006096Y+003334
X+006366Y+003842
X+006366Y+003953
X+006366Y+004096
X+006366Y+004207
X+006763Y+004207
X+006763Y+004096
X+006763Y+003953
X+006763Y+003842
X+006763Y+003699
X+006763Y+003588
X+006763Y+003445
X+006763Y+003334
X+006763Y+003191
X+006763Y+003080
X+007176Y+003048
X+007398Y+003048
X+007795Y+003477
X+008065Y+003509
X+008383Y+003191
X+009081Y+002985
X+009891Y+002985
X+011272Y+002985
X+011367Y+001206
X+008875Y+001206
X+008240Y+001206
X+007970Y+001762
X+006874Y+001175
X+007176Y+004048
X+007525Y+004048
X+008224Y+005112
X+008240Y+005509
X+007970Y+006065
X+008875Y+005509
X+008891Y+005112
X+006874Y+005477
X+005366Y+005176
X+004874Y+005493
X+004286Y+005493
X+004271Y+005112
X+003016Y+005112
X+002619Y+004509
X+003397Y+003858
X+001762Y+003651
X+001667Y+006049
X+003207Y+006382
X+003397Y+008160
X+002619Y+008811
X+003016Y+009415
X+004271Y+009415
X+004731Y+008637
X+004730Y+008447
X+004953Y+008446
X+004937Y+008637
X+005160Y+008637
X+005175Y+008447
X+005398Y+008446
X+005382Y+008637
X+005398Y+008226
X+005271Y+008002
X+005144Y+008002
X+004890Y+008002
X+005144Y+007462
X+005398Y+007462
X+005525Y+007541
X+005779Y+007478
X+005652Y+007176
X+005938Y+007049
X+006366Y+007382
X+006366Y+007494
X+006366Y+007636
X+006366Y+007748
X+006366Y+007890
X+006366Y+008002
X+006366Y+008145
X+006366Y+008256
X+006366Y+008399
X+006366Y+008510
X+006763Y+008510
X+006763Y+008399
X+006763Y+008256
X+006763Y+008145
X+006763Y+008002
X+006763Y+007890
X+006763Y+007748
X+006763Y+007636
X+006763Y+007494
X+006763Y+007382
X+007176Y+007351
X+007398Y+007351
X+007795Y+007779
X+008065Y+007811
X+008383Y+007494
X+009081Y+007287
X+009891Y+007287
X+011272Y+007287
X+011367Y+005509
X+011256Y+005112
X+011256Y+009415
X+008891Y+009415
X+008224Y+009415
X+007525Y+008350
X+007176Y+008351
X+006096Y+007951
X+005969Y+007827
X+006096Y+007636
X+005589Y+007827
X+005366Y+009478
X+001762Y+007954
T02
X+005779Y+004156
X+005779Y+008459
T03
X+002969Y+002667
X+002619Y+003000
X+002302Y+002635
X+002651Y+002302
X+002651Y+001222
X+001222Y+002635
X+001111Y+003540
X+001206Y+003651
X+001318Y+003763
X+001429Y+003874
X+001540Y+003985
X+001651Y+004096
X+001762Y+004207
X+001873Y+004318
X+001984Y+004429
X+002095Y+004540
X+002207Y+004652
X+002318Y+004763
X+002429Y+004874
X+002540Y+004985
X+002651Y+005096
X+002746Y+005191
X+002651Y+005525
X+002651Y+006604
X+002302Y+006938
X+002619Y+007303
X+002969Y+006970
X+004048Y+006970
X+004699Y+006414
X+005779Y+006414
X+006351Y+006414
X+006560Y+007442
X+006560Y+007697
X+006560Y+007951
X+006560Y+008205
X+006560Y+008459
X+008526Y+008224
X+009605Y+008224
X+010129Y+008224
X+011209Y+008224
X+011209Y+006382
X+010129Y+006382
X+009605Y+006350
X+008526Y+006350
X+007430Y+006414
X+006560Y+004156
X+006560Y+003902
X+006560Y+003648
X+006560Y+003394
X+006560Y+003140
X+006351Y+002111
X+005779Y+002111
X+004699Y+002111
X+004048Y+002667
X+002619Y+004080
X+001222Y+006938
X+001111Y+007843
X+001206Y+007954
X+001318Y+008065
X+001429Y+008176
X+001540Y+008287
X+001651Y+008399
X+001762Y+008510
X+001873Y+008621
X+001984Y+008732
X+002095Y+008843
X+002207Y+008954
X+002318Y+009065
X+002429Y+009177
X+002540Y+009288
X+002651Y+009399
X+002746Y+009494
X+002619Y+008383
X+008526Y+003921
X+009605Y+003921
X+010129Y+003921
X+011209Y+003921
X+011209Y+002080
X+010129Y+002080
X+009605Y+002048
X+008526Y+002048
X+007430Y+002111
T04
X+011780Y+003255
X+011780Y+007557
T05
X+007906Y+002635
X+003842Y+003874
X+003842Y+008176
X+007906Y+006938
T06
X+011780Y+001349
X+011780Y+005652
X+006065Y+005652
X+005779Y+005001
X+005017Y+005001
X+001349Y+005636
X+001349Y+001333
X+006065Y+001349
X+005779Y+009304
X+005017Y+009304
T07
X+007954Y+004588
X+007954Y+008891
T08
X+001349Y+004763
X+001349Y+009065
T09
X+006541Y+004858
X+006541Y+009161
T00
M30
