G04 DipTrace 3.3.1.3*
G04 top_silk_dendy_gamepad_Remastered_rev2.9_4021.gto*
%MOMM*%
G04 #@! TF.FileFunction,Legend,Top*
G04 #@! TF.Part,Single*
%ADD10C,0.25*%
%ADD13C,0.5*%
%ADD19C,0.11767*%
%ADD54C,0.19608*%
%FSLAX35Y35*%
G04*
G71*
G90*
G75*
G01*
G04 TopSilk*
%LPD*%
X3508457Y3238523D2*
D13*
G02X3508457Y3238523I0J-579437D01*
G01*
X1762137Y2063823D2*
G02X1762137Y2063823I0J579437D01*
G01*
X3222647Y1762137D2*
G02X3222647Y1762137I-579437J0D01*
G01*
X2047947Y3540210D2*
G02X2047947Y3540210I579437J0D01*
G01*
X6890300Y1539893D2*
G02X6890300Y1539893I0J579437D01*
G01*
X5239013Y2682840D2*
G02X5239013Y2682840I0J-579437D01*
G01*
X9065290Y2619333D2*
G02X9065290Y2619333I0J-579437D01*
G01*
X10668947Y1508140D2*
G02X10668947Y1508140I0J579437D01*
G01*
X9065403Y3349833D2*
G02X9065403Y3349833I0J579437D01*
G01*
X10668947D2*
G02X10668947Y3349833I0J579437D01*
G01*
X7414185Y4079816D2*
D10*
Y3825784D1*
X7636435Y4079816D2*
Y3825784D1*
X7414185D2*
G03X7636435Y3825784I111125J16D01*
G01*
Y4079816D2*
G03X7414185Y4079816I-111125J-16D01*
G01*
X5834337Y3559051D2*
X4834417D1*
X5834337Y3299015D2*
X4834417D1*
Y3559051D2*
Y3299015D1*
X5834337Y3559051D2*
Y3479057D1*
Y3379009D2*
Y3299015D1*
Y3479057D2*
G03X5834337Y3379009I28J-50024D01*
G01*
X10785730Y1228733D2*
D19*
Y1177690D1*
Y1206837D2*
X10789437Y1217787D1*
X10796680Y1225113D1*
X10804010Y1228733D1*
X10814960D1*
X10838490Y1206837D2*
X10882203D1*
Y1214163D1*
X10878583Y1221490D1*
X10874960Y1225113D1*
X10867633Y1228733D1*
X10856683D1*
X10849440Y1225113D1*
X10842110Y1217787D1*
X10838490Y1206837D1*
Y1199590D1*
X10842110Y1188640D1*
X10849440Y1181397D1*
X10856683Y1177690D1*
X10867633D1*
X10874960Y1181397D1*
X10882203Y1188640D1*
X10905733Y1228733D2*
X10927633Y1177690D1*
X10949450Y1228733D1*
X10976683Y1235980D2*
Y1239600D1*
X10980307Y1246930D1*
X10983927Y1250550D1*
X10991257Y1254173D1*
X11005830D1*
X11013073Y1250550D1*
X11016693Y1246930D1*
X11020400Y1239600D1*
Y1232357D1*
X11016693Y1225030D1*
X11009450Y1214163D1*
X10972980Y1177690D1*
X11024023D1*
X11051173Y1185020D2*
X11047550Y1181313D1*
X11051173Y1177690D1*
X11054880Y1181313D1*
X11051173Y1185020D1*
X11125830Y1228733D2*
X11122127Y1217787D1*
X11114880Y1210457D1*
X11103930Y1206837D1*
X11100310D1*
X11089360Y1210457D1*
X11082117Y1217787D1*
X11078410Y1228733D1*
Y1232357D1*
X11082117Y1243307D1*
X11089360Y1250550D1*
X11100310Y1254173D1*
X11103930D1*
X11114880Y1250550D1*
X11122127Y1243307D1*
X11125830Y1228733D1*
Y1210457D1*
X11122127Y1192263D1*
X11114880Y1181313D1*
X11103930Y1177690D1*
X11096687D1*
X11085737Y1181313D1*
X11082117Y1188640D1*
X6290547Y4282933D2*
D10*
X6830353D1*
Y3012800D1*
X6290547D1*
Y4282933D1*
X6830353Y3266827D2*
X6290547D1*
X6830353Y3520853D2*
X6290547D1*
X6830353Y3774880D2*
X6290547D1*
X6826737Y4032443D2*
X6302807D1*
X3403776Y3363723D2*
D54*
X3458385D1*
X3476635Y3369900D1*
X3482812Y3375937D1*
X3488849Y3388010D1*
Y3400223D1*
X3482812Y3412296D1*
X3476635Y3418473D1*
X3458385Y3424510D1*
X3403776D1*
Y3296900D1*
X3446312Y3363723D2*
X3488849Y3296900D1*
X3570601Y3424510D2*
Y3296900D1*
X3528065Y3424510D2*
X3613138D1*
X1663562Y3408683D2*
Y3281074D1*
X1736422D1*
X1818174Y3408683D2*
Y3281074D1*
X1775638Y3408683D2*
X1860711D1*
X2538529Y2587873D2*
Y2460264D1*
X2581066D1*
X2599316Y2466441D1*
X2611529Y2478514D1*
X2617566Y2490727D1*
X2623602Y2508837D1*
Y2539300D1*
X2617566Y2557550D1*
X2611529Y2569623D1*
X2599316Y2581837D1*
X2581066Y2587873D1*
X2538529D1*
X2747891D2*
Y2460264D1*
X2662818Y2587873D1*
Y2460264D1*
X2522702Y4365947D2*
Y4274837D1*
X2528739Y4256587D1*
X2540952Y4244514D1*
X2559202Y4238337D1*
X2571275D1*
X2589525Y4244514D1*
X2601739Y4256587D1*
X2607775Y4274837D1*
Y4365947D1*
X2646991Y4299124D2*
X2701741D1*
X2719851Y4305160D1*
X2726028Y4311337D1*
X2732064Y4323410D1*
Y4341660D1*
X2726028Y4353733D1*
X2719851Y4359910D1*
X2701741Y4365947D1*
X2646991D1*
Y4238337D1*
X6745046Y2866503D2*
X6732972Y2878717D1*
X6714722Y2884753D1*
X6690436D1*
X6672186Y2878717D1*
X6659972Y2866503D1*
Y2854430D1*
X6666149Y2842217D1*
X6672186Y2836180D1*
X6684259Y2830144D1*
X6720759Y2817930D1*
X6732972Y2811894D1*
X6739009Y2805717D1*
X6745046Y2793644D1*
Y2775394D1*
X6732972Y2763321D1*
X6714722Y2757144D1*
X6690436D1*
X6672186Y2763321D1*
X6659972Y2775394D1*
X6802511Y2884753D2*
Y2781430D1*
X6808548Y2763321D1*
X6820761Y2757144D1*
X6832834D1*
X6784261Y2842217D2*
X6826798D1*
X6944910D2*
Y2757144D1*
Y2823967D2*
X6932837Y2836180D1*
X6920623Y2842217D1*
X6902513D1*
X6890300Y2836180D1*
X6878227Y2823967D1*
X6872050Y2805717D1*
Y2793644D1*
X6878227Y2775394D1*
X6890300Y2763321D1*
X6902513Y2757144D1*
X6920623D1*
X6932837Y2763321D1*
X6944910Y2775394D1*
X6984125Y2842217D2*
Y2757144D1*
Y2805717D2*
X6990302Y2823967D1*
X7002375Y2836180D1*
X7014589Y2842217D1*
X7032839D1*
X7090304Y2884753D2*
Y2781430D1*
X7096341Y2763321D1*
X7108554Y2757144D1*
X7120628D1*
X7072054Y2842217D2*
X7114591D1*
X5049865Y2850577D2*
X5037791Y2862790D1*
X5019541Y2868827D1*
X4995255D1*
X4977005Y2862790D1*
X4964791Y2850577D1*
Y2838504D1*
X4970968Y2826290D1*
X4977005Y2820254D1*
X4989078Y2814217D1*
X5025578Y2802004D1*
X5037791Y2795967D1*
X5043828Y2789790D1*
X5049865Y2777717D1*
Y2759467D1*
X5037791Y2747394D1*
X5019541Y2741217D1*
X4995255D1*
X4977005Y2747394D1*
X4964791Y2759467D1*
X5089080Y2789790D2*
X5161940D1*
Y2802004D1*
X5155903Y2814217D1*
X5149867Y2820254D1*
X5137653Y2826290D1*
X5119403D1*
X5107330Y2820254D1*
X5095117Y2808040D1*
X5089080Y2789790D1*
Y2777717D1*
X5095117Y2759467D1*
X5107330Y2747394D1*
X5119403Y2741217D1*
X5137653D1*
X5149867Y2747394D1*
X5161940Y2759467D1*
X5201155Y2868827D2*
Y2741217D1*
X5240371Y2789790D2*
X5313231D1*
Y2802004D1*
X5307194Y2814217D1*
X5301158Y2820254D1*
X5288944Y2826290D1*
X5270694D1*
X5258621Y2820254D1*
X5246408Y2808040D1*
X5240371Y2789790D1*
Y2777717D1*
X5246408Y2759467D1*
X5258621Y2747394D1*
X5270694Y2741217D1*
X5288944D1*
X5301158Y2747394D1*
X5313231Y2759467D1*
X5425446Y2808040D2*
X5413233Y2820254D1*
X5401020Y2826290D1*
X5382910D1*
X5370696Y2820254D1*
X5358623Y2808040D1*
X5352446Y2789790D1*
Y2777717D1*
X5358623Y2759467D1*
X5370696Y2747394D1*
X5382910Y2741217D1*
X5401020D1*
X5413233Y2747394D1*
X5425446Y2759467D1*
X5482912Y2868827D2*
Y2765504D1*
X5488949Y2747394D1*
X5501162Y2741217D1*
X5513235D1*
X5464662Y2826290D2*
X5507199D1*
X8759014Y2805320D2*
Y2677710D1*
X8813764D1*
X8832014Y2683887D1*
X8838051Y2689924D1*
X8844087Y2701997D1*
Y2720247D1*
X8838051Y2732460D1*
X8832014Y2738497D1*
X8813764Y2744533D1*
X8832014Y2750710D1*
X8838051Y2756747D1*
X8844087Y2768820D1*
Y2781033D1*
X8838051Y2793106D1*
X8832014Y2799283D1*
X8813764Y2805320D1*
X8759014D1*
Y2744533D2*
X8813764D1*
X8925840Y2805320D2*
Y2677710D1*
X8883303Y2805320D2*
X8968376D1*
X9092665D2*
Y2677710D1*
X9007592Y2805320D1*
Y2677710D1*
X9131881Y2656653D2*
X9247277D1*
X9286493Y2805320D2*
Y2677710D1*
X9341243D1*
X9359493Y2683887D1*
X9365529Y2689924D1*
X9371566Y2701997D1*
Y2720247D1*
X9365529Y2732460D1*
X9359493Y2738497D1*
X9341243Y2744533D1*
X9359493Y2750710D1*
X9365529Y2756747D1*
X9371566Y2768820D1*
Y2781033D1*
X9365529Y2793106D1*
X9359493Y2799283D1*
X9341243Y2805320D1*
X9286493D1*
Y2744533D2*
X9341243D1*
X10356564Y2853000D2*
Y2725390D1*
X10411314D1*
X10429564Y2731567D1*
X10435601Y2737604D1*
X10441637Y2749677D1*
Y2767927D1*
X10435601Y2780140D1*
X10429564Y2786177D1*
X10411314Y2792213D1*
X10429564Y2798390D1*
X10435601Y2804427D1*
X10441637Y2816500D1*
Y2828713D1*
X10435601Y2840786D1*
X10429564Y2846963D1*
X10411314Y2853000D1*
X10356564D1*
Y2792213D2*
X10411314D1*
X10523390Y2853000D2*
Y2725390D1*
X10480853Y2853000D2*
X10565926D1*
X10690215D2*
Y2725390D1*
X10605142Y2853000D1*
Y2725390D1*
X10729431Y2704333D2*
X10844827D1*
X10981329Y2725390D2*
X10932616Y2853000D1*
X10884042Y2725390D1*
X10902292Y2767927D2*
X10963079D1*
X8696983Y4694693D2*
Y4567084D1*
X8751733D1*
X8769983Y4573261D1*
X8776020Y4579297D1*
X8782056Y4591370D1*
Y4609620D1*
X8776020Y4621834D1*
X8769983Y4627870D1*
X8751733Y4633907D1*
X8769983Y4640084D1*
X8776020Y4646120D1*
X8782056Y4658193D1*
Y4670407D1*
X8776020Y4682480D1*
X8769983Y4688657D1*
X8751733Y4694693D1*
X8696983D1*
Y4633907D2*
X8751733D1*
X8863809Y4694693D2*
Y4567084D1*
X8821272Y4694693D2*
X8906345D1*
X9030634D2*
Y4567084D1*
X8945561Y4694693D1*
Y4567084D1*
X9069850Y4546026D2*
X9185246D1*
X9266998Y4694693D2*
Y4567084D1*
X9224461Y4694693D2*
X9309535D1*
X9348750D2*
Y4567084D1*
X9403500D1*
X9421750Y4573261D1*
X9427787Y4579297D1*
X9433823Y4591370D1*
Y4609620D1*
X9427787Y4621834D1*
X9421750Y4627870D1*
X9403500Y4633907D1*
X9421750Y4640084D1*
X9427787Y4646120D1*
X9433823Y4658193D1*
Y4670407D1*
X9427787Y4682480D1*
X9421750Y4688657D1*
X9403500Y4694693D1*
X9348750D1*
Y4633907D2*
X9403500D1*
X10294420Y4694693D2*
Y4567084D1*
X10349170D1*
X10367420Y4573261D1*
X10373456Y4579297D1*
X10379493Y4591370D1*
Y4609620D1*
X10373456Y4621834D1*
X10367420Y4627870D1*
X10349170Y4633907D1*
X10367420Y4640084D1*
X10373456Y4646120D1*
X10379493Y4658193D1*
Y4670407D1*
X10373456Y4682480D1*
X10367420Y4688657D1*
X10349170Y4694693D1*
X10294420D1*
Y4633907D2*
X10349170D1*
X10461245Y4694693D2*
Y4567084D1*
X10418709Y4694693D2*
X10503782D1*
X10628071D2*
Y4567084D1*
X10542997Y4694693D1*
Y4567084D1*
X10667286Y4546026D2*
X10782682D1*
X10864435Y4694693D2*
Y4567084D1*
X10821898Y4694693D2*
X10906971D1*
X11043473Y4567084D2*
X10994760Y4694693D1*
X10946187Y4567084D1*
X10964437Y4609620D2*
X11025223D1*
X7508730Y3648039D2*
X7502694Y3660112D1*
X7490480Y3672325D1*
X7478407Y3678362D1*
X7454121D1*
X7441907Y3672325D1*
X7429834Y3660112D1*
X7423657Y3648039D1*
X7417621Y3629789D1*
Y3599325D1*
X7423657Y3581215D1*
X7429834Y3569002D1*
X7441907Y3556929D1*
X7454121Y3550752D1*
X7478407D1*
X7490480Y3556929D1*
X7502694Y3569002D1*
X7508730Y3581215D1*
X7554123Y3647898D2*
Y3653935D1*
X7560160Y3666148D1*
X7566196Y3672185D1*
X7578410Y3678221D1*
X7602696D1*
X7614769Y3672185D1*
X7620806Y3666148D1*
X7626983Y3653935D1*
Y3641862D1*
X7620806Y3629648D1*
X7608733Y3611539D1*
X7547946Y3550752D1*
X7633019D1*
X7703937Y3701134D2*
X7697760Y3713348D1*
X7679651Y3731598D1*
X7807120D1*
X7679651Y3807313D2*
X7685687Y3789063D1*
X7703937Y3776850D1*
X7734260Y3770813D1*
X7752510D1*
X7782833Y3776850D1*
X7801083Y3789063D1*
X7807120Y3807313D1*
Y3819386D1*
X7801083Y3837636D1*
X7782833Y3849709D1*
X7752510Y3855886D1*
X7734260D1*
X7703937Y3849709D1*
X7685687Y3837636D1*
X7679651Y3819386D1*
Y3807313D1*
X7703937Y3849709D2*
X7782833Y3776850D1*
X7679651Y3931602D2*
X7685687Y3913352D1*
X7703937Y3901139D1*
X7734260Y3895102D1*
X7752510D1*
X7782833Y3901139D1*
X7801083Y3913352D1*
X7807120Y3931602D1*
Y3943675D1*
X7801083Y3961925D1*
X7782833Y3973998D1*
X7752510Y3980175D1*
X7734260D1*
X7703937Y3973998D1*
X7685687Y3961925D1*
X7679651Y3943675D1*
Y3931602D1*
X7703937Y3973998D2*
X7782833Y3901139D1*
X7722047Y4019391D2*
X7807120D1*
X7746333D2*
X7728083Y4037641D1*
X7722047Y4049854D1*
Y4067964D1*
X7728083Y4080177D1*
X7746333Y4086214D1*
X7807120D1*
X7679510Y4204466D2*
Y4125429D1*
X7807120D1*
X7740297D2*
Y4174003D1*
X4640337Y3329189D2*
X4731446D1*
X4749696Y3335226D1*
X4761770Y3347439D1*
X4767946Y3365689D1*
X4767947Y3377762D1*
X4761770Y3396012D1*
X4749696Y3408226D1*
X4731447Y3414262D1*
X4640337D1*
X4670800Y3459655D2*
X4664764D1*
X4652550Y3465692D1*
X4646514Y3471728D1*
X4640477Y3483941D1*
Y3508228D1*
X4646514Y3520301D1*
X4652550Y3526338D1*
X4664764Y3532515D1*
X4676837Y3532514D1*
X4689050Y3526338D1*
X4707160Y3514264D1*
X4767946Y3453478D1*
Y3538551D1*
X5061743Y3461935D2*
X5055706Y3474008D1*
X5043493Y3486222D1*
X5031420Y3492258D1*
X5007133D1*
X4994920Y3486222D1*
X4982847Y3474008D1*
X4976670Y3461935D1*
X4970633Y3443685D1*
Y3413222D1*
X4976670Y3395112D1*
X4982847Y3382899D1*
X4994920Y3370826D1*
X5007133Y3364649D1*
X5031420D1*
X5043493Y3370826D1*
X5055706Y3382899D1*
X5061743Y3395112D1*
X5100958Y3492258D2*
Y3364649D1*
X5143495D1*
X5161745Y3370826D1*
X5173958Y3382899D1*
X5179995Y3395112D1*
X5186032Y3413222D1*
Y3443685D1*
X5179995Y3461935D1*
X5173958Y3474008D1*
X5161745Y3486222D1*
X5143495Y3492258D1*
X5100958D1*
X5286034Y3364649D2*
Y3492118D1*
X5225247Y3407185D1*
X5316357D1*
X5392073Y3492118D2*
X5373823Y3486081D1*
X5361609Y3467831D1*
X5355573Y3437508D1*
Y3419258D1*
X5361609Y3388935D1*
X5373823Y3370685D1*
X5392073Y3364649D1*
X5404146D1*
X5422396Y3370685D1*
X5434469Y3388935D1*
X5440646Y3419258D1*
Y3437508D1*
X5434469Y3467831D1*
X5422396Y3486081D1*
X5404146Y3492118D1*
X5392073D1*
X5434469Y3467831D2*
X5361609Y3388935D1*
X5486038Y3461795D2*
Y3467831D1*
X5492075Y3480045D1*
X5498111Y3486081D1*
X5510325Y3492118D1*
X5534611D1*
X5546684Y3486081D1*
X5552721Y3480045D1*
X5558898Y3467831D1*
Y3455758D1*
X5552721Y3443545D1*
X5540648Y3425435D1*
X5479861Y3364649D1*
X5564934D1*
X5604150Y3467831D2*
X5616364Y3474008D1*
X5634614Y3492118D1*
Y3364649D1*
X6876569Y4200878D2*
D19*
X6905713Y4124313D1*
X6934857Y4200878D1*
X7013052Y4182684D2*
X7009430Y4189928D1*
X7002102Y4197256D1*
X6994858Y4200878D1*
X6980286D1*
X6972958Y4197256D1*
X6965714Y4189928D1*
X6962008Y4182684D1*
X6958386Y4171734D1*
Y4153456D1*
X6962008Y4142591D1*
X6965714Y4135263D1*
X6972958Y4128019D1*
X6980286Y4124313D1*
X6994858D1*
X7002102Y4128019D1*
X7009430Y4135263D1*
X7013052Y4142591D1*
X7091247Y4182684D2*
X7087625Y4189928D1*
X7080297Y4197256D1*
X7073053Y4200878D1*
X7058481D1*
X7051153Y4197256D1*
X7043909Y4189928D1*
X7040203Y4182684D1*
X7036581Y4171734D1*
Y4153456D1*
X7040203Y4142591D1*
X7043909Y4135263D1*
X7051153Y4128019D1*
X7058481Y4124313D1*
X7073053D1*
X7080297Y4128019D1*
X7087625Y4135263D1*
X7091247Y4142591D1*
X6884409Y3942738D2*
Y3866173D1*
X6909931D1*
X6920881Y3869879D1*
X6928209Y3877123D1*
X6931831Y3884451D1*
X6935453Y3895316D1*
Y3913594D1*
X6931831Y3924544D1*
X6928209Y3931788D1*
X6920881Y3939116D1*
X6909931Y3942738D1*
X6884409D1*
X7002698Y3917216D2*
Y3866173D1*
Y3906266D2*
X6995454Y3913594D1*
X6988126Y3917216D1*
X6977260D1*
X6969932Y3913594D1*
X6962688Y3906266D1*
X6958982Y3895316D1*
Y3888073D1*
X6962688Y3877123D1*
X6969932Y3869879D1*
X6977260Y3866173D1*
X6988126D1*
X6995454Y3869879D1*
X7002698Y3877123D1*
X7037177Y3942738D2*
Y3880744D1*
X7040799Y3869879D1*
X7048127Y3866173D1*
X7055371D1*
X7026227Y3917216D2*
X7051749D1*
X7122616D2*
Y3866173D1*
Y3906266D2*
X7115373Y3913594D1*
X7108045Y3917216D1*
X7097179D1*
X7089851Y3913594D1*
X7082607Y3906266D1*
X7078901Y3895316D1*
Y3888073D1*
X7082607Y3877123D1*
X7089851Y3869879D1*
X7097179Y3866173D1*
X7108045D1*
X7115373Y3869879D1*
X7122616Y3877123D1*
X6934008Y3671858D2*
X6930386Y3679102D1*
X6923058Y3686430D1*
X6915814Y3690052D1*
X6901242D1*
X6893914Y3686430D1*
X6886670Y3679102D1*
X6882964Y3671858D1*
X6879342Y3660908D1*
Y3642630D1*
X6882964Y3631764D1*
X6886670Y3624436D1*
X6893914Y3617192D1*
X6901242Y3613486D1*
X6915814D1*
X6923058Y3617192D1*
X6930386Y3624436D1*
X6934008Y3631764D1*
X6957538Y3690052D2*
Y3613486D1*
X6999261Y3664530D2*
X6992017Y3660908D1*
X6984689Y3653580D1*
X6981067Y3642630D1*
Y3635386D1*
X6984689Y3624436D1*
X6992017Y3617192D1*
X6999261Y3613486D1*
X7010211D1*
X7017539Y3617192D1*
X7024783Y3624436D1*
X7028489Y3635386D1*
Y3642630D1*
X7024783Y3653580D1*
X7017539Y3660908D1*
X7010211Y3664530D1*
X6999261D1*
X7095818Y3653580D2*
X7088490Y3660908D1*
X7081162Y3664530D1*
X7070296D1*
X7062968Y3660908D1*
X7055724Y3653580D1*
X7052018Y3642630D1*
Y3635386D1*
X7055724Y3624436D1*
X7062968Y3617192D1*
X7070296Y3613486D1*
X7081162D1*
X7088490Y3617192D1*
X7095818Y3624436D1*
X7119348Y3690052D2*
Y3613486D1*
X7155820Y3664530D2*
X7119348Y3628058D1*
X7133920Y3642630D2*
X7159442Y3613486D1*
X6929351Y3161144D2*
X6925730Y3168388D1*
X6918401Y3175716D1*
X6911158Y3179338D1*
X6896586D1*
X6889258Y3175716D1*
X6882014Y3168388D1*
X6878308Y3161144D1*
X6874686Y3150194D1*
Y3131916D1*
X6878308Y3121051D1*
X6882014Y3113723D1*
X6889258Y3106479D1*
X6896586Y3102773D1*
X6911158D1*
X6918401Y3106479D1*
X6925730Y3113723D1*
X6929351Y3121051D1*
Y3131916D1*
X6911158D1*
X7003925Y3179338D2*
Y3102773D1*
X6952881Y3179338D1*
Y3102773D1*
X7027454Y3179338D2*
Y3102773D1*
X7052976D1*
X7063926Y3106479D1*
X7071254Y3113723D1*
X7074876Y3121051D1*
X7078498Y3131916D1*
Y3150194D1*
X7074876Y3161144D1*
X7071254Y3168388D1*
X7063926Y3175716D1*
X7052976Y3179338D1*
X7027454D1*
X6887976Y3443268D2*
Y3366703D1*
X6931691D1*
X6998937Y3417746D2*
Y3366703D1*
Y3406796D2*
X6991693Y3414124D1*
X6984365Y3417746D1*
X6973499D1*
X6966171Y3414124D1*
X6958927Y3406796D1*
X6955221Y3395846D1*
Y3388603D1*
X6958927Y3377653D1*
X6966171Y3370409D1*
X6973499Y3366703D1*
X6984365D1*
X6991693Y3370409D1*
X6998937Y3377653D1*
X7033416Y3443268D2*
Y3381274D1*
X7037038Y3370409D1*
X7044366Y3366703D1*
X7051610D1*
X7022466Y3417746D2*
X7047988D1*
X7118939Y3406796D2*
X7111611Y3414124D1*
X7104283Y3417746D1*
X7093417D1*
X7086089Y3414124D1*
X7078845Y3406796D1*
X7075139Y3395846D1*
Y3388603D1*
X7078845Y3377653D1*
X7086089Y3370409D1*
X7093417Y3366703D1*
X7104283D1*
X7111611Y3370409D1*
X7118939Y3377653D1*
X7142469Y3443268D2*
Y3366703D1*
Y3403174D2*
X7153419Y3414124D1*
X7160747Y3417746D1*
X7171697D1*
X7178941Y3414124D1*
X7182563Y3403174D1*
Y3366703D1*
X3508457Y7541120D2*
D13*
G02X3508457Y7541120I0J-579437D01*
G01*
X1762137Y6366420D2*
G02X1762137Y6366420I0J579437D01*
G01*
X3222647Y6064733D2*
G02X3222647Y6064733I-579437J0D01*
G01*
X2047947Y7842807D2*
G02X2047947Y7842807I579437J0D01*
G01*
X6890300Y5842490D2*
G02X6890300Y5842490I0J579437D01*
G01*
X5239013Y6985437D2*
G02X5239013Y6985437I0J-579437D01*
G01*
X9065290Y6921930D2*
G02X9065290Y6921930I0J-579437D01*
G01*
X10668947Y5810737D2*
G02X10668947Y5810737I0J579437D01*
G01*
X9065403Y7652430D2*
G02X9065403Y7652430I0J579437D01*
G01*
X10668947D2*
G02X10668947Y7652430I0J579437D01*
G01*
X7414185Y8382413D2*
D10*
Y8128381D1*
X7636435Y8382413D2*
Y8128381D1*
X7414185D2*
G03X7636435Y8128381I111125J16D01*
G01*
Y8382413D2*
G03X7414185Y8382413I-111125J-16D01*
G01*
X5834337Y7861648D2*
X4834417D1*
X5834337Y7601612D2*
X4834417D1*
Y7861648D2*
Y7601612D1*
X5834337Y7861648D2*
Y7781654D1*
Y7681606D2*
Y7601612D1*
Y7781654D2*
G03X5834337Y7681606I28J-50024D01*
G01*
X10785730Y5531330D2*
D19*
Y5480287D1*
Y5509433D2*
X10789437Y5520383D1*
X10796680Y5527710D1*
X10804010Y5531330D1*
X10814960D1*
X10838490Y5509433D2*
X10882203D1*
Y5516760D1*
X10878583Y5524087D1*
X10874960Y5527710D1*
X10867633Y5531330D1*
X10856683D1*
X10849440Y5527710D1*
X10842110Y5520383D1*
X10838490Y5509433D1*
Y5502187D1*
X10842110Y5491237D1*
X10849440Y5483993D1*
X10856683Y5480287D1*
X10867633D1*
X10874960Y5483993D1*
X10882203Y5491237D1*
X10905733Y5531330D2*
X10927633Y5480287D1*
X10949450Y5531330D1*
X10976683Y5538577D2*
Y5542197D1*
X10980307Y5549527D1*
X10983927Y5553147D1*
X10991257Y5556770D1*
X11005830D1*
X11013073Y5553147D1*
X11016693Y5549527D1*
X11020400Y5542197D1*
Y5534953D1*
X11016693Y5527627D1*
X11009450Y5516760D1*
X10972980Y5480287D1*
X11024023D1*
X11051173Y5487617D2*
X11047550Y5483910D1*
X11051173Y5480287D1*
X11054880Y5483910D1*
X11051173Y5487617D1*
X11125830Y5531330D2*
X11122127Y5520383D1*
X11114880Y5513053D1*
X11103930Y5509433D1*
X11100310D1*
X11089360Y5513053D1*
X11082117Y5520383D1*
X11078410Y5531330D1*
Y5534953D1*
X11082117Y5545903D1*
X11089360Y5553147D1*
X11100310Y5556770D1*
X11103930D1*
X11114880Y5553147D1*
X11122127Y5545903D1*
X11125830Y5531330D1*
Y5513053D1*
X11122127Y5494860D1*
X11114880Y5483910D1*
X11103930Y5480287D1*
X11096687D1*
X11085737Y5483910D1*
X11082117Y5491237D1*
X6290547Y8585530D2*
D10*
X6830353D1*
Y7315397D1*
X6290547D1*
Y8585530D1*
X6830353Y7569423D2*
X6290547D1*
X6830353Y7823450D2*
X6290547D1*
X6830353Y8077477D2*
X6290547D1*
X6826737Y8335040D2*
X6302807D1*
X3403776Y7666320D2*
D54*
X3458385D1*
X3476635Y7672497D1*
X3482812Y7678534D1*
X3488849Y7690607D1*
Y7702820D1*
X3482812Y7714893D1*
X3476635Y7721070D1*
X3458385Y7727107D1*
X3403776D1*
Y7599497D1*
X3446312Y7666320D2*
X3488849Y7599497D1*
X3570601Y7727107D2*
Y7599497D1*
X3528065Y7727107D2*
X3613138D1*
X1663562Y7711280D2*
Y7583670D1*
X1736422D1*
X1818174Y7711280D2*
Y7583670D1*
X1775638Y7711280D2*
X1860711D1*
X2538529Y6890470D2*
Y6762860D1*
X2581066D1*
X2599316Y6769037D1*
X2611529Y6781110D1*
X2617566Y6793324D1*
X2623602Y6811433D1*
Y6841897D1*
X2617566Y6860147D1*
X2611529Y6872220D1*
X2599316Y6884433D1*
X2581066Y6890470D1*
X2538529D1*
X2747891D2*
Y6762860D1*
X2662818Y6890470D1*
Y6762860D1*
X2522702Y8668543D2*
Y8577434D1*
X2528739Y8559184D1*
X2540952Y8547111D1*
X2559202Y8540934D1*
X2571275D1*
X2589525Y8547111D1*
X2601739Y8559184D1*
X2607775Y8577434D1*
Y8668543D1*
X2646991Y8601720D2*
X2701741D1*
X2719851Y8607757D1*
X2726028Y8613934D1*
X2732064Y8626007D1*
Y8644257D1*
X2726028Y8656330D1*
X2719851Y8662507D1*
X2701741Y8668543D1*
X2646991D1*
Y8540934D1*
X6745046Y7169100D2*
X6732972Y7181313D1*
X6714722Y7187350D1*
X6690436D1*
X6672186Y7181313D1*
X6659972Y7169100D1*
Y7157027D1*
X6666149Y7144813D1*
X6672186Y7138777D1*
X6684259Y7132740D1*
X6720759Y7120527D1*
X6732972Y7114490D1*
X6739009Y7108313D1*
X6745046Y7096240D1*
Y7077990D1*
X6732972Y7065917D1*
X6714722Y7059740D1*
X6690436D1*
X6672186Y7065917D1*
X6659972Y7077990D1*
X6802511Y7187350D2*
Y7084027D1*
X6808548Y7065917D1*
X6820761Y7059740D1*
X6832834D1*
X6784261Y7144813D2*
X6826798D1*
X6944910D2*
Y7059740D1*
Y7126563D2*
X6932837Y7138777D1*
X6920623Y7144813D1*
X6902513D1*
X6890300Y7138777D1*
X6878227Y7126563D1*
X6872050Y7108313D1*
Y7096240D1*
X6878227Y7077990D1*
X6890300Y7065917D1*
X6902513Y7059740D1*
X6920623D1*
X6932837Y7065917D1*
X6944910Y7077990D1*
X6984125Y7144813D2*
Y7059740D1*
Y7108313D2*
X6990302Y7126563D1*
X7002375Y7138777D1*
X7014589Y7144813D1*
X7032839D1*
X7090304Y7187350D2*
Y7084027D1*
X7096341Y7065917D1*
X7108554Y7059740D1*
X7120628D1*
X7072054Y7144813D2*
X7114591D1*
X5049865Y7153173D2*
X5037791Y7165387D1*
X5019541Y7171423D1*
X4995255D1*
X4977005Y7165387D1*
X4964791Y7153173D1*
Y7141100D1*
X4970968Y7128887D1*
X4977005Y7122850D1*
X4989078Y7116814D1*
X5025578Y7104600D1*
X5037791Y7098564D1*
X5043828Y7092387D1*
X5049865Y7080314D1*
Y7062064D1*
X5037791Y7049991D1*
X5019541Y7043814D1*
X4995255D1*
X4977005Y7049991D1*
X4964791Y7062064D1*
X5089080Y7092387D2*
X5161940D1*
Y7104600D1*
X5155903Y7116814D1*
X5149867Y7122850D1*
X5137653Y7128887D1*
X5119403D1*
X5107330Y7122850D1*
X5095117Y7110637D1*
X5089080Y7092387D1*
Y7080314D1*
X5095117Y7062064D1*
X5107330Y7049991D1*
X5119403Y7043814D1*
X5137653D1*
X5149867Y7049991D1*
X5161940Y7062064D1*
X5201155Y7171423D2*
Y7043814D1*
X5240371Y7092387D2*
X5313231D1*
Y7104600D1*
X5307194Y7116814D1*
X5301158Y7122850D1*
X5288944Y7128887D1*
X5270694D1*
X5258621Y7122850D1*
X5246408Y7110637D1*
X5240371Y7092387D1*
Y7080314D1*
X5246408Y7062064D1*
X5258621Y7049991D1*
X5270694Y7043814D1*
X5288944D1*
X5301158Y7049991D1*
X5313231Y7062064D1*
X5425446Y7110637D2*
X5413233Y7122850D1*
X5401020Y7128887D1*
X5382910D1*
X5370696Y7122850D1*
X5358623Y7110637D1*
X5352446Y7092387D1*
Y7080314D1*
X5358623Y7062064D1*
X5370696Y7049991D1*
X5382910Y7043814D1*
X5401020D1*
X5413233Y7049991D1*
X5425446Y7062064D1*
X5482912Y7171423D2*
Y7068100D1*
X5488949Y7049991D1*
X5501162Y7043814D1*
X5513235D1*
X5464662Y7128887D2*
X5507199D1*
X8759014Y7107917D2*
Y6980307D1*
X8813764D1*
X8832014Y6986484D1*
X8838051Y6992520D1*
X8844087Y7004594D1*
Y7022844D1*
X8838051Y7035057D1*
X8832014Y7041094D1*
X8813764Y7047130D1*
X8832014Y7053307D1*
X8838051Y7059344D1*
X8844087Y7071417D1*
Y7083630D1*
X8838051Y7095703D1*
X8832014Y7101880D1*
X8813764Y7107917D1*
X8759014D1*
Y7047130D2*
X8813764D1*
X8925840Y7107917D2*
Y6980307D1*
X8883303Y7107917D2*
X8968376D1*
X9092665D2*
Y6980307D1*
X9007592Y7107917D1*
Y6980307D1*
X9131881Y6959249D2*
X9247277D1*
X9286493Y7107917D2*
Y6980307D1*
X9341243D1*
X9359493Y6986484D1*
X9365529Y6992520D1*
X9371566Y7004594D1*
Y7022844D1*
X9365529Y7035057D1*
X9359493Y7041094D1*
X9341243Y7047130D1*
X9359493Y7053307D1*
X9365529Y7059344D1*
X9371566Y7071417D1*
Y7083630D1*
X9365529Y7095703D1*
X9359493Y7101880D1*
X9341243Y7107917D1*
X9286493D1*
Y7047130D2*
X9341243D1*
X10356564Y7155597D2*
Y7027987D1*
X10411314D1*
X10429564Y7034164D1*
X10435601Y7040200D1*
X10441637Y7052274D1*
Y7070524D1*
X10435601Y7082737D1*
X10429564Y7088774D1*
X10411314Y7094810D1*
X10429564Y7100987D1*
X10435601Y7107024D1*
X10441637Y7119097D1*
Y7131310D1*
X10435601Y7143383D1*
X10429564Y7149560D1*
X10411314Y7155597D1*
X10356564D1*
Y7094810D2*
X10411314D1*
X10523390Y7155597D2*
Y7027987D1*
X10480853Y7155597D2*
X10565926D1*
X10690215D2*
Y7027987D1*
X10605142Y7155597D1*
Y7027987D1*
X10729431Y7006929D2*
X10844827D1*
X10981329Y7027987D2*
X10932616Y7155597D1*
X10884042Y7027987D1*
X10902292Y7070524D2*
X10963079D1*
X8696983Y8997290D2*
Y8869680D1*
X8751733D1*
X8769983Y8875857D1*
X8776020Y8881894D1*
X8782056Y8893967D1*
Y8912217D1*
X8776020Y8924430D1*
X8769983Y8930467D1*
X8751733Y8936503D1*
X8769983Y8942680D1*
X8776020Y8948717D1*
X8782056Y8960790D1*
Y8973003D1*
X8776020Y8985076D1*
X8769983Y8991253D1*
X8751733Y8997290D1*
X8696983D1*
Y8936503D2*
X8751733D1*
X8863809Y8997290D2*
Y8869680D1*
X8821272Y8997290D2*
X8906345D1*
X9030634D2*
Y8869680D1*
X8945561Y8997290D1*
Y8869680D1*
X9069850Y8848623D2*
X9185246D1*
X9266998Y8997290D2*
Y8869680D1*
X9224461Y8997290D2*
X9309535D1*
X9348750D2*
Y8869680D1*
X9403500D1*
X9421750Y8875857D1*
X9427787Y8881894D1*
X9433823Y8893967D1*
Y8912217D1*
X9427787Y8924430D1*
X9421750Y8930467D1*
X9403500Y8936503D1*
X9421750Y8942680D1*
X9427787Y8948717D1*
X9433823Y8960790D1*
Y8973003D1*
X9427787Y8985076D1*
X9421750Y8991253D1*
X9403500Y8997290D1*
X9348750D1*
Y8936503D2*
X9403500D1*
X10294420Y8997290D2*
Y8869680D1*
X10349170D1*
X10367420Y8875857D1*
X10373456Y8881894D1*
X10379493Y8893967D1*
Y8912217D1*
X10373456Y8924430D1*
X10367420Y8930467D1*
X10349170Y8936503D1*
X10367420Y8942680D1*
X10373456Y8948717D1*
X10379493Y8960790D1*
Y8973003D1*
X10373456Y8985076D1*
X10367420Y8991253D1*
X10349170Y8997290D1*
X10294420D1*
Y8936503D2*
X10349170D1*
X10461245Y8997290D2*
Y8869680D1*
X10418709Y8997290D2*
X10503782D1*
X10628071D2*
Y8869680D1*
X10542997Y8997290D1*
Y8869680D1*
X10667286Y8848623D2*
X10782682D1*
X10864435Y8997290D2*
Y8869680D1*
X10821898Y8997290D2*
X10906971D1*
X11043473Y8869680D2*
X10994760Y8997290D1*
X10946187Y8869680D1*
X10964437Y8912217D2*
X11025223D1*
X7508730Y7950635D2*
X7502694Y7962708D1*
X7490480Y7974922D1*
X7478407Y7980958D1*
X7454121D1*
X7441907Y7974922D1*
X7429834Y7962708D1*
X7423657Y7950635D1*
X7417621Y7932385D1*
Y7901922D1*
X7423657Y7883812D1*
X7429834Y7871599D1*
X7441907Y7859526D1*
X7454121Y7853349D1*
X7478407D1*
X7490480Y7859526D1*
X7502694Y7871599D1*
X7508730Y7883812D1*
X7554123Y7950495D2*
Y7956531D1*
X7560160Y7968745D1*
X7566196Y7974781D1*
X7578410Y7980818D1*
X7602696D1*
X7614769Y7974781D1*
X7620806Y7968745D1*
X7626983Y7956531D1*
Y7944458D1*
X7620806Y7932245D1*
X7608733Y7914135D1*
X7547946Y7853349D1*
X7633019D1*
X7703937Y8003731D2*
X7697760Y8015944D1*
X7679651Y8034194D1*
X7807120D1*
X7679651Y8109910D2*
X7685687Y8091660D1*
X7703937Y8079447D1*
X7734260Y8073410D1*
X7752510D1*
X7782833Y8079447D1*
X7801083Y8091660D1*
X7807120Y8109910D1*
Y8121983D1*
X7801083Y8140233D1*
X7782833Y8152306D1*
X7752510Y8158483D1*
X7734260D1*
X7703937Y8152306D1*
X7685687Y8140233D1*
X7679651Y8121983D1*
Y8109910D1*
X7703937Y8152306D2*
X7782833Y8079447D1*
X7679651Y8234199D2*
X7685687Y8215949D1*
X7703937Y8203735D1*
X7734260Y8197699D1*
X7752510D1*
X7782833Y8203735D1*
X7801083Y8215949D1*
X7807120Y8234199D1*
Y8246272D1*
X7801083Y8264522D1*
X7782833Y8276595D1*
X7752510Y8282772D1*
X7734260D1*
X7703937Y8276595D1*
X7685687Y8264522D1*
X7679651Y8246272D1*
Y8234199D1*
X7703937Y8276595D2*
X7782833Y8203735D1*
X7722047Y8321987D2*
X7807120D1*
X7746333D2*
X7728083Y8340237D1*
X7722047Y8352451D1*
Y8370560D1*
X7728083Y8382774D1*
X7746333Y8388810D1*
X7807120D1*
X7679510Y8507063D2*
Y8428026D1*
X7807120D1*
X7740297D2*
Y8476599D1*
X4640337Y7631786D2*
X4731446D1*
X4749696Y7637823D1*
X4761770Y7650036D1*
X4767946Y7668286D1*
X4767947Y7680359D1*
X4761770Y7698609D1*
X4749696Y7710822D1*
X4731447Y7716859D1*
X4640337D1*
X4670800Y7762252D2*
X4664764D1*
X4652550Y7768288D1*
X4646514Y7774325D1*
X4640477Y7786538D1*
Y7810825D1*
X4646514Y7822898D1*
X4652550Y7828934D1*
X4664764Y7835111D1*
X4676837D1*
X4689050Y7828934D1*
X4707160Y7816861D1*
X4767946Y7756075D1*
Y7841148D1*
X5061743Y7764532D2*
X5055706Y7776605D1*
X5043493Y7788818D1*
X5031420Y7794855D1*
X5007133D1*
X4994920Y7788818D1*
X4982847Y7776605D1*
X4976670Y7764532D1*
X4970633Y7746282D1*
Y7715818D1*
X4976670Y7697709D1*
X4982847Y7685495D1*
X4994920Y7673422D1*
X5007133Y7667245D1*
X5031420D1*
X5043493Y7673422D1*
X5055706Y7685495D1*
X5061743Y7697709D1*
X5100958Y7794855D2*
Y7667245D1*
X5143495D1*
X5161745Y7673422D1*
X5173958Y7685495D1*
X5179995Y7697709D1*
X5186032Y7715818D1*
Y7746282D1*
X5179995Y7764532D1*
X5173958Y7776605D1*
X5161745Y7788818D1*
X5143495Y7794855D1*
X5100958D1*
X5286034Y7667245D2*
Y7794715D1*
X5225247Y7709782D1*
X5316357D1*
X5392073Y7794715D2*
X5373823Y7788678D1*
X5361609Y7770428D1*
X5355573Y7740105D1*
Y7721855D1*
X5361609Y7691532D1*
X5373823Y7673282D1*
X5392073Y7667245D1*
X5404146D1*
X5422396Y7673282D1*
X5434469Y7691532D1*
X5440646Y7721855D1*
Y7740105D1*
X5434469Y7770428D1*
X5422396Y7788678D1*
X5404146Y7794715D1*
X5392073D1*
X5434469Y7770428D2*
X5361609Y7691532D1*
X5486038Y7764391D2*
Y7770428D1*
X5492075Y7782641D1*
X5498111Y7788678D1*
X5510325Y7794715D1*
X5534611D1*
X5546684Y7788678D1*
X5552721Y7782641D1*
X5558898Y7770428D1*
Y7758355D1*
X5552721Y7746141D1*
X5540648Y7728032D1*
X5479861Y7667245D1*
X5564934D1*
X5604150Y7770428D2*
X5616364Y7776605D1*
X5634614Y7794715D1*
Y7667245D1*
X6876569Y8503475D2*
D19*
X6905713Y8426909D1*
X6934857Y8503475D1*
X7013052Y8485281D2*
X7009430Y8492525D1*
X7002102Y8499853D1*
X6994858Y8503475D1*
X6980286D1*
X6972958Y8499853D1*
X6965714Y8492525D1*
X6962008Y8485281D1*
X6958386Y8474331D1*
Y8456053D1*
X6962008Y8445187D1*
X6965714Y8437859D1*
X6972958Y8430615D1*
X6980286Y8426909D1*
X6994858D1*
X7002102Y8430615D1*
X7009430Y8437859D1*
X7013052Y8445187D1*
X7091247Y8485281D2*
X7087625Y8492525D1*
X7080297Y8499853D1*
X7073053Y8503475D1*
X7058481D1*
X7051153Y8499853D1*
X7043909Y8492525D1*
X7040203Y8485281D1*
X7036581Y8474331D1*
Y8456053D1*
X7040203Y8445187D1*
X7043909Y8437859D1*
X7051153Y8430615D1*
X7058481Y8426909D1*
X7073053D1*
X7080297Y8430615D1*
X7087625Y8437859D1*
X7091247Y8445187D1*
X6884409Y8245335D2*
Y8168769D1*
X6909931D1*
X6920881Y8172475D1*
X6928209Y8179719D1*
X6931831Y8187047D1*
X6935453Y8197913D1*
Y8216191D1*
X6931831Y8227141D1*
X6928209Y8234385D1*
X6920881Y8241713D1*
X6909931Y8245335D1*
X6884409D1*
X7002698Y8219813D2*
Y8168769D1*
Y8208863D2*
X6995454Y8216191D1*
X6988126Y8219813D1*
X6977260D1*
X6969932Y8216191D1*
X6962688Y8208863D1*
X6958982Y8197913D1*
Y8190669D1*
X6962688Y8179719D1*
X6969932Y8172475D1*
X6977260Y8168769D1*
X6988126D1*
X6995454Y8172475D1*
X7002698Y8179719D1*
X7037177Y8245335D2*
Y8183341D1*
X7040799Y8172475D1*
X7048127Y8168769D1*
X7055371D1*
X7026227Y8219813D2*
X7051749D1*
X7122616D2*
Y8168769D1*
Y8208863D2*
X7115373Y8216191D1*
X7108045Y8219813D1*
X7097179D1*
X7089851Y8216191D1*
X7082607Y8208863D1*
X7078901Y8197913D1*
Y8190669D1*
X7082607Y8179719D1*
X7089851Y8172475D1*
X7097179Y8168769D1*
X7108045D1*
X7115373Y8172475D1*
X7122616Y8179719D1*
X6934008Y7974454D2*
X6930386Y7981698D1*
X6923058Y7989026D1*
X6915814Y7992648D1*
X6901242D1*
X6893914Y7989026D1*
X6886670Y7981698D1*
X6882964Y7974454D1*
X6879342Y7963504D1*
Y7945226D1*
X6882964Y7934361D1*
X6886670Y7927033D1*
X6893914Y7919789D1*
X6901242Y7916083D1*
X6915814D1*
X6923058Y7919789D1*
X6930386Y7927033D1*
X6934008Y7934361D1*
X6957538Y7992648D2*
Y7916083D1*
X6999261Y7967126D2*
X6992017Y7963504D1*
X6984689Y7956176D1*
X6981067Y7945226D1*
Y7937983D1*
X6984689Y7927033D1*
X6992017Y7919789D1*
X6999261Y7916083D1*
X7010211D1*
X7017539Y7919789D1*
X7024783Y7927033D1*
X7028489Y7937983D1*
Y7945226D1*
X7024783Y7956176D1*
X7017539Y7963504D1*
X7010211Y7967126D1*
X6999261D1*
X7095818Y7956176D2*
X7088490Y7963504D1*
X7081162Y7967126D1*
X7070296D1*
X7062968Y7963504D1*
X7055724Y7956176D1*
X7052018Y7945226D1*
Y7937983D1*
X7055724Y7927033D1*
X7062968Y7919789D1*
X7070296Y7916083D1*
X7081162D1*
X7088490Y7919789D1*
X7095818Y7927033D1*
X7119348Y7992648D2*
Y7916083D1*
X7155820Y7967126D2*
X7119348Y7930654D1*
X7133920Y7945226D2*
X7159442Y7916083D1*
X6929351Y7463741D2*
X6925730Y7470985D1*
X6918401Y7478313D1*
X6911158Y7481935D1*
X6896586D1*
X6889258Y7478313D1*
X6882014Y7470985D1*
X6878308Y7463741D1*
X6874686Y7452791D1*
Y7434513D1*
X6878308Y7423647D1*
X6882014Y7416319D1*
X6889258Y7409075D1*
X6896586Y7405369D1*
X6911158D1*
X6918401Y7409075D1*
X6925730Y7416319D1*
X6929351Y7423647D1*
Y7434513D1*
X6911158D1*
X7003925Y7481935D2*
Y7405369D1*
X6952881Y7481935D1*
Y7405369D1*
X7027454Y7481935D2*
Y7405369D1*
X7052976D1*
X7063926Y7409075D1*
X7071254Y7416319D1*
X7074876Y7423647D1*
X7078498Y7434513D1*
Y7452791D1*
X7074876Y7463741D1*
X7071254Y7470985D1*
X7063926Y7478313D1*
X7052976Y7481935D1*
X7027454D1*
X6887976Y7745865D2*
Y7669299D1*
X6931691D1*
X6998937Y7720343D2*
Y7669299D1*
Y7709393D2*
X6991693Y7716721D1*
X6984365Y7720343D1*
X6973499D1*
X6966171Y7716721D1*
X6958927Y7709393D1*
X6955221Y7698443D1*
Y7691199D1*
X6958927Y7680249D1*
X6966171Y7673005D1*
X6973499Y7669299D1*
X6984365D1*
X6991693Y7673005D1*
X6998937Y7680249D1*
X7033416Y7745865D2*
Y7683871D1*
X7037038Y7673005D1*
X7044366Y7669299D1*
X7051610D1*
X7022466Y7720343D2*
X7047988D1*
X7118939Y7709393D2*
X7111611Y7716721D1*
X7104283Y7720343D1*
X7093417D1*
X7086089Y7716721D1*
X7078845Y7709393D1*
X7075139Y7698443D1*
Y7691199D1*
X7078845Y7680249D1*
X7086089Y7673005D1*
X7093417Y7669299D1*
X7104283D1*
X7111611Y7673005D1*
X7118939Y7680249D1*
X7142469Y7745865D2*
Y7669299D1*
Y7705771D2*
X7153419Y7716721D1*
X7160747Y7720343D1*
X7171697D1*
X7178941Y7716721D1*
X7182563Y7705771D1*
Y7669299D1*
M02*
