G04 DipTrace 3.3.1.3*
G04 board_dendy_gamepad_Remastered_rev2.8.gbr*
%MOMM*%
G04 #@! TF.FileFunction,Drawing,Board polygon*
G04 #@! TF.Part,Single*
%FSLAX35Y35*%
G04*
G71*
G90*
G75*
G01*
G04 BoardPoly*
%LPD*%
G36*
X12129540Y1000000D2*
X8700183Y1000020D1*
Y1254047D1*
X8446157D1*
Y1000020D1*
X4699263D1*
Y1254047D1*
X4445237D1*
Y1000020D1*
X1000000D1*
Y5302597D1*
X4445237D1*
Y5048570D1*
X4699263D1*
Y5302597D1*
X8446157D1*
Y5048570D1*
X8700183D1*
Y5302597D1*
X12129543D1*
X12129540Y5096180D1*
X11573857D1*
G03X11430967Y4953290I-7938J-134952D01*
G01*
Y4111827D1*
G03X11573857Y3968937I134952J-7938D01*
G01*
X12129540D1*
Y1000000D1*
G37*
G36*
Y5302597D2*
X8700183Y5302617D1*
Y5556643D1*
X8446157D1*
Y5302617D1*
X4699263D1*
Y5556643D1*
X4445237D1*
Y5302617D1*
X1000000D1*
Y9605193D1*
X4445237D1*
Y9351167D1*
X4699263D1*
Y9605193D1*
X8446157D1*
Y9351167D1*
X8700183D1*
Y9605193D1*
X12129543D1*
X12129540Y9398777D1*
X11573857D1*
G03X11430967Y9255887I-7938J-134952D01*
G01*
Y8414423D1*
G03X11573857Y8271533I134952J-7938D01*
G01*
X12129540D1*
Y5302597D1*
G37*
M02*
