G04 DipTrace 3.3.1.3*
G04 bottom_dendy_gamepad_Remastered_rev2.8.gbl*
%MOMM*%
G04 #@! TF.FileFunction,Copper,L2,Bot*
G04 #@! TF.Part,Single*
%AMOUTLINE0*
4,1,4,
-0.75,-0.65,
0.75,-0.65,
0.75,0.65,
-0.75,0.65,
-0.75,-0.65,
0*%
%ADD14C,0.5*%
%ADD15C,1.0*%
%ADD17C,0.3*%
G04 #@! TA.AperFunction,ComponentPad*
%ADD16C,1.5*%
G04 #@! TA.AperFunction,Nonconductor*
%ADD19C,0.2353*%
%ADD20C,0.2745*%
%ADD21C,0.11767*%
G04 #@! TA.AperFunction,ComponentPad*
%ADD23C,2.0*%
%ADD26C,3.0*%
%ADD27R,2.0X5.0*%
%ADD28C,3.0*%
G04 #@! TA.AperFunction,ViaPad*
%ADD30C,0.7*%
%ADD54OUTLINE0*%
%FSLAX35Y35*%
G04*
G71*
G90*
G75*
G01*
G04 Bottom*
%LPD*%
X4794520Y3857397D2*
D14*
G03X3603800Y2585257I86115J-1273929D01*
G01*
X3603760Y1926897D1*
G02X2899130Y1222267I-704603J-27D01*
G01*
X2619387Y1222257D1*
X1174640Y2667050D2*
X1555680D1*
G03X1857337Y2968707I0J301657D01*
G01*
Y3354170D1*
G02X2154570Y3651400I297230J0D01*
G01*
X3097753Y3651403D1*
G03X3365620Y3919270I-1J267868D01*
G01*
Y4138070D1*
G02X3609283Y4381730I243661J-1D01*
G01*
X4137000D1*
G02X4270590Y4248140I3J-133587D01*
G01*
Y4207087D1*
X7604690Y3777397D2*
Y3746637D1*
G03X7684047Y3667280I79358J1D01*
G01*
X9644490Y3667287D1*
G02X10129087Y3182690I-5J-484602D01*
G01*
X10129080Y2079613D1*
X7493557Y3697397D2*
Y3683157D1*
G03X7588817Y3587897I95257J-3D01*
G01*
X9273087Y3587890D1*
G02X9621023Y3239953I6J-347931D01*
G01*
X9621013Y2047813D1*
X6951493Y3617397D2*
X6826733D1*
G03X6572323Y3362637I-1888J-252525D01*
G01*
X6573173Y2524160D1*
G02X6398530Y2349517I-174648J5D01*
G01*
X5985303Y2349513D1*
G03X5778860Y2143070I3J-206446D01*
G01*
Y2079567D1*
X6998507Y3537397D2*
X6858487D1*
G03X6667967Y3347080I-342J-190178D01*
G01*
Y2397147D1*
G02X6382187Y2111367I-285781J1D01*
G01*
X7717900Y3857397D2*
Y3841920D1*
G03X7813160Y3746660I95257J-3D01*
G01*
X9998217Y3746667D1*
G03X10129600Y3879717I-9J131402D01*
G01*
X10129080Y3921307D1*
X7604690Y3937397D2*
X8509447D1*
G02X8525537Y3921307I-2J-16092D01*
G01*
X7399740Y4097397D2*
G02X7461800Y4159457I62059J1D01*
G01*
X9843300D1*
G03X10097330Y4413487I1J254029D01*
G01*
Y4969187D1*
X7524477Y4017397D2*
G02X7587153Y4080073I62674J3D01*
G01*
X10224340D1*
G03X10510120Y4365853I-1J285781D01*
G01*
X10510123Y4969187D1*
X9271740Y4969167D2*
Y4401463D1*
G02X9109110Y4238833I-162630J0D01*
G01*
X6329117D1*
G03X6112283Y4022000I-19J-216814D01*
G01*
Y3777397D1*
X5905887Y3016337D2*
Y2983073D1*
G02X5732753Y2809940I-173135J1D01*
G01*
X5096177D1*
G02X4873957Y3032160I0J222220D01*
G01*
Y3302117D1*
X4619957D2*
Y3048010D1*
G03X4937410Y2730557I317454J0D01*
G01*
X5793620D1*
G03X6064653Y3001587I2J271032D01*
G01*
X6382187Y3651403D2*
D15*
X6382183Y3590523D1*
G02X6093767Y3302113I-288399J-11D01*
G01*
X5874133Y3302117D1*
X5381957D1*
X5874133Y3461403D2*
Y3302117D1*
D30*
X4794520Y3857397D3*
X4270590Y4207087D3*
X7604690Y3777397D3*
X7493557Y3697397D3*
X6951493Y3617397D3*
X6998507Y3537397D3*
X7717900Y3857397D3*
X7604690Y3937397D3*
X7399740Y4097397D3*
X7524477Y4017397D3*
X6112283Y3777397D3*
X5905887Y3016337D3*
X6064653Y3001587D3*
D15*
X6382187Y3651403D3*
X9684533Y4461113D3*
X10303723Y4524620D3*
X9811547Y2984583D3*
X10367230D3*
X7668197Y1142890D3*
X8303263D3*
X4826273Y1127013D3*
X5461340D3*
X2127240Y1142890D3*
X3079840D3*
X6302803Y3937183D3*
Y3079843D3*
X5778873Y4508743D3*
X7001377Y4492867D3*
X8827193Y1127013D3*
X9700410D3*
X11462720Y2984583D3*
X10335477Y1127013D3*
X8906577Y4873907D3*
X7811087Y5143810D3*
X6302803Y2698803D3*
X4238837Y5159687D3*
X3254483D3*
X3175100Y4238840D3*
X2270130Y4080073D3*
X8128620Y3333870D3*
X7969853Y2047860D3*
X1682693Y1714450D3*
X1381037Y3397377D3*
X5635983Y3079843D3*
Y3508513D3*
X6906117Y3016337D3*
X7382417D3*
X1063047Y5194930D2*
D14*
X4382237D1*
X4762290D2*
X4893930D1*
X5139633D2*
X5656093D1*
X5901703D2*
X6366847D1*
X6715090D2*
X8383177D1*
X8763227D2*
X9243047D1*
X9300440D2*
X9655663D1*
X9713423D2*
X10068463D1*
X10126223D2*
X10481263D1*
X10538930D2*
X12066560D1*
X1063047Y5145263D2*
X4382237D1*
X4762290D2*
X4836600D1*
X5196963D2*
X5598670D1*
X5959037D2*
X6291833D1*
X6790103D2*
X8383177D1*
X8763227D2*
X9123463D1*
X9420023D2*
X9536263D1*
X9832823D2*
X9949060D1*
X10245623D2*
X10361860D1*
X10658423D2*
X11505103D1*
X1063047Y5095597D2*
X4382237D1*
X4762290D2*
X4805520D1*
X5228137D2*
X5567590D1*
X5990207D2*
X6243253D1*
X6838683D2*
X8383177D1*
X8763227D2*
X9078163D1*
X9465233D2*
X9491073D1*
X9878123D2*
X9903763D1*
X10290833D2*
X10316560D1*
X10703630D2*
X11421887D1*
X1063047Y5045930D2*
X1180833D1*
X1517773D2*
X4382237D1*
X4762200D2*
X4789297D1*
X5244270D2*
X5551367D1*
X6006340D2*
X6209167D1*
X6872773D2*
X8383177D1*
X8763137D2*
X9053097D1*
X10728787D2*
X11387890D1*
X1063047Y4996263D2*
X1115390D1*
X1583213D2*
X4415233D1*
X4729203D2*
X4784830D1*
X5248737D2*
X5546900D1*
X6010807D2*
X6185287D1*
X6896743D2*
X8416170D1*
X8730143D2*
X9041340D1*
X10740547D2*
X11371300D1*
X1624687Y4946597D2*
X4791393D1*
X5242173D2*
X5553463D1*
X6004333D2*
X6169517D1*
X6912420D2*
X9040883D1*
X10741000D2*
X11367930D1*
X1652487Y4896930D2*
X4809987D1*
X5223580D2*
X5572057D1*
X5985650D2*
X6161040D1*
X6920987D2*
X9051547D1*
X10730337D2*
X11367930D1*
X1670167Y4847263D2*
X4844713D1*
X5188853D2*
X5606783D1*
X5951013D2*
X6159127D1*
X6922810D2*
X7793917D1*
X8114087D2*
X9075247D1*
X10706640D2*
X11367930D1*
X1679463Y4797597D2*
X4910793D1*
X5122773D2*
X5672953D1*
X5884843D2*
X6163867D1*
X6918163D2*
X7731483D1*
X8176523D2*
X9118083D1*
X9425403D2*
X9530883D1*
X9838110D2*
X9943683D1*
X10250910D2*
X10356483D1*
X10663710D2*
X11367930D1*
X1680923Y4747930D2*
X6175440D1*
X6906587D2*
X7692747D1*
X8215260D2*
X9164750D1*
X9378737D2*
X9628773D1*
X9740310D2*
X9990350D1*
X10204333D2*
X10403150D1*
X10617133D2*
X11367930D1*
X1674907Y4698263D2*
X6194490D1*
X6887447D2*
X7667773D1*
X8240143D2*
X9164750D1*
X9378737D2*
X9990350D1*
X10204333D2*
X10403150D1*
X10617133D2*
X11367930D1*
X1660690Y4648597D2*
X6222473D1*
X6859463D2*
X7653097D1*
X8254907D2*
X9164750D1*
X9378737D2*
X9990350D1*
X10204333D2*
X10403150D1*
X10617133D2*
X11367930D1*
X1637263Y4598930D2*
X6262120D1*
X6819907D2*
X7647173D1*
X8260833D2*
X9164750D1*
X9378737D2*
X9990350D1*
X10204333D2*
X10403150D1*
X10617133D2*
X11367930D1*
X1063047Y4549263D2*
X1096663D1*
X1601990D2*
X6319633D1*
X6762393D2*
X7649453D1*
X8258463D2*
X9164750D1*
X9378737D2*
X9990350D1*
X10204333D2*
X10403150D1*
X10617133D2*
X11367930D1*
X1063047Y4499597D2*
X1150207D1*
X1548397D2*
X6419073D1*
X6662953D2*
X7660207D1*
X8247707D2*
X9164750D1*
X9378737D2*
X9990350D1*
X10204333D2*
X10403150D1*
X10617133D2*
X11367930D1*
X1063047Y4449930D2*
X1249010D1*
X1449597D2*
X3456287D1*
X4263450D2*
X7680440D1*
X8227473D2*
X9164750D1*
X9378737D2*
X9990350D1*
X10204333D2*
X10403150D1*
X10617133D2*
X11367930D1*
X1063047Y4400263D2*
X3379817D1*
X4321600D2*
X7712523D1*
X8195480D2*
X9164477D1*
X9378737D2*
X9989257D1*
X10203697D2*
X10403150D1*
X10617133D2*
X11367930D1*
X1063047Y4350597D2*
X3331690D1*
X4353867D2*
X7762473D1*
X8145533D2*
X9136497D1*
X9373450D2*
X9976223D1*
X10198227D2*
X10401873D1*
X10616313D2*
X11367930D1*
X1063047Y4300930D2*
X3299790D1*
X4371457D2*
X6169880D1*
X9358867D2*
X9939673D1*
X10185467D2*
X10390753D1*
X10611210D2*
X11367930D1*
X1063047Y4251263D2*
X2601340D1*
X2701027D2*
X3278190D1*
X3529633D2*
X4162667D1*
X4378477D2*
X6102707D1*
X10164687D2*
X10362500D1*
X10599270D2*
X11367930D1*
X1063047Y4201597D2*
X2517487D1*
X2784880D2*
X3264973D1*
X3488253D2*
X4153737D1*
X4387500D2*
X6061237D1*
X10134243D2*
X10300430D1*
X10580037D2*
X11367930D1*
X1063047Y4151930D2*
X2484400D1*
X2817967D2*
X3259320D1*
X3473763D2*
X4168137D1*
X4373097D2*
X6033163D1*
X10552057D2*
X11367930D1*
X1063047Y4102263D2*
X2470547D1*
X2831820D2*
X3258593D1*
X3472577D2*
X3734830D1*
X3949087D2*
X4226107D1*
X4315037D2*
X6015570D1*
X6252343D2*
X7282863D1*
X10513137D2*
X11368567D1*
X1063047Y4052597D2*
X2471367D1*
X2831000D2*
X3258593D1*
X3472577D2*
X3661820D1*
X4022097D2*
X6007097D1*
X6223723D2*
X7292070D1*
X10457447D2*
X11137420D1*
X11279673D2*
X11375130D1*
X1063047Y4002930D2*
X2486860D1*
X2815507D2*
X3258593D1*
X3472577D2*
X3622537D1*
X4061380D2*
X6005273D1*
X6219257D2*
X7334543D1*
X10364660D2*
X11081367D1*
X11335820D2*
X11396820D1*
X1063047Y3953263D2*
X2522680D1*
X2779687D2*
X3258593D1*
X3472577D2*
X3599660D1*
X4084347D2*
X4718657D1*
X4857447D2*
X6005273D1*
X6219257D2*
X7427693D1*
X8704620D2*
X9456510D1*
X9753527D2*
X9949973D1*
X10308150D2*
X11060130D1*
X11357057D2*
X11442030D1*
X1063047Y3903597D2*
X2632237D1*
X2670177D2*
X3257407D1*
X3471847D2*
X3588450D1*
X4095560D2*
X4478943D1*
X4901560D2*
X6005273D1*
X6219257D2*
X7492953D1*
X8706627D2*
X9454140D1*
X9755987D2*
X9947967D1*
X10310153D2*
X11057667D1*
X11359517D2*
X12066560D1*
X1063047Y3853930D2*
X3244830D1*
X3466287D2*
X3587447D1*
X4096560D2*
X4340767D1*
X4911497D2*
X6005273D1*
X6219257D2*
X7517930D1*
X8694230D2*
X9469360D1*
X9740677D2*
X9960363D1*
X10297760D2*
X11072890D1*
X11344203D2*
X12066560D1*
X1063047Y3804263D2*
X3211743D1*
X3453710D2*
X3596470D1*
X4087447D2*
X4235403D1*
X4898097D2*
X5998527D1*
X6226000D2*
X7455037D1*
X10266860D2*
X11114633D1*
X11302550D2*
X12066560D1*
X1063047Y3754597D2*
X3107653D1*
X3433293D2*
X3616797D1*
X4067120D2*
X4148450D1*
X4843957D2*
X5766743D1*
X6226913D2*
X6265583D1*
X6498800D2*
X7392237D1*
X10201053D2*
X12066560D1*
X1063047Y3704930D2*
X1959673D1*
X3403670D2*
X3652070D1*
X4031847D2*
X4073527D1*
X4536703D2*
X5747147D1*
X6202667D2*
X6234960D1*
X6529427D2*
X6720583D1*
X7026353D2*
X7376833D1*
X10159310D2*
X12066560D1*
X1063047Y3655263D2*
X1888397D1*
X3361743D2*
X3714687D1*
X3969230D2*
X4008630D1*
X4404817D2*
X5747147D1*
X6001143D2*
X6225207D1*
X6539180D2*
X6617317D1*
X7061900D2*
X7384763D1*
X10072083D2*
X12066560D1*
X1063047Y3605597D2*
X1839907D1*
X3298033D2*
X3950753D1*
X4306653D2*
X4437930D1*
X5588983D2*
X5729830D1*
X6018463D2*
X6225207D1*
X7092343D2*
X7402447D1*
X10055493D2*
X12066560D1*
X1063047Y3555930D2*
X1805090D1*
X3169060D2*
X3898710D1*
X4227173D2*
X4437930D1*
X5588983D2*
X5696470D1*
X6051730D2*
X6220377D1*
X7113943D2*
X7433253D1*
X9598397D2*
X9721653D1*
X10101977D2*
X12066560D1*
X1063047Y3506263D2*
X1780480D1*
X2037850D2*
X3851587D1*
X4158630D2*
X4437930D1*
X5588983D2*
X5692097D1*
X6056107D2*
X6195493D1*
X7111120D2*
X7496963D1*
X9640417D2*
X9842693D1*
X10138710D2*
X12066560D1*
X1063047Y3456597D2*
X1763710D1*
X1994010D2*
X3808930D1*
X4100117D2*
X4437930D1*
X5588983D2*
X5692097D1*
X6056107D2*
X6111547D1*
X7081040D2*
X9383137D1*
X9672133D2*
X9906130D1*
X10168150D2*
X11627513D1*
X11933007D2*
X12066560D1*
X1063047Y3406930D2*
X1753867D1*
X1971953D2*
X3770013D1*
X4048253D2*
X4437930D1*
X6798763D2*
X6995390D1*
X7185310D2*
X7478007D1*
X7667930D2*
X9447760D1*
X9695740D2*
X9948787D1*
X10191573D2*
X11576743D1*
X11983867D2*
X12066560D1*
X1063047Y3357263D2*
X1750403D1*
X1964750D2*
X3734557D1*
X4002133D2*
X4437930D1*
X6775883D2*
X6941250D1*
X7239453D2*
X7423867D1*
X7722070D2*
X9483580D1*
X9712420D2*
X9979503D1*
X10209440D2*
X11547030D1*
X12013580D2*
X12066560D1*
X1063047Y3307597D2*
X1750310D1*
X1964297D2*
X3702290D1*
X3960847D2*
X4437930D1*
X6435637D2*
X6465300D1*
X6774973D2*
X6916457D1*
X7264153D2*
X7399073D1*
X7746770D2*
X9504087D1*
X9722630D2*
X10000560D1*
X10222290D2*
X11530623D1*
X12029893D2*
X12066560D1*
X1063047Y3257930D2*
X1750310D1*
X1964297D2*
X3673307D1*
X3924023D2*
X4437930D1*
X6386510D2*
X6465467D1*
X6774973D2*
X6908347D1*
X7272357D2*
X7390963D1*
X7754880D2*
X9512653D1*
X9727097D2*
X10014413D1*
X10230767D2*
X11524973D1*
X12035637D2*
X12066560D1*
X1063047Y3208263D2*
X1750310D1*
X1964297D2*
X3646873D1*
X3891027D2*
X4437930D1*
X6317513D2*
X6465467D1*
X6774973D2*
X6914453D1*
X7266157D2*
X7397070D1*
X7748773D2*
X9514023D1*
X9728007D2*
X10020703D1*
X10234960D2*
X11529257D1*
X12031353D2*
X12066560D1*
X1063047Y3158597D2*
X1750310D1*
X1964297D2*
X3622903D1*
X3861497D2*
X4437930D1*
X6181613D2*
X6465560D1*
X6774973D2*
X6936600D1*
X7244100D2*
X7419217D1*
X7726717D2*
X9514023D1*
X9728007D2*
X10022070D1*
X10236053D2*
X11544023D1*
X12016497D2*
X12066560D1*
X1063047Y3108930D2*
X1750310D1*
X1964297D2*
X2546927D1*
X2755533D2*
X3601120D1*
X3835153D2*
X4437930D1*
X5588983D2*
X5837837D1*
X5973893D2*
X6027693D1*
X6101587D2*
X6465560D1*
X6774973D2*
X6984633D1*
X7196067D2*
X7467250D1*
X7678593D2*
X9514023D1*
X9728007D2*
X10022070D1*
X10236053D2*
X11571640D1*
X11988970D2*
X12066560D1*
X1063047Y3059263D2*
X1750310D1*
X1964297D2*
X2511380D1*
X2790987D2*
X3581523D1*
X3811820D2*
X4437930D1*
X5588983D2*
X5797460D1*
X6165663D2*
X6465650D1*
X6774973D2*
X9514023D1*
X9728007D2*
X10022070D1*
X10236053D2*
X11618580D1*
X11941940D2*
X12066560D1*
X1063047Y3009597D2*
X1750310D1*
X1964297D2*
X2499440D1*
X2802930D2*
X3564570D1*
X3791223D2*
X4437930D1*
X5588983D2*
X5789073D1*
X6181340D2*
X6465650D1*
X6774973D2*
X9514023D1*
X9728007D2*
X10022070D1*
X10236053D2*
X11723487D1*
X11837120D2*
X12066560D1*
X1063047Y2959930D2*
X1749583D1*
X1964023D2*
X2504907D1*
X2797460D2*
X3549620D1*
X3773177D2*
X4522967D1*
X5005467D2*
X5174933D1*
X5588983D2*
X5794633D1*
X6173593D2*
X6465740D1*
X6774973D2*
X9514023D1*
X9728007D2*
X10022070D1*
X10236053D2*
X12066560D1*
X1063047Y2910263D2*
X1741013D1*
X1959920D2*
X2530153D1*
X2772213D2*
X3536403D1*
X3757590D2*
X4536913D1*
X6160193D2*
X6465740D1*
X6774973D2*
X9514023D1*
X9728007D2*
X10022070D1*
X10236053D2*
X12066560D1*
X1063047Y2860597D2*
X1717773D1*
X1949530D2*
X2601157D1*
X2701210D2*
X3524920D1*
X3744283D2*
X4557877D1*
X6143970D2*
X6465833D1*
X6774973D2*
X7792277D1*
X8020570D2*
X9514023D1*
X9728007D2*
X10022070D1*
X10236053D2*
X12066560D1*
X1282707Y2810930D2*
X1672563D1*
X1932213D2*
X2218983D1*
X2289230D2*
X3515987D1*
X3733253D2*
X3983110D1*
X4145323D2*
X4587133D1*
X6119180D2*
X6465923D1*
X6774973D2*
X7723007D1*
X8089750D2*
X9514023D1*
X9728007D2*
X10022070D1*
X10236053D2*
X12066560D1*
X1906783Y2761263D2*
X2136313D1*
X2371990D2*
X2882343D1*
X3087030D2*
X3508697D1*
X3724413D2*
X3920583D1*
X4207760D2*
X4626873D1*
X6083267D2*
X6465923D1*
X6774973D2*
X7685090D1*
X8127760D2*
X9514023D1*
X9728007D2*
X10022070D1*
X10236053D2*
X12066560D1*
X1871237Y2711597D2*
X2109060D1*
X2399243D2*
X2845703D1*
X3123670D2*
X3502953D1*
X3718033D2*
X3892787D1*
X4235560D2*
X4682107D1*
X6032863D2*
X6466013D1*
X6774973D2*
X7662940D1*
X8149817D2*
X9514023D1*
X9728007D2*
X10022070D1*
X10236053D2*
X12066560D1*
X1822107Y2661930D2*
X2102227D1*
X2406080D2*
X2833033D1*
X3136250D2*
X3499127D1*
X3713750D2*
X3882487D1*
X4245857D2*
X4768607D1*
X5951927D2*
X6466013D1*
X6774973D2*
X7652460D1*
X8160297D2*
X9514023D1*
X9728007D2*
X10022070D1*
X10236053D2*
X12066560D1*
X1749100Y2612263D2*
X2112707D1*
X2395507D2*
X2837953D1*
X3131417D2*
X3497487D1*
X3711560D2*
X3886497D1*
X4241847D2*
X6466107D1*
X6774973D2*
X7652097D1*
X8160663D2*
X9514023D1*
X9728007D2*
X10022070D1*
X10236053D2*
X12066560D1*
X1322537Y2562597D2*
X2145703D1*
X2362603D2*
X2862290D1*
X3106990D2*
X3496757D1*
X3710833D2*
X3905910D1*
X4222433D2*
X6466107D1*
X6774973D2*
X7661847D1*
X8150910D2*
X9514023D1*
X9728007D2*
X10022070D1*
X10236053D2*
X12066560D1*
X1266667Y2512930D2*
X2929557D1*
X3039817D2*
X3496757D1*
X3710833D2*
X3948567D1*
X4179777D2*
X6465013D1*
X6774973D2*
X7682993D1*
X8129763D2*
X9514023D1*
X9728007D2*
X10022070D1*
X10236053D2*
X12066560D1*
X1063047Y2463263D2*
X3496757D1*
X3710833D2*
X6432473D1*
X6774973D2*
X7719543D1*
X8093213D2*
X9514023D1*
X9728007D2*
X10022070D1*
X10236053D2*
X12066560D1*
X1063047Y2413597D2*
X2518943D1*
X2719803D2*
X3496757D1*
X3710833D2*
X5832460D1*
X6774973D2*
X7785167D1*
X8027590D2*
X9514023D1*
X9728007D2*
X10022070D1*
X10236053D2*
X12066560D1*
X1063047Y2363930D2*
X2481210D1*
X2757630D2*
X3496757D1*
X3710833D2*
X5765103D1*
X6772967D2*
X9514023D1*
X9728007D2*
X10022070D1*
X10236053D2*
X12066560D1*
X1063047Y2314263D2*
X2467903D1*
X2770847D2*
X3496757D1*
X3710740D2*
X5724270D1*
X6765493D2*
X9514023D1*
X9728007D2*
X10022070D1*
X10236053D2*
X12066560D1*
X1063047Y2264597D2*
X2472187D1*
X2766653D2*
X3496757D1*
X3710740D2*
X5696833D1*
X6751093D2*
X9514023D1*
X9728007D2*
X10022070D1*
X10236053D2*
X12066560D1*
X1063047Y2214930D2*
X2495793D1*
X2743047D2*
X3496757D1*
X3710740D2*
X4637083D1*
X4761653D2*
X5659830D1*
X5915013D2*
X6233683D1*
X6729037D2*
X7352407D1*
X7571040D2*
X9514023D1*
X9728007D2*
X10009947D1*
X10248177D2*
X11146170D1*
X11271013D2*
X12066560D1*
X1063047Y2165263D2*
X2559777D1*
X2678970D2*
X3496757D1*
X3710740D2*
X4574920D1*
X4823813D2*
X5618997D1*
X5938710D2*
X6208620D1*
X6697863D2*
X7319960D1*
X7603487D2*
X8448070D1*
X8634893D2*
X9483580D1*
X9758450D2*
X9969203D1*
X10289010D2*
X11084100D1*
X11333083D2*
X12066560D1*
X1063047Y2115597D2*
X3496757D1*
X3710740D2*
X4551860D1*
X4846873D2*
X5600583D1*
X5957120D2*
X6200233D1*
X6653383D2*
X7309750D1*
X7613607D2*
X8406053D1*
X8676913D2*
X9452500D1*
X9789530D2*
X9950793D1*
X10307420D2*
X11061040D1*
X11356143D2*
X12066560D1*
X1063047Y2065930D2*
X3496757D1*
X3710740D2*
X4548033D1*
X4850703D2*
X5597393D1*
X5960310D2*
X6206157D1*
X6588397D2*
X7316860D1*
X7606497D2*
X8390650D1*
X8692407D2*
X9439920D1*
X9802107D2*
X9947603D1*
X10310520D2*
X11057213D1*
X11359973D2*
X12066560D1*
X1063047Y2016263D2*
X3496757D1*
X3710740D2*
X4561703D1*
X4837030D2*
X5608607D1*
X5949190D2*
X6227940D1*
X6536443D2*
X7344570D1*
X7578787D2*
X8392930D1*
X8690130D2*
X9441833D1*
X9800193D2*
X9958813D1*
X10299400D2*
X11070977D1*
X11346210D2*
X12066560D1*
X1063047Y1966597D2*
X3496757D1*
X3710740D2*
X4600260D1*
X4798383D2*
X5637590D1*
X5920117D2*
X6275337D1*
X6489047D2*
X7431157D1*
X7492200D2*
X8413983D1*
X8669073D2*
X9458787D1*
X9783240D2*
X9987890D1*
X10270323D2*
X11109620D1*
X11307563D2*
X12066560D1*
X1063047Y1916930D2*
X3496300D1*
X3710467D2*
X5704037D1*
X5853670D2*
X8469583D1*
X8613477D2*
X9496887D1*
X9745143D2*
X10054333D1*
X10203787D2*
X12066560D1*
X1063047Y1867263D2*
X3493383D1*
X3708553D2*
X8815390D1*
X8977330D2*
X9141873D1*
X9427953D2*
X10280923D1*
X10442953D2*
X11056027D1*
X11217877D2*
X12066560D1*
X1063047Y1817597D2*
X3486273D1*
X3703177D2*
X8753773D1*
X11351587D2*
X12066560D1*
X1063047Y1767930D2*
X3475063D1*
X3694607D2*
X8724973D1*
X11362980D2*
X12066560D1*
X1063047Y1718263D2*
X3459387D1*
X3682940D2*
X8717133D1*
X11346847D2*
X12066560D1*
X1063047Y1668597D2*
X3438240D1*
X3667810D2*
X8728163D1*
X11325610D2*
X12066560D1*
X1063047Y1618930D2*
X3411627D1*
X3649217D2*
X8763710D1*
X11301183D2*
X12066560D1*
X1063047Y1569263D2*
X1260403D1*
X1438203D2*
X3378903D1*
X3626703D2*
X5940193D1*
X6189180D2*
X8842823D1*
X11273203D2*
X11655767D1*
X11904750D2*
X12066560D1*
X1063047Y1519597D2*
X1176913D1*
X1521600D2*
X3337707D1*
X3599907D2*
X3920950D1*
X4175677D2*
X5876210D1*
X6253163D2*
X8853123D1*
X11292433D2*
X11591783D1*
X11968737D2*
X12066560D1*
X1063047Y1469930D2*
X1134440D1*
X1564073D2*
X3286757D1*
X3568280D2*
X3876470D1*
X4220153D2*
X5840297D1*
X6289073D2*
X8891040D1*
X11296263D2*
X11555870D1*
X12004647D2*
X12066560D1*
X1063047Y1420263D2*
X1109463D1*
X1589047D2*
X3220310D1*
X3531273D2*
X3854140D1*
X4242487D2*
X5819607D1*
X6309763D2*
X8910453D1*
X11290703D2*
X11535180D1*
X12025337D2*
X12066560D1*
X1063047Y1370597D2*
X1096663D1*
X1601810D2*
X2517850D1*
X2720987D2*
X3124700D1*
X3487707D2*
X3846393D1*
X4250233D2*
X5810220D1*
X6319153D2*
X8911367D1*
X11270560D2*
X11525793D1*
X12034727D2*
X12066560D1*
X1063047Y1320930D2*
X1094293D1*
X1604270D2*
X2467447D1*
X3436393D2*
X3851313D1*
X4245310D2*
X5810950D1*
X6318423D2*
X8935977D1*
X9072487D2*
X9102763D1*
X10366940D2*
X10404427D1*
X11226900D2*
X11526523D1*
X12033997D2*
X12066560D1*
X1063047Y1271263D2*
X1101810D1*
X1596797D2*
X2444297D1*
X3373410D2*
X3870180D1*
X4226537D2*
X4385153D1*
X4759373D2*
X5821797D1*
X6307577D2*
X8386093D1*
X8760220D2*
X10708397D1*
X11203110D2*
X11537370D1*
X12023150D2*
X12066560D1*
X1063047Y1221597D2*
X1120310D1*
X1578293D2*
X2437370D1*
X3295297D2*
X3908463D1*
X4188163D2*
X4382237D1*
X4762290D2*
X5844400D1*
X6284973D2*
X8383177D1*
X8763227D2*
X10701927D1*
X11215233D2*
X11559973D1*
X12000547D2*
X12066560D1*
X1063047Y1171930D2*
X1153033D1*
X1545570D2*
X2444660D1*
X3188110D2*
X4005077D1*
X4091547D2*
X4382237D1*
X4762290D2*
X5883047D1*
X6246327D2*
X8383177D1*
X8763227D2*
X10702380D1*
X11215143D2*
X11598620D1*
X11961900D2*
X12066560D1*
X1063047Y1122263D2*
X1209817D1*
X1488787D2*
X2468357D1*
X2960793D2*
X4382237D1*
X4762290D2*
X5954230D1*
X6175143D2*
X8383177D1*
X8763227D2*
X10732643D1*
X11195910D2*
X11669803D1*
X11890713D2*
X12066560D1*
X1063047Y1072597D2*
X2519857D1*
X2718893D2*
X4382237D1*
X4762290D2*
X8383177D1*
X8763227D2*
X12066560D1*
X10305533Y2065727D2*
X10301190Y2038293D1*
X10292607Y2011880D1*
X10279997Y1987130D1*
X10263673Y1964660D1*
X10244033Y1945020D1*
X10221563Y1928697D1*
X10196813Y1916087D1*
X10170400Y1907503D1*
X10142967Y1903160D1*
X10115193D1*
X10087760Y1907503D1*
X10061347Y1916087D1*
X10036597Y1928697D1*
X10014127Y1945020D1*
X9994487Y1964660D1*
X9978163Y1987130D1*
X9965553Y2011880D1*
X9956970Y2038293D1*
X9952627Y2065727D1*
Y2093500D1*
X9956970Y2120933D1*
X9965553Y2147347D1*
X9978163Y2172097D1*
X9994487Y2194567D1*
X10014127Y2214207D1*
X10027073Y2224167D1*
X10027087Y3180163D1*
X10025120Y3220197D1*
X10019610Y3257327D1*
X10010487Y3293733D1*
X9997840Y3329073D1*
X9981790Y3363003D1*
X9962493Y3395197D1*
X9940133Y3425343D1*
X9914923Y3453153D1*
X9887113Y3478357D1*
X9856963Y3500717D1*
X9824767Y3520010D1*
X9790837Y3536057D1*
X9755497Y3548700D1*
X9719087Y3557820D1*
X9681957Y3563323D1*
X9641920Y3565290D1*
X9583330Y3565287D1*
X9595803Y3553237D1*
X9629227Y3514913D1*
X9659200Y3470620D1*
X9669917Y3450873D1*
X9689290Y3410870D1*
X9707340Y3357693D1*
X9718080Y3305300D1*
X9720423Y3282957D1*
X9723023Y3239953D1*
X9723013Y2192413D1*
X9735967Y2182407D1*
X9755607Y2162767D1*
X9771930Y2140297D1*
X9784540Y2115547D1*
X9793123Y2089133D1*
X9797467Y2061700D1*
Y2033927D1*
X9793123Y2006493D1*
X9784540Y1980080D1*
X9771930Y1955330D1*
X9755607Y1932860D1*
X9735967Y1913220D1*
X9713497Y1896897D1*
X9688747Y1884287D1*
X9662333Y1875703D1*
X9634900Y1871360D1*
X9607127D1*
X9579693Y1875703D1*
X9553280Y1884287D1*
X9528530Y1896897D1*
X9506060Y1913220D1*
X9486420Y1932860D1*
X9470097Y1955330D1*
X9457487Y1980080D1*
X9448903Y2006493D1*
X9444560Y2033927D1*
Y2061700D1*
X9448903Y2089133D1*
X9457487Y2115547D1*
X9470097Y2140297D1*
X9486420Y2162767D1*
X9506060Y2182407D1*
X9519007Y2192367D1*
X9518647Y3242367D1*
X9516230Y3274397D1*
X9509657Y3305840D1*
X9499033Y3336153D1*
X9484543Y3364823D1*
X9466437Y3391357D1*
X9445020Y3415297D1*
X9420663Y3436240D1*
X9393780Y3453820D1*
X9364830Y3467743D1*
X9334313Y3477770D1*
X9302750Y3483727D1*
X9269717Y3485893D1*
X7577177Y3486440D1*
X7561720Y3487773D1*
X7536447Y3492980D1*
X7512070Y3501443D1*
X7489010Y3513013D1*
X7467653Y3527497D1*
X7448373Y3544643D1*
X7431493Y3564163D1*
X7417310Y3585717D1*
X7406057Y3608937D1*
X7397933Y3633427D1*
X7396013Y3642357D1*
X7390083Y3654537D1*
X7384650Y3671250D1*
X7381903Y3688610D1*
Y3706183D1*
X7384650Y3723543D1*
X7390083Y3740257D1*
X7398060Y3755917D1*
X7408390Y3770133D1*
X7420820Y3782563D1*
X7435037Y3792893D1*
X7450697Y3800870D1*
X7467410Y3806303D1*
X7484770Y3809050D1*
X7497297Y3809250D1*
X7504897Y3828243D1*
X7514080Y3843230D1*
X7526327Y3857363D1*
X7514080Y3871563D1*
X7504897Y3886550D1*
X7498173Y3902787D1*
X7496427Y3908970D1*
X7481617Y3913923D1*
X7465957Y3921900D1*
X7451740Y3932230D1*
X7439310Y3944660D1*
X7428980Y3958877D1*
X7421003Y3974537D1*
X7416850Y3986720D1*
X7399740Y3985397D1*
X7382220Y3986777D1*
X7365130Y3990880D1*
X7348893Y3997603D1*
X7333907Y4006787D1*
X7320543Y4018200D1*
X7309130Y4031563D1*
X7299947Y4046550D1*
X7293223Y4062787D1*
X7289120Y4079877D1*
X7287740Y4097397D1*
X7289120Y4114917D1*
X7293223Y4132007D1*
X7294993Y4136810D1*
X6330120Y4136680D1*
X6309577Y4134727D1*
X6295033Y4131213D1*
X6281070Y4125833D1*
X6267930Y4118673D1*
X6255833Y4109863D1*
X6244993Y4099547D1*
X6235593Y4087903D1*
X6227793Y4075133D1*
X6221727Y4061457D1*
X6217497Y4047103D1*
X6215177Y4032320D1*
X6214283Y3998667D1*
Y3823577D1*
X6218800Y3812007D1*
X6222903Y3794917D1*
X6224283Y3777397D1*
X6222903Y3759877D1*
X6218800Y3742787D1*
X6212077Y3726550D1*
X6202893Y3711563D1*
X6191480Y3698200D1*
X6178117Y3686787D1*
X6163130Y3677603D1*
X6146893Y3670880D1*
X6129803Y3666777D1*
X6112283Y3665397D1*
X6094763Y3666777D1*
X6077673Y3670880D1*
X6061437Y3677603D1*
X6046450Y3686787D1*
X6033087Y3698200D1*
X6021673Y3711563D1*
X6012490Y3726550D1*
X6005767Y3742787D1*
X6001663Y3759877D1*
X6000283Y3777397D1*
X6001663Y3794917D1*
X6005767Y3812007D1*
X6010283Y3824063D1*
X6010870Y4034323D1*
X6013197Y4064963D1*
X6021503Y4105833D1*
X6035077Y4145270D1*
X6053683Y4182597D1*
X6077000Y4217173D1*
X6104633Y4248413D1*
X6136110Y4275777D1*
X6170887Y4298800D1*
X6208370Y4317083D1*
X6247923Y4330320D1*
X6288863Y4338277D1*
X6322487Y4340617D1*
X6912450Y4340833D1*
X7780613D1*
X7766487Y4351363D1*
X7748773Y4366540D1*
X7732283Y4383040D1*
X7717117Y4400763D1*
X7703363Y4419607D1*
X7691103Y4439453D1*
X7680413Y4460187D1*
X7671357Y4481683D1*
X7663987Y4503817D1*
X7658343Y4526453D1*
X7654467Y4549457D1*
X7652377Y4572690D1*
X7652087Y4596013D1*
X7653597Y4619293D1*
X7656900Y4642387D1*
X7661977Y4665153D1*
X7668793Y4687463D1*
X7677313Y4709180D1*
X7687483Y4730173D1*
X7699243Y4750320D1*
X7712523Y4769497D1*
X7727247Y4787593D1*
X7743320Y4804500D1*
X7760650Y4820113D1*
X7779133Y4834347D1*
X7798660Y4847107D1*
X7819117Y4858323D1*
X7840373Y4867927D1*
X7862310Y4875860D1*
X7884797Y4882077D1*
X7907693Y4886540D1*
X7930863Y4889223D1*
X7954177Y4890110D1*
X7977483Y4889193D1*
X8000653Y4886483D1*
X8023543Y4881990D1*
X8046020Y4875743D1*
X8067947Y4867780D1*
X8089193Y4858150D1*
X8109633Y4846910D1*
X8129147Y4834123D1*
X8147610Y4819870D1*
X8164923Y4804233D1*
X8180973Y4787307D1*
X8195673Y4769190D1*
X8208930Y4749997D1*
X8220663Y4729833D1*
X8230807Y4708827D1*
X8239300Y4687100D1*
X8246087Y4664783D1*
X8251133Y4642007D1*
X8254410Y4618910D1*
X8255983Y4588110D1*
X8255083Y4564800D1*
X8252383Y4541630D1*
X8247907Y4518737D1*
X8241677Y4496257D1*
X8233727Y4474323D1*
X8224110Y4453070D1*
X8212880Y4432623D1*
X8200107Y4413103D1*
X8185867Y4394630D1*
X8170240Y4377310D1*
X8153323Y4361247D1*
X8126900Y4340783D1*
X9110930Y4341170D1*
X9124733Y4343110D1*
X9137680Y4348340D1*
X9147257Y4354740D1*
X9157030Y4364677D1*
X9164117Y4376710D1*
X9167817Y4387617D1*
X9169400Y4399643D1*
X9169740Y4471463D1*
Y4766320D1*
X9153133Y4775617D1*
X9138313Y4785520D1*
X9124317Y4796553D1*
X9111227Y4808653D1*
X9099127Y4821743D1*
X9088093Y4835740D1*
X9078190Y4850560D1*
X9069480Y4866110D1*
X9062020Y4882297D1*
X9055850Y4899020D1*
X9051013Y4916173D1*
X9047533Y4933657D1*
X9045440Y4951357D1*
X9044740Y4969167D1*
X9045440Y4986977D1*
X9047533Y5004677D1*
X9051013Y5022160D1*
X9055850Y5039313D1*
X9062020Y5056037D1*
X9069480Y5072223D1*
X9078190Y5087773D1*
X9088093Y5102593D1*
X9099127Y5116590D1*
X9111227Y5129680D1*
X9124317Y5141780D1*
X9138313Y5152813D1*
X9153133Y5162717D1*
X9168683Y5171427D1*
X9184870Y5178887D1*
X9201593Y5185057D1*
X9218747Y5189893D1*
X9236230Y5193373D1*
X9253930Y5195467D1*
X9271740Y5196167D1*
X9289550Y5195467D1*
X9307250Y5193373D1*
X9324733Y5189893D1*
X9341887Y5185057D1*
X9358610Y5178887D1*
X9374797Y5171427D1*
X9390347Y5162717D1*
X9405167Y5152813D1*
X9419163Y5141780D1*
X9432253Y5129680D1*
X9444353Y5116590D1*
X9455387Y5102593D1*
X9465290Y5087773D1*
X9478050Y5063433D1*
X9490987Y5087793D1*
X9500890Y5102613D1*
X9511923Y5116610D1*
X9524023Y5129700D1*
X9537113Y5141800D1*
X9551110Y5152833D1*
X9565930Y5162737D1*
X9581480Y5171447D1*
X9597667Y5178907D1*
X9614390Y5185077D1*
X9631543Y5189913D1*
X9649027Y5193393D1*
X9666727Y5195487D1*
X9684537Y5196187D1*
X9702347Y5195487D1*
X9720047Y5193393D1*
X9737530Y5189913D1*
X9754683Y5185077D1*
X9771407Y5178907D1*
X9787593Y5171447D1*
X9803143Y5162737D1*
X9817963Y5152833D1*
X9831960Y5141800D1*
X9845050Y5129700D1*
X9857150Y5116610D1*
X9868183Y5102613D1*
X9878087Y5087793D1*
X9890847Y5063453D1*
X9903780Y5087793D1*
X9913683Y5102613D1*
X9924717Y5116610D1*
X9936817Y5129700D1*
X9949907Y5141800D1*
X9963903Y5152833D1*
X9978723Y5162737D1*
X9994273Y5171447D1*
X10010460Y5178907D1*
X10027183Y5185077D1*
X10044337Y5189913D1*
X10061820Y5193393D1*
X10079520Y5195487D1*
X10097330Y5196187D1*
X10115140Y5195487D1*
X10132840Y5193393D1*
X10150323Y5189913D1*
X10167477Y5185077D1*
X10184200Y5178907D1*
X10200387Y5171447D1*
X10215937Y5162737D1*
X10230757Y5152833D1*
X10244753Y5141800D1*
X10257843Y5129700D1*
X10269943Y5116610D1*
X10280977Y5102613D1*
X10290880Y5087793D1*
X10303640Y5063453D1*
X10316573Y5087793D1*
X10326477Y5102613D1*
X10337510Y5116610D1*
X10349610Y5129700D1*
X10362700Y5141800D1*
X10376697Y5152833D1*
X10391517Y5162737D1*
X10407067Y5171447D1*
X10423253Y5178907D1*
X10439977Y5185077D1*
X10457130Y5189913D1*
X10474613Y5193393D1*
X10492313Y5195487D1*
X10510123Y5196187D1*
X10527933Y5195487D1*
X10545633Y5193393D1*
X10563117Y5189913D1*
X10580270Y5185077D1*
X10596993Y5178907D1*
X10613180Y5171447D1*
X10628730Y5162737D1*
X10643550Y5152833D1*
X10657547Y5141800D1*
X10670637Y5129700D1*
X10682737Y5116610D1*
X10693770Y5102613D1*
X10703673Y5087793D1*
X10712383Y5072243D1*
X10719843Y5056057D1*
X10726013Y5039333D1*
X10730850Y5022180D1*
X10734330Y5004697D1*
X10736423Y4986997D1*
X10737123Y4969187D1*
X10736423Y4951377D1*
X10734330Y4933677D1*
X10730850Y4916193D1*
X10726013Y4899040D1*
X10719843Y4882317D1*
X10712383Y4866130D1*
X10703673Y4850580D1*
X10693770Y4835760D1*
X10682737Y4821763D1*
X10670637Y4808673D1*
X10657547Y4796573D1*
X10643550Y4785540D1*
X10628730Y4775637D1*
X10612103Y4766433D1*
X10612120Y4365820D1*
X10608613Y4313883D1*
X10598543Y4264170D1*
X10582070Y4216197D1*
X10559473Y4170787D1*
X10531147Y4128710D1*
X10497567Y4090693D1*
X10459317Y4057383D1*
X10417040Y4029353D1*
X10371470Y4007077D1*
X10323383Y3990943D1*
X10294230Y3985003D1*
X10301190Y3962627D1*
X10305533Y3935193D1*
Y3907420D1*
X10301190Y3879987D1*
X10292607Y3853573D1*
X10279997Y3828823D1*
X10263673Y3806353D1*
X10244033Y3786713D1*
X10221563Y3770390D1*
X10198640Y3758620D1*
X10183617Y3736303D1*
X10163357Y3713143D1*
X10140223Y3692850D1*
X10114623Y3675777D1*
X10086997Y3662220D1*
X10057830Y3652417D1*
X10027627Y3646533D1*
X10005230Y3644907D1*
X10020413Y3632863D1*
X10062727Y3593850D1*
X10101013Y3550877D1*
X10134903Y3504357D1*
X10164070Y3454737D1*
X10188237Y3402500D1*
X10207163Y3348147D1*
X10220670Y3292197D1*
X10228630Y3235193D1*
X10231087Y3182690D1*
X10231080Y2224290D1*
X10244033Y2214207D1*
X10263673Y2194567D1*
X10279997Y2172097D1*
X10292607Y2147347D1*
X10301190Y2120933D1*
X10305533Y2093500D1*
Y2065727D1*
X11355507Y2074947D2*
X11353733Y2056377D1*
X11349620Y2038183D1*
X11343237Y2020653D1*
X11334687Y2004077D1*
X11324107Y1988713D1*
X11311663Y1974813D1*
X11297560Y1962603D1*
X11282027Y1952277D1*
X11265310Y1944000D1*
X11247677Y1937907D1*
X11229417Y1934097D1*
X11210820Y1932630D1*
X11192187Y1933530D1*
X11173820Y1936783D1*
X11156010Y1942333D1*
X11139050Y1950097D1*
X11123207Y1959947D1*
X11108740Y1971720D1*
X11095880Y1985233D1*
X11084833Y2000267D1*
X11075780Y2016577D1*
X11068867Y2033903D1*
X11064203Y2051963D1*
X11061863Y2070473D1*
X11061887Y2089127D1*
X11064273Y2107627D1*
X11068983Y2125677D1*
X11075940Y2142983D1*
X11085033Y2159273D1*
X11096117Y2174277D1*
X11109010Y2187757D1*
X11123510Y2199497D1*
X11139377Y2209303D1*
X11156357Y2217023D1*
X11174180Y2222533D1*
X11192557Y2225737D1*
X11211193Y2226590D1*
X11229783Y2225077D1*
X11248037Y2221220D1*
X11265650Y2215083D1*
X11282347Y2206763D1*
X11297857Y2196397D1*
X11311927Y2184150D1*
X11324333Y2170220D1*
X11334877Y2154833D1*
X11343387Y2138233D1*
X11349727Y2120687D1*
X11353790Y2102480D1*
X11355517Y2083907D1*
X11355507Y2074947D1*
X8688440Y2043147D2*
X8686667Y2024577D1*
X8682553Y2006383D1*
X8676170Y1988853D1*
X8667620Y1972277D1*
X8657040Y1956913D1*
X8644597Y1943013D1*
X8630493Y1930803D1*
X8614960Y1920477D1*
X8598243Y1912200D1*
X8580610Y1906107D1*
X8562350Y1902297D1*
X8543753Y1900830D1*
X8525120Y1901730D1*
X8506753Y1904983D1*
X8488943Y1910533D1*
X8471983Y1918297D1*
X8456140Y1928147D1*
X8441673Y1939920D1*
X8428813Y1953433D1*
X8417767Y1968467D1*
X8408713Y1984777D1*
X8401800Y2002103D1*
X8397137Y2020163D1*
X8394797Y2038673D1*
X8394820Y2057327D1*
X8397207Y2075827D1*
X8401917Y2093877D1*
X8408873Y2111183D1*
X8417967Y2127473D1*
X8429050Y2142477D1*
X8441943Y2155957D1*
X8456443Y2167697D1*
X8472310Y2177503D1*
X8489290Y2185223D1*
X8507113Y2190733D1*
X8525490Y2193937D1*
X8544127Y2194790D1*
X8562717Y2193277D1*
X8580970Y2189420D1*
X8598583Y2183283D1*
X8615280Y2174963D1*
X8630790Y2164597D1*
X8644860Y2152350D1*
X8657267Y2138420D1*
X8667810Y2123033D1*
X8676320Y2106433D1*
X8682660Y2088887D1*
X8686723Y2070680D1*
X8688450Y2052107D1*
X8688440Y2043147D1*
X5996133Y3716350D2*
Y3616927D1*
X6009087Y3608923D1*
X6021260Y3598530D1*
X6031653Y3586357D1*
X6040017Y3572710D1*
X6046140Y3557923D1*
X6049877Y3542360D1*
X6051133Y3526373D1*
Y3454123D1*
X6098893Y3454773D1*
X6116567Y3456603D1*
X6133853Y3460723D1*
X6150450Y3467063D1*
X6166080Y3475517D1*
X6180473Y3485937D1*
X6193383Y3498147D1*
X6204587Y3511940D1*
X6213893Y3527077D1*
X6221147Y3543297D1*
X6226220Y3560327D1*
X6229030Y3577870D1*
X6230183Y3595490D1*
X6230657Y3663337D1*
X6234387Y3686897D1*
X6241760Y3709580D1*
X6252590Y3730830D1*
X6266610Y3750127D1*
X6283477Y3766990D1*
X6302773Y3781010D1*
X6324027Y3791837D1*
X6346710Y3799207D1*
X6370270Y3802937D1*
X6394120Y3802933D1*
X6417680Y3799203D1*
X6440363Y3791830D1*
X6461613Y3781000D1*
X6480910Y3766980D1*
X6497773Y3750113D1*
X6511793Y3730817D1*
X6522620Y3709563D1*
X6529990Y3686880D1*
X6533720Y3663320D1*
X6534183Y3604730D1*
X6533367Y3573057D1*
X6532840Y3565030D1*
X6543930Y3581147D1*
X6574903Y3616303D1*
X6610243Y3647067D1*
X6649333Y3672903D1*
X6691487Y3693360D1*
X6735973Y3708077D1*
X6782007Y3716800D1*
X6820787Y3719223D1*
X6905210Y3719397D1*
X6916883Y3723913D1*
X6933973Y3728017D1*
X6951493Y3729397D1*
X6969013Y3728017D1*
X6986103Y3723913D1*
X7002340Y3717190D1*
X7017327Y3708007D1*
X7030690Y3696593D1*
X7042103Y3683230D1*
X7051287Y3668243D1*
X7058010Y3652007D1*
X7062113Y3634917D1*
X7062803Y3629083D1*
X7077703Y3616593D1*
X7089117Y3603230D1*
X7098300Y3588243D1*
X7105023Y3572007D1*
X7109127Y3554917D1*
X7110507Y3537397D1*
X7109127Y3519877D1*
X7105023Y3502787D1*
X7098300Y3486550D1*
X7089117Y3471563D1*
X7077703Y3458200D1*
X7064340Y3446787D1*
X7049353Y3437603D1*
X7033117Y3430880D1*
X7016027Y3426777D1*
X6998507Y3425397D1*
X6980987Y3426777D1*
X6963897Y3430880D1*
X6951840Y3435397D1*
X6855040Y3434970D1*
X6843593Y3433810D1*
X6832397Y3431163D1*
X6821643Y3427077D1*
X6811517Y3421620D1*
X6802190Y3414887D1*
X6793823Y3406990D1*
X6786563Y3398070D1*
X6780530Y3388273D1*
X6775827Y3377773D1*
X6772540Y3366750D1*
X6770720Y3355390D1*
X6769967Y3323747D1*
X6769750Y2390477D1*
X6766813Y2347857D1*
X6758273Y2303310D1*
X6752413Y2283313D1*
X6740950Y2249987D1*
X6721173Y2209170D1*
X6710337Y2191373D1*
X6688993Y2160003D1*
X6657327Y2123897D1*
X6623433Y2093753D1*
X6606610Y2081460D1*
X6577230Y2061993D1*
X6546957Y2046717D1*
X6539893Y2031010D1*
X6525383Y2007330D1*
X6507343Y1986210D1*
X6486223Y1968170D1*
X6462543Y1953660D1*
X6436883Y1943030D1*
X6409877Y1936547D1*
X6382187Y1934367D1*
X6354497Y1936547D1*
X6327490Y1943030D1*
X6301830Y1953660D1*
X6278150Y1968170D1*
X6257030Y1986210D1*
X6238990Y2007330D1*
X6224480Y2031010D1*
X6213850Y2056670D1*
X6207367Y2083677D1*
X6205187Y2111367D1*
X6207367Y2139057D1*
X6213850Y2166063D1*
X6224480Y2191723D1*
X6238990Y2215403D1*
X6257030Y2236523D1*
X6269237Y2247537D1*
X5981197Y2247027D1*
X5967663Y2245600D1*
X5954430Y2242420D1*
X5941727Y2237540D1*
X5929770Y2231043D1*
X5918763Y2223043D1*
X5908893Y2213673D1*
X5902620Y2206520D1*
X5913453Y2194520D1*
X5929777Y2172050D1*
X5942387Y2147300D1*
X5950970Y2120887D1*
X5955313Y2093453D1*
Y2065680D1*
X5950970Y2038247D1*
X5942387Y2011833D1*
X5929777Y1987083D1*
X5913453Y1964613D1*
X5893813Y1944973D1*
X5871343Y1928650D1*
X5846593Y1916040D1*
X5820180Y1907457D1*
X5792747Y1903113D1*
X5764973D1*
X5737540Y1907457D1*
X5711127Y1916040D1*
X5686377Y1928650D1*
X5663907Y1944973D1*
X5644267Y1964613D1*
X5627943Y1987083D1*
X5615333Y2011833D1*
X5606750Y2038247D1*
X5602407Y2065680D1*
Y2093453D1*
X5606750Y2120887D1*
X5615333Y2147300D1*
X5627943Y2172050D1*
X5644267Y2194520D1*
X5663907Y2214160D1*
X5686377Y2230483D1*
X5690500Y2232793D1*
X5700873Y2262367D1*
X5718877Y2298470D1*
X5741440Y2331917D1*
X5768177Y2362130D1*
X5798627Y2388597D1*
X5832270Y2410863D1*
X5868533Y2428547D1*
X5906793Y2441347D1*
X5946400Y2449043D1*
X5978663Y2451297D1*
X6395230Y2451517D1*
X6410387Y2452833D1*
X6423920Y2456460D1*
X6434733Y2461437D1*
X6444460Y2468320D1*
X6454370Y2478230D1*
X6461247Y2487943D1*
X6466230Y2498770D1*
X6469857Y2512303D1*
X6471170Y2527433D1*
X6469930Y3361867D1*
X6444377Y3324000D1*
X6412050Y3286427D1*
X6397930Y3272300D1*
X6363447Y3242337D1*
X6322493Y3214410D1*
X6305200Y3204420D1*
X6260417Y3182867D1*
X6209667Y3165640D1*
X6161147Y3155513D1*
X6141347Y3152903D1*
X6093763Y3150113D1*
X5584017Y3150117D1*
X5583957Y2950117D1*
X5179957D1*
Y2975180D1*
X4990710Y2975117D1*
X5000967Y2959120D1*
X5015040Y2944050D1*
X5027233Y2934210D1*
X5040607Y2926050D1*
X5054933Y2919707D1*
X5069963Y2915283D1*
X5085443Y2912863D1*
X5119510Y2911940D1*
X5735120Y2912313D1*
X5748780Y2914113D1*
X5759903Y2917563D1*
X5770183Y2922980D1*
X5781113Y2931363D1*
X5789023Y2939917D1*
X5795217Y2949747D1*
X5800490Y2962473D1*
X5802810Y2972550D1*
X5796980Y2990190D1*
X5794233Y3007550D1*
Y3025123D1*
X5796980Y3042483D1*
X5802413Y3059197D1*
X5810390Y3074857D1*
X5820720Y3089073D1*
X5833150Y3101503D1*
X5847367Y3111833D1*
X5863027Y3119810D1*
X5879740Y3125243D1*
X5897100Y3127990D1*
X5914673D1*
X5932033Y3125243D1*
X5948747Y3119810D1*
X5964407Y3111833D1*
X5978623Y3101503D1*
X5991053Y3089073D1*
X5992477Y3087267D1*
X6006133Y3097083D1*
X6021793Y3105060D1*
X6038507Y3110493D1*
X6055867Y3113240D1*
X6073440D1*
X6090800Y3110493D1*
X6107513Y3105060D1*
X6123173Y3097083D1*
X6137390Y3086753D1*
X6149820Y3074323D1*
X6160150Y3060107D1*
X6168127Y3044447D1*
X6173560Y3027733D1*
X6176307Y3010373D1*
Y2992800D1*
X6173560Y2975440D1*
X6168127Y2958727D1*
X6162583Y2947413D1*
X6153580Y2903720D1*
X6137723Y2857573D1*
X6115983Y2813893D1*
X6088727Y2773420D1*
X6056420Y2736853D1*
X6019617Y2704817D1*
X5978947Y2677857D1*
X5935107Y2656437D1*
X5888843Y2640923D1*
X5843633Y2631930D1*
X5800260Y2628773D1*
X5210287Y2628557D1*
X4937380D1*
X4881307Y2632333D1*
X4827530Y2643213D1*
X4775633Y2661017D1*
X4726507Y2685443D1*
X4680987Y2716077D1*
X4639853Y2752387D1*
X4603810Y2793753D1*
X4573480Y2839473D1*
X4549373Y2888760D1*
X4531907Y2940770D1*
X4524930Y2975123D1*
X4442957Y2975117D1*
Y3629117D1*
X5180007D1*
X5179957Y3654117D1*
X5583957D1*
Y3454050D1*
X5697047Y3454117D1*
X5697447Y3534407D1*
X5699950Y3550213D1*
X5704897Y3565437D1*
X5712163Y3579697D1*
X5721573Y3592647D1*
X5732890Y3603963D1*
X5745867Y3613387D1*
X5752133Y3619070D1*
X5752713Y3723757D1*
X5755710Y3734390D1*
X5761110Y3744030D1*
X5768610Y3752143D1*
X5777797Y3758280D1*
X5788160Y3762103D1*
X5799147Y3763403D1*
X5956487Y3762823D1*
X5967120Y3759827D1*
X5976760Y3754427D1*
X5984873Y3746927D1*
X5991010Y3737740D1*
X5994833Y3727377D1*
X5996133Y3716390D1*
X6051133Y3476433D2*
Y3476373D1*
X5697133D2*
Y3476433D1*
X2763940Y1120250D2*
X2753980Y1107303D1*
X2734340Y1087663D1*
X2711870Y1071340D1*
X2687120Y1058730D1*
X2685237Y1058033D1*
X4387257Y1058020D1*
X4387547Y1257967D1*
X4391293Y1275327D1*
X4395393Y1282707D1*
X4404933Y1295740D1*
X4420393Y1306347D1*
X4427740Y1309057D1*
X4444263Y1312027D1*
X4703183Y1311737D1*
X4720543Y1307990D1*
X4727923Y1303890D1*
X4740957Y1294350D1*
X4751563Y1278890D1*
X4754270Y1271553D1*
X4757243Y1255020D1*
X4757263Y1057993D1*
X8388213Y1058020D1*
X8388467Y1257967D1*
X8392213Y1275327D1*
X8396313Y1282707D1*
X8405853Y1295740D1*
X8421313Y1306347D1*
X8428660Y1309057D1*
X8445183Y1312027D1*
X8704103Y1311737D1*
X8721463Y1307990D1*
X8728843Y1303890D1*
X8741877Y1294350D1*
X8752483Y1278890D1*
X8755193Y1271543D1*
X8758163Y1255020D1*
X8758183Y1057993D1*
X12071583Y1058000D1*
X12071540Y3910930D1*
X11570537Y3911010D1*
X11522793Y3915240D1*
X11472107Y3934637D1*
X11428797Y3967343D1*
X11396273Y4010790D1*
X11377093Y4061560D1*
X11372967Y4110397D1*
X11373047Y4956607D1*
X11377273Y5004350D1*
X11396270Y5054320D1*
X11428017Y5096930D1*
X11450383Y5114390D1*
X11472820Y5130873D1*
X11523590Y5150053D1*
X11572427Y5154180D1*
X12071527D1*
X12071543Y5244663D1*
X8758143Y5244597D1*
X8757873Y5044650D1*
X8754127Y5027290D1*
X8750027Y5019910D1*
X8740487Y5006877D1*
X8725027Y4996270D1*
X8717680Y4993560D1*
X8701157Y4990590D1*
X8442237Y4990880D1*
X8424877Y4994627D1*
X8417497Y4998727D1*
X8404463Y5008267D1*
X8393857Y5023727D1*
X8391147Y5031073D1*
X8388177Y5047597D1*
X8388157Y5244623D1*
X4757207Y5244597D1*
X4756953Y5044650D1*
X4753207Y5027290D1*
X4749107Y5019910D1*
X4739567Y5006877D1*
X4724107Y4996270D1*
X4716760Y4993560D1*
X4700237Y4990590D1*
X4441317Y4990880D1*
X4423957Y4994627D1*
X4416577Y4998727D1*
X4403543Y5008267D1*
X4392937Y5023727D1*
X4390227Y5031073D1*
X4387257Y5047597D1*
X4387237Y5244623D1*
X1057980Y5244597D1*
X1058000Y4911303D1*
X1073803Y4938900D1*
X1087063Y4958093D1*
X1101657Y4976290D1*
X1117513Y4993403D1*
X1134547Y5009340D1*
X1152677Y5024023D1*
X1171803Y5037377D1*
X1191837Y5049333D1*
X1212670Y5059830D1*
X1234200Y5068813D1*
X1256313Y5076240D1*
X1278900Y5082073D1*
X1301847Y5086280D1*
X1325033Y5088840D1*
X1348347Y5089740D1*
X1371660Y5088973D1*
X1394863Y5086550D1*
X1417833Y5082477D1*
X1440453Y5076777D1*
X1462613Y5069480D1*
X1484193Y5060620D1*
X1505087Y5050243D1*
X1525187Y5038407D1*
X1544393Y5025163D1*
X1562607Y5010587D1*
X1579733Y4994747D1*
X1595690Y4977727D1*
X1610390Y4959613D1*
X1623760Y4940500D1*
X1635737Y4920477D1*
X1646253Y4899653D1*
X1655260Y4878133D1*
X1662707Y4856027D1*
X1668560Y4833447D1*
X1672790Y4810503D1*
X1675370Y4787320D1*
X1676297Y4762740D1*
X1675463Y4739427D1*
X1672973Y4716230D1*
X1668833Y4693273D1*
X1663067Y4670670D1*
X1655703Y4648533D1*
X1646783Y4626977D1*
X1636347Y4606113D1*
X1624450Y4586047D1*
X1611150Y4566880D1*
X1596520Y4548710D1*
X1580633Y4531627D1*
X1563567Y4515723D1*
X1545410Y4501077D1*
X1526257Y4487760D1*
X1506200Y4475843D1*
X1485347Y4465387D1*
X1463800Y4456443D1*
X1441673Y4449060D1*
X1419073Y4443270D1*
X1396120Y4439110D1*
X1372927Y4436593D1*
X1349613Y4435740D1*
X1326300Y4436550D1*
X1303103Y4439020D1*
X1280140Y4443137D1*
X1257530Y4448880D1*
X1235387Y4456223D1*
X1213823Y4465123D1*
X1192950Y4475540D1*
X1172870Y4487417D1*
X1153690Y4500697D1*
X1135507Y4515307D1*
X1118410Y4531180D1*
X1102487Y4548230D1*
X1087823Y4566373D1*
X1074487Y4585513D1*
X1058010Y4614597D1*
X1058000Y2800183D1*
X1070603Y2810247D1*
X1094283Y2824757D1*
X1119943Y2835387D1*
X1146950Y2841870D1*
X1174640Y2844050D1*
X1202330Y2841870D1*
X1229337Y2835387D1*
X1254997Y2824757D1*
X1278677Y2810247D1*
X1299797Y2792207D1*
X1317837Y2771087D1*
X1319193Y2769057D1*
X1556883Y2769347D1*
X1582893Y2771210D1*
X1608440Y2776453D1*
X1633083Y2784983D1*
X1656400Y2796660D1*
X1677997Y2811277D1*
X1697500Y2828590D1*
X1714573Y2848300D1*
X1728930Y2870070D1*
X1740323Y2893527D1*
X1748557Y2918273D1*
X1753490Y2943880D1*
X1755333Y2972027D1*
X1755553Y3360840D1*
X1758940Y3407633D1*
X1768603Y3456207D1*
X1783367Y3500673D1*
X1791920Y3520003D1*
X1808163Y3552627D1*
X1833933Y3591757D1*
X1847200Y3608213D1*
X1871333Y3635520D1*
X1906350Y3666647D1*
X1923423Y3679110D1*
X1953803Y3699240D1*
X1995683Y3720243D1*
X2015400Y3727863D1*
X2049953Y3739443D1*
X2095847Y3748893D1*
X2116863Y3751147D1*
X2154570Y3753400D1*
X3098073Y3753643D1*
X3119690Y3755103D1*
X3140930Y3759370D1*
X3161433Y3766373D1*
X3180843Y3775993D1*
X3198837Y3788067D1*
X3215097Y3802383D1*
X3229350Y3818700D1*
X3241350Y3836737D1*
X3250897Y3856183D1*
X3257820Y3876713D1*
X3262003Y3897970D1*
X3263617Y3922583D1*
X3263840Y4144740D1*
X3266413Y4181863D1*
X3275060Y4226243D1*
X3289430Y4269113D1*
X3309270Y4309740D1*
X3334247Y4347430D1*
X3363927Y4381540D1*
X3397803Y4411483D1*
X3435300Y4436747D1*
X3475773Y4456900D1*
X3518533Y4471600D1*
X3562843Y4480590D1*
X3602540Y4483507D1*
X3842617Y4483730D1*
X4147157Y4483283D1*
X4174333Y4480627D1*
X4196683Y4476040D1*
X4225920Y4466300D1*
X4248910Y4455317D1*
X4266277Y4444760D1*
X4285580Y4430813D1*
X4302637Y4415667D1*
X4323087Y4392613D1*
X4340353Y4367087D1*
X4354140Y4339527D1*
X4364210Y4310400D1*
X4370393Y4280210D1*
X4372367Y4254877D1*
X4379497Y4233233D1*
X4382243Y4215873D1*
Y4198300D1*
X4379497Y4180940D1*
X4374063Y4164227D1*
X4366087Y4148567D1*
X4355757Y4134350D1*
X4343327Y4121920D1*
X4329110Y4111590D1*
X4313450Y4103613D1*
X4296737Y4098180D1*
X4279377Y4095433D1*
X4261803D1*
X4244443Y4098180D1*
X4227730Y4103613D1*
X4212070Y4111590D1*
X4197853Y4121920D1*
X4185423Y4134350D1*
X4175093Y4148567D1*
X4167117Y4164227D1*
X4161683Y4180940D1*
X4158937Y4198300D1*
Y4215873D1*
X4161683Y4233233D1*
X4167117Y4249947D1*
X4168043Y4252537D1*
X4165850Y4260420D1*
X4161690Y4267467D1*
X4155847Y4273197D1*
X4148720Y4277220D1*
X4140793Y4279263D1*
X4090333Y4279730D1*
X3609593Y4279530D1*
X3590833Y4278303D1*
X3572687Y4274693D1*
X3555167Y4268750D1*
X3538573Y4260567D1*
X3523187Y4250290D1*
X3509277Y4238093D1*
X3497077Y4224183D1*
X3486797Y4208800D1*
X3478610Y4192210D1*
X3472663Y4174690D1*
X3469050Y4156543D1*
X3467620Y4134753D1*
Y3919240D1*
X3464267Y3869640D1*
X3454653Y3822223D1*
X3439970Y3778963D1*
X3421213Y3740223D1*
X3410650Y3722843D1*
X3390347Y3693033D1*
X3358313Y3656777D1*
X3321823Y3625010D1*
X3281497Y3598283D1*
X3238030Y3577043D1*
X3192160Y3561663D1*
X3144673Y3552400D1*
X3104393Y3549620D1*
X2514420Y3549400D1*
X2153480Y3549110D1*
X2128047Y3547300D1*
X2103063Y3542187D1*
X2078963Y3533853D1*
X2056157Y3522450D1*
X2035033Y3508163D1*
X2015953Y3491243D1*
X1999250Y3471980D1*
X1985200Y3450697D1*
X1974050Y3427767D1*
X1965987Y3403573D1*
X1961153Y3378537D1*
X1959337Y3350803D1*
Y2968677D1*
X1955693Y2914667D1*
X1945220Y2862917D1*
X1928077Y2812977D1*
X1904563Y2765700D1*
X1875083Y2721897D1*
X1840133Y2682320D1*
X1800320Y2647640D1*
X1756320Y2618457D1*
X1708887Y2595263D1*
X1658830Y2578460D1*
X1607013Y2568337D1*
X1562320Y2565267D1*
X1319340Y2565050D1*
X1309233Y2552097D1*
X1289593Y2532457D1*
X1267123Y2516133D1*
X1242373Y2503523D1*
X1215960Y2494940D1*
X1188527Y2490597D1*
X1160753D1*
X1133320Y2494940D1*
X1106907Y2503523D1*
X1082157Y2516133D1*
X1059687Y2532457D1*
X1057973Y2534043D1*
X1058000Y1058020D1*
X2553403D1*
X2539030Y1064550D1*
X2515350Y1079060D1*
X2494230Y1097100D1*
X2476190Y1118220D1*
X2461680Y1141900D1*
X2451050Y1167560D1*
X2444567Y1194567D1*
X2442387Y1222257D1*
X2444567Y1249947D1*
X2451050Y1276953D1*
X2461680Y1302613D1*
X2476190Y1326293D1*
X2494230Y1347413D1*
X2515350Y1365453D1*
X2539030Y1379963D1*
X2564690Y1390593D1*
X2591697Y1397077D1*
X2619387Y1399257D1*
X2647077Y1397077D1*
X2674083Y1390593D1*
X2699743Y1379963D1*
X2723423Y1365453D1*
X2744543Y1347413D1*
X2762583Y1326293D1*
X2763940Y1324263D1*
X2897233Y1324267D1*
X2942040Y1325863D1*
X2984807Y1330453D1*
X3027140Y1338083D1*
X3068820Y1348713D1*
X3109633Y1362290D1*
X3149377Y1378747D1*
X3187843Y1397993D1*
X3224837Y1419937D1*
X3260173Y1444463D1*
X3293670Y1471450D1*
X3325157Y1500757D1*
X3354470Y1532233D1*
X3381463Y1565723D1*
X3406000Y1601050D1*
X3427953Y1638040D1*
X3447213Y1676503D1*
X3463677Y1716240D1*
X3477267Y1757053D1*
X3487910Y1798727D1*
X3495550Y1841057D1*
X3500153Y1883823D1*
X3501760Y1950237D1*
X3501800Y2585293D1*
X3503527Y2651877D1*
X3508677Y2720707D1*
X3518027Y2794207D1*
X3529267Y2857160D1*
X3544653Y2924440D1*
X3563390Y2990870D1*
X3585430Y3056277D1*
X3610713Y3120500D1*
X3639177Y3183377D1*
X3670753Y3244750D1*
X3705363Y3304467D1*
X3742917Y3362377D1*
X3783320Y3418337D1*
X3826473Y3472203D1*
X3872270Y3523843D1*
X3920590Y3573127D1*
X3971320Y3619927D1*
X4024323Y3664133D1*
X4079477Y3705633D1*
X4136637Y3744317D1*
X4195660Y3780093D1*
X4256400Y3812873D1*
X4318707Y3842570D1*
X4387153Y3870940D1*
X4447380Y3892437D1*
X4513427Y3912477D1*
X4580393Y3929187D1*
X4648110Y3942527D1*
X4716413Y3952460D1*
X4743673Y3957190D1*
X4759910Y3963913D1*
X4777000Y3968017D1*
X4794520Y3969397D1*
X4812040Y3968017D1*
X4829130Y3963913D1*
X4845367Y3957190D1*
X4860353Y3948007D1*
X4873717Y3936593D1*
X4885130Y3923230D1*
X4894313Y3908243D1*
X4901037Y3892007D1*
X4905140Y3874917D1*
X4906520Y3857397D1*
X4905140Y3839877D1*
X4901037Y3822787D1*
X4894313Y3806550D1*
X4885130Y3791563D1*
X4873717Y3778200D1*
X4860353Y3766787D1*
X4845367Y3757603D1*
X4829130Y3750880D1*
X4812040Y3746777D1*
X4794520Y3745397D1*
X4777000Y3746777D1*
X4758010Y3751580D1*
X4722277Y3747210D1*
X4684573Y3741797D1*
X4626853Y3730533D1*
X4569770Y3716397D1*
X4513463Y3699420D1*
X4458080Y3679650D1*
X4403753Y3657130D1*
X4350620Y3631920D1*
X4298817Y3604083D1*
X4248473Y3573690D1*
X4199713Y3540813D1*
X4152657Y3505540D1*
X4107427Y3467953D1*
X4064133Y3428153D1*
X4022887Y3386237D1*
X3983790Y3342307D1*
X3946937Y3296473D1*
X3912427Y3248857D1*
X3880343Y3199570D1*
X3850763Y3148743D1*
X3823767Y3096497D1*
X3799420Y3042967D1*
X3777780Y2988283D1*
X3758903Y2932587D1*
X3742837Y2876017D1*
X3729623Y2818710D1*
X3719293Y2760817D1*
X3711873Y2702477D1*
X3707380Y2643840D1*
X3705800Y2561917D1*
X3705697Y1923260D1*
X3703383Y1865730D1*
X3696970Y1808510D1*
X3686493Y1751893D1*
X3672003Y1696167D1*
X3653577Y1641617D1*
X3631303Y1588523D1*
X3605300Y1537150D1*
X3575697Y1487767D1*
X3542647Y1440620D1*
X3506317Y1395950D1*
X3466890Y1353987D1*
X3424573Y1314943D1*
X3379580Y1279017D1*
X3332133Y1246393D1*
X3282483Y1217237D1*
X3230880Y1191697D1*
X3184380Y1172440D1*
X3122873Y1151970D1*
X3067020Y1137983D1*
X3010310Y1128020D1*
X2953037Y1122123D1*
X2899133Y1120267D1*
X2763963Y1120263D1*
X2766313Y2297090D2*
X2764540Y2278520D1*
X2760427Y2260327D1*
X2754043Y2242797D1*
X2745493Y2226220D1*
X2734913Y2210857D1*
X2722470Y2196957D1*
X2708367Y2184747D1*
X2692833Y2174420D1*
X2676117Y2166143D1*
X2658483Y2160050D1*
X2640223Y2156240D1*
X2621627Y2154773D1*
X2602993Y2155673D1*
X2584627Y2158927D1*
X2566817Y2164477D1*
X2549857Y2172240D1*
X2534013Y2182090D1*
X2519547Y2193863D1*
X2506687Y2207377D1*
X2495640Y2222410D1*
X2486587Y2238720D1*
X2479673Y2256047D1*
X2475010Y2274107D1*
X2472670Y2292617D1*
X2472693Y2311270D1*
X2475080Y2329770D1*
X2479790Y2347820D1*
X2486747Y2365127D1*
X2495840Y2381417D1*
X2506923Y2396420D1*
X2519817Y2409900D1*
X2534317Y2421640D1*
X2550183Y2431447D1*
X2567163Y2439167D1*
X2584987Y2444677D1*
X2603363Y2447880D1*
X2622000Y2448733D1*
X2640590Y2447220D1*
X2658843Y2443363D1*
X2676457Y2437227D1*
X2693153Y2428907D1*
X2708663Y2418540D1*
X2722733Y2406293D1*
X2735140Y2392363D1*
X2745683Y2376977D1*
X2754193Y2360377D1*
X2760533Y2342830D1*
X2764597Y2324623D1*
X2766323Y2306050D1*
X2766313Y2297090D1*
X12029813Y1329670D2*
X12027503Y1310150D1*
X12023670Y1290870D1*
X12018333Y1271953D1*
X12011530Y1253510D1*
X12003303Y1235660D1*
X11993697Y1218510D1*
X11982777Y1202167D1*
X11970607Y1186730D1*
X11957267Y1172297D1*
X11942833Y1158957D1*
X11927397Y1146787D1*
X11911053Y1135867D1*
X11893903Y1126260D1*
X11876053Y1118033D1*
X11857610Y1111230D1*
X11838693Y1105893D1*
X11819413Y1102060D1*
X11799893Y1099750D1*
X11780253Y1098977D1*
X11760613Y1099750D1*
X11741093Y1102060D1*
X11721813Y1105893D1*
X11702897Y1111230D1*
X11684453Y1118033D1*
X11666603Y1126260D1*
X11649453Y1135867D1*
X11633110Y1146787D1*
X11617673Y1158957D1*
X11603240Y1172297D1*
X11589900Y1186730D1*
X11577730Y1202167D1*
X11566810Y1218510D1*
X11557203Y1235660D1*
X11548977Y1253510D1*
X11542173Y1271953D1*
X11536837Y1290870D1*
X11533003Y1310150D1*
X11530693Y1329670D1*
X11529920Y1349310D1*
X11530693Y1368950D1*
X11533003Y1388470D1*
X11536837Y1407750D1*
X11542173Y1426667D1*
X11548977Y1445110D1*
X11557203Y1462960D1*
X11566810Y1480110D1*
X11577730Y1496453D1*
X11589900Y1511890D1*
X11603240Y1526323D1*
X11617673Y1539663D1*
X11633110Y1551833D1*
X11649453Y1562753D1*
X11666603Y1572360D1*
X11684453Y1580587D1*
X11702897Y1587390D1*
X11721813Y1592727D1*
X11741093Y1596560D1*
X11760613Y1598870D1*
X11780253Y1599643D1*
X11799893Y1598870D1*
X11819413Y1596560D1*
X11838693Y1592727D1*
X11857610Y1587390D1*
X11876053Y1580587D1*
X11893903Y1572360D1*
X11911053Y1562753D1*
X11927397Y1551833D1*
X11942833Y1539663D1*
X11957267Y1526323D1*
X11970607Y1511890D1*
X11982777Y1496453D1*
X11993697Y1480110D1*
X12003303Y1462960D1*
X12011530Y1445110D1*
X12018333Y1426667D1*
X12023670Y1407750D1*
X12027503Y1388470D1*
X12029813Y1368950D1*
X12030587Y1349310D1*
X12029813Y1329670D1*
X1598843Y1313770D2*
X1596533Y1294250D1*
X1592700Y1274970D1*
X1587363Y1256053D1*
X1580560Y1237610D1*
X1572333Y1219760D1*
X1562727Y1202610D1*
X1551807Y1186267D1*
X1539637Y1170830D1*
X1526297Y1156397D1*
X1511863Y1143057D1*
X1496427Y1130887D1*
X1480083Y1119967D1*
X1462933Y1110360D1*
X1445083Y1102133D1*
X1426640Y1095330D1*
X1407723Y1089993D1*
X1388443Y1086160D1*
X1368923Y1083850D1*
X1349283Y1083077D1*
X1329643Y1083850D1*
X1310123Y1086160D1*
X1290843Y1089993D1*
X1271927Y1095330D1*
X1253483Y1102133D1*
X1235633Y1110360D1*
X1218483Y1119967D1*
X1202140Y1130887D1*
X1186703Y1143057D1*
X1172270Y1156397D1*
X1158930Y1170830D1*
X1146760Y1186267D1*
X1135840Y1202610D1*
X1126233Y1219760D1*
X1118007Y1237610D1*
X1111203Y1256053D1*
X1105867Y1274970D1*
X1102033Y1294250D1*
X1099723Y1313770D1*
X1098950Y1333410D1*
X1099723Y1353050D1*
X1102033Y1372570D1*
X1105867Y1391850D1*
X1111203Y1410767D1*
X1118007Y1429210D1*
X1126233Y1447060D1*
X1135840Y1464210D1*
X1146760Y1480553D1*
X1158930Y1495990D1*
X1172270Y1510423D1*
X1186703Y1523763D1*
X1202140Y1535933D1*
X1218483Y1546853D1*
X1235633Y1556460D1*
X1253483Y1564687D1*
X1271927Y1571490D1*
X1290843Y1576827D1*
X1310123Y1580660D1*
X1329643Y1582970D1*
X1349283Y1583743D1*
X1368923Y1582970D1*
X1388443Y1580660D1*
X1407723Y1576827D1*
X1426640Y1571490D1*
X1445083Y1564687D1*
X1462933Y1556460D1*
X1480083Y1546853D1*
X1496427Y1535933D1*
X1511863Y1523763D1*
X1526297Y1510423D1*
X1539637Y1495990D1*
X1551807Y1480553D1*
X1562727Y1464210D1*
X1572333Y1447060D1*
X1580560Y1429210D1*
X1587363Y1410767D1*
X1592700Y1391850D1*
X1596533Y1372570D1*
X1598843Y1353050D1*
X1599617Y1333410D1*
X1598843Y1313770D1*
X6314243Y1329670D2*
X6311933Y1310150D1*
X6308100Y1290870D1*
X6302763Y1271953D1*
X6295960Y1253510D1*
X6287733Y1235660D1*
X6278127Y1218510D1*
X6267207Y1202167D1*
X6255037Y1186730D1*
X6241697Y1172297D1*
X6227263Y1158957D1*
X6211827Y1146787D1*
X6195483Y1135867D1*
X6178333Y1126260D1*
X6160483Y1118033D1*
X6142040Y1111230D1*
X6123123Y1105893D1*
X6103843Y1102060D1*
X6084323Y1099750D1*
X6064683Y1098977D1*
X6045043Y1099750D1*
X6025523Y1102060D1*
X6006243Y1105893D1*
X5987327Y1111230D1*
X5968883Y1118033D1*
X5951033Y1126260D1*
X5933883Y1135867D1*
X5917540Y1146787D1*
X5902103Y1158957D1*
X5887670Y1172297D1*
X5874330Y1186730D1*
X5862160Y1202167D1*
X5851240Y1218510D1*
X5841633Y1235660D1*
X5833407Y1253510D1*
X5826603Y1271953D1*
X5821267Y1290870D1*
X5817433Y1310150D1*
X5815123Y1329670D1*
X5814350Y1349310D1*
X5815123Y1368950D1*
X5817433Y1388470D1*
X5821267Y1407750D1*
X5826603Y1426667D1*
X5833407Y1445110D1*
X5841633Y1462960D1*
X5851240Y1480110D1*
X5862160Y1496453D1*
X5874330Y1511890D1*
X5887670Y1526323D1*
X5902103Y1539663D1*
X5917540Y1551833D1*
X5933883Y1562753D1*
X5951033Y1572360D1*
X5968883Y1580587D1*
X5987327Y1587390D1*
X6006243Y1592727D1*
X6025523Y1596560D1*
X6045043Y1598870D1*
X6064683Y1599643D1*
X6084323Y1598870D1*
X6103843Y1596560D1*
X6123123Y1592727D1*
X6142040Y1587390D1*
X6160483Y1580587D1*
X6178333Y1572360D1*
X6195483Y1562753D1*
X6211827Y1551833D1*
X6227263Y1539663D1*
X6241697Y1526323D1*
X6255037Y1511890D1*
X6267207Y1496453D1*
X6278127Y1480110D1*
X6287733Y1462960D1*
X6295960Y1445110D1*
X6302763Y1426667D1*
X6308100Y1407750D1*
X6311933Y1388470D1*
X6314243Y1368950D1*
X6315017Y1349310D1*
X6314243Y1329670D1*
X6917273Y4834680D2*
X6915113Y4811453D1*
X6911517Y4788400D1*
X6906503Y4765617D1*
X6900090Y4743187D1*
X6892300Y4721197D1*
X6883163Y4699730D1*
X6872720Y4678867D1*
X6861007Y4658693D1*
X6848063Y4639280D1*
X6833950Y4620707D1*
X6818710Y4603040D1*
X6802410Y4586353D1*
X6785107Y4570703D1*
X6766870Y4556153D1*
X6747767Y4542760D1*
X6727873Y4530577D1*
X6707263Y4519643D1*
X6686017Y4510007D1*
X6664213Y4501703D1*
X6641940Y4494767D1*
X6619280Y4489217D1*
X6596320Y4485080D1*
X6573147Y4482373D1*
X6549853Y4481103D1*
X6526523Y4481277D1*
X6503250Y4482893D1*
X6480120Y4485947D1*
X6457227Y4490427D1*
X6434650Y4496310D1*
X6412483Y4503580D1*
X6390807Y4512207D1*
X6369707Y4522160D1*
X6349260Y4533397D1*
X6329550Y4545880D1*
X6310650Y4559553D1*
X6292633Y4574373D1*
X6275563Y4590280D1*
X6259513Y4607210D1*
X6244540Y4625100D1*
X6230703Y4643883D1*
X6218053Y4663483D1*
X6206640Y4683833D1*
X6196507Y4704847D1*
X6187693Y4726447D1*
X6180233Y4748553D1*
X6174153Y4771077D1*
X6169480Y4793933D1*
X6166230Y4817033D1*
X6164413Y4840293D1*
X6164040Y4863620D1*
X6165107Y4886923D1*
X6167617Y4910120D1*
X6171557Y4933113D1*
X6176910Y4955820D1*
X6183657Y4978153D1*
X6191773Y5000027D1*
X6201227Y5021353D1*
X6211980Y5042057D1*
X6223993Y5062057D1*
X6237223Y5081273D1*
X6251613Y5099633D1*
X6267113Y5117070D1*
X6283663Y5133513D1*
X6301197Y5148903D1*
X6319650Y5163180D1*
X6338950Y5176287D1*
X6359023Y5188173D1*
X6379793Y5198797D1*
X6401180Y5208113D1*
X6423103Y5216093D1*
X6445480Y5222700D1*
X6468220Y5227910D1*
X6491237Y5231703D1*
X6514447Y5234063D1*
X6537760Y5234987D1*
X6561083Y5234463D1*
X6584330Y5232500D1*
X6607410Y5229103D1*
X6630237Y5224287D1*
X6652723Y5218063D1*
X6674780Y5210463D1*
X6696323Y5201513D1*
X6717273Y5191250D1*
X6737550Y5179710D1*
X6757070Y5166937D1*
X6775767Y5152980D1*
X6793560Y5137893D1*
X6810390Y5121737D1*
X6826187Y5104567D1*
X6840890Y5086457D1*
X6854447Y5067470D1*
X6866803Y5047680D1*
X6877913Y5027163D1*
X6887730Y5006003D1*
X6896220Y4984273D1*
X6903350Y4962060D1*
X6909093Y4939447D1*
X6913427Y4916523D1*
X6916333Y4893377D1*
X6917997Y4858000D1*
X6917273Y4834680D1*
X5243083Y4983100D2*
X5240990Y4965400D1*
X5237510Y4947917D1*
X5232673Y4930763D1*
X5226503Y4914040D1*
X5219043Y4897853D1*
X5210333Y4882303D1*
X5200430Y4867483D1*
X5189397Y4853487D1*
X5177297Y4840397D1*
X5164207Y4828297D1*
X5150210Y4817263D1*
X5135390Y4807360D1*
X5119840Y4798650D1*
X5103653Y4791190D1*
X5086930Y4785020D1*
X5069777Y4780183D1*
X5052293Y4776703D1*
X5034593Y4774610D1*
X5016783Y4773910D1*
X4998973Y4774610D1*
X4981273Y4776703D1*
X4963790Y4780183D1*
X4946637Y4785020D1*
X4929913Y4791190D1*
X4913727Y4798650D1*
X4898177Y4807360D1*
X4883357Y4817263D1*
X4869360Y4828297D1*
X4856270Y4840397D1*
X4844170Y4853487D1*
X4833137Y4867483D1*
X4823233Y4882303D1*
X4814523Y4897853D1*
X4807063Y4914040D1*
X4800893Y4930763D1*
X4796057Y4947917D1*
X4792577Y4965400D1*
X4790483Y4983100D1*
X4789783Y5000910D1*
X4790483Y5018720D1*
X4792577Y5036420D1*
X4796057Y5053903D1*
X4800893Y5071057D1*
X4807063Y5087780D1*
X4814523Y5103967D1*
X4823233Y5119517D1*
X4833137Y5134337D1*
X4844170Y5148333D1*
X4856270Y5161423D1*
X4869360Y5173523D1*
X4883357Y5184557D1*
X4898177Y5194460D1*
X4913727Y5203170D1*
X4929913Y5210630D1*
X4946637Y5216800D1*
X4963790Y5221637D1*
X4981273Y5225117D1*
X4998973Y5227210D1*
X5016783Y5227910D1*
X5034593Y5227210D1*
X5052293Y5225117D1*
X5069777Y5221637D1*
X5086930Y5216800D1*
X5103653Y5210630D1*
X5119840Y5203170D1*
X5135390Y5194460D1*
X5150210Y5184557D1*
X5164207Y5173523D1*
X5177297Y5161423D1*
X5189397Y5148333D1*
X5200430Y5134337D1*
X5210333Y5119517D1*
X5219043Y5103967D1*
X5226503Y5087780D1*
X5232673Y5071057D1*
X5237510Y5053903D1*
X5240990Y5036420D1*
X5243083Y5018720D1*
X5243783Y5000910D1*
X5243083Y4983100D1*
X6005183D2*
X6003090Y4965400D1*
X5999610Y4947917D1*
X5994773Y4930763D1*
X5988603Y4914040D1*
X5981143Y4897853D1*
X5972433Y4882303D1*
X5962530Y4867483D1*
X5951497Y4853487D1*
X5939397Y4840397D1*
X5926307Y4828297D1*
X5912310Y4817263D1*
X5897490Y4807360D1*
X5881940Y4798650D1*
X5865753Y4791190D1*
X5849030Y4785020D1*
X5831877Y4780183D1*
X5814393Y4776703D1*
X5796693Y4774610D1*
X5778883Y4773910D1*
X5761073Y4774610D1*
X5743373Y4776703D1*
X5725890Y4780183D1*
X5708737Y4785020D1*
X5692013Y4791190D1*
X5675827Y4798650D1*
X5660277Y4807360D1*
X5645457Y4817263D1*
X5631460Y4828297D1*
X5618370Y4840397D1*
X5606270Y4853487D1*
X5595237Y4867483D1*
X5585333Y4882303D1*
X5576623Y4897853D1*
X5569163Y4914040D1*
X5562993Y4930763D1*
X5558157Y4947917D1*
X5554677Y4965400D1*
X5552583Y4983100D1*
X5551883Y5000910D1*
X5552583Y5018720D1*
X5554677Y5036420D1*
X5558157Y5053903D1*
X5562993Y5071057D1*
X5569163Y5087780D1*
X5576623Y5103967D1*
X5585333Y5119517D1*
X5595237Y5134337D1*
X5606270Y5148333D1*
X5618370Y5161423D1*
X5631460Y5173523D1*
X5645457Y5184557D1*
X5660277Y5194460D1*
X5675827Y5203170D1*
X5692013Y5210630D1*
X5708737Y5216800D1*
X5725890Y5221637D1*
X5743373Y5225117D1*
X5761073Y5227210D1*
X5778883Y5227910D1*
X5796693Y5227210D1*
X5814393Y5225117D1*
X5831877Y5221637D1*
X5849030Y5216800D1*
X5865753Y5210630D1*
X5881940Y5203170D1*
X5897490Y5194460D1*
X5912310Y5184557D1*
X5926307Y5173523D1*
X5939397Y5161423D1*
X5951497Y5148333D1*
X5962530Y5134337D1*
X5972433Y5119517D1*
X5981143Y5103967D1*
X5988603Y5087780D1*
X5994773Y5071057D1*
X5999610Y5053903D1*
X6003090Y5036420D1*
X6005183Y5018720D1*
X6005883Y5000910D1*
X6005183Y4983100D1*
X8155943Y2615670D2*
X8153633Y2596150D1*
X8149800Y2576870D1*
X8144463Y2557953D1*
X8137660Y2539510D1*
X8129433Y2521660D1*
X8119827Y2504510D1*
X8108907Y2488167D1*
X8096737Y2472730D1*
X8083397Y2458297D1*
X8068963Y2444957D1*
X8053527Y2432787D1*
X8037183Y2421867D1*
X8020033Y2412260D1*
X8002183Y2404033D1*
X7983740Y2397230D1*
X7964823Y2391893D1*
X7945543Y2388060D1*
X7926023Y2385750D1*
X7906383Y2384977D1*
X7886743Y2385750D1*
X7867223Y2388060D1*
X7847943Y2391893D1*
X7829027Y2397230D1*
X7810583Y2404033D1*
X7792733Y2412260D1*
X7775583Y2421867D1*
X7759240Y2432787D1*
X7743803Y2444957D1*
X7729370Y2458297D1*
X7716030Y2472730D1*
X7703860Y2488167D1*
X7692940Y2504510D1*
X7683333Y2521660D1*
X7675107Y2539510D1*
X7668303Y2557953D1*
X7662967Y2576870D1*
X7659133Y2596150D1*
X7656823Y2615670D1*
X7656050Y2635310D1*
X7656823Y2654950D1*
X7659133Y2674470D1*
X7662967Y2693750D1*
X7668303Y2712667D1*
X7675107Y2731110D1*
X7683333Y2748960D1*
X7692940Y2766110D1*
X7703860Y2782453D1*
X7716030Y2797890D1*
X7729370Y2812323D1*
X7743803Y2825663D1*
X7759240Y2837833D1*
X7775583Y2848753D1*
X7792733Y2858360D1*
X7810583Y2866587D1*
X7829027Y2873390D1*
X7847943Y2878727D1*
X7867223Y2882560D1*
X7886743Y2884870D1*
X7906383Y2885643D1*
X7926023Y2884870D1*
X7945543Y2882560D1*
X7964823Y2878727D1*
X7983740Y2873390D1*
X8002183Y2866587D1*
X8020033Y2858360D1*
X8037183Y2848753D1*
X8053527Y2837833D1*
X8068963Y2825663D1*
X8083397Y2812323D1*
X8096737Y2797890D1*
X8108907Y2782453D1*
X8119827Y2766110D1*
X8129433Y2748960D1*
X8137660Y2731110D1*
X8144463Y2712667D1*
X8149800Y2693750D1*
X8153633Y2674470D1*
X8155943Y2654950D1*
X8156717Y2635310D1*
X8155943Y2615670D1*
X4091543Y3854070D2*
X4089233Y3834550D1*
X4085400Y3815270D1*
X4080063Y3796353D1*
X4073260Y3777910D1*
X4065033Y3760060D1*
X4055427Y3742910D1*
X4044507Y3726567D1*
X4032337Y3711130D1*
X4018997Y3696697D1*
X4004563Y3683357D1*
X3989127Y3671187D1*
X3972783Y3660267D1*
X3955633Y3650660D1*
X3937783Y3642433D1*
X3919340Y3635630D1*
X3900423Y3630293D1*
X3881143Y3626460D1*
X3861623Y3624150D1*
X3841983Y3623377D1*
X3822343Y3624150D1*
X3802823Y3626460D1*
X3783543Y3630293D1*
X3764627Y3635630D1*
X3746183Y3642433D1*
X3728333Y3650660D1*
X3711183Y3660267D1*
X3694840Y3671187D1*
X3679403Y3683357D1*
X3664970Y3696697D1*
X3651630Y3711130D1*
X3639460Y3726567D1*
X3628540Y3742910D1*
X3618933Y3760060D1*
X3610707Y3777910D1*
X3603903Y3796353D1*
X3598567Y3815270D1*
X3594733Y3834550D1*
X3592423Y3854070D1*
X3591650Y3873710D1*
X3592423Y3893350D1*
X3594733Y3912870D1*
X3598567Y3932150D1*
X3603903Y3951067D1*
X3610707Y3969510D1*
X3618933Y3987360D1*
X3628540Y4004510D1*
X3639460Y4020853D1*
X3651630Y4036290D1*
X3664970Y4050723D1*
X3679403Y4064063D1*
X3694840Y4076233D1*
X3711183Y4087153D1*
X3728333Y4096760D1*
X3746183Y4104987D1*
X3764627Y4111790D1*
X3783543Y4117127D1*
X3802823Y4120960D1*
X3822343Y4123270D1*
X3841983Y4124043D1*
X3861623Y4123270D1*
X3881143Y4120960D1*
X3900423Y4117127D1*
X3919340Y4111790D1*
X3937783Y4104987D1*
X3955633Y4096760D1*
X3972783Y4087153D1*
X3989127Y4076233D1*
X4004563Y4064063D1*
X4018997Y4050723D1*
X4032337Y4036290D1*
X4044507Y4020853D1*
X4055427Y4004510D1*
X4065033Y3987360D1*
X4073260Y3969510D1*
X4080063Y3951067D1*
X4085400Y3932150D1*
X4089233Y3912870D1*
X4091543Y3893350D1*
X4092317Y3873710D1*
X4091543Y3854070D1*
X12029843Y3234870D2*
X12027533Y3215350D1*
X12023700Y3196070D1*
X12018363Y3177153D1*
X12011560Y3158710D1*
X12003333Y3140860D1*
X11993727Y3123710D1*
X11982807Y3107367D1*
X11970637Y3091930D1*
X11957297Y3077497D1*
X11942863Y3064157D1*
X11927427Y3051987D1*
X11911083Y3041067D1*
X11893933Y3031460D1*
X11876083Y3023233D1*
X11857640Y3016430D1*
X11838723Y3011093D1*
X11819443Y3007260D1*
X11799923Y3004950D1*
X11780283Y3004177D1*
X11760643Y3004950D1*
X11741123Y3007260D1*
X11721843Y3011093D1*
X11702927Y3016430D1*
X11684483Y3023233D1*
X11666633Y3031460D1*
X11649483Y3041067D1*
X11633140Y3051987D1*
X11617703Y3064157D1*
X11603270Y3077497D1*
X11589930Y3091930D1*
X11577760Y3107367D1*
X11566840Y3123710D1*
X11557233Y3140860D1*
X11549007Y3158710D1*
X11542203Y3177153D1*
X11536867Y3196070D1*
X11533033Y3215350D1*
X11530723Y3234870D1*
X11529950Y3254510D1*
X11530723Y3274150D1*
X11533033Y3293670D1*
X11536867Y3312950D1*
X11542203Y3331867D1*
X11549007Y3350310D1*
X11557233Y3368160D1*
X11566840Y3385310D1*
X11577760Y3401653D1*
X11589930Y3417090D1*
X11603270Y3431523D1*
X11617703Y3444863D1*
X11633140Y3457033D1*
X11649483Y3467953D1*
X11666633Y3477560D1*
X11684483Y3485787D1*
X11702927Y3492590D1*
X11721843Y3497927D1*
X11741123Y3501760D1*
X11760643Y3504070D1*
X11780283Y3504843D1*
X11799923Y3504070D1*
X11819443Y3501760D1*
X11838723Y3497927D1*
X11857640Y3492590D1*
X11876083Y3485787D1*
X11893933Y3477560D1*
X11911083Y3467953D1*
X11927427Y3457033D1*
X11942863Y3444863D1*
X11957297Y3431523D1*
X11970637Y3417090D1*
X11982807Y3401653D1*
X11993727Y3385310D1*
X12003333Y3368160D1*
X12011560Y3350310D1*
X12018363Y3331867D1*
X12023700Y3312950D1*
X12027533Y3293670D1*
X12029843Y3274150D1*
X12030617Y3254510D1*
X12029843Y3234870D1*
X2401067Y2662383D2*
X2399293Y2643813D1*
X2395180Y2625620D1*
X2388797Y2608090D1*
X2380247Y2591513D1*
X2369667Y2576150D1*
X2357223Y2562250D1*
X2343120Y2550040D1*
X2327587Y2539713D1*
X2310870Y2531437D1*
X2293237Y2525343D1*
X2274977Y2521533D1*
X2256380Y2520067D1*
X2237747Y2520967D1*
X2219380Y2524220D1*
X2201570Y2529770D1*
X2184610Y2537533D1*
X2168767Y2547383D1*
X2154300Y2559157D1*
X2141440Y2572670D1*
X2130393Y2587703D1*
X2121340Y2604013D1*
X2114427Y2621340D1*
X2109763Y2639400D1*
X2107423Y2657910D1*
X2107447Y2676563D1*
X2109833Y2695063D1*
X2114543Y2713113D1*
X2121500Y2730420D1*
X2130593Y2746710D1*
X2141677Y2761713D1*
X2154570Y2775193D1*
X2169070Y2786933D1*
X2184937Y2796740D1*
X2201917Y2804460D1*
X2219740Y2809970D1*
X2238117Y2813173D1*
X2256753Y2814027D1*
X2275343Y2812513D1*
X2293597Y2808657D1*
X2311210Y2802520D1*
X2327907Y2794200D1*
X2343417Y2783833D1*
X2357487Y2771587D1*
X2369893Y2757657D1*
X2380437Y2742270D1*
X2388947Y2725670D1*
X2395287Y2708123D1*
X2399350Y2689917D1*
X2401077Y2671343D1*
X2401067Y2662383D1*
X10303640Y4874920D2*
X10290880Y4850580D1*
X10280977Y4835760D1*
X10269943Y4821763D1*
X10257843Y4808673D1*
X10244753Y4796573D1*
X10230757Y4785540D1*
X10215937Y4775637D1*
X10199310Y4766433D1*
X10199330Y4413457D1*
X10196097Y4365663D1*
X10186837Y4320023D1*
X10171697Y4275980D1*
X10150940Y4234293D1*
X10124917Y4195670D1*
X10113187Y4182083D1*
X10225130Y4182343D1*
X10249073Y4184017D1*
X10272597Y4188800D1*
X10295293Y4196617D1*
X10316777Y4207323D1*
X10336680Y4220747D1*
X10354660Y4236650D1*
X10370407Y4254767D1*
X10383657Y4274783D1*
X10394183Y4296357D1*
X10401800Y4319120D1*
X10406383Y4342683D1*
X10408120Y4369173D1*
X10408123Y4766440D1*
X10391517Y4775637D1*
X10376697Y4785540D1*
X10362700Y4796573D1*
X10349610Y4808673D1*
X10337510Y4821763D1*
X10326477Y4835760D1*
X10316573Y4850580D1*
X10303813Y4874920D1*
X9995350Y4766433D2*
X9978723Y4775637D1*
X9963903Y4785540D1*
X9949907Y4796573D1*
X9936817Y4808673D1*
X9924717Y4821763D1*
X9913683Y4835760D1*
X9903780Y4850580D1*
X9891020Y4874920D1*
X9878087Y4850580D1*
X9868183Y4835760D1*
X9857150Y4821763D1*
X9845050Y4808673D1*
X9831960Y4796573D1*
X9817963Y4785540D1*
X9803143Y4775637D1*
X9787593Y4766927D1*
X9771407Y4759467D1*
X9754683Y4753297D1*
X9737530Y4748460D1*
X9720047Y4744980D1*
X9702347Y4742887D1*
X9684537Y4742187D1*
X9666727Y4742887D1*
X9649027Y4744980D1*
X9631543Y4748460D1*
X9614390Y4753297D1*
X9597667Y4759467D1*
X9581480Y4766927D1*
X9565930Y4775637D1*
X9551110Y4785540D1*
X9537113Y4796573D1*
X9524023Y4808673D1*
X9511923Y4821763D1*
X9500890Y4835760D1*
X9490987Y4850580D1*
X9478227Y4874920D1*
X9465290Y4850560D1*
X9455387Y4835740D1*
X9444353Y4821743D1*
X9432253Y4808653D1*
X9419163Y4796553D1*
X9405167Y4785520D1*
X9390347Y4775617D1*
X9373720Y4766413D1*
X9373243Y4390547D1*
X9371643Y4368247D1*
X9365060Y4334263D1*
X9354100Y4301430D1*
X9338947Y4270310D1*
X9333403Y4261450D1*
X9843260Y4261673D1*
X9863130Y4262977D1*
X9882607Y4266850D1*
X9901410Y4273237D1*
X9919217Y4282020D1*
X9935730Y4293053D1*
X9950657Y4306150D1*
X9963750Y4321080D1*
X9974780Y4337593D1*
X9983560Y4355403D1*
X9989943Y4374207D1*
X9993817Y4393683D1*
X9995330Y4416817D1*
Y4766313D1*
X4245263Y1360517D2*
X4243333Y1337277D1*
X4238670Y1314430D1*
X4231340Y1292290D1*
X4221443Y1271177D1*
X4209120Y1251377D1*
X4194547Y1233173D1*
X4177923Y1216820D1*
X4159483Y1202543D1*
X4139487Y1190547D1*
X4118210Y1180997D1*
X4095957Y1174030D1*
X4073033Y1169740D1*
X4049767Y1168190D1*
X4026480Y1169397D1*
X4003497Y1173350D1*
X3981143Y1179990D1*
X3959730Y1189227D1*
X3939557Y1200927D1*
X3920910Y1214930D1*
X3904047Y1231040D1*
X3889207Y1249027D1*
X3876597Y1268643D1*
X3866393Y1289610D1*
X3858737Y1311640D1*
X3853737Y1334417D1*
X3851467Y1357623D1*
X3851950Y1380940D1*
X3855190Y1404033D1*
X3861133Y1426583D1*
X3869700Y1448273D1*
X3880770Y1468797D1*
X3894187Y1487870D1*
X3909763Y1505223D1*
X3927283Y1520617D1*
X3946497Y1533830D1*
X3967140Y1544680D1*
X3988920Y1553013D1*
X4011530Y1558717D1*
X4034657Y1561710D1*
X4057977Y1561947D1*
X4081160Y1559427D1*
X4103883Y1554187D1*
X4125827Y1546297D1*
X4146683Y1535870D1*
X4166163Y1523050D1*
X4183993Y1508017D1*
X4199920Y1490983D1*
X4213723Y1472190D1*
X4225210Y1451893D1*
X4234217Y1430383D1*
X4240620Y1407960D1*
X4244327Y1384937D1*
X4245320Y1365183D1*
X4245263Y1360517D1*
X4240633Y2637240D2*
X4236290Y2609807D1*
X4227707Y2583393D1*
X4215097Y2558643D1*
X4198773Y2536173D1*
X4179133Y2516533D1*
X4156663Y2500210D1*
X4131913Y2487600D1*
X4105500Y2479017D1*
X4078067Y2474673D1*
X4050293D1*
X4022860Y2479017D1*
X3996447Y2487600D1*
X3971697Y2500210D1*
X3949227Y2516533D1*
X3929587Y2536173D1*
X3913263Y2558643D1*
X3900653Y2583393D1*
X3892070Y2609807D1*
X3887727Y2637240D1*
Y2665013D1*
X3892070Y2692447D1*
X3900653Y2718860D1*
X3913263Y2743610D1*
X3929587Y2766080D1*
X3949227Y2785720D1*
X3971697Y2802043D1*
X3996447Y2814653D1*
X4022860Y2823237D1*
X4050293Y2827580D1*
X4078067D1*
X4105500Y2823237D1*
X4131913Y2814653D1*
X4156663Y2802043D1*
X4179133Y2785720D1*
X4198773Y2766080D1*
X4215097Y2743610D1*
X4227707Y2718860D1*
X4236290Y2692447D1*
X4240633Y2665013D1*
Y2637240D1*
X3131607Y2646460D2*
X3129833Y2627890D1*
X3125720Y2609697D1*
X3119337Y2592167D1*
X3110787Y2575590D1*
X3100207Y2560227D1*
X3087763Y2546327D1*
X3073660Y2534117D1*
X3058127Y2523790D1*
X3041410Y2515513D1*
X3023777Y2509420D1*
X3005517Y2505610D1*
X2986920Y2504143D1*
X2968287Y2505043D1*
X2949920Y2508297D1*
X2932110Y2513847D1*
X2915150Y2521610D1*
X2899307Y2531460D1*
X2884840Y2543233D1*
X2871980Y2556747D1*
X2860933Y2571780D1*
X2851880Y2588090D1*
X2844967Y2605417D1*
X2840303Y2623477D1*
X2837963Y2641987D1*
X2837987Y2660640D1*
X2840373Y2679140D1*
X2845083Y2697190D1*
X2852040Y2714497D1*
X2861133Y2730787D1*
X2872217Y2745790D1*
X2885110Y2759270D1*
X2899610Y2771010D1*
X2915477Y2780817D1*
X2932457Y2788537D1*
X2950280Y2794047D1*
X2968657Y2797250D1*
X2987293Y2798103D1*
X3005883Y2796590D1*
X3024137Y2792733D1*
X3041750Y2786597D1*
X3058447Y2778277D1*
X3073957Y2767910D1*
X3088027Y2755663D1*
X3100433Y2741733D1*
X3110977Y2726347D1*
X3119487Y2709747D1*
X3125827Y2692200D1*
X3129890Y2673993D1*
X3131617Y2655420D1*
X3131607Y2646460D1*
X4846287Y2074900D2*
X4844513Y2056330D1*
X4840400Y2038137D1*
X4834017Y2020607D1*
X4825467Y2004030D1*
X4814887Y1988667D1*
X4802443Y1974767D1*
X4788340Y1962557D1*
X4772807Y1952230D1*
X4756090Y1943953D1*
X4738457Y1937860D1*
X4720197Y1934050D1*
X4701600Y1932583D1*
X4682967Y1933483D1*
X4664600Y1936737D1*
X4646790Y1942287D1*
X4629830Y1950050D1*
X4613987Y1959900D1*
X4599520Y1971673D1*
X4586660Y1985187D1*
X4575613Y2000220D1*
X4566560Y2016530D1*
X4559647Y2033857D1*
X4554983Y2051917D1*
X4552643Y2070427D1*
X4552667Y2089080D1*
X4555053Y2107580D1*
X4559763Y2125630D1*
X4566720Y2142937D1*
X4575813Y2159227D1*
X4586897Y2174230D1*
X4599790Y2187710D1*
X4614290Y2199450D1*
X4630157Y2209257D1*
X4647137Y2216977D1*
X4664960Y2222487D1*
X4683337Y2225690D1*
X4701973Y2226543D1*
X4720563Y2225030D1*
X4738817Y2221173D1*
X4756430Y2215037D1*
X4773127Y2206717D1*
X4788637Y2196350D1*
X4802707Y2184103D1*
X4815113Y2170173D1*
X4825657Y2154787D1*
X4834167Y2138187D1*
X4840507Y2120640D1*
X4844570Y2102433D1*
X4846297Y2083860D1*
X4846287Y2074900D1*
X7608613Y2106700D2*
X7606840Y2088130D1*
X7602727Y2069937D1*
X7596343Y2052407D1*
X7587793Y2035830D1*
X7577213Y2020467D1*
X7564770Y2006567D1*
X7550667Y1994357D1*
X7535133Y1984030D1*
X7518417Y1975753D1*
X7500783Y1969660D1*
X7482523Y1965850D1*
X7463927Y1964383D1*
X7445293Y1965283D1*
X7426927Y1968537D1*
X7409117Y1974087D1*
X7392157Y1981850D1*
X7376313Y1991700D1*
X7361847Y2003473D1*
X7348987Y2016987D1*
X7337940Y2032020D1*
X7328887Y2048330D1*
X7321973Y2065657D1*
X7317310Y2083717D1*
X7314970Y2102227D1*
X7314993Y2120880D1*
X7317380Y2139380D1*
X7322090Y2157430D1*
X7329047Y2174737D1*
X7338140Y2191027D1*
X7349223Y2206030D1*
X7362117Y2219510D1*
X7376617Y2231250D1*
X7392483Y2241057D1*
X7409463Y2248777D1*
X7427287Y2254287D1*
X7445663Y2257490D1*
X7464300Y2258343D1*
X7482890Y2256830D1*
X7501143Y2252973D1*
X7518757Y2246837D1*
X7535453Y2238517D1*
X7550963Y2228150D1*
X7565033Y2215903D1*
X7577440Y2201973D1*
X7587983Y2186587D1*
X7596493Y2169987D1*
X7602833Y2152440D1*
X7606897Y2134233D1*
X7608623Y2115660D1*
X7608613Y2106700D1*
X9967803Y3848690D2*
X9960743Y3866610D1*
X9954260Y3893617D1*
X9952080Y3921307D1*
X9954260Y3948997D1*
X9960743Y3976003D1*
X9961513Y3978090D1*
X9740630Y3978073D1*
X9746183Y3962380D1*
X9750247Y3944173D1*
X9751973Y3925600D1*
X9751370Y3907327D1*
X9748423Y3888907D1*
X9743163Y3871010D1*
X9735683Y3853923D1*
X9732813Y3848657D1*
X9967757Y3848667D1*
X11355507Y3916640D2*
X11353733Y3898070D1*
X11349620Y3879877D1*
X11343237Y3862347D1*
X11334687Y3845770D1*
X11324107Y3830407D1*
X11311663Y3816507D1*
X11297560Y3804297D1*
X11282027Y3793970D1*
X11265310Y3785693D1*
X11247677Y3779600D1*
X11229417Y3775790D1*
X11210820Y3774323D1*
X11192187Y3775223D1*
X11173820Y3778477D1*
X11156010Y3784027D1*
X11139050Y3791790D1*
X11123207Y3801640D1*
X11108740Y3813413D1*
X11095880Y3826927D1*
X11084833Y3841960D1*
X11075780Y3858270D1*
X11068867Y3875597D1*
X11064203Y3893657D1*
X11061863Y3912167D1*
X11061887Y3930820D1*
X11064273Y3949320D1*
X11068983Y3967370D1*
X11075940Y3984677D1*
X11085033Y4000967D1*
X11096117Y4015970D1*
X11109010Y4029450D1*
X11123510Y4041190D1*
X11139377Y4050997D1*
X11156357Y4058717D1*
X11174180Y4064227D1*
X11192557Y4067430D1*
X11211193Y4068283D1*
X11229783Y4066770D1*
X11248037Y4062913D1*
X11265650Y4056777D1*
X11282347Y4048457D1*
X11297857Y4038090D1*
X11311927Y4025843D1*
X11324333Y4011913D1*
X11334877Y3996527D1*
X11343387Y3979927D1*
X11349727Y3962380D1*
X11353790Y3944173D1*
X11355517Y3925600D1*
X11355507Y3916640D1*
X8701990Y3907420D2*
X8697647Y3879987D1*
X8689063Y3853573D1*
X8686813Y3848690D1*
X9477210Y3848667D1*
X9468507Y3866823D1*
X9462707Y3884553D1*
X9459197Y3902873D1*
X9458037Y3921493D1*
X9459243Y3940107D1*
X9462800Y3958420D1*
X9468643Y3976133D1*
X9469457Y3978067D1*
X8693180Y3978073D1*
X8697647Y3962627D1*
X8701990Y3935193D1*
Y3907420D1*
X2827640Y4066157D2*
X2823297Y4038723D1*
X2814713Y4012310D1*
X2802103Y3987560D1*
X2785780Y3965090D1*
X2766140Y3945450D1*
X2743670Y3929127D1*
X2718920Y3916517D1*
X2692507Y3907933D1*
X2665073Y3903590D1*
X2637300D1*
X2609867Y3907933D1*
X2583453Y3916517D1*
X2558703Y3929127D1*
X2536233Y3945450D1*
X2516593Y3965090D1*
X2500270Y3987560D1*
X2487660Y4012310D1*
X2479077Y4038723D1*
X2474733Y4066157D1*
Y4093930D1*
X2479077Y4121363D1*
X2487660Y4147777D1*
X2500270Y4172527D1*
X2516593Y4194997D1*
X2536233Y4214637D1*
X2558703Y4230960D1*
X2583453Y4243570D1*
X2609867Y4252153D1*
X2637300Y4256497D1*
X2665073D1*
X2692507Y4252153D1*
X2718920Y4243570D1*
X2743670Y4230960D1*
X2766140Y4214637D1*
X2785780Y4194997D1*
X2802103Y4172527D1*
X2814713Y4147777D1*
X2823297Y4121363D1*
X2827640Y4093930D1*
Y4066157D1*
X2798113Y2995877D2*
X2796340Y2977307D1*
X2792227Y2959113D1*
X2785843Y2941583D1*
X2777293Y2925007D1*
X2766713Y2909643D1*
X2754270Y2895743D1*
X2740167Y2883533D1*
X2724633Y2873207D1*
X2707917Y2864930D1*
X2690283Y2858837D1*
X2672023Y2855027D1*
X2653427Y2853560D1*
X2634793Y2854460D1*
X2616427Y2857713D1*
X2598617Y2863263D1*
X2581657Y2871027D1*
X2565813Y2880877D1*
X2551347Y2892650D1*
X2538487Y2906163D1*
X2527440Y2921197D1*
X2518387Y2937507D1*
X2511473Y2954833D1*
X2506810Y2972893D1*
X2504470Y2991403D1*
X2504493Y3010057D1*
X2506880Y3028557D1*
X2511590Y3046607D1*
X2518547Y3063913D1*
X2527640Y3080203D1*
X2538723Y3095207D1*
X2551617Y3108687D1*
X2566117Y3120427D1*
X2581983Y3130233D1*
X2598963Y3137953D1*
X2616787Y3143463D1*
X2635163Y3146667D1*
X2653800Y3147520D1*
X2672390Y3146007D1*
X2690643Y3142150D1*
X2708257Y3136013D1*
X2724953Y3127693D1*
X2740463Y3117327D1*
X2754533Y3105080D1*
X2766940Y3091150D1*
X2777483Y3075763D1*
X2785993Y3059163D1*
X2792333Y3041617D1*
X2796397Y3023410D1*
X2798123Y3004837D1*
X2798113Y2995877D1*
X7749397Y3240620D2*
X7745053Y3213187D1*
X7736470Y3186773D1*
X7723860Y3162023D1*
X7707537Y3139553D1*
X7687897Y3119913D1*
X7665427Y3103590D1*
X7640677Y3090980D1*
X7614263Y3082397D1*
X7586830Y3078053D1*
X7559057D1*
X7531623Y3082397D1*
X7505210Y3090980D1*
X7480460Y3103590D1*
X7457990Y3119913D1*
X7438350Y3139553D1*
X7422027Y3162023D1*
X7409417Y3186773D1*
X7400833Y3213187D1*
X7396490Y3240620D1*
Y3268393D1*
X7400833Y3295827D1*
X7409417Y3322240D1*
X7422027Y3346990D1*
X7438350Y3369460D1*
X7457990Y3389100D1*
X7480460Y3405423D1*
X7505210Y3418033D1*
X7531623Y3426617D1*
X7559057Y3430960D1*
X7586830D1*
X7614263Y3426617D1*
X7640677Y3418033D1*
X7665427Y3405423D1*
X7687897Y3389100D1*
X7707537Y3369460D1*
X7723860Y3346990D1*
X7736470Y3322240D1*
X7745053Y3295827D1*
X7749397Y3268393D1*
Y3240620D1*
X7266797D2*
X7262453Y3213187D1*
X7253870Y3186773D1*
X7241260Y3162023D1*
X7224937Y3139553D1*
X7205297Y3119913D1*
X7182827Y3103590D1*
X7158077Y3090980D1*
X7131663Y3082397D1*
X7104230Y3078053D1*
X7076457D1*
X7049023Y3082397D1*
X7022610Y3090980D1*
X6997860Y3103590D1*
X6975390Y3119913D1*
X6955750Y3139553D1*
X6939427Y3162023D1*
X6926817Y3186773D1*
X6918233Y3213187D1*
X6913890Y3240620D1*
Y3268393D1*
X6918233Y3295827D1*
X6926817Y3322240D1*
X6939427Y3346990D1*
X6955750Y3369460D1*
X6975390Y3389100D1*
X6997860Y3405423D1*
X7022610Y3418033D1*
X7049023Y3426617D1*
X7076457Y3430960D1*
X7104230D1*
X7131663Y3426617D1*
X7158077Y3418033D1*
X7182827Y3405423D1*
X7205297Y3389100D1*
X7224937Y3369460D1*
X7241260Y3346990D1*
X7253870Y3322240D1*
X7262453Y3295827D1*
X7266797Y3268393D1*
Y3240620D1*
X11266133Y1573290D2*
X11275850Y1553750D1*
X11286900Y1521223D1*
X11290150Y1507687D1*
X11291243Y1493807D1*
X11290913Y1443517D1*
X11288630Y1429783D1*
X11276140Y1392103D1*
X11264467Y1368417D1*
X11257193Y1356543D1*
X11244767Y1342580D1*
X11225943Y1324173D1*
X11214657Y1316020D1*
X11185370Y1301183D1*
X11178807Y1298763D1*
X11176860Y1294163D1*
X11186510Y1285920D1*
X11194753Y1276267D1*
X11201383Y1265447D1*
X11206240Y1253720D1*
X11209203Y1241377D1*
X11210197Y1228727D1*
X11209943Y1168293D1*
X11207957Y1155757D1*
X11204033Y1143687D1*
X11198273Y1132377D1*
X11190810Y1122110D1*
X11181837Y1113137D1*
X11171567Y1105677D1*
X11160257Y1099913D1*
X11148187Y1095993D1*
X11135650Y1094010D1*
X11122960D1*
X11110423Y1095997D1*
X11098353Y1099920D1*
X11090790Y1103583D1*
X11077247Y1099037D1*
X11064710Y1097053D1*
X11041313Y1097033D1*
X11028773Y1098980D1*
X11022630Y1100693D1*
X11013270Y1101047D1*
X11000960Y1097947D1*
X10988320Y1096807D1*
X10975657Y1097663D1*
X10969390Y1098837D1*
X10960950Y1099037D1*
X10948413Y1097053D1*
X10884677D1*
X10877520Y1097970D1*
X10864827Y1096810D1*
X10852163Y1097653D1*
X10837913Y1099183D1*
X10825393Y1097103D1*
X10803457Y1096803D1*
X10790807Y1097863D1*
X10774103Y1102340D1*
X10755830Y1109427D1*
X10745043Y1116113D1*
X10732180Y1127733D1*
X10723323Y1138217D1*
X10714050Y1154650D1*
X10708560Y1167860D1*
X10705693Y1180227D1*
X10704793Y1198827D1*
X10705790Y1215860D1*
X10708760Y1228223D1*
X10708617Y1249053D1*
X10710510Y1261603D1*
X10714343Y1273703D1*
X10723740Y1292453D1*
X10727257Y1297773D1*
X10726903Y1301183D1*
X10713663Y1296880D1*
X10699910Y1294700D1*
X10685990D1*
X10672237Y1296880D1*
X10665467Y1298770D1*
X10651930Y1295520D1*
X10638050Y1294427D1*
X10520637Y1294703D1*
X10506883Y1296880D1*
X10500110Y1298770D1*
X10486573Y1295520D1*
X10472693Y1294427D1*
X10458813Y1295520D1*
X10445277Y1298770D1*
X10432413Y1304100D1*
X10420543Y1311373D1*
X10409957Y1320417D1*
X10400913Y1331003D1*
X10393640Y1342873D1*
X10388310Y1355737D1*
X10385723Y1365937D1*
X10382243Y1353300D1*
X10376543Y1340600D1*
X10368930Y1328943D1*
X10359583Y1318623D1*
X10348740Y1309890D1*
X10336663Y1302963D1*
X10323650Y1298010D1*
X10310023Y1295153D1*
X10296117Y1294467D1*
X10282277Y1295960D1*
X10268837Y1299600D1*
X10256137Y1305300D1*
X10244480Y1312913D1*
X10234160Y1322260D1*
X10230637Y1326300D1*
X10221977Y1317327D1*
X10210947Y1308830D1*
X10198723Y1302167D1*
X10185610Y1297493D1*
X10171923Y1294930D1*
X10158007Y1294540D1*
X10144200Y1296333D1*
X10135003Y1298770D1*
X10121467Y1295520D1*
X10107587Y1294427D1*
X10039987Y1294793D1*
X10026263Y1297140D1*
X9994030Y1307763D1*
X9987500Y1310267D1*
X9979937Y1307500D1*
X9967533Y1301180D1*
X9954290Y1296880D1*
X9940540Y1294700D1*
X9814480Y1294430D1*
X9800600Y1295520D1*
X9786993Y1298770D1*
X9773457Y1295520D1*
X9759577Y1294427D1*
X9691980Y1294793D1*
X9678257Y1297140D1*
X9640980Y1309643D1*
X9631933Y1307503D1*
X9619527Y1301183D1*
X9606287Y1296880D1*
X9592533Y1294700D1*
X9475117Y1294427D1*
X9461237Y1295520D1*
X9447633Y1298770D1*
X9434097Y1295520D1*
X9420217Y1294427D1*
X9406337Y1295520D1*
X9392800Y1298770D1*
X9379937Y1304100D1*
X9368067Y1311373D1*
X9360697Y1317440D1*
X9350483Y1309433D1*
X9338343Y1302617D1*
X9325287Y1297783D1*
X9311633Y1295053D1*
X9297723Y1294493D1*
X9283893Y1296113D1*
X9273630Y1298770D1*
X9260093Y1295520D1*
X9246187Y1294430D1*
X9178613Y1294793D1*
X9164890Y1297140D1*
X9127630Y1309637D1*
X9115190Y1315887D1*
X9103880Y1324003D1*
X9083630Y1343637D1*
X9075987Y1331003D1*
X9066943Y1320417D1*
X9056357Y1311373D1*
X9044487Y1304100D1*
X9031623Y1298770D1*
X9018087Y1295520D1*
X9004207Y1294427D1*
X8990327Y1295520D1*
X8976790Y1298770D1*
X8963927Y1304100D1*
X8952057Y1311373D1*
X8941470Y1320417D1*
X8932427Y1331003D1*
X8925153Y1342873D1*
X8919823Y1355737D1*
X8916573Y1369273D1*
X8915480Y1383153D1*
Y1445587D1*
X8862757Y1512027D1*
X8855877Y1524130D1*
X8850970Y1537160D1*
X8848163Y1550797D1*
X8847527Y1564703D1*
X8849070Y1578540D1*
X8850677Y1585403D1*
X8831747Y1586447D1*
X8818507Y1589623D1*
X8802897Y1596387D1*
X8785370Y1605657D1*
X8774350Y1613697D1*
X8750530Y1637310D1*
X8742463Y1648277D1*
X8736210Y1660373D1*
X8726557Y1688697D1*
X8723310Y1701920D1*
X8722167Y1718840D1*
X8722437Y1737240D1*
X8724567Y1750687D1*
X8733800Y1779580D1*
X8739077Y1792130D1*
X8746250Y1803700D1*
X8760687Y1819547D1*
X8774483Y1832967D1*
X8785500Y1840970D1*
X8812117Y1854393D1*
X8816203Y1858480D1*
X8822383Y1870610D1*
X8830387Y1881627D1*
X8840013Y1891253D1*
X8851030Y1899257D1*
X8863160Y1905437D1*
X8876110Y1909643D1*
X8889557Y1911773D1*
X8903170D1*
X8916617Y1909643D1*
X8929567Y1905437D1*
X8941697Y1899257D1*
X8952713Y1891253D1*
X8962340Y1881627D1*
X8970343Y1870610D1*
X8975353Y1861017D1*
X9001730Y1860693D1*
X9015167Y1858493D1*
X9033603Y1852677D1*
X9043857Y1856753D1*
X9057097Y1859930D1*
X9070670Y1860997D1*
X9084243Y1859930D1*
X9097483Y1856753D1*
X9110733Y1851163D1*
X9124043Y1856753D1*
X9137283Y1859930D1*
X9141540Y1860433D1*
X9152680Y1873437D1*
X9163483Y1883853D1*
X9174500Y1891853D1*
X9195500Y1902713D1*
X9208120Y1907827D1*
X9221380Y1910903D1*
X9240133Y1911873D1*
X9270253Y1911603D1*
X9283700Y1909473D1*
X9296673Y1905257D1*
X9305173Y1901267D1*
X9320250Y1907797D1*
X9333490Y1910973D1*
X9347063Y1912043D1*
X9360637Y1910973D1*
X9373877Y1907797D1*
X9386453Y1902587D1*
X9398063Y1895470D1*
X9408417Y1886630D1*
X9417257Y1876277D1*
X9424373Y1864667D1*
X9428300Y1855560D1*
X9439900Y1850343D1*
X9454740Y1856753D1*
X9467980Y1859930D1*
X9481553Y1861000D1*
X9496040Y1859750D1*
X9510697Y1861000D1*
X9538173Y1860807D1*
X9551647Y1858843D1*
X9564647Y1854793D1*
X9591530Y1841503D1*
X9604637Y1847207D1*
X9619623Y1854490D1*
X9632583Y1858660D1*
X9646063Y1860750D1*
X9681303Y1860730D1*
X9690070Y1859930D1*
X9703643Y1861000D1*
X9717217Y1859930D1*
X9730457Y1856753D1*
X9741703Y1852153D1*
X9753030Y1856753D1*
X9766270Y1859930D1*
X9784223Y1861000D1*
X9807897Y1860780D1*
X9821360Y1858753D1*
X9834340Y1854643D1*
X9854413Y1844907D1*
X9875040Y1854793D1*
X9888040Y1858843D1*
X9901540Y1860810D1*
X9935800Y1860730D1*
X9949247Y1858600D1*
X9955830Y1856743D1*
X9961640Y1857073D1*
X9974917Y1860090D1*
X9996140Y1861000D1*
X10015987Y1860730D1*
X10032160Y1859930D1*
X10045733Y1861000D1*
X10059307Y1859930D1*
X10069140Y1857713D1*
X10085987Y1860730D1*
X10099600D1*
X10108363Y1859930D1*
X10126283Y1861000D1*
X10149417Y1860807D1*
X10162890Y1858843D1*
X10175890Y1854793D1*
X10192933Y1846670D1*
X10207030Y1851357D1*
X10220477Y1853487D1*
X10234090D1*
X10242853Y1852687D1*
X10260807Y1853757D1*
X10278497Y1853753D1*
X10280387Y1855180D1*
X10286093Y1867543D1*
X10293663Y1878860D1*
X10302910Y1888850D1*
X10313607Y1897273D1*
X10325490Y1903920D1*
X10338267Y1908627D1*
X10351620Y1911277D1*
X10365227Y1911803D1*
X10378747Y1910197D1*
X10391847Y1906493D1*
X10404210Y1900787D1*
X10415527Y1893217D1*
X10425517Y1883970D1*
X10433940Y1873273D1*
X10461213Y1832410D1*
X10473907Y1841520D1*
X10500770Y1854793D1*
X10513770Y1858843D1*
X10527270Y1860810D1*
X10561527Y1860730D1*
X10574973Y1858600D1*
X10581557Y1856743D1*
X10587377Y1857073D1*
X10600653Y1860090D1*
X10621870Y1861000D1*
X10641717Y1860730D1*
X10657890Y1859930D1*
X10671463Y1861000D1*
X10685037Y1859930D1*
X10698277Y1856753D1*
X10713107Y1850280D1*
X10728267Y1856753D1*
X10741507Y1859930D1*
X10759460Y1861000D1*
X10783130Y1860780D1*
X10796593Y1858753D1*
X10809573Y1854643D1*
X10830880Y1844287D1*
X10836643Y1844773D1*
X10856537Y1854393D1*
X10869487Y1858600D1*
X10882933Y1860730D1*
X10917217Y1860807D1*
X10930690Y1858843D1*
X10943690Y1854793D1*
X10965967Y1844067D1*
X10977533Y1836887D1*
X10990733Y1825053D1*
X10992487Y1823277D1*
X11002690Y1835587D1*
X11013043Y1844427D1*
X11024653Y1851543D1*
X11037230Y1856753D1*
X11050470Y1859930D1*
X11057793Y1860753D1*
X11063007Y1870610D1*
X11071010Y1881627D1*
X11080637Y1891253D1*
X11091653Y1899257D1*
X11103783Y1905437D1*
X11116733Y1909643D1*
X11130180Y1911773D1*
X11143793D1*
X11157240Y1909643D1*
X11170190Y1905437D1*
X11182320Y1899257D1*
X11193337Y1891253D1*
X11202963Y1881627D1*
X11210967Y1870610D1*
X11217147Y1858480D1*
X11218927Y1853660D1*
X11227733Y1849163D1*
X11239287Y1854807D1*
X11252287Y1858850D1*
X11265760Y1860810D1*
X11279377Y1860640D1*
X11292793Y1858340D1*
X11305690Y1853970D1*
X11317743Y1847637D1*
X11328657Y1839497D1*
X11338160Y1829747D1*
X11346023Y1818633D1*
X11352053Y1806427D1*
X11356097Y1793427D1*
X11358057Y1779953D1*
X11357887Y1766337D1*
X11355587Y1752920D1*
X11351217Y1740023D1*
X11305423Y1633620D1*
X11298440Y1621933D1*
X11289717Y1611483D1*
X11279463Y1602523D1*
X11267933Y1595280D1*
X11261753Y1592350D1*
X11257110Y1588527D1*
X11266133Y1573290D1*
X11208580Y2226523D2*
D15*
Y1932703D1*
X11061670Y2079613D2*
X11355490D1*
X8541513Y2194723D2*
Y1900903D1*
X8394603Y2047813D2*
X8688423D1*
X5874133Y3763463D2*
D14*
Y3651403D1*
X5752073D2*
X5996193D1*
X2619387Y2448667D2*
D15*
Y2154847D1*
X2472477Y2301757D2*
X2766297D1*
X2254140Y2813960D2*
Y2520140D1*
X2107230Y2667050D2*
X2401050D1*
X4048320Y1562093D2*
D16*
Y1168273D1*
X3851410Y1365183D2*
X4245230D1*
X2984680Y2798037D2*
D15*
Y2504217D1*
X2837770Y2651127D2*
X3131590D1*
X4699360Y2226477D2*
Y1932657D1*
X4552450Y2079567D2*
X4846270D1*
X7461687Y2258277D2*
Y1964457D1*
X7314777Y2111367D2*
X7608597D1*
X11208580Y4068217D2*
Y3774397D1*
X11061670Y3921307D2*
X11355490D1*
X9458127D2*
X9751947D1*
X2651187Y3147453D2*
Y2853633D1*
X2504277Y3000543D2*
X2798097D1*
D23*
X10129080Y2079613D3*
X11208580D3*
X9621013Y2047813D3*
X8541513D3*
D54*
X5874133Y3651403D3*
Y3461403D3*
D23*
X2619387Y1222257D3*
Y2301757D3*
X1174640Y2667050D3*
X2254140D3*
D26*
X10097330Y4969187D3*
X10510123D3*
D16*
X1206393Y3651403D3*
X1428667Y3873677D3*
X1539803Y3984813D3*
X1984350Y4429360D3*
X1762077Y4207087D3*
X1873213Y4318223D3*
X2095487Y4540497D3*
X2206623Y4651633D3*
X2317760Y4762770D3*
X1650940Y4095950D3*
X2428897Y4873907D3*
X2540033Y4985043D3*
X1111133Y3540267D3*
X2651170Y5096180D3*
D26*
X9684537Y4969187D3*
D16*
X2746430Y5191440D3*
D26*
X9271740Y4969167D3*
D27*
X5381957Y3302117D3*
X5127957D3*
X4873957D3*
X4619957D3*
X4365850D3*
D28*
X4048320Y1365183D3*
D16*
X1317530Y3762540D3*
D23*
X4064180Y2651127D3*
X2984680D3*
X5778860Y2079567D3*
X4699360D3*
X6382187Y2111367D3*
X7461687D3*
X10129080Y3921307D3*
X11208580D3*
X8525537D3*
X9605037D3*
X2651187Y4080043D3*
Y3000543D3*
X7572943Y3254507D3*
X7090343D3*
X11271480Y1774233D2*
D19*
X11227680Y1672143D1*
X11184047Y1774233D1*
X11136987Y1825277D2*
Y1672143D1*
X11064043Y1774233D2*
X11136987Y1701290D1*
X11107843Y1730433D2*
X11056800Y1672143D1*
X11002497Y1686800D2*
X11009743Y1679390D1*
X11002497Y1672143D1*
X10995087Y1679390D1*
X11002497Y1686800D1*
X10860427Y1752333D2*
X10875083Y1766990D1*
X10889740Y1774233D1*
X10911470D1*
X10926127Y1766990D1*
X10940613Y1752333D1*
X10948027Y1730433D1*
Y1715943D1*
X10940613Y1694043D1*
X10926127Y1679557D1*
X10911470Y1672143D1*
X10889740D1*
X10875083Y1679557D1*
X10860427Y1694043D1*
X10776980Y1774233D2*
X10791467Y1766990D1*
X10806123Y1752333D1*
X10813367Y1730433D1*
Y1715943D1*
X10806123Y1694043D1*
X10791467Y1679557D1*
X10776980Y1672143D1*
X10755080D1*
X10740423Y1679557D1*
X10725937Y1694043D1*
X10718523Y1715943D1*
Y1730433D1*
X10725937Y1752333D1*
X10740423Y1766990D1*
X10755080Y1774233D1*
X10776980D1*
X10671463D2*
Y1672143D1*
Y1745090D2*
X10649563Y1766990D1*
X10634910Y1774233D1*
X10613177D1*
X10598520Y1766990D1*
X10591277Y1745090D1*
Y1672143D1*
Y1745090D2*
X10569377Y1766990D1*
X10554720Y1774233D1*
X10532990D1*
X10518333Y1766990D1*
X10510920Y1745090D1*
Y1672143D1*
X10463863D2*
X10361773Y1825107D1*
X10227283Y1766990D2*
Y1650243D1*
X10234527Y1628513D1*
X10241773Y1621100D1*
X10256427Y1613857D1*
X10278327D1*
X10292817Y1621100D1*
X10227283Y1745090D2*
X10241773Y1759577D1*
X10256427Y1766990D1*
X10278327D1*
X10292817Y1759577D1*
X10307473Y1745090D1*
X10314717Y1723190D1*
Y1708533D1*
X10307473Y1686800D1*
X10292817Y1672143D1*
X10278327Y1664903D1*
X10256427D1*
X10241773Y1672143D1*
X10227283Y1686800D1*
X10092793Y1774233D2*
Y1672143D1*
Y1752333D2*
X10107283Y1766990D1*
X10121937Y1774233D1*
X10143670D1*
X10158327Y1766990D1*
X10172813Y1752333D1*
X10180227Y1730433D1*
Y1715943D1*
X10172813Y1694043D1*
X10158327Y1679557D1*
X10143670Y1672143D1*
X10121937D1*
X10107283Y1679557D1*
X10092793Y1694043D1*
X10045733Y1774233D2*
Y1672143D1*
Y1745090D2*
X10023837Y1766990D1*
X10009180Y1774233D1*
X9987447D1*
X9972793Y1766990D1*
X9965547Y1745090D1*
Y1672143D1*
Y1745090D2*
X9943647Y1766990D1*
X9928993Y1774233D1*
X9907260D1*
X9892603Y1766990D1*
X9885193Y1745090D1*
Y1672143D1*
X9838133Y1730433D2*
X9750700D1*
Y1745090D1*
X9757943Y1759743D1*
X9765190Y1766990D1*
X9779843Y1774233D1*
X9801747D1*
X9816233Y1766990D1*
X9830890Y1752333D1*
X9838133Y1730433D1*
Y1715943D1*
X9830890Y1694043D1*
X9816233Y1679557D1*
X9801747Y1672143D1*
X9779843D1*
X9765190Y1679557D1*
X9750700Y1694043D1*
X9703643Y1774233D2*
Y1621100D1*
Y1752333D2*
X9688987Y1766820D1*
X9674497Y1774233D1*
X9652597D1*
X9637943Y1766820D1*
X9623457Y1752333D1*
X9616043Y1730433D1*
Y1715777D1*
X9623457Y1694043D1*
X9637943Y1679390D1*
X9652597Y1672143D1*
X9674497D1*
X9688987Y1679390D1*
X9703643Y1694043D1*
X9481553Y1774233D2*
Y1672143D1*
Y1752333D2*
X9496040Y1766990D1*
X9510697Y1774233D1*
X9532427D1*
X9547083Y1766990D1*
X9561570Y1752333D1*
X9568983Y1730433D1*
Y1715943D1*
X9561570Y1694043D1*
X9547083Y1679557D1*
X9532427Y1672143D1*
X9510697D1*
X9496040Y1679557D1*
X9481553Y1694043D1*
X9347063Y1825277D2*
Y1672143D1*
Y1752333D2*
X9361550Y1766990D1*
X9376203Y1774233D1*
X9398103D1*
X9412593Y1766990D1*
X9427250Y1752333D1*
X9434493Y1730433D1*
Y1715943D1*
X9427250Y1694043D1*
X9412593Y1679557D1*
X9398103Y1672143D1*
X9376203D1*
X9361550Y1679557D1*
X9347063Y1694043D1*
X9292590Y1788720D2*
Y1795963D1*
X9285347Y1810620D1*
X9278103Y1817863D1*
X9263447Y1825107D1*
X9234303D1*
X9219817Y1817863D1*
X9212570Y1810620D1*
X9205160Y1795963D1*
Y1781477D1*
X9212570Y1766820D1*
X9227060Y1745090D1*
X9300003Y1672143D1*
X9197917D1*
X9150857Y1774233D2*
Y1701290D1*
X9143613Y1679557D1*
X9128957Y1672143D1*
X9107057D1*
X9092570Y1679557D1*
X9070670Y1701290D1*
Y1774233D2*
Y1672143D1*
X8943423Y1752333D2*
X8950667Y1766990D1*
X8972567Y1774233D1*
X8994467D1*
X9016367Y1766990D1*
X9023610Y1752333D1*
X9016367Y1737843D1*
X9001710Y1730433D1*
X8965323Y1723190D1*
X8950667Y1715943D1*
X8943423Y1701290D1*
Y1694043D1*
X8950667Y1679557D1*
X8972567Y1672143D1*
X8994467D1*
X9016367Y1679557D1*
X9023610Y1694043D1*
X8896363Y1825277D2*
Y1672143D1*
Y1752333D2*
X8881707Y1766990D1*
X8867220Y1774233D1*
X8845320D1*
X8830833Y1766990D1*
X8816177Y1752333D1*
X8808933Y1730433D1*
Y1715943D1*
X8816177Y1694043D1*
X8830833Y1679557D1*
X8845320Y1672143D1*
X8867220D1*
X8881707Y1679557D1*
X8896363Y1694043D1*
X11074960Y1519357D2*
D20*
X11083413Y1536257D1*
X11100510Y1553357D1*
X11117413Y1561807D1*
X11151417D1*
X11168513Y1553357D1*
X11185417Y1536257D1*
X11194063Y1519357D1*
X11202517Y1493807D1*
Y1451157D1*
X11194063Y1425803D1*
X11185417Y1408703D1*
X11168513Y1391803D1*
X11151417Y1383153D1*
X11117413D1*
X11100510Y1391803D1*
X11083413Y1408703D1*
X11074960Y1425803D1*
Y1451157D1*
X11117413D1*
X10883857Y1383153D2*
X10952057Y1561807D1*
X11020060Y1383153D1*
X10994510Y1442707D2*
X10909407D1*
X10692950Y1383153D2*
Y1561807D1*
X10760953Y1383153D1*
X10828957Y1561807D1*
Y1383153D1*
X10527597Y1561807D2*
X10638050D1*
Y1383153D1*
X10527597D1*
X10638050Y1476707D2*
X10570047D1*
X10472693Y1468257D2*
X10396043D1*
X10370690Y1476707D1*
X10362043Y1485353D1*
X10353590Y1502257D1*
Y1527807D1*
X10362043Y1544710D1*
X10370690Y1553357D1*
X10396043Y1561807D1*
X10472693D1*
Y1383153D1*
X10162487D2*
X10230687Y1561807D1*
X10298690Y1383153D1*
X10273140Y1442707D2*
X10188037D1*
X10107587Y1561807D2*
Y1383153D1*
X10048033D1*
X10022483Y1391803D1*
X10005387Y1408703D1*
X9996933Y1425803D1*
X9988483Y1451157D1*
Y1493807D1*
X9996933Y1519357D1*
X10005387Y1536257D1*
X10022483Y1553357D1*
X10048033Y1561807D1*
X10107587D1*
X9924933Y1519160D2*
Y1527610D1*
X9916483Y1544710D1*
X9908030Y1553160D1*
X9890933Y1561613D1*
X9856930D1*
X9840030Y1553160D1*
X9831577Y1544710D1*
X9822930Y1527610D1*
Y1510707D1*
X9831577Y1493610D1*
X9848480Y1468257D1*
X9933580Y1383153D1*
X9814480D1*
X9759577Y1561807D2*
Y1383153D1*
X9700027D1*
X9674477Y1391803D1*
X9657377Y1408703D1*
X9648927Y1425803D1*
X9640477Y1451157D1*
Y1493807D1*
X9648927Y1519357D1*
X9657377Y1536257D1*
X9674477Y1553357D1*
X9700027Y1561807D1*
X9759577D1*
X9475117D2*
X9585573D1*
Y1383153D1*
X9475117D1*
X9585573Y1476707D2*
X9517570D1*
X9301113Y1561807D2*
Y1383153D1*
X9420217Y1561807D1*
Y1383153D1*
X9246213Y1561807D2*
Y1383153D1*
X9186660D1*
X9161110Y1391803D1*
X9144013Y1408703D1*
X9135560Y1425803D1*
X9127110Y1451157D1*
Y1493807D1*
X9135560Y1519357D1*
X9144013Y1536257D1*
X9161110Y1553357D1*
X9186660Y1561807D1*
X9246213D1*
X9072207D2*
X9004207Y1476707D1*
Y1383153D1*
X8936203Y1561807D2*
X9004207Y1476707D1*
X11129313Y1228730D2*
D21*
Y1177687D1*
Y1206830D2*
X11125607Y1217780D1*
X11118363Y1225107D1*
X11111037Y1228730D1*
X11100087D1*
X11076557Y1206830D2*
X11032840D1*
Y1214157D1*
X11036463Y1221487D1*
X11040083Y1225107D1*
X11047413Y1228730D1*
X11058363D1*
X11065607Y1225107D1*
X11072933Y1217780D1*
X11076557Y1206830D1*
Y1199587D1*
X11072933Y1188637D1*
X11065607Y1181393D1*
X11058363Y1177687D1*
X11047413D1*
X11040083Y1181393D1*
X11032840Y1188637D1*
X11009310Y1228730D2*
X10987413Y1177687D1*
X10965597Y1228730D1*
X10938360Y1235973D2*
Y1239597D1*
X10934740Y1246923D1*
X10931117Y1250547D1*
X10923790Y1254167D1*
X10909217D1*
X10901973Y1250547D1*
X10898350Y1246923D1*
X10894643Y1239597D1*
Y1232353D1*
X10898350Y1225023D1*
X10905593Y1214157D1*
X10942067Y1177687D1*
X10891023D1*
X10863870Y1185013D2*
X10867493Y1181307D1*
X10863870Y1177687D1*
X10860163Y1181307D1*
X10863870Y1185013D1*
X10818443Y1254167D2*
X10829307Y1250547D1*
X10833013Y1243303D1*
Y1235973D1*
X10829307Y1228730D1*
X10822063Y1225023D1*
X10807493Y1221403D1*
X10796543Y1217780D1*
X10789297Y1210453D1*
X10785677Y1203207D1*
Y1192257D1*
X10789297Y1185013D1*
X10792920Y1181307D1*
X10803870Y1177687D1*
X10818443D1*
X10829307Y1181307D1*
X10833013Y1185013D1*
X10836637Y1192257D1*
Y1203207D1*
X10833013Y1210453D1*
X10825687Y1217780D1*
X10814820Y1221403D1*
X10800247Y1225023D1*
X10792920Y1228730D1*
X10789297Y1235973D1*
Y1243303D1*
X10792920Y1250547D1*
X10803870Y1254167D1*
X10818443D1*
X4794520Y8159993D2*
D14*
G03X3603800Y6887853I86115J-1273929D01*
G01*
X3603760Y6229493D1*
G02X2899130Y5524863I-704603J-27D01*
G01*
X2619387Y5524853D1*
X1174640Y6969647D2*
X1555680D1*
G03X1857337Y7271303I0J301657D01*
G01*
Y7656767D1*
G02X2154570Y7953997I297230J0D01*
G01*
X3097753Y7954000D1*
G03X3365620Y8221867I-1J267868D01*
G01*
Y8440667D1*
G02X3609283Y8684327I243661J-1D01*
G01*
X4137000D1*
G02X4270590Y8550737I3J-133587D01*
G01*
Y8509683D1*
X7604690Y8079993D2*
Y8049233D1*
G03X7684047Y7969877I79358J1D01*
G01*
X9644490Y7969883D1*
G02X10129087Y7485287I-5J-484602D01*
G01*
X10129080Y6382210D1*
X7493557Y7999993D2*
Y7985753D1*
G03X7588817Y7890493I95257J-3D01*
G01*
X9273087Y7890487D1*
G02X9621023Y7542550I6J-347931D01*
G01*
X9621013Y6350410D1*
X6951493Y7919993D2*
X6826733D1*
G03X6572323Y7665233I-1888J-252525D01*
G01*
X6573173Y6826757D1*
G02X6398530Y6652113I-174648J5D01*
G01*
X5985303Y6652110D1*
G03X5778860Y6445667I3J-206446D01*
G01*
Y6382163D1*
X6998507Y7839993D2*
X6858487D1*
G03X6667967Y7649677I-342J-190178D01*
G01*
Y6699743D1*
G02X6382187Y6413963I-285781J1D01*
G01*
X7717900Y8159993D2*
Y8144517D1*
G03X7813160Y8049257I95257J-3D01*
G01*
X9998217Y8049263D1*
G03X10129600Y8182313I-9J131402D01*
G01*
X10129080Y8223903D1*
X7604690Y8239993D2*
X8509447D1*
G02X8525537Y8223903I-2J-16092D01*
G01*
X7399740Y8399993D2*
G02X7461800Y8462053I62059J1D01*
G01*
X9843300D1*
G03X10097330Y8716083I1J254029D01*
G01*
Y9271783D1*
X7524477Y8319993D2*
G02X7587153Y8382670I62674J3D01*
G01*
X10224340D1*
G03X10510120Y8668450I-1J285781D01*
G01*
X10510123Y9271783D1*
X9271740Y9271763D2*
Y8704060D1*
G02X9109110Y8541430I-162630J0D01*
G01*
X6329117D1*
G03X6112283Y8324597I-19J-216814D01*
G01*
Y8079993D1*
X5905887Y7318933D2*
Y7285670D1*
G02X5732753Y7112537I-173135J1D01*
G01*
X5096177D1*
G02X4873957Y7334757I0J222220D01*
G01*
Y7604713D1*
X4619957D2*
Y7350607D1*
G03X4937410Y7033153I317454J0D01*
G01*
X5793620D1*
G03X6064653Y7304183I2J271032D01*
G01*
X6382187Y7954000D2*
D15*
X6382183Y7893120D1*
G02X6093767Y7604710I-288399J-11D01*
G01*
X5874133Y7604713D1*
X5381957D1*
X5874133Y7764000D2*
Y7604713D1*
D30*
X4794520Y8159993D3*
X4270590Y8509683D3*
X7604690Y8079993D3*
X7493557Y7999993D3*
X6951493Y7919993D3*
X6998507Y7839993D3*
X7717900Y8159993D3*
X7604690Y8239993D3*
X7399740Y8399993D3*
X7524477Y8319993D3*
X6112283Y8079993D3*
X5905887Y7318933D3*
X6064653Y7304183D3*
D15*
X6382187Y7954000D3*
X9684533Y8763710D3*
X10303723Y8827217D3*
X9811547Y7287180D3*
X10367230D3*
X7668197Y5445487D3*
X8303263D3*
X4826273Y5429610D3*
X5461340D3*
X2127240Y5445487D3*
X3079840D3*
X6302803Y8239780D3*
Y7382440D3*
X5778873Y8811340D3*
X7001377Y8795463D3*
X8827193Y5429610D3*
X9700410D3*
X11462720Y7287180D3*
X10335477Y5429610D3*
X8906577Y9176503D3*
X7811087Y9446407D3*
X6302803Y7001400D3*
X4238837Y9462283D3*
X3254483D3*
X3175100Y8541437D3*
X2270130Y8382670D3*
X8128620Y7636467D3*
X7969853Y6350457D3*
X1682693Y6017047D3*
X1381037Y7699973D3*
X5635983Y7382440D3*
Y7811110D3*
X6906117Y7318933D3*
X7382417D3*
X1063047Y9497527D2*
D14*
X4382237D1*
X4762290D2*
X4893930D1*
X5139633D2*
X5656093D1*
X5901703D2*
X6366847D1*
X6715090D2*
X8383177D1*
X8763227D2*
X9243047D1*
X9300440D2*
X9655663D1*
X9713423D2*
X10068463D1*
X10126223D2*
X10481263D1*
X10538930D2*
X12066560D1*
X1063047Y9447860D2*
X4382237D1*
X4762290D2*
X4836600D1*
X5196963D2*
X5598670D1*
X5959037D2*
X6291833D1*
X6790103D2*
X8383177D1*
X8763227D2*
X9123463D1*
X9420023D2*
X9536263D1*
X9832823D2*
X9949060D1*
X10245623D2*
X10361860D1*
X10658423D2*
X11505103D1*
X1063047Y9398193D2*
X4382237D1*
X4762290D2*
X4805520D1*
X5228137D2*
X5567590D1*
X5990207D2*
X6243253D1*
X6838683D2*
X8383177D1*
X8763227D2*
X9078163D1*
X9465233D2*
X9491073D1*
X9878123D2*
X9903763D1*
X10290833D2*
X10316560D1*
X10703630D2*
X11421887D1*
X1063047Y9348527D2*
X1180833D1*
X1517773D2*
X4382237D1*
X4762200D2*
X4789297D1*
X5244270D2*
X5551367D1*
X6006340D2*
X6209167D1*
X6872773D2*
X8383177D1*
X8763137D2*
X9053097D1*
X10728787D2*
X11387890D1*
X1063047Y9298860D2*
X1115390D1*
X1583213D2*
X4415233D1*
X4729203D2*
X4784830D1*
X5248737D2*
X5546900D1*
X6010807D2*
X6185287D1*
X6896743D2*
X8416170D1*
X8730143D2*
X9041340D1*
X10740547D2*
X11371300D1*
X1624687Y9249193D2*
X4791393D1*
X5242173D2*
X5553463D1*
X6004333D2*
X6169517D1*
X6912420D2*
X9040883D1*
X10741000D2*
X11367930D1*
X1652487Y9199527D2*
X4809987D1*
X5223580D2*
X5572057D1*
X5985650D2*
X6161040D1*
X6920987D2*
X9051547D1*
X10730337D2*
X11367930D1*
X1670167Y9149860D2*
X4844713D1*
X5188853D2*
X5606783D1*
X5951013D2*
X6159127D1*
X6922810D2*
X7793917D1*
X8114087D2*
X9075247D1*
X10706640D2*
X11367930D1*
X1679463Y9100193D2*
X4910793D1*
X5122773D2*
X5672953D1*
X5884843D2*
X6163867D1*
X6918163D2*
X7731483D1*
X8176523D2*
X9118083D1*
X9425403D2*
X9530883D1*
X9838110D2*
X9943683D1*
X10250910D2*
X10356483D1*
X10663710D2*
X11367930D1*
X1680923Y9050527D2*
X6175440D1*
X6906587D2*
X7692747D1*
X8215260D2*
X9164750D1*
X9378737D2*
X9628773D1*
X9740310D2*
X9990350D1*
X10204333D2*
X10403150D1*
X10617133D2*
X11367930D1*
X1674907Y9000860D2*
X6194490D1*
X6887447D2*
X7667773D1*
X8240143D2*
X9164750D1*
X9378737D2*
X9990350D1*
X10204333D2*
X10403150D1*
X10617133D2*
X11367930D1*
X1660690Y8951193D2*
X6222473D1*
X6859463D2*
X7653097D1*
X8254907D2*
X9164750D1*
X9378737D2*
X9990350D1*
X10204333D2*
X10403150D1*
X10617133D2*
X11367930D1*
X1637263Y8901527D2*
X6262120D1*
X6819907D2*
X7647173D1*
X8260833D2*
X9164750D1*
X9378737D2*
X9990350D1*
X10204333D2*
X10403150D1*
X10617133D2*
X11367930D1*
X1063047Y8851860D2*
X1096663D1*
X1601990D2*
X6319633D1*
X6762393D2*
X7649453D1*
X8258463D2*
X9164750D1*
X9378737D2*
X9990350D1*
X10204333D2*
X10403150D1*
X10617133D2*
X11367930D1*
X1063047Y8802193D2*
X1150207D1*
X1548397D2*
X6419073D1*
X6662953D2*
X7660207D1*
X8247707D2*
X9164750D1*
X9378737D2*
X9990350D1*
X10204333D2*
X10403150D1*
X10617133D2*
X11367930D1*
X1063047Y8752527D2*
X1249010D1*
X1449597D2*
X3456287D1*
X4263450D2*
X7680440D1*
X8227473D2*
X9164750D1*
X9378737D2*
X9990350D1*
X10204333D2*
X10403150D1*
X10617133D2*
X11367930D1*
X1063047Y8702860D2*
X3379817D1*
X4321600D2*
X7712523D1*
X8195480D2*
X9164477D1*
X9378737D2*
X9989257D1*
X10203697D2*
X10403150D1*
X10617133D2*
X11367930D1*
X1063047Y8653193D2*
X3331690D1*
X4353867D2*
X7762473D1*
X8145533D2*
X9136497D1*
X9373450D2*
X9976223D1*
X10198227D2*
X10401873D1*
X10616313D2*
X11367930D1*
X1063047Y8603527D2*
X3299790D1*
X4371457D2*
X6169880D1*
X9358867D2*
X9939673D1*
X10185467D2*
X10390753D1*
X10611210D2*
X11367930D1*
X1063047Y8553860D2*
X2601340D1*
X2701027D2*
X3278190D1*
X3529633D2*
X4162667D1*
X4378477D2*
X6102707D1*
X10164687D2*
X10362500D1*
X10599270D2*
X11367930D1*
X1063047Y8504193D2*
X2517487D1*
X2784880D2*
X3264973D1*
X3488253D2*
X4153737D1*
X4387500D2*
X6061237D1*
X10134243D2*
X10300430D1*
X10580037D2*
X11367930D1*
X1063047Y8454527D2*
X2484400D1*
X2817967D2*
X3259320D1*
X3473763D2*
X4168137D1*
X4373097D2*
X6033163D1*
X10552057D2*
X11367930D1*
X1063047Y8404860D2*
X2470547D1*
X2831820D2*
X3258593D1*
X3472577D2*
X3734830D1*
X3949087D2*
X4226107D1*
X4315037D2*
X6015570D1*
X6252343D2*
X7282863D1*
X10513137D2*
X11368567D1*
X1063047Y8355193D2*
X2471367D1*
X2831000D2*
X3258593D1*
X3472577D2*
X3661820D1*
X4022097D2*
X6007097D1*
X6223723D2*
X7292070D1*
X10457447D2*
X11137420D1*
X11279673D2*
X11375130D1*
X1063047Y8305527D2*
X2486860D1*
X2815507D2*
X3258593D1*
X3472577D2*
X3622537D1*
X4061380D2*
X6005273D1*
X6219257D2*
X7334543D1*
X10364660D2*
X11081367D1*
X11335820D2*
X11396820D1*
X1063047Y8255860D2*
X2522680D1*
X2779687D2*
X3258593D1*
X3472577D2*
X3599660D1*
X4084347D2*
X4718657D1*
X4857447D2*
X6005273D1*
X6219257D2*
X7427693D1*
X8704620D2*
X9456510D1*
X9753527D2*
X9949973D1*
X10308150D2*
X11060130D1*
X11357057D2*
X11442030D1*
X1063047Y8206193D2*
X2632237D1*
X2670177D2*
X3257407D1*
X3471847D2*
X3588450D1*
X4095560D2*
X4478943D1*
X4901560D2*
X6005273D1*
X6219257D2*
X7492953D1*
X8706627D2*
X9454140D1*
X9755987D2*
X9947967D1*
X10310153D2*
X11057667D1*
X11359517D2*
X12066560D1*
X1063047Y8156527D2*
X3244830D1*
X3466287D2*
X3587447D1*
X4096560D2*
X4340767D1*
X4911497D2*
X6005273D1*
X6219257D2*
X7517930D1*
X8694230D2*
X9469360D1*
X9740677D2*
X9960363D1*
X10297760D2*
X11072890D1*
X11344203D2*
X12066560D1*
X1063047Y8106860D2*
X3211743D1*
X3453710D2*
X3596470D1*
X4087447D2*
X4235403D1*
X4898097D2*
X5998527D1*
X6226000D2*
X7455037D1*
X10266860D2*
X11114633D1*
X11302550D2*
X12066560D1*
X1063047Y8057193D2*
X3107653D1*
X3433293D2*
X3616797D1*
X4067120D2*
X4148450D1*
X4843957D2*
X5766743D1*
X6226913D2*
X6265583D1*
X6498800D2*
X7392237D1*
X10201053D2*
X12066560D1*
X1063047Y8007527D2*
X1959673D1*
X3403670D2*
X3652070D1*
X4031847D2*
X4073527D1*
X4536703D2*
X5747147D1*
X6202667D2*
X6234960D1*
X6529427D2*
X6720583D1*
X7026353D2*
X7376833D1*
X10159310D2*
X12066560D1*
X1063047Y7957860D2*
X1888397D1*
X3361743D2*
X3714687D1*
X3969230D2*
X4008630D1*
X4404817D2*
X5747147D1*
X6001143D2*
X6225207D1*
X6539180D2*
X6617317D1*
X7061900D2*
X7384763D1*
X10072083D2*
X12066560D1*
X1063047Y7908193D2*
X1839907D1*
X3298033D2*
X3950753D1*
X4306653D2*
X4437930D1*
X5588983D2*
X5729830D1*
X6018463D2*
X6225207D1*
X7092343D2*
X7402447D1*
X10055493D2*
X12066560D1*
X1063047Y7858527D2*
X1805090D1*
X3169060D2*
X3898710D1*
X4227173D2*
X4437930D1*
X5588983D2*
X5696470D1*
X6051730D2*
X6220377D1*
X7113943D2*
X7433253D1*
X9598397D2*
X9721653D1*
X10101977D2*
X12066560D1*
X1063047Y7808860D2*
X1780480D1*
X2037850D2*
X3851587D1*
X4158630D2*
X4437930D1*
X5588983D2*
X5692097D1*
X6056107D2*
X6195493D1*
X7111120D2*
X7496963D1*
X9640417D2*
X9842693D1*
X10138710D2*
X12066560D1*
X1063047Y7759193D2*
X1763710D1*
X1994010D2*
X3808930D1*
X4100117D2*
X4437930D1*
X5588983D2*
X5692097D1*
X6056107D2*
X6111547D1*
X7081040D2*
X9383137D1*
X9672133D2*
X9906130D1*
X10168150D2*
X11627513D1*
X11933007D2*
X12066560D1*
X1063047Y7709527D2*
X1753867D1*
X1971953D2*
X3770013D1*
X4048253D2*
X4437930D1*
X6798763D2*
X6995390D1*
X7185310D2*
X7478007D1*
X7667930D2*
X9447760D1*
X9695740D2*
X9948787D1*
X10191573D2*
X11576743D1*
X11983867D2*
X12066560D1*
X1063047Y7659860D2*
X1750403D1*
X1964750D2*
X3734557D1*
X4002133D2*
X4437930D1*
X6775883D2*
X6941250D1*
X7239453D2*
X7423867D1*
X7722070D2*
X9483580D1*
X9712420D2*
X9979503D1*
X10209440D2*
X11547030D1*
X12013580D2*
X12066560D1*
X1063047Y7610193D2*
X1750310D1*
X1964297D2*
X3702290D1*
X3960847D2*
X4437930D1*
X6435637D2*
X6465300D1*
X6774973D2*
X6916457D1*
X7264153D2*
X7399073D1*
X7746770D2*
X9504087D1*
X9722630D2*
X10000560D1*
X10222290D2*
X11530623D1*
X12029893D2*
X12066560D1*
X1063047Y7560527D2*
X1750310D1*
X1964297D2*
X3673307D1*
X3924023D2*
X4437930D1*
X6386510D2*
X6465467D1*
X6774973D2*
X6908347D1*
X7272357D2*
X7390963D1*
X7754880D2*
X9512653D1*
X9727097D2*
X10014413D1*
X10230767D2*
X11524973D1*
X12035637D2*
X12066560D1*
X1063047Y7510860D2*
X1750310D1*
X1964297D2*
X3646873D1*
X3891027D2*
X4437930D1*
X6317513D2*
X6465467D1*
X6774973D2*
X6914453D1*
X7266157D2*
X7397070D1*
X7748773D2*
X9514023D1*
X9728007D2*
X10020703D1*
X10234960D2*
X11529257D1*
X12031353D2*
X12066560D1*
X1063047Y7461193D2*
X1750310D1*
X1964297D2*
X3622903D1*
X3861497D2*
X4437930D1*
X6181613D2*
X6465560D1*
X6774973D2*
X6936600D1*
X7244100D2*
X7419217D1*
X7726717D2*
X9514023D1*
X9728007D2*
X10022070D1*
X10236053D2*
X11544023D1*
X12016497D2*
X12066560D1*
X1063047Y7411527D2*
X1750310D1*
X1964297D2*
X2546927D1*
X2755533D2*
X3601120D1*
X3835153D2*
X4437930D1*
X5588983D2*
X5837837D1*
X5973893D2*
X6027693D1*
X6101587D2*
X6465560D1*
X6774973D2*
X6984633D1*
X7196067D2*
X7467250D1*
X7678593D2*
X9514023D1*
X9728007D2*
X10022070D1*
X10236053D2*
X11571640D1*
X11988970D2*
X12066560D1*
X1063047Y7361860D2*
X1750310D1*
X1964297D2*
X2511380D1*
X2790987D2*
X3581523D1*
X3811820D2*
X4437930D1*
X5588983D2*
X5797460D1*
X6165663D2*
X6465650D1*
X6774973D2*
X9514023D1*
X9728007D2*
X10022070D1*
X10236053D2*
X11618580D1*
X11941940D2*
X12066560D1*
X1063047Y7312193D2*
X1750310D1*
X1964297D2*
X2499440D1*
X2802930D2*
X3564570D1*
X3791223D2*
X4437930D1*
X5588983D2*
X5789073D1*
X6181340D2*
X6465650D1*
X6774973D2*
X9514023D1*
X9728007D2*
X10022070D1*
X10236053D2*
X11723487D1*
X11837120D2*
X12066560D1*
X1063047Y7262527D2*
X1749583D1*
X1964023D2*
X2504907D1*
X2797460D2*
X3549620D1*
X3773177D2*
X4522967D1*
X5005467D2*
X5174933D1*
X5588983D2*
X5794633D1*
X6173593D2*
X6465740D1*
X6774973D2*
X9514023D1*
X9728007D2*
X10022070D1*
X10236053D2*
X12066560D1*
X1063047Y7212860D2*
X1741013D1*
X1959920D2*
X2530153D1*
X2772213D2*
X3536403D1*
X3757590D2*
X4536913D1*
X6160193D2*
X6465740D1*
X6774973D2*
X9514023D1*
X9728007D2*
X10022070D1*
X10236053D2*
X12066560D1*
X1063047Y7163193D2*
X1717773D1*
X1949530D2*
X2601157D1*
X2701210D2*
X3524920D1*
X3744283D2*
X4557877D1*
X6143970D2*
X6465833D1*
X6774973D2*
X7792277D1*
X8020570D2*
X9514023D1*
X9728007D2*
X10022070D1*
X10236053D2*
X12066560D1*
X1282707Y7113527D2*
X1672563D1*
X1932213D2*
X2218983D1*
X2289230D2*
X3515987D1*
X3733253D2*
X3983110D1*
X4145323D2*
X4587133D1*
X6119180D2*
X6465923D1*
X6774973D2*
X7723007D1*
X8089750D2*
X9514023D1*
X9728007D2*
X10022070D1*
X10236053D2*
X12066560D1*
X1906783Y7063860D2*
X2136313D1*
X2371990D2*
X2882343D1*
X3087030D2*
X3508697D1*
X3724413D2*
X3920583D1*
X4207760D2*
X4626873D1*
X6083267D2*
X6465923D1*
X6774973D2*
X7685090D1*
X8127760D2*
X9514023D1*
X9728007D2*
X10022070D1*
X10236053D2*
X12066560D1*
X1871237Y7014193D2*
X2109060D1*
X2399243D2*
X2845703D1*
X3123670D2*
X3502953D1*
X3718033D2*
X3892787D1*
X4235560D2*
X4682107D1*
X6032863D2*
X6466013D1*
X6774973D2*
X7662940D1*
X8149817D2*
X9514023D1*
X9728007D2*
X10022070D1*
X10236053D2*
X12066560D1*
X1822107Y6964527D2*
X2102227D1*
X2406080D2*
X2833033D1*
X3136250D2*
X3499127D1*
X3713750D2*
X3882487D1*
X4245857D2*
X4768607D1*
X5951927D2*
X6466013D1*
X6774973D2*
X7652460D1*
X8160297D2*
X9514023D1*
X9728007D2*
X10022070D1*
X10236053D2*
X12066560D1*
X1749100Y6914860D2*
X2112707D1*
X2395507D2*
X2837953D1*
X3131417D2*
X3497487D1*
X3711560D2*
X3886497D1*
X4241847D2*
X6466107D1*
X6774973D2*
X7652097D1*
X8160663D2*
X9514023D1*
X9728007D2*
X10022070D1*
X10236053D2*
X12066560D1*
X1322537Y6865193D2*
X2145703D1*
X2362603D2*
X2862290D1*
X3106990D2*
X3496757D1*
X3710833D2*
X3905910D1*
X4222433D2*
X6466107D1*
X6774973D2*
X7661847D1*
X8150910D2*
X9514023D1*
X9728007D2*
X10022070D1*
X10236053D2*
X12066560D1*
X1266667Y6815527D2*
X2929557D1*
X3039817D2*
X3496757D1*
X3710833D2*
X3948567D1*
X4179777D2*
X6465013D1*
X6774973D2*
X7682993D1*
X8129763D2*
X9514023D1*
X9728007D2*
X10022070D1*
X10236053D2*
X12066560D1*
X1063047Y6765860D2*
X3496757D1*
X3710833D2*
X6432473D1*
X6774973D2*
X7719543D1*
X8093213D2*
X9514023D1*
X9728007D2*
X10022070D1*
X10236053D2*
X12066560D1*
X1063047Y6716193D2*
X2518943D1*
X2719803D2*
X3496757D1*
X3710833D2*
X5832460D1*
X6774973D2*
X7785167D1*
X8027590D2*
X9514023D1*
X9728007D2*
X10022070D1*
X10236053D2*
X12066560D1*
X1063047Y6666527D2*
X2481210D1*
X2757630D2*
X3496757D1*
X3710833D2*
X5765103D1*
X6772967D2*
X9514023D1*
X9728007D2*
X10022070D1*
X10236053D2*
X12066560D1*
X1063047Y6616860D2*
X2467903D1*
X2770847D2*
X3496757D1*
X3710740D2*
X5724270D1*
X6765493D2*
X9514023D1*
X9728007D2*
X10022070D1*
X10236053D2*
X12066560D1*
X1063047Y6567193D2*
X2472187D1*
X2766653D2*
X3496757D1*
X3710740D2*
X5696833D1*
X6751093D2*
X9514023D1*
X9728007D2*
X10022070D1*
X10236053D2*
X12066560D1*
X1063047Y6517527D2*
X2495793D1*
X2743047D2*
X3496757D1*
X3710740D2*
X4637083D1*
X4761653D2*
X5659830D1*
X5915013D2*
X6233683D1*
X6729037D2*
X7352407D1*
X7571040D2*
X9514023D1*
X9728007D2*
X10009947D1*
X10248177D2*
X11146170D1*
X11271013D2*
X12066560D1*
X1063047Y6467860D2*
X2559777D1*
X2678970D2*
X3496757D1*
X3710740D2*
X4574920D1*
X4823813D2*
X5618997D1*
X5938710D2*
X6208620D1*
X6697863D2*
X7319960D1*
X7603487D2*
X8448070D1*
X8634893D2*
X9483580D1*
X9758450D2*
X9969203D1*
X10289010D2*
X11084100D1*
X11333083D2*
X12066560D1*
X1063047Y6418193D2*
X3496757D1*
X3710740D2*
X4551860D1*
X4846873D2*
X5600583D1*
X5957120D2*
X6200233D1*
X6653383D2*
X7309750D1*
X7613607D2*
X8406053D1*
X8676913D2*
X9452500D1*
X9789530D2*
X9950793D1*
X10307420D2*
X11061040D1*
X11356143D2*
X12066560D1*
X1063047Y6368527D2*
X3496757D1*
X3710740D2*
X4548033D1*
X4850703D2*
X5597393D1*
X5960310D2*
X6206157D1*
X6588397D2*
X7316860D1*
X7606497D2*
X8390650D1*
X8692407D2*
X9439920D1*
X9802107D2*
X9947603D1*
X10310520D2*
X11057213D1*
X11359973D2*
X12066560D1*
X1063047Y6318860D2*
X3496757D1*
X3710740D2*
X4561703D1*
X4837030D2*
X5608607D1*
X5949190D2*
X6227940D1*
X6536443D2*
X7344570D1*
X7578787D2*
X8392930D1*
X8690130D2*
X9441833D1*
X9800193D2*
X9958813D1*
X10299400D2*
X11070977D1*
X11346210D2*
X12066560D1*
X1063047Y6269193D2*
X3496757D1*
X3710740D2*
X4600260D1*
X4798383D2*
X5637590D1*
X5920117D2*
X6275337D1*
X6489047D2*
X7431157D1*
X7492200D2*
X8413983D1*
X8669073D2*
X9458787D1*
X9783240D2*
X9987890D1*
X10270323D2*
X11109620D1*
X11307563D2*
X12066560D1*
X1063047Y6219527D2*
X3496300D1*
X3710467D2*
X5704037D1*
X5853670D2*
X8469583D1*
X8613477D2*
X9496887D1*
X9745143D2*
X10054333D1*
X10203787D2*
X12066560D1*
X1063047Y6169860D2*
X3493383D1*
X3708553D2*
X8815390D1*
X8977330D2*
X9141873D1*
X9427953D2*
X10280923D1*
X10442953D2*
X11056027D1*
X11217877D2*
X12066560D1*
X1063047Y6120193D2*
X3486273D1*
X3703177D2*
X8753773D1*
X11351587D2*
X12066560D1*
X1063047Y6070527D2*
X3475063D1*
X3694607D2*
X8724973D1*
X11362980D2*
X12066560D1*
X1063047Y6020860D2*
X3459387D1*
X3682940D2*
X8717133D1*
X11346847D2*
X12066560D1*
X1063047Y5971193D2*
X3438240D1*
X3667810D2*
X8728163D1*
X11325610D2*
X12066560D1*
X1063047Y5921527D2*
X3411627D1*
X3649217D2*
X8763710D1*
X11301183D2*
X12066560D1*
X1063047Y5871860D2*
X1260403D1*
X1438203D2*
X3378903D1*
X3626703D2*
X5940193D1*
X6189180D2*
X8842823D1*
X11273203D2*
X11655767D1*
X11904750D2*
X12066560D1*
X1063047Y5822193D2*
X1176913D1*
X1521600D2*
X3337707D1*
X3599907D2*
X3920950D1*
X4175677D2*
X5876210D1*
X6253163D2*
X8853123D1*
X11292433D2*
X11591783D1*
X11968737D2*
X12066560D1*
X1063047Y5772527D2*
X1134440D1*
X1564073D2*
X3286757D1*
X3568280D2*
X3876470D1*
X4220153D2*
X5840297D1*
X6289073D2*
X8891040D1*
X11296263D2*
X11555870D1*
X12004647D2*
X12066560D1*
X1063047Y5722860D2*
X1109463D1*
X1589047D2*
X3220310D1*
X3531273D2*
X3854140D1*
X4242487D2*
X5819607D1*
X6309763D2*
X8910453D1*
X11290703D2*
X11535180D1*
X12025337D2*
X12066560D1*
X1063047Y5673193D2*
X1096663D1*
X1601810D2*
X2517850D1*
X2720987D2*
X3124700D1*
X3487707D2*
X3846393D1*
X4250233D2*
X5810220D1*
X6319153D2*
X8911367D1*
X11270560D2*
X11525793D1*
X12034727D2*
X12066560D1*
X1063047Y5623527D2*
X1094293D1*
X1604270D2*
X2467447D1*
X3436393D2*
X3851313D1*
X4245310D2*
X5810950D1*
X6318423D2*
X8935977D1*
X9072487D2*
X9102763D1*
X10366940D2*
X10404427D1*
X11226900D2*
X11526523D1*
X12033997D2*
X12066560D1*
X1063047Y5573860D2*
X1101810D1*
X1596797D2*
X2444297D1*
X3373410D2*
X3870180D1*
X4226537D2*
X4385153D1*
X4759373D2*
X5821797D1*
X6307577D2*
X8386093D1*
X8760220D2*
X10708397D1*
X11203110D2*
X11537370D1*
X12023150D2*
X12066560D1*
X1063047Y5524193D2*
X1120310D1*
X1578293D2*
X2437370D1*
X3295297D2*
X3908463D1*
X4188163D2*
X4382237D1*
X4762290D2*
X5844400D1*
X6284973D2*
X8383177D1*
X8763227D2*
X10701927D1*
X11215233D2*
X11559973D1*
X12000547D2*
X12066560D1*
X1063047Y5474527D2*
X1153033D1*
X1545570D2*
X2444660D1*
X3188110D2*
X4005077D1*
X4091547D2*
X4382237D1*
X4762290D2*
X5883047D1*
X6246327D2*
X8383177D1*
X8763227D2*
X10702380D1*
X11215143D2*
X11598620D1*
X11961900D2*
X12066560D1*
X1063047Y5424860D2*
X1209817D1*
X1488787D2*
X2468357D1*
X2960793D2*
X4382237D1*
X4762290D2*
X5954230D1*
X6175143D2*
X8383177D1*
X8763227D2*
X10732643D1*
X11195910D2*
X11669803D1*
X11890713D2*
X12066560D1*
X1063047Y5375193D2*
X2519857D1*
X2718893D2*
X4382237D1*
X4762290D2*
X8383177D1*
X8763227D2*
X12066560D1*
X10305533Y6368323D2*
X10301190Y6340890D1*
X10292607Y6314477D1*
X10279997Y6289727D1*
X10263673Y6267257D1*
X10244033Y6247617D1*
X10221563Y6231293D1*
X10196813Y6218683D1*
X10170400Y6210100D1*
X10142967Y6205757D1*
X10115193D1*
X10087760Y6210100D1*
X10061347Y6218683D1*
X10036597Y6231293D1*
X10014127Y6247617D1*
X9994487Y6267257D1*
X9978163Y6289727D1*
X9965553Y6314477D1*
X9956970Y6340890D1*
X9952627Y6368323D1*
Y6396097D1*
X9956970Y6423530D1*
X9965553Y6449943D1*
X9978163Y6474693D1*
X9994487Y6497163D1*
X10014127Y6516803D1*
X10027073Y6526763D1*
X10027087Y7482760D1*
X10025120Y7522793D1*
X10019610Y7559923D1*
X10010487Y7596330D1*
X9997840Y7631670D1*
X9981790Y7665600D1*
X9962493Y7697793D1*
X9940133Y7727940D1*
X9914923Y7755750D1*
X9887113Y7780953D1*
X9856963Y7803313D1*
X9824767Y7822607D1*
X9790837Y7838653D1*
X9755497Y7851297D1*
X9719087Y7860417D1*
X9681957Y7865920D1*
X9641920Y7867887D1*
X9583330Y7867883D1*
X9595803Y7855833D1*
X9629227Y7817510D1*
X9659200Y7773217D1*
X9669917Y7753470D1*
X9689290Y7713467D1*
X9707340Y7660290D1*
X9718080Y7607897D1*
X9720423Y7585553D1*
X9723023Y7542550D1*
X9723013Y6495010D1*
X9735967Y6485003D1*
X9755607Y6465363D1*
X9771930Y6442893D1*
X9784540Y6418143D1*
X9793123Y6391730D1*
X9797467Y6364297D1*
Y6336523D1*
X9793123Y6309090D1*
X9784540Y6282677D1*
X9771930Y6257927D1*
X9755607Y6235457D1*
X9735967Y6215817D1*
X9713497Y6199493D1*
X9688747Y6186883D1*
X9662333Y6178300D1*
X9634900Y6173957D1*
X9607127D1*
X9579693Y6178300D1*
X9553280Y6186883D1*
X9528530Y6199493D1*
X9506060Y6215817D1*
X9486420Y6235457D1*
X9470097Y6257927D1*
X9457487Y6282677D1*
X9448903Y6309090D1*
X9444560Y6336523D1*
Y6364297D1*
X9448903Y6391730D1*
X9457487Y6418143D1*
X9470097Y6442893D1*
X9486420Y6465363D1*
X9506060Y6485003D1*
X9519007Y6494963D1*
X9518647Y7544963D1*
X9516230Y7576993D1*
X9509657Y7608437D1*
X9499033Y7638750D1*
X9484543Y7667420D1*
X9466437Y7693953D1*
X9445020Y7717893D1*
X9420663Y7738837D1*
X9393780Y7756417D1*
X9364830Y7770340D1*
X9334313Y7780367D1*
X9302750Y7786323D1*
X9269717Y7788490D1*
X7577177Y7789037D1*
X7561720Y7790370D1*
X7536447Y7795577D1*
X7512070Y7804040D1*
X7489010Y7815610D1*
X7467653Y7830093D1*
X7448373Y7847240D1*
X7431493Y7866760D1*
X7417310Y7888313D1*
X7406057Y7911533D1*
X7397933Y7936023D1*
X7396013Y7944953D1*
X7390083Y7957133D1*
X7384650Y7973847D1*
X7381903Y7991207D1*
Y8008780D1*
X7384650Y8026140D1*
X7390083Y8042853D1*
X7398060Y8058513D1*
X7408390Y8072730D1*
X7420820Y8085160D1*
X7435037Y8095490D1*
X7450697Y8103467D1*
X7467410Y8108900D1*
X7484770Y8111647D1*
X7497297Y8111847D1*
X7504897Y8130840D1*
X7514080Y8145827D1*
X7526327Y8159960D1*
X7514080Y8174160D1*
X7504897Y8189147D1*
X7498173Y8205383D1*
X7496427Y8211567D1*
X7481617Y8216520D1*
X7465957Y8224497D1*
X7451740Y8234827D1*
X7439310Y8247257D1*
X7428980Y8261473D1*
X7421003Y8277133D1*
X7416850Y8289317D1*
X7399740Y8287993D1*
X7382220Y8289373D1*
X7365130Y8293477D1*
X7348893Y8300200D1*
X7333907Y8309383D1*
X7320543Y8320797D1*
X7309130Y8334160D1*
X7299947Y8349147D1*
X7293223Y8365383D1*
X7289120Y8382473D1*
X7287740Y8399993D1*
X7289120Y8417513D1*
X7293223Y8434603D1*
X7294993Y8439407D1*
X6330120Y8439277D1*
X6309577Y8437323D1*
X6295033Y8433810D1*
X6281070Y8428430D1*
X6267930Y8421270D1*
X6255833Y8412460D1*
X6244993Y8402143D1*
X6235593Y8390500D1*
X6227793Y8377730D1*
X6221727Y8364053D1*
X6217497Y8349700D1*
X6215177Y8334917D1*
X6214283Y8301263D1*
Y8126173D1*
X6218800Y8114603D1*
X6222903Y8097513D1*
X6224283Y8079993D1*
X6222903Y8062473D1*
X6218800Y8045383D1*
X6212077Y8029147D1*
X6202893Y8014160D1*
X6191480Y8000797D1*
X6178117Y7989383D1*
X6163130Y7980200D1*
X6146893Y7973477D1*
X6129803Y7969373D1*
X6112283Y7967993D1*
X6094763Y7969373D1*
X6077673Y7973477D1*
X6061437Y7980200D1*
X6046450Y7989383D1*
X6033087Y8000797D1*
X6021673Y8014160D1*
X6012490Y8029147D1*
X6005767Y8045383D1*
X6001663Y8062473D1*
X6000283Y8079993D1*
X6001663Y8097513D1*
X6005767Y8114603D1*
X6010283Y8126660D1*
X6010870Y8336920D1*
X6013197Y8367560D1*
X6021503Y8408430D1*
X6035077Y8447867D1*
X6053683Y8485193D1*
X6077000Y8519770D1*
X6104633Y8551010D1*
X6136110Y8578373D1*
X6170887Y8601397D1*
X6208370Y8619680D1*
X6247923Y8632917D1*
X6288863Y8640873D1*
X6322487Y8643213D1*
X6912450Y8643430D1*
X7780613D1*
X7766487Y8653960D1*
X7748773Y8669137D1*
X7732283Y8685637D1*
X7717117Y8703360D1*
X7703363Y8722203D1*
X7691103Y8742050D1*
X7680413Y8762783D1*
X7671357Y8784280D1*
X7663987Y8806413D1*
X7658343Y8829050D1*
X7654467Y8852053D1*
X7652377Y8875287D1*
X7652087Y8898610D1*
X7653597Y8921890D1*
X7656900Y8944983D1*
X7661977Y8967750D1*
X7668793Y8990060D1*
X7677313Y9011777D1*
X7687483Y9032770D1*
X7699243Y9052917D1*
X7712523Y9072093D1*
X7727247Y9090190D1*
X7743320Y9107097D1*
X7760650Y9122710D1*
X7779133Y9136943D1*
X7798660Y9149703D1*
X7819117Y9160920D1*
X7840373Y9170523D1*
X7862310Y9178457D1*
X7884797Y9184673D1*
X7907693Y9189137D1*
X7930863Y9191820D1*
X7954177Y9192707D1*
X7977483Y9191790D1*
X8000653Y9189080D1*
X8023543Y9184587D1*
X8046020Y9178340D1*
X8067947Y9170377D1*
X8089193Y9160747D1*
X8109633Y9149507D1*
X8129147Y9136720D1*
X8147610Y9122467D1*
X8164923Y9106830D1*
X8180973Y9089903D1*
X8195673Y9071787D1*
X8208930Y9052593D1*
X8220663Y9032430D1*
X8230807Y9011423D1*
X8239300Y8989697D1*
X8246087Y8967380D1*
X8251133Y8944603D1*
X8254410Y8921507D1*
X8255983Y8890707D1*
X8255083Y8867397D1*
X8252383Y8844227D1*
X8247907Y8821333D1*
X8241677Y8798853D1*
X8233727Y8776920D1*
X8224110Y8755667D1*
X8212880Y8735220D1*
X8200107Y8715700D1*
X8185867Y8697227D1*
X8170240Y8679907D1*
X8153323Y8663843D1*
X8126900Y8643380D1*
X9110930Y8643767D1*
X9124733Y8645707D1*
X9137680Y8650937D1*
X9147257Y8657337D1*
X9157030Y8667273D1*
X9164117Y8679307D1*
X9167817Y8690213D1*
X9169400Y8702240D1*
X9169740Y8774060D1*
Y9068917D1*
X9153133Y9078213D1*
X9138313Y9088117D1*
X9124317Y9099150D1*
X9111227Y9111250D1*
X9099127Y9124340D1*
X9088093Y9138337D1*
X9078190Y9153157D1*
X9069480Y9168707D1*
X9062020Y9184893D1*
X9055850Y9201617D1*
X9051013Y9218770D1*
X9047533Y9236253D1*
X9045440Y9253953D1*
X9044740Y9271763D1*
X9045440Y9289573D1*
X9047533Y9307273D1*
X9051013Y9324757D1*
X9055850Y9341910D1*
X9062020Y9358633D1*
X9069480Y9374820D1*
X9078190Y9390370D1*
X9088093Y9405190D1*
X9099127Y9419187D1*
X9111227Y9432277D1*
X9124317Y9444377D1*
X9138313Y9455410D1*
X9153133Y9465313D1*
X9168683Y9474023D1*
X9184870Y9481483D1*
X9201593Y9487653D1*
X9218747Y9492490D1*
X9236230Y9495970D1*
X9253930Y9498063D1*
X9271740Y9498763D1*
X9289550Y9498063D1*
X9307250Y9495970D1*
X9324733Y9492490D1*
X9341887Y9487653D1*
X9358610Y9481483D1*
X9374797Y9474023D1*
X9390347Y9465313D1*
X9405167Y9455410D1*
X9419163Y9444377D1*
X9432253Y9432277D1*
X9444353Y9419187D1*
X9455387Y9405190D1*
X9465290Y9390370D1*
X9478050Y9366030D1*
X9490987Y9390390D1*
X9500890Y9405210D1*
X9511923Y9419207D1*
X9524023Y9432297D1*
X9537113Y9444397D1*
X9551110Y9455430D1*
X9565930Y9465333D1*
X9581480Y9474043D1*
X9597667Y9481503D1*
X9614390Y9487673D1*
X9631543Y9492510D1*
X9649027Y9495990D1*
X9666727Y9498083D1*
X9684537Y9498783D1*
X9702347Y9498083D1*
X9720047Y9495990D1*
X9737530Y9492510D1*
X9754683Y9487673D1*
X9771407Y9481503D1*
X9787593Y9474043D1*
X9803143Y9465333D1*
X9817963Y9455430D1*
X9831960Y9444397D1*
X9845050Y9432297D1*
X9857150Y9419207D1*
X9868183Y9405210D1*
X9878087Y9390390D1*
X9890847Y9366050D1*
X9903780Y9390390D1*
X9913683Y9405210D1*
X9924717Y9419207D1*
X9936817Y9432297D1*
X9949907Y9444397D1*
X9963903Y9455430D1*
X9978723Y9465333D1*
X9994273Y9474043D1*
X10010460Y9481503D1*
X10027183Y9487673D1*
X10044337Y9492510D1*
X10061820Y9495990D1*
X10079520Y9498083D1*
X10097330Y9498783D1*
X10115140Y9498083D1*
X10132840Y9495990D1*
X10150323Y9492510D1*
X10167477Y9487673D1*
X10184200Y9481503D1*
X10200387Y9474043D1*
X10215937Y9465333D1*
X10230757Y9455430D1*
X10244753Y9444397D1*
X10257843Y9432297D1*
X10269943Y9419207D1*
X10280977Y9405210D1*
X10290880Y9390390D1*
X10303640Y9366050D1*
X10316573Y9390390D1*
X10326477Y9405210D1*
X10337510Y9419207D1*
X10349610Y9432297D1*
X10362700Y9444397D1*
X10376697Y9455430D1*
X10391517Y9465333D1*
X10407067Y9474043D1*
X10423253Y9481503D1*
X10439977Y9487673D1*
X10457130Y9492510D1*
X10474613Y9495990D1*
X10492313Y9498083D1*
X10510123Y9498783D1*
X10527933Y9498083D1*
X10545633Y9495990D1*
X10563117Y9492510D1*
X10580270Y9487673D1*
X10596993Y9481503D1*
X10613180Y9474043D1*
X10628730Y9465333D1*
X10643550Y9455430D1*
X10657547Y9444397D1*
X10670637Y9432297D1*
X10682737Y9419207D1*
X10693770Y9405210D1*
X10703673Y9390390D1*
X10712383Y9374840D1*
X10719843Y9358653D1*
X10726013Y9341930D1*
X10730850Y9324777D1*
X10734330Y9307293D1*
X10736423Y9289593D1*
X10737123Y9271783D1*
X10736423Y9253973D1*
X10734330Y9236273D1*
X10730850Y9218790D1*
X10726013Y9201637D1*
X10719843Y9184913D1*
X10712383Y9168727D1*
X10703673Y9153177D1*
X10693770Y9138357D1*
X10682737Y9124360D1*
X10670637Y9111270D1*
X10657547Y9099170D1*
X10643550Y9088137D1*
X10628730Y9078233D1*
X10612103Y9069030D1*
X10612120Y8668417D1*
X10608613Y8616480D1*
X10598543Y8566767D1*
X10582070Y8518793D1*
X10559473Y8473383D1*
X10531147Y8431307D1*
X10497567Y8393290D1*
X10459317Y8359980D1*
X10417040Y8331950D1*
X10371470Y8309673D1*
X10323383Y8293540D1*
X10294230Y8287600D1*
X10301190Y8265223D1*
X10305533Y8237790D1*
Y8210017D1*
X10301190Y8182583D1*
X10292607Y8156170D1*
X10279997Y8131420D1*
X10263673Y8108950D1*
X10244033Y8089310D1*
X10221563Y8072987D1*
X10198640Y8061217D1*
X10183617Y8038900D1*
X10163357Y8015740D1*
X10140223Y7995447D1*
X10114623Y7978373D1*
X10086997Y7964817D1*
X10057830Y7955013D1*
X10027627Y7949130D1*
X10005230Y7947503D1*
X10020413Y7935460D1*
X10062727Y7896447D1*
X10101013Y7853473D1*
X10134903Y7806953D1*
X10164070Y7757333D1*
X10188237Y7705097D1*
X10207163Y7650743D1*
X10220670Y7594793D1*
X10228630Y7537790D1*
X10231087Y7485287D1*
X10231080Y6526887D1*
X10244033Y6516803D1*
X10263673Y6497163D1*
X10279997Y6474693D1*
X10292607Y6449943D1*
X10301190Y6423530D1*
X10305533Y6396097D1*
Y6368323D1*
X11355507Y6377543D2*
X11353733Y6358973D1*
X11349620Y6340780D1*
X11343237Y6323250D1*
X11334687Y6306673D1*
X11324107Y6291310D1*
X11311663Y6277410D1*
X11297560Y6265200D1*
X11282027Y6254873D1*
X11265310Y6246597D1*
X11247677Y6240503D1*
X11229417Y6236693D1*
X11210820Y6235227D1*
X11192187Y6236127D1*
X11173820Y6239380D1*
X11156010Y6244930D1*
X11139050Y6252693D1*
X11123207Y6262543D1*
X11108740Y6274317D1*
X11095880Y6287830D1*
X11084833Y6302863D1*
X11075780Y6319173D1*
X11068867Y6336500D1*
X11064203Y6354560D1*
X11061863Y6373070D1*
X11061887Y6391723D1*
X11064273Y6410223D1*
X11068983Y6428273D1*
X11075940Y6445580D1*
X11085033Y6461870D1*
X11096117Y6476873D1*
X11109010Y6490353D1*
X11123510Y6502093D1*
X11139377Y6511900D1*
X11156357Y6519620D1*
X11174180Y6525130D1*
X11192557Y6528333D1*
X11211193Y6529187D1*
X11229783Y6527673D1*
X11248037Y6523817D1*
X11265650Y6517680D1*
X11282347Y6509360D1*
X11297857Y6498993D1*
X11311927Y6486747D1*
X11324333Y6472817D1*
X11334877Y6457430D1*
X11343387Y6440830D1*
X11349727Y6423283D1*
X11353790Y6405077D1*
X11355517Y6386503D1*
X11355507Y6377543D1*
X8688440Y6345743D2*
X8686667Y6327173D1*
X8682553Y6308980D1*
X8676170Y6291450D1*
X8667620Y6274873D1*
X8657040Y6259510D1*
X8644597Y6245610D1*
X8630493Y6233400D1*
X8614960Y6223073D1*
X8598243Y6214797D1*
X8580610Y6208703D1*
X8562350Y6204893D1*
X8543753Y6203427D1*
X8525120Y6204327D1*
X8506753Y6207580D1*
X8488943Y6213130D1*
X8471983Y6220893D1*
X8456140Y6230743D1*
X8441673Y6242517D1*
X8428813Y6256030D1*
X8417767Y6271063D1*
X8408713Y6287373D1*
X8401800Y6304700D1*
X8397137Y6322760D1*
X8394797Y6341270D1*
X8394820Y6359923D1*
X8397207Y6378423D1*
X8401917Y6396473D1*
X8408873Y6413780D1*
X8417967Y6430070D1*
X8429050Y6445073D1*
X8441943Y6458553D1*
X8456443Y6470293D1*
X8472310Y6480100D1*
X8489290Y6487820D1*
X8507113Y6493330D1*
X8525490Y6496533D1*
X8544127Y6497387D1*
X8562717Y6495873D1*
X8580970Y6492017D1*
X8598583Y6485880D1*
X8615280Y6477560D1*
X8630790Y6467193D1*
X8644860Y6454947D1*
X8657267Y6441017D1*
X8667810Y6425630D1*
X8676320Y6409030D1*
X8682660Y6391483D1*
X8686723Y6373277D1*
X8688450Y6354703D1*
X8688440Y6345743D1*
X5996133Y8018947D2*
Y7919523D1*
X6009087Y7911520D1*
X6021260Y7901127D1*
X6031653Y7888953D1*
X6040017Y7875307D1*
X6046140Y7860520D1*
X6049877Y7844957D1*
X6051133Y7828970D1*
Y7756720D1*
X6098893Y7757370D1*
X6116567Y7759200D1*
X6133853Y7763320D1*
X6150450Y7769660D1*
X6166080Y7778113D1*
X6180473Y7788533D1*
X6193383Y7800743D1*
X6204587Y7814537D1*
X6213893Y7829673D1*
X6221147Y7845893D1*
X6226220Y7862923D1*
X6229030Y7880467D1*
X6230183Y7898087D1*
X6230657Y7965933D1*
X6234387Y7989493D1*
X6241760Y8012177D1*
X6252590Y8033427D1*
X6266610Y8052723D1*
X6283477Y8069587D1*
X6302773Y8083607D1*
X6324027Y8094433D1*
X6346710Y8101803D1*
X6370270Y8105533D1*
X6394120Y8105530D1*
X6417680Y8101800D1*
X6440363Y8094427D1*
X6461613Y8083597D1*
X6480910Y8069577D1*
X6497773Y8052710D1*
X6511793Y8033413D1*
X6522620Y8012160D1*
X6529990Y7989477D1*
X6533720Y7965917D1*
X6534183Y7907327D1*
X6533367Y7875653D1*
X6532840Y7867627D1*
X6543930Y7883743D1*
X6574903Y7918900D1*
X6610243Y7949663D1*
X6649333Y7975500D1*
X6691487Y7995957D1*
X6735973Y8010673D1*
X6782007Y8019397D1*
X6820787Y8021820D1*
X6905210Y8021993D1*
X6916883Y8026510D1*
X6933973Y8030613D1*
X6951493Y8031993D1*
X6969013Y8030613D1*
X6986103Y8026510D1*
X7002340Y8019787D1*
X7017327Y8010603D1*
X7030690Y7999190D1*
X7042103Y7985827D1*
X7051287Y7970840D1*
X7058010Y7954603D1*
X7062113Y7937513D1*
X7062803Y7931680D1*
X7077703Y7919190D1*
X7089117Y7905827D1*
X7098300Y7890840D1*
X7105023Y7874603D1*
X7109127Y7857513D1*
X7110507Y7839993D1*
X7109127Y7822473D1*
X7105023Y7805383D1*
X7098300Y7789147D1*
X7089117Y7774160D1*
X7077703Y7760797D1*
X7064340Y7749383D1*
X7049353Y7740200D1*
X7033117Y7733477D1*
X7016027Y7729373D1*
X6998507Y7727993D1*
X6980987Y7729373D1*
X6963897Y7733477D1*
X6951840Y7737993D1*
X6855040Y7737567D1*
X6843593Y7736407D1*
X6832397Y7733760D1*
X6821643Y7729673D1*
X6811517Y7724217D1*
X6802190Y7717483D1*
X6793823Y7709587D1*
X6786563Y7700667D1*
X6780530Y7690870D1*
X6775827Y7680370D1*
X6772540Y7669347D1*
X6770720Y7657987D1*
X6769967Y7626343D1*
X6769750Y6693073D1*
X6766813Y6650453D1*
X6758273Y6605907D1*
X6752413Y6585910D1*
X6740950Y6552583D1*
X6721173Y6511767D1*
X6710337Y6493970D1*
X6688993Y6462600D1*
X6657327Y6426493D1*
X6623433Y6396350D1*
X6606610Y6384057D1*
X6577230Y6364590D1*
X6546957Y6349313D1*
X6539893Y6333607D1*
X6525383Y6309927D1*
X6507343Y6288807D1*
X6486223Y6270767D1*
X6462543Y6256257D1*
X6436883Y6245627D1*
X6409877Y6239143D1*
X6382187Y6236963D1*
X6354497Y6239143D1*
X6327490Y6245627D1*
X6301830Y6256257D1*
X6278150Y6270767D1*
X6257030Y6288807D1*
X6238990Y6309927D1*
X6224480Y6333607D1*
X6213850Y6359267D1*
X6207367Y6386273D1*
X6205187Y6413963D1*
X6207367Y6441653D1*
X6213850Y6468660D1*
X6224480Y6494320D1*
X6238990Y6518000D1*
X6257030Y6539120D1*
X6269237Y6550133D1*
X5981197Y6549623D1*
X5967663Y6548197D1*
X5954430Y6545017D1*
X5941727Y6540137D1*
X5929770Y6533640D1*
X5918763Y6525640D1*
X5908893Y6516270D1*
X5902620Y6509117D1*
X5913453Y6497117D1*
X5929777Y6474647D1*
X5942387Y6449897D1*
X5950970Y6423483D1*
X5955313Y6396050D1*
Y6368277D1*
X5950970Y6340843D1*
X5942387Y6314430D1*
X5929777Y6289680D1*
X5913453Y6267210D1*
X5893813Y6247570D1*
X5871343Y6231247D1*
X5846593Y6218637D1*
X5820180Y6210053D1*
X5792747Y6205710D1*
X5764973D1*
X5737540Y6210053D1*
X5711127Y6218637D1*
X5686377Y6231247D1*
X5663907Y6247570D1*
X5644267Y6267210D1*
X5627943Y6289680D1*
X5615333Y6314430D1*
X5606750Y6340843D1*
X5602407Y6368277D1*
Y6396050D1*
X5606750Y6423483D1*
X5615333Y6449897D1*
X5627943Y6474647D1*
X5644267Y6497117D1*
X5663907Y6516757D1*
X5686377Y6533080D1*
X5690500Y6535390D1*
X5700873Y6564963D1*
X5718877Y6601067D1*
X5741440Y6634513D1*
X5768177Y6664727D1*
X5798627Y6691193D1*
X5832270Y6713460D1*
X5868533Y6731143D1*
X5906793Y6743943D1*
X5946400Y6751640D1*
X5978663Y6753893D1*
X6395230Y6754113D1*
X6410387Y6755430D1*
X6423920Y6759057D1*
X6434733Y6764033D1*
X6444460Y6770917D1*
X6454370Y6780827D1*
X6461247Y6790540D1*
X6466230Y6801367D1*
X6469857Y6814900D1*
X6471170Y6830030D1*
X6469930Y7664463D1*
X6444377Y7626597D1*
X6412050Y7589023D1*
X6397930Y7574897D1*
X6363447Y7544933D1*
X6322493Y7517007D1*
X6305200Y7507017D1*
X6260417Y7485463D1*
X6209667Y7468237D1*
X6161147Y7458110D1*
X6141347Y7455500D1*
X6093763Y7452710D1*
X5584017Y7452713D1*
X5583957Y7252713D1*
X5179957D1*
Y7277777D1*
X4990710Y7277713D1*
X5000967Y7261717D1*
X5015040Y7246647D1*
X5027233Y7236807D1*
X5040607Y7228647D1*
X5054933Y7222303D1*
X5069963Y7217880D1*
X5085443Y7215460D1*
X5119510Y7214537D1*
X5735120Y7214910D1*
X5748780Y7216710D1*
X5759903Y7220160D1*
X5770183Y7225577D1*
X5781113Y7233960D1*
X5789023Y7242513D1*
X5795217Y7252343D1*
X5800490Y7265070D1*
X5802810Y7275147D1*
X5796980Y7292787D1*
X5794233Y7310147D1*
Y7327720D1*
X5796980Y7345080D1*
X5802413Y7361793D1*
X5810390Y7377453D1*
X5820720Y7391670D1*
X5833150Y7404100D1*
X5847367Y7414430D1*
X5863027Y7422407D1*
X5879740Y7427840D1*
X5897100Y7430587D1*
X5914673D1*
X5932033Y7427840D1*
X5948747Y7422407D1*
X5964407Y7414430D1*
X5978623Y7404100D1*
X5991053Y7391670D1*
X5992477Y7389863D1*
X6006133Y7399680D1*
X6021793Y7407657D1*
X6038507Y7413090D1*
X6055867Y7415837D1*
X6073440D1*
X6090800Y7413090D1*
X6107513Y7407657D1*
X6123173Y7399680D1*
X6137390Y7389350D1*
X6149820Y7376920D1*
X6160150Y7362703D1*
X6168127Y7347043D1*
X6173560Y7330330D1*
X6176307Y7312970D1*
Y7295397D1*
X6173560Y7278037D1*
X6168127Y7261323D1*
X6162583Y7250010D1*
X6153580Y7206317D1*
X6137723Y7160170D1*
X6115983Y7116490D1*
X6088727Y7076017D1*
X6056420Y7039450D1*
X6019617Y7007413D1*
X5978947Y6980453D1*
X5935107Y6959033D1*
X5888843Y6943520D1*
X5843633Y6934527D1*
X5800260Y6931370D1*
X5210287Y6931153D1*
X4937380D1*
X4881307Y6934930D1*
X4827530Y6945810D1*
X4775633Y6963613D1*
X4726507Y6988040D1*
X4680987Y7018673D1*
X4639853Y7054983D1*
X4603810Y7096350D1*
X4573480Y7142070D1*
X4549373Y7191357D1*
X4531907Y7243367D1*
X4524930Y7277720D1*
X4442957Y7277713D1*
Y7931713D1*
X5180007D1*
X5179957Y7956713D1*
X5583957D1*
Y7756647D1*
X5697047Y7756713D1*
X5697447Y7837003D1*
X5699950Y7852810D1*
X5704897Y7868033D1*
X5712163Y7882293D1*
X5721573Y7895243D1*
X5732890Y7906560D1*
X5745867Y7915983D1*
X5752133Y7921667D1*
X5752713Y8026353D1*
X5755710Y8036987D1*
X5761110Y8046627D1*
X5768610Y8054740D1*
X5777797Y8060877D1*
X5788160Y8064700D1*
X5799147Y8066000D1*
X5956487Y8065420D1*
X5967120Y8062423D1*
X5976760Y8057023D1*
X5984873Y8049523D1*
X5991010Y8040337D1*
X5994833Y8029973D1*
X5996133Y8018987D1*
X6051133Y7779030D2*
Y7778970D1*
X5697133D2*
Y7779030D1*
X2763940Y5422847D2*
X2753980Y5409900D1*
X2734340Y5390260D1*
X2711870Y5373937D1*
X2687120Y5361327D1*
X2685237Y5360630D1*
X4387257Y5360617D1*
X4387547Y5560563D1*
X4391293Y5577923D1*
X4395393Y5585303D1*
X4404933Y5598337D1*
X4420393Y5608943D1*
X4427740Y5611653D1*
X4444263Y5614623D1*
X4703183Y5614333D1*
X4720543Y5610587D1*
X4727923Y5606487D1*
X4740957Y5596947D1*
X4751563Y5581487D1*
X4754270Y5574150D1*
X4757243Y5557617D1*
X4757263Y5360590D1*
X8388213Y5360617D1*
X8388467Y5560563D1*
X8392213Y5577923D1*
X8396313Y5585303D1*
X8405853Y5598337D1*
X8421313Y5608943D1*
X8428660Y5611653D1*
X8445183Y5614623D1*
X8704103Y5614333D1*
X8721463Y5610587D1*
X8728843Y5606487D1*
X8741877Y5596947D1*
X8752483Y5581487D1*
X8755193Y5574140D1*
X8758163Y5557617D1*
X8758183Y5360590D1*
X12071583Y5360597D1*
X12071540Y8213527D1*
X11570537Y8213607D1*
X11522793Y8217837D1*
X11472107Y8237233D1*
X11428797Y8269940D1*
X11396273Y8313387D1*
X11377093Y8364157D1*
X11372967Y8412993D1*
X11373047Y9259203D1*
X11377273Y9306947D1*
X11396270Y9356917D1*
X11428017Y9399527D1*
X11450383Y9416987D1*
X11472820Y9433470D1*
X11523590Y9452650D1*
X11572427Y9456777D1*
X12071527D1*
X12071543Y9547260D1*
X8758143Y9547193D1*
X8757873Y9347247D1*
X8754127Y9329887D1*
X8750027Y9322507D1*
X8740487Y9309473D1*
X8725027Y9298867D1*
X8717680Y9296157D1*
X8701157Y9293187D1*
X8442237Y9293477D1*
X8424877Y9297223D1*
X8417497Y9301323D1*
X8404463Y9310863D1*
X8393857Y9326323D1*
X8391147Y9333670D1*
X8388177Y9350193D1*
X8388157Y9547220D1*
X4757207Y9547193D1*
X4756953Y9347247D1*
X4753207Y9329887D1*
X4749107Y9322507D1*
X4739567Y9309473D1*
X4724107Y9298867D1*
X4716760Y9296157D1*
X4700237Y9293187D1*
X4441317Y9293477D1*
X4423957Y9297223D1*
X4416577Y9301323D1*
X4403543Y9310863D1*
X4392937Y9326323D1*
X4390227Y9333670D1*
X4387257Y9350193D1*
X4387237Y9547220D1*
X1057980Y9547193D1*
X1058000Y9213900D1*
X1073803Y9241497D1*
X1087063Y9260690D1*
X1101657Y9278887D1*
X1117513Y9296000D1*
X1134547Y9311937D1*
X1152677Y9326620D1*
X1171803Y9339973D1*
X1191837Y9351930D1*
X1212670Y9362427D1*
X1234200Y9371410D1*
X1256313Y9378837D1*
X1278900Y9384670D1*
X1301847Y9388877D1*
X1325033Y9391437D1*
X1348347Y9392337D1*
X1371660Y9391570D1*
X1394863Y9389147D1*
X1417833Y9385073D1*
X1440453Y9379373D1*
X1462613Y9372077D1*
X1484193Y9363217D1*
X1505087Y9352840D1*
X1525187Y9341003D1*
X1544393Y9327760D1*
X1562607Y9313183D1*
X1579733Y9297343D1*
X1595690Y9280323D1*
X1610390Y9262210D1*
X1623760Y9243097D1*
X1635737Y9223073D1*
X1646253Y9202250D1*
X1655260Y9180730D1*
X1662707Y9158623D1*
X1668560Y9136043D1*
X1672790Y9113100D1*
X1675370Y9089917D1*
X1676297Y9065337D1*
X1675463Y9042023D1*
X1672973Y9018827D1*
X1668833Y8995870D1*
X1663067Y8973267D1*
X1655703Y8951130D1*
X1646783Y8929573D1*
X1636347Y8908710D1*
X1624450Y8888643D1*
X1611150Y8869477D1*
X1596520Y8851307D1*
X1580633Y8834223D1*
X1563567Y8818320D1*
X1545410Y8803673D1*
X1526257Y8790357D1*
X1506200Y8778440D1*
X1485347Y8767983D1*
X1463800Y8759040D1*
X1441673Y8751657D1*
X1419073Y8745867D1*
X1396120Y8741707D1*
X1372927Y8739190D1*
X1349613Y8738337D1*
X1326300Y8739147D1*
X1303103Y8741617D1*
X1280140Y8745733D1*
X1257530Y8751477D1*
X1235387Y8758820D1*
X1213823Y8767720D1*
X1192950Y8778137D1*
X1172870Y8790013D1*
X1153690Y8803293D1*
X1135507Y8817903D1*
X1118410Y8833777D1*
X1102487Y8850827D1*
X1087823Y8868970D1*
X1074487Y8888110D1*
X1058010Y8917193D1*
X1058000Y7102780D1*
X1070603Y7112843D1*
X1094283Y7127353D1*
X1119943Y7137983D1*
X1146950Y7144467D1*
X1174640Y7146647D1*
X1202330Y7144467D1*
X1229337Y7137983D1*
X1254997Y7127353D1*
X1278677Y7112843D1*
X1299797Y7094803D1*
X1317837Y7073683D1*
X1319193Y7071653D1*
X1556883Y7071943D1*
X1582893Y7073807D1*
X1608440Y7079050D1*
X1633083Y7087580D1*
X1656400Y7099257D1*
X1677997Y7113873D1*
X1697500Y7131187D1*
X1714573Y7150897D1*
X1728930Y7172667D1*
X1740323Y7196123D1*
X1748557Y7220870D1*
X1753490Y7246477D1*
X1755333Y7274623D1*
X1755553Y7663437D1*
X1758940Y7710230D1*
X1768603Y7758803D1*
X1783367Y7803270D1*
X1791920Y7822600D1*
X1808163Y7855223D1*
X1833933Y7894353D1*
X1847200Y7910810D1*
X1871333Y7938117D1*
X1906350Y7969243D1*
X1923423Y7981707D1*
X1953803Y8001837D1*
X1995683Y8022840D1*
X2015400Y8030460D1*
X2049953Y8042040D1*
X2095847Y8051490D1*
X2116863Y8053743D1*
X2154570Y8055997D1*
X3098073Y8056240D1*
X3119690Y8057700D1*
X3140930Y8061967D1*
X3161433Y8068970D1*
X3180843Y8078590D1*
X3198837Y8090663D1*
X3215097Y8104980D1*
X3229350Y8121297D1*
X3241350Y8139333D1*
X3250897Y8158780D1*
X3257820Y8179310D1*
X3262003Y8200567D1*
X3263617Y8225180D1*
X3263840Y8447337D1*
X3266413Y8484460D1*
X3275060Y8528840D1*
X3289430Y8571710D1*
X3309270Y8612337D1*
X3334247Y8650027D1*
X3363927Y8684137D1*
X3397803Y8714080D1*
X3435300Y8739343D1*
X3475773Y8759497D1*
X3518533Y8774197D1*
X3562843Y8783187D1*
X3602540Y8786103D1*
X3842617Y8786327D1*
X4147157Y8785880D1*
X4174333Y8783223D1*
X4196683Y8778637D1*
X4225920Y8768897D1*
X4248910Y8757913D1*
X4266277Y8747357D1*
X4285580Y8733410D1*
X4302637Y8718263D1*
X4323087Y8695210D1*
X4340353Y8669683D1*
X4354140Y8642123D1*
X4364210Y8612997D1*
X4370393Y8582807D1*
X4372367Y8557473D1*
X4379497Y8535830D1*
X4382243Y8518470D1*
Y8500897D1*
X4379497Y8483537D1*
X4374063Y8466823D1*
X4366087Y8451163D1*
X4355757Y8436947D1*
X4343327Y8424517D1*
X4329110Y8414187D1*
X4313450Y8406210D1*
X4296737Y8400777D1*
X4279377Y8398030D1*
X4261803D1*
X4244443Y8400777D1*
X4227730Y8406210D1*
X4212070Y8414187D1*
X4197853Y8424517D1*
X4185423Y8436947D1*
X4175093Y8451163D1*
X4167117Y8466823D1*
X4161683Y8483537D1*
X4158937Y8500897D1*
Y8518470D1*
X4161683Y8535830D1*
X4167117Y8552543D1*
X4168043Y8555133D1*
X4165850Y8563017D1*
X4161690Y8570063D1*
X4155847Y8575793D1*
X4148720Y8579817D1*
X4140793Y8581860D1*
X4090333Y8582327D1*
X3609593Y8582127D1*
X3590833Y8580900D1*
X3572687Y8577290D1*
X3555167Y8571347D1*
X3538573Y8563163D1*
X3523187Y8552887D1*
X3509277Y8540690D1*
X3497077Y8526780D1*
X3486797Y8511397D1*
X3478610Y8494807D1*
X3472663Y8477287D1*
X3469050Y8459140D1*
X3467620Y8437350D1*
Y8221837D1*
X3464267Y8172237D1*
X3454653Y8124820D1*
X3439970Y8081560D1*
X3421213Y8042820D1*
X3410650Y8025440D1*
X3390347Y7995630D1*
X3358313Y7959373D1*
X3321823Y7927607D1*
X3281497Y7900880D1*
X3238030Y7879640D1*
X3192160Y7864260D1*
X3144673Y7854997D1*
X3104393Y7852217D1*
X2514420Y7851997D1*
X2153480Y7851707D1*
X2128047Y7849897D1*
X2103063Y7844783D1*
X2078963Y7836450D1*
X2056157Y7825047D1*
X2035033Y7810760D1*
X2015953Y7793840D1*
X1999250Y7774577D1*
X1985200Y7753293D1*
X1974050Y7730363D1*
X1965987Y7706170D1*
X1961153Y7681133D1*
X1959337Y7653400D1*
Y7271273D1*
X1955693Y7217263D1*
X1945220Y7165513D1*
X1928077Y7115573D1*
X1904563Y7068297D1*
X1875083Y7024493D1*
X1840133Y6984917D1*
X1800320Y6950237D1*
X1756320Y6921053D1*
X1708887Y6897860D1*
X1658830Y6881057D1*
X1607013Y6870933D1*
X1562320Y6867863D1*
X1319340Y6867647D1*
X1309233Y6854693D1*
X1289593Y6835053D1*
X1267123Y6818730D1*
X1242373Y6806120D1*
X1215960Y6797537D1*
X1188527Y6793193D1*
X1160753D1*
X1133320Y6797537D1*
X1106907Y6806120D1*
X1082157Y6818730D1*
X1059687Y6835053D1*
X1057973Y6836640D1*
X1058000Y5360617D1*
X2553403D1*
X2539030Y5367147D1*
X2515350Y5381657D1*
X2494230Y5399697D1*
X2476190Y5420817D1*
X2461680Y5444497D1*
X2451050Y5470157D1*
X2444567Y5497163D1*
X2442387Y5524853D1*
X2444567Y5552543D1*
X2451050Y5579550D1*
X2461680Y5605210D1*
X2476190Y5628890D1*
X2494230Y5650010D1*
X2515350Y5668050D1*
X2539030Y5682560D1*
X2564690Y5693190D1*
X2591697Y5699673D1*
X2619387Y5701853D1*
X2647077Y5699673D1*
X2674083Y5693190D1*
X2699743Y5682560D1*
X2723423Y5668050D1*
X2744543Y5650010D1*
X2762583Y5628890D1*
X2763940Y5626860D1*
X2897233Y5626863D1*
X2942040Y5628460D1*
X2984807Y5633050D1*
X3027140Y5640680D1*
X3068820Y5651310D1*
X3109633Y5664887D1*
X3149377Y5681343D1*
X3187843Y5700590D1*
X3224837Y5722533D1*
X3260173Y5747060D1*
X3293670Y5774047D1*
X3325157Y5803353D1*
X3354470Y5834830D1*
X3381463Y5868320D1*
X3406000Y5903647D1*
X3427953Y5940637D1*
X3447213Y5979100D1*
X3463677Y6018837D1*
X3477267Y6059650D1*
X3487910Y6101323D1*
X3495550Y6143653D1*
X3500153Y6186420D1*
X3501760Y6252833D1*
X3501800Y6887890D1*
X3503527Y6954473D1*
X3508677Y7023303D1*
X3518027Y7096803D1*
X3529267Y7159757D1*
X3544653Y7227037D1*
X3563390Y7293467D1*
X3585430Y7358873D1*
X3610713Y7423097D1*
X3639177Y7485973D1*
X3670753Y7547347D1*
X3705363Y7607063D1*
X3742917Y7664973D1*
X3783320Y7720933D1*
X3826473Y7774800D1*
X3872270Y7826440D1*
X3920590Y7875723D1*
X3971320Y7922523D1*
X4024323Y7966730D1*
X4079477Y8008230D1*
X4136637Y8046913D1*
X4195660Y8082690D1*
X4256400Y8115470D1*
X4318707Y8145167D1*
X4387153Y8173537D1*
X4447380Y8195033D1*
X4513427Y8215073D1*
X4580393Y8231783D1*
X4648110Y8245123D1*
X4716413Y8255057D1*
X4743673Y8259787D1*
X4759910Y8266510D1*
X4777000Y8270613D1*
X4794520Y8271993D1*
X4812040Y8270613D1*
X4829130Y8266510D1*
X4845367Y8259787D1*
X4860353Y8250603D1*
X4873717Y8239190D1*
X4885130Y8225827D1*
X4894313Y8210840D1*
X4901037Y8194603D1*
X4905140Y8177513D1*
X4906520Y8159993D1*
X4905140Y8142473D1*
X4901037Y8125383D1*
X4894313Y8109147D1*
X4885130Y8094160D1*
X4873717Y8080797D1*
X4860353Y8069383D1*
X4845367Y8060200D1*
X4829130Y8053477D1*
X4812040Y8049373D1*
X4794520Y8047993D1*
X4777000Y8049373D1*
X4758010Y8054177D1*
X4722277Y8049807D1*
X4684573Y8044393D1*
X4626853Y8033130D1*
X4569770Y8018993D1*
X4513463Y8002017D1*
X4458080Y7982247D1*
X4403753Y7959727D1*
X4350620Y7934517D1*
X4298817Y7906680D1*
X4248473Y7876287D1*
X4199713Y7843410D1*
X4152657Y7808137D1*
X4107427Y7770550D1*
X4064133Y7730750D1*
X4022887Y7688833D1*
X3983790Y7644903D1*
X3946937Y7599070D1*
X3912427Y7551453D1*
X3880343Y7502167D1*
X3850763Y7451340D1*
X3823767Y7399093D1*
X3799420Y7345563D1*
X3777780Y7290880D1*
X3758903Y7235183D1*
X3742837Y7178613D1*
X3729623Y7121307D1*
X3719293Y7063413D1*
X3711873Y7005073D1*
X3707380Y6946437D1*
X3705800Y6864513D1*
X3705697Y6225857D1*
X3703383Y6168327D1*
X3696970Y6111107D1*
X3686493Y6054490D1*
X3672003Y5998763D1*
X3653577Y5944213D1*
X3631303Y5891120D1*
X3605300Y5839747D1*
X3575697Y5790363D1*
X3542647Y5743217D1*
X3506317Y5698547D1*
X3466890Y5656583D1*
X3424573Y5617540D1*
X3379580Y5581613D1*
X3332133Y5548990D1*
X3282483Y5519833D1*
X3230880Y5494293D1*
X3184380Y5475037D1*
X3122873Y5454567D1*
X3067020Y5440580D1*
X3010310Y5430617D1*
X2953037Y5424720D1*
X2899133Y5422863D1*
X2763963Y5422860D1*
X2766313Y6599687D2*
X2764540Y6581117D1*
X2760427Y6562923D1*
X2754043Y6545393D1*
X2745493Y6528817D1*
X2734913Y6513453D1*
X2722470Y6499553D1*
X2708367Y6487343D1*
X2692833Y6477017D1*
X2676117Y6468740D1*
X2658483Y6462647D1*
X2640223Y6458837D1*
X2621627Y6457370D1*
X2602993Y6458270D1*
X2584627Y6461523D1*
X2566817Y6467073D1*
X2549857Y6474837D1*
X2534013Y6484687D1*
X2519547Y6496460D1*
X2506687Y6509973D1*
X2495640Y6525007D1*
X2486587Y6541317D1*
X2479673Y6558643D1*
X2475010Y6576703D1*
X2472670Y6595213D1*
X2472693Y6613867D1*
X2475080Y6632367D1*
X2479790Y6650417D1*
X2486747Y6667723D1*
X2495840Y6684013D1*
X2506923Y6699017D1*
X2519817Y6712497D1*
X2534317Y6724237D1*
X2550183Y6734043D1*
X2567163Y6741763D1*
X2584987Y6747273D1*
X2603363Y6750477D1*
X2622000Y6751330D1*
X2640590Y6749817D1*
X2658843Y6745960D1*
X2676457Y6739823D1*
X2693153Y6731503D1*
X2708663Y6721137D1*
X2722733Y6708890D1*
X2735140Y6694960D1*
X2745683Y6679573D1*
X2754193Y6662973D1*
X2760533Y6645427D1*
X2764597Y6627220D1*
X2766323Y6608647D1*
X2766313Y6599687D1*
X12029813Y5632267D2*
X12027503Y5612747D1*
X12023670Y5593467D1*
X12018333Y5574550D1*
X12011530Y5556107D1*
X12003303Y5538257D1*
X11993697Y5521107D1*
X11982777Y5504763D1*
X11970607Y5489327D1*
X11957267Y5474893D1*
X11942833Y5461553D1*
X11927397Y5449383D1*
X11911053Y5438463D1*
X11893903Y5428857D1*
X11876053Y5420630D1*
X11857610Y5413827D1*
X11838693Y5408490D1*
X11819413Y5404657D1*
X11799893Y5402347D1*
X11780253Y5401573D1*
X11760613Y5402347D1*
X11741093Y5404657D1*
X11721813Y5408490D1*
X11702897Y5413827D1*
X11684453Y5420630D1*
X11666603Y5428857D1*
X11649453Y5438463D1*
X11633110Y5449383D1*
X11617673Y5461553D1*
X11603240Y5474893D1*
X11589900Y5489327D1*
X11577730Y5504763D1*
X11566810Y5521107D1*
X11557203Y5538257D1*
X11548977Y5556107D1*
X11542173Y5574550D1*
X11536837Y5593467D1*
X11533003Y5612747D1*
X11530693Y5632267D1*
X11529920Y5651907D1*
X11530693Y5671547D1*
X11533003Y5691067D1*
X11536837Y5710347D1*
X11542173Y5729263D1*
X11548977Y5747707D1*
X11557203Y5765557D1*
X11566810Y5782707D1*
X11577730Y5799050D1*
X11589900Y5814487D1*
X11603240Y5828920D1*
X11617673Y5842260D1*
X11633110Y5854430D1*
X11649453Y5865350D1*
X11666603Y5874957D1*
X11684453Y5883183D1*
X11702897Y5889987D1*
X11721813Y5895323D1*
X11741093Y5899157D1*
X11760613Y5901467D1*
X11780253Y5902240D1*
X11799893Y5901467D1*
X11819413Y5899157D1*
X11838693Y5895323D1*
X11857610Y5889987D1*
X11876053Y5883183D1*
X11893903Y5874957D1*
X11911053Y5865350D1*
X11927397Y5854430D1*
X11942833Y5842260D1*
X11957267Y5828920D1*
X11970607Y5814487D1*
X11982777Y5799050D1*
X11993697Y5782707D1*
X12003303Y5765557D1*
X12011530Y5747707D1*
X12018333Y5729263D1*
X12023670Y5710347D1*
X12027503Y5691067D1*
X12029813Y5671547D1*
X12030587Y5651907D1*
X12029813Y5632267D1*
X1598843Y5616367D2*
X1596533Y5596847D1*
X1592700Y5577567D1*
X1587363Y5558650D1*
X1580560Y5540207D1*
X1572333Y5522357D1*
X1562727Y5505207D1*
X1551807Y5488863D1*
X1539637Y5473427D1*
X1526297Y5458993D1*
X1511863Y5445653D1*
X1496427Y5433483D1*
X1480083Y5422563D1*
X1462933Y5412957D1*
X1445083Y5404730D1*
X1426640Y5397927D1*
X1407723Y5392590D1*
X1388443Y5388757D1*
X1368923Y5386447D1*
X1349283Y5385673D1*
X1329643Y5386447D1*
X1310123Y5388757D1*
X1290843Y5392590D1*
X1271927Y5397927D1*
X1253483Y5404730D1*
X1235633Y5412957D1*
X1218483Y5422563D1*
X1202140Y5433483D1*
X1186703Y5445653D1*
X1172270Y5458993D1*
X1158930Y5473427D1*
X1146760Y5488863D1*
X1135840Y5505207D1*
X1126233Y5522357D1*
X1118007Y5540207D1*
X1111203Y5558650D1*
X1105867Y5577567D1*
X1102033Y5596847D1*
X1099723Y5616367D1*
X1098950Y5636007D1*
X1099723Y5655647D1*
X1102033Y5675167D1*
X1105867Y5694447D1*
X1111203Y5713363D1*
X1118007Y5731807D1*
X1126233Y5749657D1*
X1135840Y5766807D1*
X1146760Y5783150D1*
X1158930Y5798587D1*
X1172270Y5813020D1*
X1186703Y5826360D1*
X1202140Y5838530D1*
X1218483Y5849450D1*
X1235633Y5859057D1*
X1253483Y5867283D1*
X1271927Y5874087D1*
X1290843Y5879423D1*
X1310123Y5883257D1*
X1329643Y5885567D1*
X1349283Y5886340D1*
X1368923Y5885567D1*
X1388443Y5883257D1*
X1407723Y5879423D1*
X1426640Y5874087D1*
X1445083Y5867283D1*
X1462933Y5859057D1*
X1480083Y5849450D1*
X1496427Y5838530D1*
X1511863Y5826360D1*
X1526297Y5813020D1*
X1539637Y5798587D1*
X1551807Y5783150D1*
X1562727Y5766807D1*
X1572333Y5749657D1*
X1580560Y5731807D1*
X1587363Y5713363D1*
X1592700Y5694447D1*
X1596533Y5675167D1*
X1598843Y5655647D1*
X1599617Y5636007D1*
X1598843Y5616367D1*
X6314243Y5632267D2*
X6311933Y5612747D1*
X6308100Y5593467D1*
X6302763Y5574550D1*
X6295960Y5556107D1*
X6287733Y5538257D1*
X6278127Y5521107D1*
X6267207Y5504763D1*
X6255037Y5489327D1*
X6241697Y5474893D1*
X6227263Y5461553D1*
X6211827Y5449383D1*
X6195483Y5438463D1*
X6178333Y5428857D1*
X6160483Y5420630D1*
X6142040Y5413827D1*
X6123123Y5408490D1*
X6103843Y5404657D1*
X6084323Y5402347D1*
X6064683Y5401573D1*
X6045043Y5402347D1*
X6025523Y5404657D1*
X6006243Y5408490D1*
X5987327Y5413827D1*
X5968883Y5420630D1*
X5951033Y5428857D1*
X5933883Y5438463D1*
X5917540Y5449383D1*
X5902103Y5461553D1*
X5887670Y5474893D1*
X5874330Y5489327D1*
X5862160Y5504763D1*
X5851240Y5521107D1*
X5841633Y5538257D1*
X5833407Y5556107D1*
X5826603Y5574550D1*
X5821267Y5593467D1*
X5817433Y5612747D1*
X5815123Y5632267D1*
X5814350Y5651907D1*
X5815123Y5671547D1*
X5817433Y5691067D1*
X5821267Y5710347D1*
X5826603Y5729263D1*
X5833407Y5747707D1*
X5841633Y5765557D1*
X5851240Y5782707D1*
X5862160Y5799050D1*
X5874330Y5814487D1*
X5887670Y5828920D1*
X5902103Y5842260D1*
X5917540Y5854430D1*
X5933883Y5865350D1*
X5951033Y5874957D1*
X5968883Y5883183D1*
X5987327Y5889987D1*
X6006243Y5895323D1*
X6025523Y5899157D1*
X6045043Y5901467D1*
X6064683Y5902240D1*
X6084323Y5901467D1*
X6103843Y5899157D1*
X6123123Y5895323D1*
X6142040Y5889987D1*
X6160483Y5883183D1*
X6178333Y5874957D1*
X6195483Y5865350D1*
X6211827Y5854430D1*
X6227263Y5842260D1*
X6241697Y5828920D1*
X6255037Y5814487D1*
X6267207Y5799050D1*
X6278127Y5782707D1*
X6287733Y5765557D1*
X6295960Y5747707D1*
X6302763Y5729263D1*
X6308100Y5710347D1*
X6311933Y5691067D1*
X6314243Y5671547D1*
X6315017Y5651907D1*
X6314243Y5632267D1*
X6917273Y9137277D2*
X6915113Y9114050D1*
X6911517Y9090997D1*
X6906503Y9068213D1*
X6900090Y9045783D1*
X6892300Y9023793D1*
X6883163Y9002327D1*
X6872720Y8981463D1*
X6861007Y8961290D1*
X6848063Y8941877D1*
X6833950Y8923303D1*
X6818710Y8905637D1*
X6802410Y8888950D1*
X6785107Y8873300D1*
X6766870Y8858750D1*
X6747767Y8845357D1*
X6727873Y8833173D1*
X6707263Y8822240D1*
X6686017Y8812603D1*
X6664213Y8804300D1*
X6641940Y8797363D1*
X6619280Y8791813D1*
X6596320Y8787677D1*
X6573147Y8784970D1*
X6549853Y8783700D1*
X6526523Y8783873D1*
X6503250Y8785490D1*
X6480120Y8788543D1*
X6457227Y8793023D1*
X6434650Y8798907D1*
X6412483Y8806177D1*
X6390807Y8814803D1*
X6369707Y8824757D1*
X6349260Y8835993D1*
X6329550Y8848477D1*
X6310650Y8862150D1*
X6292633Y8876970D1*
X6275563Y8892877D1*
X6259513Y8909807D1*
X6244540Y8927697D1*
X6230703Y8946480D1*
X6218053Y8966080D1*
X6206640Y8986430D1*
X6196507Y9007443D1*
X6187693Y9029043D1*
X6180233Y9051150D1*
X6174153Y9073673D1*
X6169480Y9096530D1*
X6166230Y9119630D1*
X6164413Y9142890D1*
X6164040Y9166217D1*
X6165107Y9189520D1*
X6167617Y9212717D1*
X6171557Y9235710D1*
X6176910Y9258417D1*
X6183657Y9280750D1*
X6191773Y9302623D1*
X6201227Y9323950D1*
X6211980Y9344653D1*
X6223993Y9364653D1*
X6237223Y9383870D1*
X6251613Y9402230D1*
X6267113Y9419667D1*
X6283663Y9436110D1*
X6301197Y9451500D1*
X6319650Y9465777D1*
X6338950Y9478883D1*
X6359023Y9490770D1*
X6379793Y9501393D1*
X6401180Y9510710D1*
X6423103Y9518690D1*
X6445480Y9525297D1*
X6468220Y9530507D1*
X6491237Y9534300D1*
X6514447Y9536660D1*
X6537760Y9537583D1*
X6561083Y9537060D1*
X6584330Y9535097D1*
X6607410Y9531700D1*
X6630237Y9526883D1*
X6652723Y9520660D1*
X6674780Y9513060D1*
X6696323Y9504110D1*
X6717273Y9493847D1*
X6737550Y9482307D1*
X6757070Y9469533D1*
X6775767Y9455577D1*
X6793560Y9440490D1*
X6810390Y9424333D1*
X6826187Y9407163D1*
X6840890Y9389053D1*
X6854447Y9370067D1*
X6866803Y9350277D1*
X6877913Y9329760D1*
X6887730Y9308600D1*
X6896220Y9286870D1*
X6903350Y9264657D1*
X6909093Y9242043D1*
X6913427Y9219120D1*
X6916333Y9195973D1*
X6917997Y9160597D1*
X6917273Y9137277D1*
X5243083Y9285697D2*
X5240990Y9267997D1*
X5237510Y9250513D1*
X5232673Y9233360D1*
X5226503Y9216637D1*
X5219043Y9200450D1*
X5210333Y9184900D1*
X5200430Y9170080D1*
X5189397Y9156083D1*
X5177297Y9142993D1*
X5164207Y9130893D1*
X5150210Y9119860D1*
X5135390Y9109957D1*
X5119840Y9101247D1*
X5103653Y9093787D1*
X5086930Y9087617D1*
X5069777Y9082780D1*
X5052293Y9079300D1*
X5034593Y9077207D1*
X5016783Y9076507D1*
X4998973Y9077207D1*
X4981273Y9079300D1*
X4963790Y9082780D1*
X4946637Y9087617D1*
X4929913Y9093787D1*
X4913727Y9101247D1*
X4898177Y9109957D1*
X4883357Y9119860D1*
X4869360Y9130893D1*
X4856270Y9142993D1*
X4844170Y9156083D1*
X4833137Y9170080D1*
X4823233Y9184900D1*
X4814523Y9200450D1*
X4807063Y9216637D1*
X4800893Y9233360D1*
X4796057Y9250513D1*
X4792577Y9267997D1*
X4790483Y9285697D1*
X4789783Y9303507D1*
X4790483Y9321317D1*
X4792577Y9339017D1*
X4796057Y9356500D1*
X4800893Y9373653D1*
X4807063Y9390377D1*
X4814523Y9406563D1*
X4823233Y9422113D1*
X4833137Y9436933D1*
X4844170Y9450930D1*
X4856270Y9464020D1*
X4869360Y9476120D1*
X4883357Y9487153D1*
X4898177Y9497057D1*
X4913727Y9505767D1*
X4929913Y9513227D1*
X4946637Y9519397D1*
X4963790Y9524233D1*
X4981273Y9527713D1*
X4998973Y9529807D1*
X5016783Y9530507D1*
X5034593Y9529807D1*
X5052293Y9527713D1*
X5069777Y9524233D1*
X5086930Y9519397D1*
X5103653Y9513227D1*
X5119840Y9505767D1*
X5135390Y9497057D1*
X5150210Y9487153D1*
X5164207Y9476120D1*
X5177297Y9464020D1*
X5189397Y9450930D1*
X5200430Y9436933D1*
X5210333Y9422113D1*
X5219043Y9406563D1*
X5226503Y9390377D1*
X5232673Y9373653D1*
X5237510Y9356500D1*
X5240990Y9339017D1*
X5243083Y9321317D1*
X5243783Y9303507D1*
X5243083Y9285697D1*
X6005183D2*
X6003090Y9267997D1*
X5999610Y9250513D1*
X5994773Y9233360D1*
X5988603Y9216637D1*
X5981143Y9200450D1*
X5972433Y9184900D1*
X5962530Y9170080D1*
X5951497Y9156083D1*
X5939397Y9142993D1*
X5926307Y9130893D1*
X5912310Y9119860D1*
X5897490Y9109957D1*
X5881940Y9101247D1*
X5865753Y9093787D1*
X5849030Y9087617D1*
X5831877Y9082780D1*
X5814393Y9079300D1*
X5796693Y9077207D1*
X5778883Y9076507D1*
X5761073Y9077207D1*
X5743373Y9079300D1*
X5725890Y9082780D1*
X5708737Y9087617D1*
X5692013Y9093787D1*
X5675827Y9101247D1*
X5660277Y9109957D1*
X5645457Y9119860D1*
X5631460Y9130893D1*
X5618370Y9142993D1*
X5606270Y9156083D1*
X5595237Y9170080D1*
X5585333Y9184900D1*
X5576623Y9200450D1*
X5569163Y9216637D1*
X5562993Y9233360D1*
X5558157Y9250513D1*
X5554677Y9267997D1*
X5552583Y9285697D1*
X5551883Y9303507D1*
X5552583Y9321317D1*
X5554677Y9339017D1*
X5558157Y9356500D1*
X5562993Y9373653D1*
X5569163Y9390377D1*
X5576623Y9406563D1*
X5585333Y9422113D1*
X5595237Y9436933D1*
X5606270Y9450930D1*
X5618370Y9464020D1*
X5631460Y9476120D1*
X5645457Y9487153D1*
X5660277Y9497057D1*
X5675827Y9505767D1*
X5692013Y9513227D1*
X5708737Y9519397D1*
X5725890Y9524233D1*
X5743373Y9527713D1*
X5761073Y9529807D1*
X5778883Y9530507D1*
X5796693Y9529807D1*
X5814393Y9527713D1*
X5831877Y9524233D1*
X5849030Y9519397D1*
X5865753Y9513227D1*
X5881940Y9505767D1*
X5897490Y9497057D1*
X5912310Y9487153D1*
X5926307Y9476120D1*
X5939397Y9464020D1*
X5951497Y9450930D1*
X5962530Y9436933D1*
X5972433Y9422113D1*
X5981143Y9406563D1*
X5988603Y9390377D1*
X5994773Y9373653D1*
X5999610Y9356500D1*
X6003090Y9339017D1*
X6005183Y9321317D1*
X6005883Y9303507D1*
X6005183Y9285697D1*
X8155943Y6918267D2*
X8153633Y6898747D1*
X8149800Y6879467D1*
X8144463Y6860550D1*
X8137660Y6842107D1*
X8129433Y6824257D1*
X8119827Y6807107D1*
X8108907Y6790763D1*
X8096737Y6775327D1*
X8083397Y6760893D1*
X8068963Y6747553D1*
X8053527Y6735383D1*
X8037183Y6724463D1*
X8020033Y6714857D1*
X8002183Y6706630D1*
X7983740Y6699827D1*
X7964823Y6694490D1*
X7945543Y6690657D1*
X7926023Y6688347D1*
X7906383Y6687573D1*
X7886743Y6688347D1*
X7867223Y6690657D1*
X7847943Y6694490D1*
X7829027Y6699827D1*
X7810583Y6706630D1*
X7792733Y6714857D1*
X7775583Y6724463D1*
X7759240Y6735383D1*
X7743803Y6747553D1*
X7729370Y6760893D1*
X7716030Y6775327D1*
X7703860Y6790763D1*
X7692940Y6807107D1*
X7683333Y6824257D1*
X7675107Y6842107D1*
X7668303Y6860550D1*
X7662967Y6879467D1*
X7659133Y6898747D1*
X7656823Y6918267D1*
X7656050Y6937907D1*
X7656823Y6957547D1*
X7659133Y6977067D1*
X7662967Y6996347D1*
X7668303Y7015263D1*
X7675107Y7033707D1*
X7683333Y7051557D1*
X7692940Y7068707D1*
X7703860Y7085050D1*
X7716030Y7100487D1*
X7729370Y7114920D1*
X7743803Y7128260D1*
X7759240Y7140430D1*
X7775583Y7151350D1*
X7792733Y7160957D1*
X7810583Y7169183D1*
X7829027Y7175987D1*
X7847943Y7181323D1*
X7867223Y7185157D1*
X7886743Y7187467D1*
X7906383Y7188240D1*
X7926023Y7187467D1*
X7945543Y7185157D1*
X7964823Y7181323D1*
X7983740Y7175987D1*
X8002183Y7169183D1*
X8020033Y7160957D1*
X8037183Y7151350D1*
X8053527Y7140430D1*
X8068963Y7128260D1*
X8083397Y7114920D1*
X8096737Y7100487D1*
X8108907Y7085050D1*
X8119827Y7068707D1*
X8129433Y7051557D1*
X8137660Y7033707D1*
X8144463Y7015263D1*
X8149800Y6996347D1*
X8153633Y6977067D1*
X8155943Y6957547D1*
X8156717Y6937907D1*
X8155943Y6918267D1*
X4091543Y8156667D2*
X4089233Y8137147D1*
X4085400Y8117867D1*
X4080063Y8098950D1*
X4073260Y8080507D1*
X4065033Y8062657D1*
X4055427Y8045507D1*
X4044507Y8029163D1*
X4032337Y8013727D1*
X4018997Y7999293D1*
X4004563Y7985953D1*
X3989127Y7973783D1*
X3972783Y7962863D1*
X3955633Y7953257D1*
X3937783Y7945030D1*
X3919340Y7938227D1*
X3900423Y7932890D1*
X3881143Y7929057D1*
X3861623Y7926747D1*
X3841983Y7925973D1*
X3822343Y7926747D1*
X3802823Y7929057D1*
X3783543Y7932890D1*
X3764627Y7938227D1*
X3746183Y7945030D1*
X3728333Y7953257D1*
X3711183Y7962863D1*
X3694840Y7973783D1*
X3679403Y7985953D1*
X3664970Y7999293D1*
X3651630Y8013727D1*
X3639460Y8029163D1*
X3628540Y8045507D1*
X3618933Y8062657D1*
X3610707Y8080507D1*
X3603903Y8098950D1*
X3598567Y8117867D1*
X3594733Y8137147D1*
X3592423Y8156667D1*
X3591650Y8176307D1*
X3592423Y8195947D1*
X3594733Y8215467D1*
X3598567Y8234747D1*
X3603903Y8253663D1*
X3610707Y8272107D1*
X3618933Y8289957D1*
X3628540Y8307107D1*
X3639460Y8323450D1*
X3651630Y8338887D1*
X3664970Y8353320D1*
X3679403Y8366660D1*
X3694840Y8378830D1*
X3711183Y8389750D1*
X3728333Y8399357D1*
X3746183Y8407583D1*
X3764627Y8414387D1*
X3783543Y8419723D1*
X3802823Y8423557D1*
X3822343Y8425867D1*
X3841983Y8426640D1*
X3861623Y8425867D1*
X3881143Y8423557D1*
X3900423Y8419723D1*
X3919340Y8414387D1*
X3937783Y8407583D1*
X3955633Y8399357D1*
X3972783Y8389750D1*
X3989127Y8378830D1*
X4004563Y8366660D1*
X4018997Y8353320D1*
X4032337Y8338887D1*
X4044507Y8323450D1*
X4055427Y8307107D1*
X4065033Y8289957D1*
X4073260Y8272107D1*
X4080063Y8253663D1*
X4085400Y8234747D1*
X4089233Y8215467D1*
X4091543Y8195947D1*
X4092317Y8176307D1*
X4091543Y8156667D1*
X12029843Y7537467D2*
X12027533Y7517947D1*
X12023700Y7498667D1*
X12018363Y7479750D1*
X12011560Y7461307D1*
X12003333Y7443457D1*
X11993727Y7426307D1*
X11982807Y7409963D1*
X11970637Y7394527D1*
X11957297Y7380093D1*
X11942863Y7366753D1*
X11927427Y7354583D1*
X11911083Y7343663D1*
X11893933Y7334057D1*
X11876083Y7325830D1*
X11857640Y7319027D1*
X11838723Y7313690D1*
X11819443Y7309857D1*
X11799923Y7307547D1*
X11780283Y7306773D1*
X11760643Y7307547D1*
X11741123Y7309857D1*
X11721843Y7313690D1*
X11702927Y7319027D1*
X11684483Y7325830D1*
X11666633Y7334057D1*
X11649483Y7343663D1*
X11633140Y7354583D1*
X11617703Y7366753D1*
X11603270Y7380093D1*
X11589930Y7394527D1*
X11577760Y7409963D1*
X11566840Y7426307D1*
X11557233Y7443457D1*
X11549007Y7461307D1*
X11542203Y7479750D1*
X11536867Y7498667D1*
X11533033Y7517947D1*
X11530723Y7537467D1*
X11529950Y7557107D1*
X11530723Y7576747D1*
X11533033Y7596267D1*
X11536867Y7615547D1*
X11542203Y7634463D1*
X11549007Y7652907D1*
X11557233Y7670757D1*
X11566840Y7687907D1*
X11577760Y7704250D1*
X11589930Y7719687D1*
X11603270Y7734120D1*
X11617703Y7747460D1*
X11633140Y7759630D1*
X11649483Y7770550D1*
X11666633Y7780157D1*
X11684483Y7788383D1*
X11702927Y7795187D1*
X11721843Y7800523D1*
X11741123Y7804357D1*
X11760643Y7806667D1*
X11780283Y7807440D1*
X11799923Y7806667D1*
X11819443Y7804357D1*
X11838723Y7800523D1*
X11857640Y7795187D1*
X11876083Y7788383D1*
X11893933Y7780157D1*
X11911083Y7770550D1*
X11927427Y7759630D1*
X11942863Y7747460D1*
X11957297Y7734120D1*
X11970637Y7719687D1*
X11982807Y7704250D1*
X11993727Y7687907D1*
X12003333Y7670757D1*
X12011560Y7652907D1*
X12018363Y7634463D1*
X12023700Y7615547D1*
X12027533Y7596267D1*
X12029843Y7576747D1*
X12030617Y7557107D1*
X12029843Y7537467D1*
X2401067Y6964980D2*
X2399293Y6946410D1*
X2395180Y6928217D1*
X2388797Y6910687D1*
X2380247Y6894110D1*
X2369667Y6878747D1*
X2357223Y6864847D1*
X2343120Y6852637D1*
X2327587Y6842310D1*
X2310870Y6834033D1*
X2293237Y6827940D1*
X2274977Y6824130D1*
X2256380Y6822663D1*
X2237747Y6823563D1*
X2219380Y6826817D1*
X2201570Y6832367D1*
X2184610Y6840130D1*
X2168767Y6849980D1*
X2154300Y6861753D1*
X2141440Y6875267D1*
X2130393Y6890300D1*
X2121340Y6906610D1*
X2114427Y6923937D1*
X2109763Y6941997D1*
X2107423Y6960507D1*
X2107447Y6979160D1*
X2109833Y6997660D1*
X2114543Y7015710D1*
X2121500Y7033017D1*
X2130593Y7049307D1*
X2141677Y7064310D1*
X2154570Y7077790D1*
X2169070Y7089530D1*
X2184937Y7099337D1*
X2201917Y7107057D1*
X2219740Y7112567D1*
X2238117Y7115770D1*
X2256753Y7116623D1*
X2275343Y7115110D1*
X2293597Y7111253D1*
X2311210Y7105117D1*
X2327907Y7096797D1*
X2343417Y7086430D1*
X2357487Y7074183D1*
X2369893Y7060253D1*
X2380437Y7044867D1*
X2388947Y7028267D1*
X2395287Y7010720D1*
X2399350Y6992513D1*
X2401077Y6973940D1*
X2401067Y6964980D1*
X10303640Y9177517D2*
X10290880Y9153177D1*
X10280977Y9138357D1*
X10269943Y9124360D1*
X10257843Y9111270D1*
X10244753Y9099170D1*
X10230757Y9088137D1*
X10215937Y9078233D1*
X10199310Y9069030D1*
X10199330Y8716053D1*
X10196097Y8668260D1*
X10186837Y8622620D1*
X10171697Y8578577D1*
X10150940Y8536890D1*
X10124917Y8498267D1*
X10113187Y8484680D1*
X10225130Y8484940D1*
X10249073Y8486613D1*
X10272597Y8491397D1*
X10295293Y8499213D1*
X10316777Y8509920D1*
X10336680Y8523343D1*
X10354660Y8539247D1*
X10370407Y8557363D1*
X10383657Y8577380D1*
X10394183Y8598953D1*
X10401800Y8621717D1*
X10406383Y8645280D1*
X10408120Y8671770D1*
X10408123Y9069037D1*
X10391517Y9078233D1*
X10376697Y9088137D1*
X10362700Y9099170D1*
X10349610Y9111270D1*
X10337510Y9124360D1*
X10326477Y9138357D1*
X10316573Y9153177D1*
X10303813Y9177517D1*
X9995350Y9069030D2*
X9978723Y9078233D1*
X9963903Y9088137D1*
X9949907Y9099170D1*
X9936817Y9111270D1*
X9924717Y9124360D1*
X9913683Y9138357D1*
X9903780Y9153177D1*
X9891020Y9177517D1*
X9878087Y9153177D1*
X9868183Y9138357D1*
X9857150Y9124360D1*
X9845050Y9111270D1*
X9831960Y9099170D1*
X9817963Y9088137D1*
X9803143Y9078233D1*
X9787593Y9069523D1*
X9771407Y9062063D1*
X9754683Y9055893D1*
X9737530Y9051057D1*
X9720047Y9047577D1*
X9702347Y9045483D1*
X9684537Y9044783D1*
X9666727Y9045483D1*
X9649027Y9047577D1*
X9631543Y9051057D1*
X9614390Y9055893D1*
X9597667Y9062063D1*
X9581480Y9069523D1*
X9565930Y9078233D1*
X9551110Y9088137D1*
X9537113Y9099170D1*
X9524023Y9111270D1*
X9511923Y9124360D1*
X9500890Y9138357D1*
X9490987Y9153177D1*
X9478227Y9177517D1*
X9465290Y9153157D1*
X9455387Y9138337D1*
X9444353Y9124340D1*
X9432253Y9111250D1*
X9419163Y9099150D1*
X9405167Y9088117D1*
X9390347Y9078213D1*
X9373720Y9069010D1*
X9373243Y8693143D1*
X9371643Y8670843D1*
X9365060Y8636860D1*
X9354100Y8604027D1*
X9338947Y8572907D1*
X9333403Y8564047D1*
X9843260Y8564270D1*
X9863130Y8565573D1*
X9882607Y8569447D1*
X9901410Y8575833D1*
X9919217Y8584617D1*
X9935730Y8595650D1*
X9950657Y8608747D1*
X9963750Y8623677D1*
X9974780Y8640190D1*
X9983560Y8658000D1*
X9989943Y8676803D1*
X9993817Y8696280D1*
X9995330Y8719413D1*
Y9068910D1*
X4245263Y5663113D2*
X4243333Y5639873D1*
X4238670Y5617027D1*
X4231340Y5594887D1*
X4221443Y5573773D1*
X4209120Y5553973D1*
X4194547Y5535770D1*
X4177923Y5519417D1*
X4159483Y5505140D1*
X4139487Y5493143D1*
X4118210Y5483593D1*
X4095957Y5476627D1*
X4073033Y5472337D1*
X4049767Y5470787D1*
X4026480Y5471993D1*
X4003497Y5475947D1*
X3981143Y5482587D1*
X3959730Y5491823D1*
X3939557Y5503523D1*
X3920910Y5517527D1*
X3904047Y5533637D1*
X3889207Y5551623D1*
X3876597Y5571240D1*
X3866393Y5592207D1*
X3858737Y5614237D1*
X3853737Y5637013D1*
X3851467Y5660220D1*
X3851950Y5683537D1*
X3855190Y5706630D1*
X3861133Y5729180D1*
X3869700Y5750870D1*
X3880770Y5771393D1*
X3894187Y5790467D1*
X3909763Y5807820D1*
X3927283Y5823213D1*
X3946497Y5836427D1*
X3967140Y5847277D1*
X3988920Y5855610D1*
X4011530Y5861313D1*
X4034657Y5864307D1*
X4057977Y5864543D1*
X4081160Y5862023D1*
X4103883Y5856783D1*
X4125827Y5848893D1*
X4146683Y5838467D1*
X4166163Y5825647D1*
X4183993Y5810613D1*
X4199920Y5793580D1*
X4213723Y5774787D1*
X4225210Y5754490D1*
X4234217Y5732980D1*
X4240620Y5710557D1*
X4244327Y5687533D1*
X4245320Y5667780D1*
X4245263Y5663113D1*
X4240633Y6939837D2*
X4236290Y6912403D1*
X4227707Y6885990D1*
X4215097Y6861240D1*
X4198773Y6838770D1*
X4179133Y6819130D1*
X4156663Y6802807D1*
X4131913Y6790197D1*
X4105500Y6781613D1*
X4078067Y6777270D1*
X4050293D1*
X4022860Y6781613D1*
X3996447Y6790197D1*
X3971697Y6802807D1*
X3949227Y6819130D1*
X3929587Y6838770D1*
X3913263Y6861240D1*
X3900653Y6885990D1*
X3892070Y6912403D1*
X3887727Y6939837D1*
Y6967610D1*
X3892070Y6995043D1*
X3900653Y7021457D1*
X3913263Y7046207D1*
X3929587Y7068677D1*
X3949227Y7088317D1*
X3971697Y7104640D1*
X3996447Y7117250D1*
X4022860Y7125833D1*
X4050293Y7130177D1*
X4078067D1*
X4105500Y7125833D1*
X4131913Y7117250D1*
X4156663Y7104640D1*
X4179133Y7088317D1*
X4198773Y7068677D1*
X4215097Y7046207D1*
X4227707Y7021457D1*
X4236290Y6995043D1*
X4240633Y6967610D1*
Y6939837D1*
X3131607Y6949057D2*
X3129833Y6930487D1*
X3125720Y6912293D1*
X3119337Y6894763D1*
X3110787Y6878187D1*
X3100207Y6862823D1*
X3087763Y6848923D1*
X3073660Y6836713D1*
X3058127Y6826387D1*
X3041410Y6818110D1*
X3023777Y6812017D1*
X3005517Y6808207D1*
X2986920Y6806740D1*
X2968287Y6807640D1*
X2949920Y6810893D1*
X2932110Y6816443D1*
X2915150Y6824207D1*
X2899307Y6834057D1*
X2884840Y6845830D1*
X2871980Y6859343D1*
X2860933Y6874377D1*
X2851880Y6890687D1*
X2844967Y6908013D1*
X2840303Y6926073D1*
X2837963Y6944583D1*
X2837987Y6963237D1*
X2840373Y6981737D1*
X2845083Y6999787D1*
X2852040Y7017093D1*
X2861133Y7033383D1*
X2872217Y7048387D1*
X2885110Y7061867D1*
X2899610Y7073607D1*
X2915477Y7083413D1*
X2932457Y7091133D1*
X2950280Y7096643D1*
X2968657Y7099847D1*
X2987293Y7100700D1*
X3005883Y7099187D1*
X3024137Y7095330D1*
X3041750Y7089193D1*
X3058447Y7080873D1*
X3073957Y7070507D1*
X3088027Y7058260D1*
X3100433Y7044330D1*
X3110977Y7028943D1*
X3119487Y7012343D1*
X3125827Y6994797D1*
X3129890Y6976590D1*
X3131617Y6958017D1*
X3131607Y6949057D1*
X4846287Y6377497D2*
X4844513Y6358927D1*
X4840400Y6340733D1*
X4834017Y6323203D1*
X4825467Y6306627D1*
X4814887Y6291263D1*
X4802443Y6277363D1*
X4788340Y6265153D1*
X4772807Y6254827D1*
X4756090Y6246550D1*
X4738457Y6240457D1*
X4720197Y6236647D1*
X4701600Y6235180D1*
X4682967Y6236080D1*
X4664600Y6239333D1*
X4646790Y6244883D1*
X4629830Y6252647D1*
X4613987Y6262497D1*
X4599520Y6274270D1*
X4586660Y6287783D1*
X4575613Y6302817D1*
X4566560Y6319127D1*
X4559647Y6336453D1*
X4554983Y6354513D1*
X4552643Y6373023D1*
X4552667Y6391677D1*
X4555053Y6410177D1*
X4559763Y6428227D1*
X4566720Y6445533D1*
X4575813Y6461823D1*
X4586897Y6476827D1*
X4599790Y6490307D1*
X4614290Y6502047D1*
X4630157Y6511853D1*
X4647137Y6519573D1*
X4664960Y6525083D1*
X4683337Y6528287D1*
X4701973Y6529140D1*
X4720563Y6527627D1*
X4738817Y6523770D1*
X4756430Y6517633D1*
X4773127Y6509313D1*
X4788637Y6498947D1*
X4802707Y6486700D1*
X4815113Y6472770D1*
X4825657Y6457383D1*
X4834167Y6440783D1*
X4840507Y6423237D1*
X4844570Y6405030D1*
X4846297Y6386457D1*
X4846287Y6377497D1*
X7608613Y6409297D2*
X7606840Y6390727D1*
X7602727Y6372533D1*
X7596343Y6355003D1*
X7587793Y6338427D1*
X7577213Y6323063D1*
X7564770Y6309163D1*
X7550667Y6296953D1*
X7535133Y6286627D1*
X7518417Y6278350D1*
X7500783Y6272257D1*
X7482523Y6268447D1*
X7463927Y6266980D1*
X7445293Y6267880D1*
X7426927Y6271133D1*
X7409117Y6276683D1*
X7392157Y6284447D1*
X7376313Y6294297D1*
X7361847Y6306070D1*
X7348987Y6319583D1*
X7337940Y6334617D1*
X7328887Y6350927D1*
X7321973Y6368253D1*
X7317310Y6386313D1*
X7314970Y6404823D1*
X7314993Y6423477D1*
X7317380Y6441977D1*
X7322090Y6460027D1*
X7329047Y6477333D1*
X7338140Y6493623D1*
X7349223Y6508627D1*
X7362117Y6522107D1*
X7376617Y6533847D1*
X7392483Y6543653D1*
X7409463Y6551373D1*
X7427287Y6556883D1*
X7445663Y6560087D1*
X7464300Y6560940D1*
X7482890Y6559427D1*
X7501143Y6555570D1*
X7518757Y6549433D1*
X7535453Y6541113D1*
X7550963Y6530747D1*
X7565033Y6518500D1*
X7577440Y6504570D1*
X7587983Y6489183D1*
X7596493Y6472583D1*
X7602833Y6455037D1*
X7606897Y6436830D1*
X7608623Y6418257D1*
X7608613Y6409297D1*
X9967803Y8151287D2*
X9960743Y8169207D1*
X9954260Y8196213D1*
X9952080Y8223903D1*
X9954260Y8251593D1*
X9960743Y8278600D1*
X9961513Y8280687D1*
X9740630Y8280670D1*
X9746183Y8264977D1*
X9750247Y8246770D1*
X9751973Y8228197D1*
X9751370Y8209923D1*
X9748423Y8191503D1*
X9743163Y8173607D1*
X9735683Y8156520D1*
X9732813Y8151253D1*
X9967757Y8151263D1*
X11355507Y8219237D2*
X11353733Y8200667D1*
X11349620Y8182473D1*
X11343237Y8164943D1*
X11334687Y8148367D1*
X11324107Y8133003D1*
X11311663Y8119103D1*
X11297560Y8106893D1*
X11282027Y8096567D1*
X11265310Y8088290D1*
X11247677Y8082197D1*
X11229417Y8078387D1*
X11210820Y8076920D1*
X11192187Y8077820D1*
X11173820Y8081073D1*
X11156010Y8086623D1*
X11139050Y8094387D1*
X11123207Y8104237D1*
X11108740Y8116010D1*
X11095880Y8129523D1*
X11084833Y8144557D1*
X11075780Y8160867D1*
X11068867Y8178193D1*
X11064203Y8196253D1*
X11061863Y8214763D1*
X11061887Y8233417D1*
X11064273Y8251917D1*
X11068983Y8269967D1*
X11075940Y8287273D1*
X11085033Y8303563D1*
X11096117Y8318567D1*
X11109010Y8332047D1*
X11123510Y8343787D1*
X11139377Y8353593D1*
X11156357Y8361313D1*
X11174180Y8366823D1*
X11192557Y8370027D1*
X11211193Y8370880D1*
X11229783Y8369367D1*
X11248037Y8365510D1*
X11265650Y8359373D1*
X11282347Y8351053D1*
X11297857Y8340687D1*
X11311927Y8328440D1*
X11324333Y8314510D1*
X11334877Y8299123D1*
X11343387Y8282523D1*
X11349727Y8264977D1*
X11353790Y8246770D1*
X11355517Y8228197D1*
X11355507Y8219237D1*
X8701990Y8210017D2*
X8697647Y8182583D1*
X8689063Y8156170D1*
X8686813Y8151287D1*
X9477210Y8151263D1*
X9468507Y8169420D1*
X9462707Y8187150D1*
X9459197Y8205470D1*
X9458037Y8224090D1*
X9459243Y8242703D1*
X9462800Y8261017D1*
X9468643Y8278730D1*
X9469457Y8280663D1*
X8693180Y8280670D1*
X8697647Y8265223D1*
X8701990Y8237790D1*
Y8210017D1*
X2827640Y8368753D2*
X2823297Y8341320D1*
X2814713Y8314907D1*
X2802103Y8290157D1*
X2785780Y8267687D1*
X2766140Y8248047D1*
X2743670Y8231723D1*
X2718920Y8219113D1*
X2692507Y8210530D1*
X2665073Y8206187D1*
X2637300D1*
X2609867Y8210530D1*
X2583453Y8219113D1*
X2558703Y8231723D1*
X2536233Y8248047D1*
X2516593Y8267687D1*
X2500270Y8290157D1*
X2487660Y8314907D1*
X2479077Y8341320D1*
X2474733Y8368753D1*
Y8396527D1*
X2479077Y8423960D1*
X2487660Y8450373D1*
X2500270Y8475123D1*
X2516593Y8497593D1*
X2536233Y8517233D1*
X2558703Y8533557D1*
X2583453Y8546167D1*
X2609867Y8554750D1*
X2637300Y8559093D1*
X2665073D1*
X2692507Y8554750D1*
X2718920Y8546167D1*
X2743670Y8533557D1*
X2766140Y8517233D1*
X2785780Y8497593D1*
X2802103Y8475123D1*
X2814713Y8450373D1*
X2823297Y8423960D1*
X2827640Y8396527D1*
Y8368753D1*
X2798113Y7298473D2*
X2796340Y7279903D1*
X2792227Y7261710D1*
X2785843Y7244180D1*
X2777293Y7227603D1*
X2766713Y7212240D1*
X2754270Y7198340D1*
X2740167Y7186130D1*
X2724633Y7175803D1*
X2707917Y7167527D1*
X2690283Y7161433D1*
X2672023Y7157623D1*
X2653427Y7156157D1*
X2634793Y7157057D1*
X2616427Y7160310D1*
X2598617Y7165860D1*
X2581657Y7173623D1*
X2565813Y7183473D1*
X2551347Y7195247D1*
X2538487Y7208760D1*
X2527440Y7223793D1*
X2518387Y7240103D1*
X2511473Y7257430D1*
X2506810Y7275490D1*
X2504470Y7294000D1*
X2504493Y7312653D1*
X2506880Y7331153D1*
X2511590Y7349203D1*
X2518547Y7366510D1*
X2527640Y7382800D1*
X2538723Y7397803D1*
X2551617Y7411283D1*
X2566117Y7423023D1*
X2581983Y7432830D1*
X2598963Y7440550D1*
X2616787Y7446060D1*
X2635163Y7449263D1*
X2653800Y7450117D1*
X2672390Y7448603D1*
X2690643Y7444747D1*
X2708257Y7438610D1*
X2724953Y7430290D1*
X2740463Y7419923D1*
X2754533Y7407677D1*
X2766940Y7393747D1*
X2777483Y7378360D1*
X2785993Y7361760D1*
X2792333Y7344213D1*
X2796397Y7326007D1*
X2798123Y7307433D1*
X2798113Y7298473D1*
X7749397Y7543217D2*
X7745053Y7515783D1*
X7736470Y7489370D1*
X7723860Y7464620D1*
X7707537Y7442150D1*
X7687897Y7422510D1*
X7665427Y7406187D1*
X7640677Y7393577D1*
X7614263Y7384993D1*
X7586830Y7380650D1*
X7559057D1*
X7531623Y7384993D1*
X7505210Y7393577D1*
X7480460Y7406187D1*
X7457990Y7422510D1*
X7438350Y7442150D1*
X7422027Y7464620D1*
X7409417Y7489370D1*
X7400833Y7515783D1*
X7396490Y7543217D1*
Y7570990D1*
X7400833Y7598423D1*
X7409417Y7624837D1*
X7422027Y7649587D1*
X7438350Y7672057D1*
X7457990Y7691697D1*
X7480460Y7708020D1*
X7505210Y7720630D1*
X7531623Y7729213D1*
X7559057Y7733557D1*
X7586830D1*
X7614263Y7729213D1*
X7640677Y7720630D1*
X7665427Y7708020D1*
X7687897Y7691697D1*
X7707537Y7672057D1*
X7723860Y7649587D1*
X7736470Y7624837D1*
X7745053Y7598423D1*
X7749397Y7570990D1*
Y7543217D1*
X7266797D2*
X7262453Y7515783D1*
X7253870Y7489370D1*
X7241260Y7464620D1*
X7224937Y7442150D1*
X7205297Y7422510D1*
X7182827Y7406187D1*
X7158077Y7393577D1*
X7131663Y7384993D1*
X7104230Y7380650D1*
X7076457D1*
X7049023Y7384993D1*
X7022610Y7393577D1*
X6997860Y7406187D1*
X6975390Y7422510D1*
X6955750Y7442150D1*
X6939427Y7464620D1*
X6926817Y7489370D1*
X6918233Y7515783D1*
X6913890Y7543217D1*
Y7570990D1*
X6918233Y7598423D1*
X6926817Y7624837D1*
X6939427Y7649587D1*
X6955750Y7672057D1*
X6975390Y7691697D1*
X6997860Y7708020D1*
X7022610Y7720630D1*
X7049023Y7729213D1*
X7076457Y7733557D1*
X7104230D1*
X7131663Y7729213D1*
X7158077Y7720630D1*
X7182827Y7708020D1*
X7205297Y7691697D1*
X7224937Y7672057D1*
X7241260Y7649587D1*
X7253870Y7624837D1*
X7262453Y7598423D1*
X7266797Y7570990D1*
Y7543217D1*
X11266133Y5875887D2*
X11275850Y5856347D1*
X11286900Y5823820D1*
X11290150Y5810283D1*
X11291243Y5796403D1*
X11290913Y5746113D1*
X11288630Y5732380D1*
X11276140Y5694700D1*
X11264467Y5671013D1*
X11257193Y5659140D1*
X11244767Y5645177D1*
X11225943Y5626770D1*
X11214657Y5618617D1*
X11185370Y5603780D1*
X11178807Y5601360D1*
X11176860Y5596760D1*
X11186510Y5588517D1*
X11194753Y5578863D1*
X11201383Y5568043D1*
X11206240Y5556317D1*
X11209203Y5543973D1*
X11210197Y5531323D1*
X11209943Y5470890D1*
X11207957Y5458353D1*
X11204033Y5446283D1*
X11198273Y5434973D1*
X11190810Y5424707D1*
X11181837Y5415733D1*
X11171567Y5408273D1*
X11160257Y5402510D1*
X11148187Y5398590D1*
X11135650Y5396607D1*
X11122960D1*
X11110423Y5398593D1*
X11098353Y5402517D1*
X11090790Y5406180D1*
X11077247Y5401633D1*
X11064710Y5399650D1*
X11041313Y5399630D1*
X11028773Y5401577D1*
X11022630Y5403290D1*
X11013270Y5403643D1*
X11000960Y5400543D1*
X10988320Y5399403D1*
X10975657Y5400260D1*
X10969390Y5401433D1*
X10960950Y5401633D1*
X10948413Y5399650D1*
X10884677D1*
X10877520Y5400567D1*
X10864827Y5399407D1*
X10852163Y5400250D1*
X10837913Y5401780D1*
X10825393Y5399700D1*
X10803457Y5399400D1*
X10790807Y5400460D1*
X10774103Y5404937D1*
X10755830Y5412023D1*
X10745043Y5418710D1*
X10732180Y5430330D1*
X10723323Y5440813D1*
X10714050Y5457247D1*
X10708560Y5470457D1*
X10705693Y5482823D1*
X10704793Y5501423D1*
X10705790Y5518457D1*
X10708760Y5530820D1*
X10708617Y5551650D1*
X10710510Y5564200D1*
X10714343Y5576300D1*
X10723740Y5595050D1*
X10727257Y5600370D1*
X10726903Y5603780D1*
X10713663Y5599477D1*
X10699910Y5597297D1*
X10685990D1*
X10672237Y5599477D1*
X10665467Y5601367D1*
X10651930Y5598117D1*
X10638050Y5597023D1*
X10520637Y5597300D1*
X10506883Y5599477D1*
X10500110Y5601367D1*
X10486573Y5598117D1*
X10472693Y5597023D1*
X10458813Y5598117D1*
X10445277Y5601367D1*
X10432413Y5606697D1*
X10420543Y5613970D1*
X10409957Y5623013D1*
X10400913Y5633600D1*
X10393640Y5645470D1*
X10388310Y5658333D1*
X10385723Y5668533D1*
X10382243Y5655897D1*
X10376543Y5643197D1*
X10368930Y5631540D1*
X10359583Y5621220D1*
X10348740Y5612487D1*
X10336663Y5605560D1*
X10323650Y5600607D1*
X10310023Y5597750D1*
X10296117Y5597063D1*
X10282277Y5598557D1*
X10268837Y5602197D1*
X10256137Y5607897D1*
X10244480Y5615510D1*
X10234160Y5624857D1*
X10230637Y5628897D1*
X10221977Y5619923D1*
X10210947Y5611427D1*
X10198723Y5604763D1*
X10185610Y5600090D1*
X10171923Y5597527D1*
X10158007Y5597137D1*
X10144200Y5598930D1*
X10135003Y5601367D1*
X10121467Y5598117D1*
X10107587Y5597023D1*
X10039987Y5597390D1*
X10026263Y5599737D1*
X9994030Y5610360D1*
X9987500Y5612863D1*
X9979937Y5610097D1*
X9967533Y5603777D1*
X9954290Y5599477D1*
X9940540Y5597297D1*
X9814480Y5597027D1*
X9800600Y5598117D1*
X9786993Y5601367D1*
X9773457Y5598117D1*
X9759577Y5597023D1*
X9691980Y5597390D1*
X9678257Y5599737D1*
X9640980Y5612240D1*
X9631933Y5610100D1*
X9619527Y5603780D1*
X9606287Y5599477D1*
X9592533Y5597297D1*
X9475117Y5597023D1*
X9461237Y5598117D1*
X9447633Y5601367D1*
X9434097Y5598117D1*
X9420217Y5597023D1*
X9406337Y5598117D1*
X9392800Y5601367D1*
X9379937Y5606697D1*
X9368067Y5613970D1*
X9360697Y5620037D1*
X9350483Y5612030D1*
X9338343Y5605213D1*
X9325287Y5600380D1*
X9311633Y5597650D1*
X9297723Y5597090D1*
X9283893Y5598710D1*
X9273630Y5601367D1*
X9260093Y5598117D1*
X9246187Y5597027D1*
X9178613Y5597390D1*
X9164890Y5599737D1*
X9127630Y5612233D1*
X9115190Y5618483D1*
X9103880Y5626600D1*
X9083630Y5646233D1*
X9075987Y5633600D1*
X9066943Y5623013D1*
X9056357Y5613970D1*
X9044487Y5606697D1*
X9031623Y5601367D1*
X9018087Y5598117D1*
X9004207Y5597023D1*
X8990327Y5598117D1*
X8976790Y5601367D1*
X8963927Y5606697D1*
X8952057Y5613970D1*
X8941470Y5623013D1*
X8932427Y5633600D1*
X8925153Y5645470D1*
X8919823Y5658333D1*
X8916573Y5671870D1*
X8915480Y5685750D1*
Y5748183D1*
X8862757Y5814623D1*
X8855877Y5826727D1*
X8850970Y5839757D1*
X8848163Y5853393D1*
X8847527Y5867300D1*
X8849070Y5881137D1*
X8850677Y5888000D1*
X8831747Y5889043D1*
X8818507Y5892220D1*
X8802897Y5898983D1*
X8785370Y5908253D1*
X8774350Y5916293D1*
X8750530Y5939907D1*
X8742463Y5950873D1*
X8736210Y5962970D1*
X8726557Y5991293D1*
X8723310Y6004517D1*
X8722167Y6021437D1*
X8722437Y6039837D1*
X8724567Y6053283D1*
X8733800Y6082177D1*
X8739077Y6094727D1*
X8746250Y6106297D1*
X8760687Y6122143D1*
X8774483Y6135563D1*
X8785500Y6143567D1*
X8812117Y6156990D1*
X8816203Y6161077D1*
X8822383Y6173207D1*
X8830387Y6184223D1*
X8840013Y6193850D1*
X8851030Y6201853D1*
X8863160Y6208033D1*
X8876110Y6212240D1*
X8889557Y6214370D1*
X8903170D1*
X8916617Y6212240D1*
X8929567Y6208033D1*
X8941697Y6201853D1*
X8952713Y6193850D1*
X8962340Y6184223D1*
X8970343Y6173207D1*
X8975353Y6163613D1*
X9001730Y6163290D1*
X9015167Y6161090D1*
X9033603Y6155273D1*
X9043857Y6159350D1*
X9057097Y6162527D1*
X9070670Y6163593D1*
X9084243Y6162527D1*
X9097483Y6159350D1*
X9110733Y6153760D1*
X9124043Y6159350D1*
X9137283Y6162527D1*
X9141540Y6163030D1*
X9152680Y6176033D1*
X9163483Y6186450D1*
X9174500Y6194450D1*
X9195500Y6205310D1*
X9208120Y6210423D1*
X9221380Y6213500D1*
X9240133Y6214470D1*
X9270253Y6214200D1*
X9283700Y6212070D1*
X9296673Y6207853D1*
X9305173Y6203863D1*
X9320250Y6210393D1*
X9333490Y6213570D1*
X9347063Y6214640D1*
X9360637Y6213570D1*
X9373877Y6210393D1*
X9386453Y6205183D1*
X9398063Y6198067D1*
X9408417Y6189227D1*
X9417257Y6178873D1*
X9424373Y6167263D1*
X9428300Y6158157D1*
X9439900Y6152940D1*
X9454740Y6159350D1*
X9467980Y6162527D1*
X9481553Y6163597D1*
X9496040Y6162347D1*
X9510697Y6163597D1*
X9538173Y6163403D1*
X9551647Y6161440D1*
X9564647Y6157390D1*
X9591530Y6144100D1*
X9604637Y6149803D1*
X9619623Y6157087D1*
X9632583Y6161257D1*
X9646063Y6163347D1*
X9681303Y6163327D1*
X9690070Y6162527D1*
X9703643Y6163597D1*
X9717217Y6162527D1*
X9730457Y6159350D1*
X9741703Y6154750D1*
X9753030Y6159350D1*
X9766270Y6162527D1*
X9784223Y6163597D1*
X9807897Y6163377D1*
X9821360Y6161350D1*
X9834340Y6157240D1*
X9854413Y6147503D1*
X9875040Y6157390D1*
X9888040Y6161440D1*
X9901540Y6163407D1*
X9935800Y6163327D1*
X9949247Y6161197D1*
X9955830Y6159340D1*
X9961640Y6159670D1*
X9974917Y6162687D1*
X9996140Y6163597D1*
X10015987Y6163327D1*
X10032160Y6162527D1*
X10045733Y6163597D1*
X10059307Y6162527D1*
X10069140Y6160310D1*
X10085987Y6163327D1*
X10099600D1*
X10108363Y6162527D1*
X10126283Y6163597D1*
X10149417Y6163403D1*
X10162890Y6161440D1*
X10175890Y6157390D1*
X10192933Y6149267D1*
X10207030Y6153953D1*
X10220477Y6156083D1*
X10234090D1*
X10242853Y6155283D1*
X10260807Y6156353D1*
X10278497Y6156350D1*
X10280387Y6157777D1*
X10286093Y6170140D1*
X10293663Y6181457D1*
X10302910Y6191447D1*
X10313607Y6199870D1*
X10325490Y6206517D1*
X10338267Y6211223D1*
X10351620Y6213873D1*
X10365227Y6214400D1*
X10378747Y6212793D1*
X10391847Y6209090D1*
X10404210Y6203383D1*
X10415527Y6195813D1*
X10425517Y6186567D1*
X10433940Y6175870D1*
X10461213Y6135007D1*
X10473907Y6144117D1*
X10500770Y6157390D1*
X10513770Y6161440D1*
X10527270Y6163407D1*
X10561527Y6163327D1*
X10574973Y6161197D1*
X10581557Y6159340D1*
X10587377Y6159670D1*
X10600653Y6162687D1*
X10621870Y6163597D1*
X10641717Y6163327D1*
X10657890Y6162527D1*
X10671463Y6163597D1*
X10685037Y6162527D1*
X10698277Y6159350D1*
X10713107Y6152877D1*
X10728267Y6159350D1*
X10741507Y6162527D1*
X10759460Y6163597D1*
X10783130Y6163377D1*
X10796593Y6161350D1*
X10809573Y6157240D1*
X10830880Y6146883D1*
X10836643Y6147370D1*
X10856537Y6156990D1*
X10869487Y6161197D1*
X10882933Y6163327D1*
X10917217Y6163403D1*
X10930690Y6161440D1*
X10943690Y6157390D1*
X10965967Y6146663D1*
X10977533Y6139483D1*
X10990733Y6127650D1*
X10992487Y6125873D1*
X11002690Y6138183D1*
X11013043Y6147023D1*
X11024653Y6154140D1*
X11037230Y6159350D1*
X11050470Y6162527D1*
X11057793Y6163350D1*
X11063007Y6173207D1*
X11071010Y6184223D1*
X11080637Y6193850D1*
X11091653Y6201853D1*
X11103783Y6208033D1*
X11116733Y6212240D1*
X11130180Y6214370D1*
X11143793D1*
X11157240Y6212240D1*
X11170190Y6208033D1*
X11182320Y6201853D1*
X11193337Y6193850D1*
X11202963Y6184223D1*
X11210967Y6173207D1*
X11217147Y6161077D1*
X11218927Y6156257D1*
X11227733Y6151760D1*
X11239287Y6157403D1*
X11252287Y6161447D1*
X11265760Y6163407D1*
X11279377Y6163237D1*
X11292793Y6160937D1*
X11305690Y6156567D1*
X11317743Y6150233D1*
X11328657Y6142093D1*
X11338160Y6132343D1*
X11346023Y6121230D1*
X11352053Y6109023D1*
X11356097Y6096023D1*
X11358057Y6082550D1*
X11357887Y6068933D1*
X11355587Y6055517D1*
X11351217Y6042620D1*
X11305423Y5936217D1*
X11298440Y5924530D1*
X11289717Y5914080D1*
X11279463Y5905120D1*
X11267933Y5897877D1*
X11261753Y5894947D1*
X11257110Y5891123D1*
X11266133Y5875887D1*
X11208580Y6529120D2*
D15*
Y6235300D1*
X11061670Y6382210D2*
X11355490D1*
X8541513Y6497320D2*
Y6203500D1*
X8394603Y6350410D2*
X8688423D1*
X5874133Y8066060D2*
D14*
Y7954000D1*
X5752073D2*
X5996193D1*
X2619387Y6751263D2*
D15*
Y6457443D1*
X2472477Y6604353D2*
X2766297D1*
X2254140Y7116557D2*
Y6822737D1*
X2107230Y6969647D2*
X2401050D1*
X4048320Y5864690D2*
D16*
Y5470870D1*
X3851410Y5667780D2*
X4245230D1*
X2984680Y7100633D2*
D15*
Y6806813D1*
X2837770Y6953723D2*
X3131590D1*
X4699360Y6529073D2*
Y6235253D1*
X4552450Y6382163D2*
X4846270D1*
X7461687Y6560873D2*
Y6267053D1*
X7314777Y6413963D2*
X7608597D1*
X11208580Y8370813D2*
Y8076993D1*
X11061670Y8223903D2*
X11355490D1*
X9458127D2*
X9751947D1*
X2651187Y7450050D2*
Y7156230D1*
X2504277Y7303140D2*
X2798097D1*
D23*
X10129080Y6382210D3*
X11208580D3*
X9621013Y6350410D3*
X8541513D3*
D54*
X5874133Y7954000D3*
Y7764000D3*
D23*
X2619387Y5524853D3*
Y6604353D3*
X1174640Y6969647D3*
X2254140D3*
D26*
X10097330Y9271783D3*
X10510123D3*
D16*
X1206393Y7954000D3*
X1428667Y8176273D3*
X1539803Y8287410D3*
X1984350Y8731957D3*
X1762077Y8509683D3*
X1873213Y8620820D3*
X2095487Y8843093D3*
X2206623Y8954230D3*
X2317760Y9065367D3*
X1650940Y8398547D3*
X2428897Y9176503D3*
X2540033Y9287640D3*
X1111133Y7842863D3*
X2651170Y9398777D3*
D26*
X9684537Y9271783D3*
D16*
X2746430Y9494037D3*
D26*
X9271740Y9271763D3*
D27*
X5381957Y7604713D3*
X5127957D3*
X4873957D3*
X4619957D3*
X4365850D3*
D28*
X4048320Y5667780D3*
D16*
X1317530Y8065137D3*
D23*
X4064180Y6953723D3*
X2984680D3*
X5778860Y6382163D3*
X4699360D3*
X6382187Y6413963D3*
X7461687D3*
X10129080Y8223903D3*
X11208580D3*
X8525537D3*
X9605037D3*
X2651187Y8382640D3*
Y7303140D3*
X7572943Y7557103D3*
X7090343D3*
X11271480Y6076830D2*
D19*
X11227680Y5974740D1*
X11184047Y6076830D1*
X11136987Y6127873D2*
Y5974740D1*
X11064043Y6076830D2*
X11136987Y6003887D1*
X11107843Y6033030D2*
X11056800Y5974740D1*
X11002497Y5989397D2*
X11009743Y5981987D1*
X11002497Y5974740D1*
X10995087Y5981987D1*
X11002497Y5989397D1*
X10860427Y6054930D2*
X10875083Y6069587D1*
X10889740Y6076830D1*
X10911470D1*
X10926127Y6069587D1*
X10940613Y6054930D1*
X10948027Y6033030D1*
Y6018540D1*
X10940613Y5996640D1*
X10926127Y5982153D1*
X10911470Y5974740D1*
X10889740D1*
X10875083Y5982153D1*
X10860427Y5996640D1*
X10776980Y6076830D2*
X10791467Y6069587D1*
X10806123Y6054930D1*
X10813367Y6033030D1*
Y6018540D1*
X10806123Y5996640D1*
X10791467Y5982153D1*
X10776980Y5974740D1*
X10755080D1*
X10740423Y5982153D1*
X10725937Y5996640D1*
X10718523Y6018540D1*
Y6033030D1*
X10725937Y6054930D1*
X10740423Y6069587D1*
X10755080Y6076830D1*
X10776980D1*
X10671463D2*
Y5974740D1*
Y6047687D2*
X10649563Y6069587D1*
X10634910Y6076830D1*
X10613177D1*
X10598520Y6069587D1*
X10591277Y6047687D1*
Y5974740D1*
Y6047687D2*
X10569377Y6069587D1*
X10554720Y6076830D1*
X10532990D1*
X10518333Y6069587D1*
X10510920Y6047687D1*
Y5974740D1*
X10463863D2*
X10361773Y6127703D1*
X10227283Y6069587D2*
Y5952840D1*
X10234527Y5931110D1*
X10241773Y5923697D1*
X10256427Y5916453D1*
X10278327D1*
X10292817Y5923697D1*
X10227283Y6047687D2*
X10241773Y6062173D1*
X10256427Y6069587D1*
X10278327D1*
X10292817Y6062173D1*
X10307473Y6047687D1*
X10314717Y6025787D1*
Y6011130D1*
X10307473Y5989397D1*
X10292817Y5974740D1*
X10278327Y5967500D1*
X10256427D1*
X10241773Y5974740D1*
X10227283Y5989397D1*
X10092793Y6076830D2*
Y5974740D1*
Y6054930D2*
X10107283Y6069587D1*
X10121937Y6076830D1*
X10143670D1*
X10158327Y6069587D1*
X10172813Y6054930D1*
X10180227Y6033030D1*
Y6018540D1*
X10172813Y5996640D1*
X10158327Y5982153D1*
X10143670Y5974740D1*
X10121937D1*
X10107283Y5982153D1*
X10092793Y5996640D1*
X10045733Y6076830D2*
Y5974740D1*
Y6047687D2*
X10023837Y6069587D1*
X10009180Y6076830D1*
X9987447D1*
X9972793Y6069587D1*
X9965547Y6047687D1*
Y5974740D1*
Y6047687D2*
X9943647Y6069587D1*
X9928993Y6076830D1*
X9907260D1*
X9892603Y6069587D1*
X9885193Y6047687D1*
Y5974740D1*
X9838133Y6033030D2*
X9750700D1*
Y6047687D1*
X9757943Y6062340D1*
X9765190Y6069587D1*
X9779843Y6076830D1*
X9801747D1*
X9816233Y6069587D1*
X9830890Y6054930D1*
X9838133Y6033030D1*
Y6018540D1*
X9830890Y5996640D1*
X9816233Y5982153D1*
X9801747Y5974740D1*
X9779843D1*
X9765190Y5982153D1*
X9750700Y5996640D1*
X9703643Y6076830D2*
Y5923697D1*
Y6054930D2*
X9688987Y6069417D1*
X9674497Y6076830D1*
X9652597D1*
X9637943Y6069417D1*
X9623457Y6054930D1*
X9616043Y6033030D1*
Y6018373D1*
X9623457Y5996640D1*
X9637943Y5981987D1*
X9652597Y5974740D1*
X9674497D1*
X9688987Y5981987D1*
X9703643Y5996640D1*
X9481553Y6076830D2*
Y5974740D1*
Y6054930D2*
X9496040Y6069587D1*
X9510697Y6076830D1*
X9532427D1*
X9547083Y6069587D1*
X9561570Y6054930D1*
X9568983Y6033030D1*
Y6018540D1*
X9561570Y5996640D1*
X9547083Y5982153D1*
X9532427Y5974740D1*
X9510697D1*
X9496040Y5982153D1*
X9481553Y5996640D1*
X9347063Y6127873D2*
Y5974740D1*
Y6054930D2*
X9361550Y6069587D1*
X9376203Y6076830D1*
X9398103D1*
X9412593Y6069587D1*
X9427250Y6054930D1*
X9434493Y6033030D1*
Y6018540D1*
X9427250Y5996640D1*
X9412593Y5982153D1*
X9398103Y5974740D1*
X9376203D1*
X9361550Y5982153D1*
X9347063Y5996640D1*
X9292590Y6091317D2*
Y6098560D1*
X9285347Y6113217D1*
X9278103Y6120460D1*
X9263447Y6127703D1*
X9234303D1*
X9219817Y6120460D1*
X9212570Y6113217D1*
X9205160Y6098560D1*
Y6084073D1*
X9212570Y6069417D1*
X9227060Y6047687D1*
X9300003Y5974740D1*
X9197917D1*
X9150857Y6076830D2*
Y6003887D1*
X9143613Y5982153D1*
X9128957Y5974740D1*
X9107057D1*
X9092570Y5982153D1*
X9070670Y6003887D1*
Y6076830D2*
Y5974740D1*
X8943423Y6054930D2*
X8950667Y6069587D1*
X8972567Y6076830D1*
X8994467D1*
X9016367Y6069587D1*
X9023610Y6054930D1*
X9016367Y6040440D1*
X9001710Y6033030D1*
X8965323Y6025787D1*
X8950667Y6018540D1*
X8943423Y6003887D1*
Y5996640D1*
X8950667Y5982153D1*
X8972567Y5974740D1*
X8994467D1*
X9016367Y5982153D1*
X9023610Y5996640D1*
X8896363Y6127873D2*
Y5974740D1*
Y6054930D2*
X8881707Y6069587D1*
X8867220Y6076830D1*
X8845320D1*
X8830833Y6069587D1*
X8816177Y6054930D1*
X8808933Y6033030D1*
Y6018540D1*
X8816177Y5996640D1*
X8830833Y5982153D1*
X8845320Y5974740D1*
X8867220D1*
X8881707Y5982153D1*
X8896363Y5996640D1*
X11074960Y5821953D2*
D20*
X11083413Y5838853D1*
X11100510Y5855953D1*
X11117413Y5864403D1*
X11151417D1*
X11168513Y5855953D1*
X11185417Y5838853D1*
X11194063Y5821953D1*
X11202517Y5796403D1*
Y5753753D1*
X11194063Y5728400D1*
X11185417Y5711300D1*
X11168513Y5694400D1*
X11151417Y5685750D1*
X11117413D1*
X11100510Y5694400D1*
X11083413Y5711300D1*
X11074960Y5728400D1*
Y5753753D1*
X11117413D1*
X10883857Y5685750D2*
X10952057Y5864403D1*
X11020060Y5685750D1*
X10994510Y5745303D2*
X10909407D1*
X10692950Y5685750D2*
Y5864403D1*
X10760953Y5685750D1*
X10828957Y5864403D1*
Y5685750D1*
X10527597Y5864403D2*
X10638050D1*
Y5685750D1*
X10527597D1*
X10638050Y5779303D2*
X10570047D1*
X10472693Y5770853D2*
X10396043D1*
X10370690Y5779303D1*
X10362043Y5787950D1*
X10353590Y5804853D1*
Y5830403D1*
X10362043Y5847307D1*
X10370690Y5855953D1*
X10396043Y5864403D1*
X10472693D1*
Y5685750D1*
X10162487D2*
X10230687Y5864403D1*
X10298690Y5685750D1*
X10273140Y5745303D2*
X10188037D1*
X10107587Y5864403D2*
Y5685750D1*
X10048033D1*
X10022483Y5694400D1*
X10005387Y5711300D1*
X9996933Y5728400D1*
X9988483Y5753753D1*
Y5796403D1*
X9996933Y5821953D1*
X10005387Y5838853D1*
X10022483Y5855953D1*
X10048033Y5864403D1*
X10107587D1*
X9924933Y5821757D2*
Y5830207D1*
X9916483Y5847307D1*
X9908030Y5855757D1*
X9890933Y5864210D1*
X9856930D1*
X9840030Y5855757D1*
X9831577Y5847307D1*
X9822930Y5830207D1*
Y5813303D1*
X9831577Y5796207D1*
X9848480Y5770853D1*
X9933580Y5685750D1*
X9814480D1*
X9759577Y5864403D2*
Y5685750D1*
X9700027D1*
X9674477Y5694400D1*
X9657377Y5711300D1*
X9648927Y5728400D1*
X9640477Y5753753D1*
Y5796403D1*
X9648927Y5821953D1*
X9657377Y5838853D1*
X9674477Y5855953D1*
X9700027Y5864403D1*
X9759577D1*
X9475117D2*
X9585573D1*
Y5685750D1*
X9475117D1*
X9585573Y5779303D2*
X9517570D1*
X9301113Y5864403D2*
Y5685750D1*
X9420217Y5864403D1*
Y5685750D1*
X9246213Y5864403D2*
Y5685750D1*
X9186660D1*
X9161110Y5694400D1*
X9144013Y5711300D1*
X9135560Y5728400D1*
X9127110Y5753753D1*
Y5796403D1*
X9135560Y5821953D1*
X9144013Y5838853D1*
X9161110Y5855953D1*
X9186660Y5864403D1*
X9246213D1*
X9072207D2*
X9004207Y5779303D1*
Y5685750D1*
X8936203Y5864403D2*
X9004207Y5779303D1*
X11129313Y5531327D2*
D21*
Y5480283D1*
Y5509427D2*
X11125607Y5520377D1*
X11118363Y5527703D1*
X11111037Y5531327D1*
X11100087D1*
X11076557Y5509427D2*
X11032840D1*
Y5516753D1*
X11036463Y5524083D1*
X11040083Y5527703D1*
X11047413Y5531327D1*
X11058363D1*
X11065607Y5527703D1*
X11072933Y5520377D1*
X11076557Y5509427D1*
Y5502183D1*
X11072933Y5491233D1*
X11065607Y5483990D1*
X11058363Y5480283D1*
X11047413D1*
X11040083Y5483990D1*
X11032840Y5491233D1*
X11009310Y5531327D2*
X10987413Y5480283D1*
X10965597Y5531327D1*
X10938360Y5538570D2*
Y5542193D1*
X10934740Y5549520D1*
X10931117Y5553143D1*
X10923790Y5556763D1*
X10909217D1*
X10901973Y5553143D1*
X10898350Y5549520D1*
X10894643Y5542193D1*
Y5534950D1*
X10898350Y5527620D1*
X10905593Y5516753D1*
X10942067Y5480283D1*
X10891023D1*
X10863870Y5487610D2*
X10867493Y5483903D1*
X10863870Y5480283D1*
X10860163Y5483903D1*
X10863870Y5487610D1*
X10818443Y5556763D2*
X10829307Y5553143D1*
X10833013Y5545900D1*
Y5538570D1*
X10829307Y5531327D1*
X10822063Y5527620D1*
X10807493Y5524000D1*
X10796543Y5520377D1*
X10789297Y5513050D1*
X10785677Y5505803D1*
Y5494853D1*
X10789297Y5487610D1*
X10792920Y5483903D1*
X10803870Y5480283D1*
X10818443D1*
X10829307Y5483903D1*
X10833013Y5487610D1*
X10836637Y5494853D1*
Y5505803D1*
X10833013Y5513050D1*
X10825687Y5520377D1*
X10814820Y5524000D1*
X10800247Y5527620D1*
X10792920Y5531327D1*
X10789297Y5538570D1*
Y5545900D1*
X10792920Y5553143D1*
X10803870Y5556763D1*
X10818443D1*
G04 Bottom Clear*
%LPC*%
D17*
X4794520Y3857397D3*
X4270590Y4207087D3*
X7604690Y3777397D3*
X7493557Y3697397D3*
X6951493Y3617397D3*
X6998507Y3537397D3*
X7717900Y3857397D3*
X7604690Y3937397D3*
X7399740Y4097397D3*
X7524477Y4017397D3*
X6112283Y3777397D3*
X5905887Y3016337D3*
X6064653Y3001587D3*
D14*
X6382187Y3651403D3*
X9684533Y4461113D3*
X10303723Y4524620D3*
X9811547Y2984583D3*
X10367230D3*
X7668197Y1142890D3*
X8303263D3*
X4826273Y1127013D3*
X5461340D3*
X2127240Y1142890D3*
X3079840D3*
X6302803Y3937183D3*
Y3079843D3*
X5778873Y4508743D3*
X7001377Y4492867D3*
X8827193Y1127013D3*
X9700410D3*
X11462720Y2984583D3*
X10335477Y1127013D3*
X8906577Y4873907D3*
X7811087Y5143810D3*
X6302803Y2698803D3*
X4238837Y5159687D3*
X3254483D3*
X3175100Y4238840D3*
X2270130Y4080073D3*
X8128620Y3333870D3*
X7969853Y2047860D3*
X1682693Y1714450D3*
X1381037Y3397377D3*
X5635983Y3079843D3*
Y3508513D3*
X6906117Y3016337D3*
X7382417D3*
D15*
X10129080Y2079613D3*
X11208580D3*
X9621013Y2047813D3*
X8541513D3*
X2619387Y1222257D3*
Y2301757D3*
X1174640Y2667050D3*
X2254140D3*
X10097330Y4969187D3*
X10510123D3*
X1206393Y3651403D3*
X1428667Y3873677D3*
X1539803Y3984813D3*
X1984350Y4429360D3*
X1762077Y4207087D3*
X1873213Y4318223D3*
X2095487Y4540497D3*
X2206623Y4651633D3*
X2317760Y4762770D3*
X1650940Y4095950D3*
X2428897Y4873907D3*
X2540033Y4985043D3*
X1111133Y3540267D3*
X2651170Y5096180D3*
X9684537Y4969187D3*
X2746430Y5191440D3*
X9271740Y4969167D3*
X5381957Y3302117D3*
X5127957D3*
X4873957D3*
X4619957D3*
X4365850D3*
D14*
X4048320Y1365183D3*
D15*
X1317530Y3762540D3*
X4064180Y2651127D3*
X2984680D3*
X5778860Y2079567D3*
X4699360D3*
X6382187Y2111367D3*
X7461687D3*
X10129080Y3921307D3*
X11208580D3*
X8525537D3*
X9605037D3*
X2651187Y4080043D3*
Y3000543D3*
X7572943Y3254507D3*
X7090343D3*
D17*
X4794520Y8159993D3*
X4270590Y8509683D3*
X7604690Y8079993D3*
X7493557Y7999993D3*
X6951493Y7919993D3*
X6998507Y7839993D3*
X7717900Y8159993D3*
X7604690Y8239993D3*
X7399740Y8399993D3*
X7524477Y8319993D3*
X6112283Y8079993D3*
X5905887Y7318933D3*
X6064653Y7304183D3*
D14*
X6382187Y7954000D3*
X9684533Y8763710D3*
X10303723Y8827217D3*
X9811547Y7287180D3*
X10367230D3*
X7668197Y5445487D3*
X8303263D3*
X4826273Y5429610D3*
X5461340D3*
X2127240Y5445487D3*
X3079840D3*
X6302803Y8239780D3*
Y7382440D3*
X5778873Y8811340D3*
X7001377Y8795463D3*
X8827193Y5429610D3*
X9700410D3*
X11462720Y7287180D3*
X10335477Y5429610D3*
X8906577Y9176503D3*
X7811087Y9446407D3*
X6302803Y7001400D3*
X4238837Y9462283D3*
X3254483D3*
X3175100Y8541437D3*
X2270130Y8382670D3*
X8128620Y7636467D3*
X7969853Y6350457D3*
X1682693Y6017047D3*
X1381037Y7699973D3*
X5635983Y7382440D3*
Y7811110D3*
X6906117Y7318933D3*
X7382417D3*
D15*
X10129080Y6382210D3*
X11208580D3*
X9621013Y6350410D3*
X8541513D3*
X2619387Y5524853D3*
Y6604353D3*
X1174640Y6969647D3*
X2254140D3*
X10097330Y9271783D3*
X10510123D3*
X1206393Y7954000D3*
X1428667Y8176273D3*
X1539803Y8287410D3*
X1984350Y8731957D3*
X1762077Y8509683D3*
X1873213Y8620820D3*
X2095487Y8843093D3*
X2206623Y8954230D3*
X2317760Y9065367D3*
X1650940Y8398547D3*
X2428897Y9176503D3*
X2540033Y9287640D3*
X1111133Y7842863D3*
X2651170Y9398777D3*
X9684537Y9271783D3*
X2746430Y9494037D3*
X9271740Y9271763D3*
X5381957Y7604713D3*
X5127957D3*
X4873957D3*
X4619957D3*
X4365850D3*
D14*
X4048320Y5667780D3*
D15*
X1317530Y8065137D3*
X4064180Y6953723D3*
X2984680D3*
X5778860Y6382163D3*
X4699360D3*
X6382187Y6413963D3*
X7461687D3*
X10129080Y8223903D3*
X11208580D3*
X8525537D3*
X9605037D3*
X2651187Y8382640D3*
Y7303140D3*
X7572943Y7557103D3*
X7090343D3*
M02*
