M48
METRIC,0000.00
T01C0.3
T02C0.5
T03C1.0
T04C2.0
T05C2.5
T06C3.0
T07C4.5
T08C5.0
T09C6.0
%
T01
X+004795Y+003857
X+004271Y+004207
X+006112Y+003777
X+006065Y+003002
X+005906Y+003016
X+006951Y+003617
X+006999Y+003537
X+007494Y+003697
X+007605Y+003777
X+007718Y+003857
X+007605Y+003937
X+007524Y+004017
X+007400Y+004097
X+006065Y+007304
X+005906Y+007319
X+006112Y+008080
X+006951Y+007920
X+006999Y+007840
X+007494Y+008000
X+007605Y+008080
X+007718Y+008160
X+007605Y+008240
X+007524Y+008320
X+007400Y+008400
X+004795Y+008160
X+004271Y+008510
T02
X+004048Y+001365
X+004826Y+001127
X+005461Y+001127
X+006303Y+002699
X+006303Y+003080
X+006382Y+003651
X+006303Y+003937
X+005779Y+004509
X+005461Y+005430
X+004826Y+005430
X+004239Y+005160
X+004048Y+005668
X+003254Y+005160
X+003080Y+005445
X+002127Y+005445
X+001683Y+006017
X+001381Y+007700
X+002270Y+008383
X+003175Y+008541
X+003254Y+009462
X+004239Y+009462
X+005779Y+008811
X+006303Y+008240
X+006382Y+007954
X+006303Y+007382
X+006303Y+007001
X+006906Y+007319
X+007382Y+007319
X+008129Y+007636
X+007970Y+006350
X+007668Y+005445
X+007811Y+005144
X+008303Y+005445
X+008827Y+005430
X+008907Y+004874
X+009685Y+004461
X+010304Y+004525
X+010335Y+005430
X+009700Y+005430
X+009812Y+007287
X+010367Y+007287
X+011463Y+007287
X+010304Y+008827
X+009685Y+008764
X+008907Y+009177
X+007811Y+009446
X+007001Y+008795
X+005636Y+007811
X+005636Y+007382
X+007001Y+004493
X+006906Y+003016
X+007382Y+003016
X+008129Y+003334
X+007970Y+002048
X+007668Y+001143
X+008303Y+001143
X+008827Y+001127
X+009700Y+001127
X+010335Y+001127
X+010367Y+002985
X+009812Y+002985
X+011463Y+002985
X+005636Y+003080
X+005636Y+003509
X+003175Y+004239
X+002270Y+004080
X+001381Y+003397
X+001683Y+001714
X+002127Y+001143
X+003080Y+001143
T03
X+010129Y+002080
X+009621Y+002048
X+008542Y+002048
X+007462Y+002111
X+006382Y+002111
X+005779Y+002080
X+004699Y+002080
X+004064Y+002651
X+004366Y+003302
X+004620Y+003302
X+004874Y+003302
X+005128Y+003302
X+005382Y+003302
X+007090Y+003255
X+007573Y+003255
X+008526Y+003921
X+009605Y+003921
X+010129Y+003921
X+010097Y+004969
X+009685Y+004969
X+009272Y+004969
X+010510Y+004969
X+011209Y+003921
X+011209Y+002080
X+011209Y+006382
X+010129Y+006382
X+009621Y+006350
X+008542Y+006350
X+007462Y+006414
X+006382Y+006414
X+005779Y+006382
X+004699Y+006382
X+004064Y+006954
X+004366Y+007605
X+004620Y+007605
X+004874Y+007605
X+005128Y+007605
X+005382Y+007605
X+007090Y+007557
X+007573Y+007557
X+008526Y+008224
X+009605Y+008224
X+010129Y+008224
X+010097Y+009272
X+010510Y+009272
X+009685Y+009272
X+009272Y+009272
X+011209Y+008224
X+002985Y+006954
X+002651Y+007303
X+002254Y+006970
X+002619Y+006604
X+002619Y+005525
X+002746Y+005191
X+002651Y+005096
X+002540Y+004985
X+002429Y+004874
X+002318Y+004763
X+002207Y+004652
X+002095Y+004540
X+001984Y+004429
X+001873Y+004318
X+001762Y+004207
X+001651Y+004096
X+001540Y+003985
X+001429Y+003874
X+001318Y+003763
X+001206Y+003651
X+001111Y+003540
X+001175Y+002667
X+002254Y+002667
X+002619Y+002302
X+002985Y+002651
X+002651Y+003001
X+002651Y+004080
X+002619Y+001222
X+001175Y+006970
X+001111Y+007843
X+001206Y+007954
X+001318Y+008065
X+001429Y+008176
X+001540Y+008287
X+001651Y+008399
X+001762Y+008510
X+001873Y+008621
X+001984Y+008732
X+002095Y+008843
X+002207Y+008954
X+002318Y+009065
X+002429Y+009177
X+002540Y+009288
X+002651Y+009399
X+002746Y+009494
X+002651Y+008383
T04
X+011780Y+003255
X+011780Y+007557
T05
X+007906Y+002635
X+003842Y+003874
X+003842Y+008176
X+007906Y+006938
T06
X+011780Y+001349
X+011780Y+005652
X+006065Y+005652
X+005779Y+005001
X+005017Y+005001
X+001349Y+005636
X+001349Y+001333
X+006065Y+001349
X+005779Y+009304
X+005017Y+009304
T07
X+007954Y+004588
X+007954Y+008891
T08
X+001349Y+004763
X+001349Y+009065
T09
X+006541Y+004858
X+006541Y+009161
T00
M30
