G04 DipTrace 3.3.1.3*
G04 bottom_dendy_gamepad_Remastered_rev2.7.gbl*
%MOMM*%
G04 #@! TF.FileFunction,Copper,L2,Bot*
G04 #@! TF.Part,Single*
%ADD14C,0.5*%
%ADD15C,1.0*%
%ADD21C,0.3*%
G04 #@! TA.AperFunction,ViaPad*
%ADD17C,2.0*%
G04 #@! TA.AperFunction,ComponentPad*
%ADD18C,1.5*%
G04 #@! TA.AperFunction,Nonconductor*
%ADD19C,0.11767*%
%ADD22C,0.2353*%
%ADD23C,0.2745*%
G04 #@! TA.AperFunction,ComponentPad*
%ADD25C,2.0*%
%ADD26C,3.0*%
%ADD27O,4.0X2.0*%
%ADD28R,5.0X2.0*%
%ADD29C,3.0*%
%ADD31C,2.5*%
G04 #@! TA.AperFunction,ViaPad*
%ADD32C,0.7*%
%FSLAX35Y35*%
G04*
G71*
G90*
G75*
G01*
G04 Bottom*
%LPD*%
X4556373Y3794293D2*
D17*
Y4302323D1*
X4381727Y4476970D1*
X3699030D1*
X3556140Y4619860D1*
D3*
D32*
X6890240Y3016317D3*
X7382417D3*
X1063046Y5194910D2*
D14*
X4382238D1*
X4762290D2*
X4893931D1*
X5139634D2*
X5656092D1*
X5901704D2*
X8383176D1*
X8763228D2*
X9433449D1*
X9491118D2*
X9846249D1*
X9903918D2*
X10258957D1*
X10316717D2*
X12066561D1*
X1063046Y5145243D2*
X1251105D1*
X1447499D2*
X4382238D1*
X4762290D2*
X4836600D1*
X5196965D2*
X5598671D1*
X5959035D2*
X6442772D1*
X6639165D2*
X8383176D1*
X8763228D2*
X9313957D1*
X9610520D2*
X9726757D1*
X10023319D2*
X10139556D1*
X10436118D2*
X11682108D1*
X11878501D2*
X12066561D1*
X1063046Y5095577D2*
X1157863D1*
X1540741D2*
X4382238D1*
X4762290D2*
X4805520D1*
X5228137D2*
X5567590D1*
X5990207D2*
X6349530D1*
X6732408D2*
X8383176D1*
X8763228D2*
X9268749D1*
X9655819D2*
X9681506D1*
X10068618D2*
X10094348D1*
X10481418D2*
X11588866D1*
X11971743D2*
X12066561D1*
X1063046Y5045910D2*
X1107915D1*
X1590689D2*
X4382238D1*
X4762199D2*
X4789296D1*
X5244270D2*
X5551366D1*
X6006340D2*
X6299582D1*
X6782355D2*
X8383176D1*
X8763137D2*
X9243592D1*
X10506483D2*
X11538918D1*
X12021691D2*
X12066561D1*
X1622772Y4996243D2*
X4415233D1*
X4729204D2*
X4784829D1*
X5248736D2*
X5546900D1*
X6010806D2*
X6267499D1*
X6814439D2*
X8416171D1*
X8730142D2*
X9231926D1*
X10518241D2*
X11506743D1*
X1643007Y4946577D2*
X4791392D1*
X5242173D2*
X5553462D1*
X6004335D2*
X6247264D1*
X6834673D2*
X9231379D1*
X10518697D2*
X11486600D1*
X1653762Y4896910D2*
X4809986D1*
X5223579D2*
X5572056D1*
X5985650D2*
X6236509D1*
X6845428D2*
X9242043D1*
X10508033D2*
X11475845D1*
X1656132Y4847243D2*
X4844712D1*
X5188853D2*
X5606783D1*
X5951014D2*
X6234139D1*
X6847798D2*
X7793918D1*
X8114087D2*
X9265741D1*
X10484335D2*
X11473475D1*
X1650207Y4797577D2*
X3455103D1*
X3657147D2*
X4910793D1*
X5122772D2*
X5672954D1*
X5884842D2*
X6240064D1*
X6841874D2*
X7731483D1*
X8176522D2*
X9308671D1*
X9615897D2*
X9721470D1*
X10028697D2*
X10134270D1*
X10441496D2*
X11479400D1*
X1635533Y4747910D2*
X3394947D1*
X3718762D2*
X6254738D1*
X6827199D2*
X7692746D1*
X8215259D2*
X9406561D1*
X9518007D2*
X9819361D1*
X9930806D2*
X10232069D1*
X10343605D2*
X11494074D1*
X1610559Y4698243D2*
X3364960D1*
X3768436D2*
X6279712D1*
X6802316D2*
X7667772D1*
X8240142D2*
X11518957D1*
X12041561D2*
X12066561D1*
X1063046Y4648577D2*
X1126691D1*
X1571913D2*
X3351197D1*
X4493319D2*
X6318358D1*
X6763579D2*
X7653098D1*
X8254908D2*
X11557694D1*
X12002915D2*
X12066561D1*
X1063046Y4598910D2*
X1189126D1*
X1509478D2*
X3350194D1*
X4550467D2*
X6380793D1*
X6701145D2*
X7647173D1*
X8260832D2*
X11620129D1*
X11940480D2*
X12066561D1*
X1063046Y4549243D2*
X3361861D1*
X4600142D2*
X7649452D1*
X8258462D2*
X12066561D1*
X1063046Y4499577D2*
X3388840D1*
X4649816D2*
X7660207D1*
X8247707D2*
X12066561D1*
X1063046Y4449910D2*
X3435415D1*
X4699491D2*
X7680441D1*
X8227473D2*
X12066561D1*
X1063046Y4400243D2*
X3485090D1*
X4738046D2*
X7712525D1*
X8195480D2*
X12066561D1*
X1063046Y4350577D2*
X3534764D1*
X4757551D2*
X7762473D1*
X8145533D2*
X12066561D1*
X1063046Y4300910D2*
X3595012D1*
X4763384D2*
X7855533D1*
X8052382D2*
X12066561D1*
X1063046Y4251243D2*
X4316796D1*
X4763384D2*
X12066561D1*
X1063046Y4201577D2*
X4349335D1*
X4763384D2*
X12066561D1*
X1063046Y4151910D2*
X4349335D1*
X4763384D2*
X12066561D1*
X1063046Y4102243D2*
X3734829D1*
X3949087D2*
X4349335D1*
X4763384D2*
X12066561D1*
X1063046Y4052577D2*
X3661822D1*
X4022095D2*
X4349335D1*
X4763384D2*
X5033384D1*
X5381262D2*
X12066561D1*
X1063046Y4002910D2*
X3622538D1*
X4061379D2*
X4349335D1*
X4763384D2*
X4966392D1*
X5448254D2*
X12066561D1*
X1063046Y3953243D2*
X3599660D1*
X4084348D2*
X4199400D1*
X5477421D2*
X12066561D1*
X1063046Y3903577D2*
X3588449D1*
X4095559D2*
X4199400D1*
X5488723D2*
X12066561D1*
X1063046Y3853910D2*
X3587447D1*
X4096561D2*
X4199400D1*
X5485715D2*
X12066561D1*
X1063046Y3804243D2*
X3596470D1*
X4087447D2*
X4199400D1*
X4913410D2*
X4947227D1*
X5467395D2*
X12066561D1*
X1063046Y3754577D2*
X3616796D1*
X4067121D2*
X4199400D1*
X4913410D2*
X4987811D1*
X5426835D2*
X12066561D1*
X1063046Y3704910D2*
X3652069D1*
X4031848D2*
X4199400D1*
X4913410D2*
X12066561D1*
X1063046Y3655243D2*
X3714686D1*
X3969230D2*
X4199400D1*
X4913410D2*
X12066561D1*
X1063046Y3605577D2*
X4199400D1*
X4913410D2*
X12066561D1*
X1063046Y3555910D2*
X4224374D1*
X4888345D2*
X12066561D1*
X1063046Y3506243D2*
X4224374D1*
X4888345D2*
X12066561D1*
X1063046Y3456577D2*
X4224374D1*
X4888345D2*
X11627512D1*
X11933007D2*
X12066561D1*
X1063046Y3406910D2*
X4224374D1*
X4888345D2*
X6952824D1*
X7227876D2*
X7435350D1*
X7710493D2*
X11576743D1*
X11983866D2*
X12066561D1*
X1063046Y3357243D2*
X4224374D1*
X4888345D2*
X6911444D1*
X7269257D2*
X7394061D1*
X7751874D2*
X11547030D1*
X12013579D2*
X12066561D1*
X1063046Y3307577D2*
X4224374D1*
X4888345D2*
X6890480D1*
X7290220D2*
X7373007D1*
X7772837D2*
X11530624D1*
X12029895D2*
X12066561D1*
X1063046Y3257910D2*
X4224374D1*
X4888345D2*
X6883371D1*
X7297329D2*
X7365988D1*
X7779947D2*
X11524973D1*
X12035637D2*
X12066561D1*
X1063046Y3208243D2*
X4224374D1*
X4888345D2*
X6888749D1*
X7291952D2*
X7371275D1*
X7774569D2*
X11529257D1*
X12031353D2*
X12066561D1*
X1063046Y3158577D2*
X4224374D1*
X4888345D2*
X6907525D1*
X7273085D2*
X7390142D1*
X7755702D2*
X11544022D1*
X12016496D2*
X12066561D1*
X1063046Y3108910D2*
X4224374D1*
X4888345D2*
X6945350D1*
X7235350D2*
X7427876D1*
X7717967D2*
X11571639D1*
X11988970D2*
X12066561D1*
X1063046Y3059243D2*
X4224374D1*
X4888345D2*
X7033579D1*
X7147121D2*
X7516105D1*
X7629738D2*
X11618579D1*
X11941939D2*
X12066561D1*
X1063046Y3009577D2*
X4224374D1*
X4888345D2*
X11723488D1*
X11837121D2*
X12066561D1*
X1063046Y2959910D2*
X4224374D1*
X4888345D2*
X12066561D1*
X1063046Y2910243D2*
X4224374D1*
X4888345D2*
X12066561D1*
X1063046Y2860577D2*
X4224374D1*
X4888345D2*
X7792277D1*
X8020572D2*
X12066561D1*
X1063046Y2810910D2*
X7723007D1*
X8089751D2*
X12066561D1*
X1063046Y2761243D2*
X7685090D1*
X8127759D2*
X12066561D1*
X1063046Y2711577D2*
X7662941D1*
X8149816D2*
X12066561D1*
X1063046Y2661910D2*
X7652460D1*
X8160298D2*
X12066561D1*
X1063046Y2612243D2*
X7652095D1*
X8160663D2*
X12066561D1*
X1063046Y2562577D2*
X7661848D1*
X8150910D2*
X12066561D1*
X1063046Y2512910D2*
X7682993D1*
X8129764D2*
X12066561D1*
X1063046Y2463243D2*
X7719543D1*
X8093215D2*
X12066561D1*
X1063046Y2413577D2*
X7785168D1*
X8027590D2*
X12066561D1*
X1063046Y2363910D2*
X12066561D1*
X1063046Y2314243D2*
X12066561D1*
X1063046Y2264577D2*
X12066561D1*
X1063046Y2214910D2*
X12066561D1*
X1063046Y2165243D2*
X12066561D1*
X1063046Y2115577D2*
X12066561D1*
X1063046Y2065910D2*
X12066561D1*
X1063046Y2016243D2*
X12066561D1*
X1063046Y1966577D2*
X8900611D1*
X8987355D2*
X9238853D1*
X9438072D2*
X10366327D1*
X10452434D2*
X11141249D1*
X11227993D2*
X12066561D1*
X1063046Y1916910D2*
X8852486D1*
X9620546D2*
X9659764D1*
X10231770D2*
X10262329D1*
X10499829D2*
X10540142D1*
X10865051D2*
X10896965D1*
X10999582D2*
X11071249D1*
X11359608D2*
X12066561D1*
X1063046Y1867243D2*
X8788957D1*
X11405728D2*
X12066561D1*
X1063046Y1817577D2*
X8768085D1*
X11408462D2*
X12066561D1*
X1063046Y1767910D2*
X8765533D1*
X11388592D2*
X12066561D1*
X1063046Y1718243D2*
X8781483D1*
X11367264D2*
X12066561D1*
X1063046Y1668577D2*
X8828970D1*
X11335363D2*
X12066561D1*
X1063046Y1618910D2*
X9689569D1*
X9812954D2*
X10227694D1*
X10402121D2*
X12066561D1*
X1063046Y1569243D2*
X1260402D1*
X1438202D2*
X3943918D1*
X4152707D2*
X5940194D1*
X6189178D2*
X8925585D1*
X9999803D2*
X10025519D1*
X10336587D2*
X10373710D1*
X11057915D2*
X11103605D1*
X11260715D2*
X11655767D1*
X11904751D2*
X12066561D1*
X1063046Y1519577D2*
X1176913D1*
X1521600D2*
X3876926D1*
X4219699D2*
X5876210D1*
X6253163D2*
X8892681D1*
X11313397D2*
X11591783D1*
X11968736D2*
X12066561D1*
X1063046Y1469910D2*
X1134439D1*
X1564074D2*
X3841926D1*
X4254699D2*
X5840298D1*
X6289074D2*
X8894777D1*
X11335454D2*
X11555871D1*
X12004647D2*
X12066561D1*
X1063046Y1420243D2*
X1109465D1*
X1589048D2*
X3823059D1*
X4273566D2*
X5819608D1*
X6309764D2*
X8927590D1*
X11343840D2*
X11535181D1*
X12025337D2*
X12066561D1*
X1063046Y1370577D2*
X1096662D1*
X1601809D2*
X3816405D1*
X4280220D2*
X5810220D1*
X6319152D2*
X8958124D1*
X11342199D2*
X11525793D1*
X12034725D2*
X12066561D1*
X1063046Y1320910D2*
X1094294D1*
X1604270D2*
X3820689D1*
X4275936D2*
X5810949D1*
X6318423D2*
X8958124D1*
X11325155D2*
X11526522D1*
X12033996D2*
X12066561D1*
X1063046Y1271243D2*
X1101809D1*
X1596796D2*
X3836639D1*
X4259986D2*
X4385155D1*
X4759283D2*
X5821796D1*
X6307577D2*
X8386092D1*
X8760220D2*
X8972434D1*
X11289608D2*
X11537368D1*
X12023150D2*
X12066561D1*
X1063046Y1221577D2*
X1120311D1*
X1578293D2*
X3867538D1*
X4229178D2*
X4382238D1*
X4762290D2*
X5844400D1*
X6284973D2*
X8383176D1*
X8763228D2*
X10782863D1*
X11291978D2*
X11559973D1*
X12000546D2*
X12066561D1*
X1063046Y1171910D2*
X1153033D1*
X1545572D2*
X3924230D1*
X4172395D2*
X4382238D1*
X4762290D2*
X5883046D1*
X6246327D2*
X8383176D1*
X8763228D2*
X10794986D1*
X11298176D2*
X11598618D1*
X11961900D2*
X12066561D1*
X1063046Y1122243D2*
X1209816D1*
X1488788D2*
X4382238D1*
X4762290D2*
X5954230D1*
X6175142D2*
X8383176D1*
X8763228D2*
X10818684D1*
X11296353D2*
X11669803D1*
X11890715D2*
X12066561D1*
X1063046Y1072577D2*
X4382238D1*
X4762290D2*
X8383176D1*
X8763228D2*
X10854595D1*
X11262720D2*
X12066561D1*
X12071554Y4779044D2*
X12067975Y4766135D1*
X12060027Y4744204D1*
X12050410Y4722951D1*
X12039181Y4702504D1*
X12026407Y4682984D1*
X12012165Y4664509D1*
X11996539Y4647188D1*
X11979623Y4631125D1*
X11961518Y4616416D1*
X11942331Y4603148D1*
X11922177Y4591400D1*
X11901177Y4581243D1*
X11879456Y4572738D1*
X11857142Y4565934D1*
X11834370Y4560873D1*
X11811276Y4557584D1*
X11787996Y4556089D1*
X11764671Y4556394D1*
X11741438Y4558499D1*
X11718438Y4562390D1*
X11695806Y4568046D1*
X11673679Y4575431D1*
X11652187Y4584503D1*
X11631460Y4595206D1*
X11611621Y4607477D1*
X11592788Y4621242D1*
X11575074Y4636421D1*
X11558584Y4652921D1*
X11543417Y4670645D1*
X11529663Y4689487D1*
X11517405Y4709334D1*
X11506715Y4730068D1*
X11497657Y4751565D1*
X11490286Y4773697D1*
X11484644Y4796332D1*
X11480767Y4819335D1*
X11478677Y4842569D1*
X11478387Y4865895D1*
X11479898Y4889173D1*
X11483201Y4912266D1*
X11488276Y4935034D1*
X11495094Y4957343D1*
X11503614Y4979060D1*
X11513784Y5000053D1*
X11525544Y5020200D1*
X11538824Y5039378D1*
X11553545Y5057474D1*
X11569619Y5074380D1*
X11586950Y5089995D1*
X11605434Y5104225D1*
X11624962Y5116986D1*
X11645416Y5128202D1*
X11666675Y5137806D1*
X11688611Y5145740D1*
X11711095Y5151958D1*
X11733992Y5156421D1*
X11757165Y5159104D1*
X11780475Y5159990D1*
X11803785Y5159074D1*
X11826954Y5156362D1*
X11849845Y5151870D1*
X11872321Y5145624D1*
X11894247Y5137662D1*
X11915494Y5128031D1*
X11935934Y5116789D1*
X11955445Y5104003D1*
X11973911Y5089749D1*
X11991222Y5074112D1*
X12007275Y5057186D1*
X12021973Y5039071D1*
X12035228Y5019876D1*
X12046963Y4999715D1*
X12057107Y4978708D1*
X12065599Y4956981D1*
X12071566Y4937366D1*
X12071543Y5244576D1*
X8758145D1*
X8757874Y5044632D1*
X8754124Y5027265D1*
X8750025Y5019888D1*
X8740485Y5006857D1*
X8725031Y4996252D1*
X8717686Y4993543D1*
X8701159Y4990569D1*
X8442238Y4990859D1*
X8424872Y4994609D1*
X8417495Y4998709D1*
X8404463Y5008248D1*
X8393859Y5023702D1*
X8391150Y5031048D1*
X8388176Y5047574D1*
X8388157Y5244605D1*
X4757206Y5244576D1*
X4756954Y5044632D1*
X4753204Y5027265D1*
X4749105Y5019888D1*
X4739565Y5006857D1*
X4724111Y4996252D1*
X4716766Y4993543D1*
X4700239Y4990569D1*
X4441318Y4990859D1*
X4423952Y4994609D1*
X4416574Y4998708D1*
X4403543Y5008248D1*
X4392939Y5023702D1*
X4390229Y5031048D1*
X4387256Y5047574D1*
X4387236Y5244605D1*
X1057979Y5244577D1*
X1058000Y4937715D1*
X1064094Y4957343D1*
X1072614Y4979060D1*
X1082784Y5000053D1*
X1094544Y5020200D1*
X1107824Y5039378D1*
X1122545Y5057474D1*
X1138619Y5074380D1*
X1155950Y5089995D1*
X1174434Y5104225D1*
X1193962Y5116986D1*
X1214416Y5128202D1*
X1235675Y5137806D1*
X1257611Y5145740D1*
X1280095Y5151958D1*
X1302992Y5156421D1*
X1326165Y5159104D1*
X1349475Y5159990D1*
X1372785Y5159074D1*
X1395954Y5156362D1*
X1418845Y5151870D1*
X1441321Y5145624D1*
X1463247Y5137662D1*
X1484494Y5128031D1*
X1504934Y5116789D1*
X1524445Y5104003D1*
X1542911Y5089749D1*
X1560222Y5074112D1*
X1576275Y5057186D1*
X1590973Y5039071D1*
X1604228Y5019876D1*
X1615963Y4999715D1*
X1626107Y4978708D1*
X1634599Y4956981D1*
X1641388Y4934663D1*
X1646435Y4911888D1*
X1649708Y4888792D1*
X1651283Y4857990D1*
X1650382Y4834680D1*
X1647685Y4811509D1*
X1643207Y4788615D1*
X1636975Y4766135D1*
X1629027Y4744204D1*
X1619410Y4722951D1*
X1608181Y4702504D1*
X1595407Y4682984D1*
X1581165Y4664509D1*
X1565539Y4647188D1*
X1548623Y4631125D1*
X1530518Y4616416D1*
X1511331Y4603148D1*
X1491177Y4591400D1*
X1470177Y4581243D1*
X1448456Y4572738D1*
X1426142Y4565934D1*
X1403370Y4560873D1*
X1380276Y4557584D1*
X1356996Y4556089D1*
X1333671Y4556394D1*
X1310438Y4558499D1*
X1287438Y4562390D1*
X1264806Y4568046D1*
X1242679Y4575431D1*
X1221187Y4584503D1*
X1200460Y4595206D1*
X1180621Y4607477D1*
X1161788Y4621242D1*
X1144074Y4636421D1*
X1127584Y4652921D1*
X1112417Y4670645D1*
X1098663Y4689487D1*
X1086405Y4709334D1*
X1075715Y4730068D1*
X1066657Y4751565D1*
X1057985Y4778914D1*
X1058000Y1058001D1*
X4387258Y1058000D1*
X4387546Y1257945D1*
X4391296Y1275312D1*
X4395395Y1282689D1*
X4404935Y1295720D1*
X4420389Y1306325D1*
X4427734Y1309034D1*
X4444261Y1312007D1*
X4704143Y1311546D1*
X4722362Y1307216D1*
X4738076Y1296992D1*
X4743389Y1291241D1*
X4753204Y1275312D1*
X4757090Y1256967D1*
X4757264Y1057972D1*
X8388214Y1058000D1*
X8388466Y1257945D1*
X8392216Y1275312D1*
X8396315Y1282689D1*
X8405855Y1295720D1*
X8421309Y1306325D1*
X8428654Y1309034D1*
X8445181Y1312008D1*
X8704102Y1311718D1*
X8721468Y1307968D1*
X8728845Y1303868D1*
X8741877Y1294328D1*
X8752481Y1278875D1*
X8755190Y1271529D1*
X8758164Y1255003D1*
X8758183Y1057972D1*
X12071582Y1058000D1*
X12071543Y4778091D1*
X12029815Y1329649D2*
X12027505Y1310129D1*
X12023670Y1290851D1*
X12018334Y1271933D1*
X12011531Y1253492D1*
X12003302Y1235641D1*
X11993698Y1218491D1*
X11982777Y1202148D1*
X11970608Y1186712D1*
X11957266Y1172278D1*
X11942832Y1158935D1*
X11927396Y1146766D1*
X11911052Y1135846D1*
X11893902Y1126241D1*
X11876052Y1118012D1*
X11857611Y1111209D1*
X11838692Y1105873D1*
X11819414Y1102039D1*
X11799894Y1099728D1*
X11780253Y1098957D1*
X11760612Y1099728D1*
X11741093Y1102039D1*
X11721814Y1105873D1*
X11702896Y1111209D1*
X11684455Y1118012D1*
X11666604Y1126241D1*
X11649455Y1135846D1*
X11633111Y1146766D1*
X11617675Y1158935D1*
X11603241Y1172278D1*
X11589898Y1186712D1*
X11577729Y1202148D1*
X11566809Y1218491D1*
X11557205Y1235641D1*
X11548975Y1253492D1*
X11542172Y1271933D1*
X11536837Y1290851D1*
X11533002Y1310129D1*
X11530692Y1329649D1*
X11529920Y1349290D1*
X11530692Y1368931D1*
X11533002Y1388451D1*
X11536837Y1407729D1*
X11542172Y1426647D1*
X11548975Y1445088D1*
X11557205Y1462939D1*
X11566809Y1480089D1*
X11577729Y1496432D1*
X11589898Y1511868D1*
X11603241Y1526302D1*
X11617675Y1539645D1*
X11633111Y1551814D1*
X11649455Y1562734D1*
X11666604Y1572339D1*
X11684455Y1580568D1*
X11702896Y1587371D1*
X11721814Y1592707D1*
X11741093Y1596541D1*
X11760612Y1598852D1*
X11780253Y1599623D1*
X11799894Y1598852D1*
X11819414Y1596541D1*
X11838692Y1592707D1*
X11857611Y1587371D1*
X11876052Y1580568D1*
X11893902Y1572339D1*
X11911052Y1562734D1*
X11927396Y1551814D1*
X11942832Y1539645D1*
X11957266Y1526302D1*
X11970608Y1511868D1*
X11982777Y1496432D1*
X11993698Y1480089D1*
X12003302Y1462939D1*
X12011531Y1445088D1*
X12018334Y1426647D1*
X12023670Y1407729D1*
X12027505Y1388451D1*
X12029815Y1368931D1*
X12030587Y1349290D1*
X12029815Y1329649D1*
X1598845Y1313749D2*
X1596535Y1294229D1*
X1592700Y1274951D1*
X1587364Y1256033D1*
X1580561Y1237592D1*
X1572332Y1219741D1*
X1562728Y1202591D1*
X1551807Y1186248D1*
X1539638Y1170812D1*
X1526296Y1156378D1*
X1511862Y1143035D1*
X1496426Y1130866D1*
X1480082Y1119946D1*
X1462932Y1110341D1*
X1445082Y1102112D1*
X1426641Y1095309D1*
X1407722Y1089973D1*
X1388444Y1086139D1*
X1368924Y1083828D1*
X1349283Y1083057D1*
X1329642Y1083828D1*
X1310123Y1086139D1*
X1290844Y1089973D1*
X1271926Y1095309D1*
X1253485Y1102112D1*
X1235634Y1110341D1*
X1218485Y1119946D1*
X1202141Y1130866D1*
X1186705Y1143035D1*
X1172271Y1156378D1*
X1158928Y1170812D1*
X1146759Y1186248D1*
X1135839Y1202591D1*
X1126235Y1219741D1*
X1118005Y1237592D1*
X1111202Y1256033D1*
X1105867Y1274951D1*
X1102032Y1294229D1*
X1099722Y1313749D1*
X1098950Y1333390D1*
X1099722Y1353031D1*
X1102032Y1372551D1*
X1105867Y1391829D1*
X1111202Y1410747D1*
X1118005Y1429188D1*
X1126235Y1447039D1*
X1135839Y1464189D1*
X1146759Y1480532D1*
X1158928Y1495968D1*
X1172271Y1510402D1*
X1186705Y1523745D1*
X1202141Y1535914D1*
X1218485Y1546834D1*
X1235634Y1556439D1*
X1253485Y1564668D1*
X1271926Y1571471D1*
X1290844Y1576807D1*
X1310123Y1580641D1*
X1329642Y1582952D1*
X1349283Y1583723D1*
X1368924Y1582952D1*
X1388444Y1580641D1*
X1407722Y1576807D1*
X1426641Y1571471D1*
X1445082Y1564668D1*
X1462932Y1556439D1*
X1480082Y1546834D1*
X1496426Y1535914D1*
X1511862Y1523745D1*
X1526296Y1510402D1*
X1539638Y1495968D1*
X1551807Y1480532D1*
X1562728Y1464189D1*
X1572332Y1447039D1*
X1580561Y1429188D1*
X1587364Y1410747D1*
X1592700Y1391829D1*
X1596535Y1372551D1*
X1598845Y1353031D1*
X1599617Y1333390D1*
X1598845Y1313749D1*
X6314245Y1329649D2*
X6311935Y1310129D1*
X6308100Y1290851D1*
X6302764Y1271933D1*
X6295961Y1253492D1*
X6287732Y1235641D1*
X6278128Y1218491D1*
X6267207Y1202148D1*
X6255038Y1186712D1*
X6241696Y1172278D1*
X6227262Y1158935D1*
X6211826Y1146766D1*
X6195482Y1135846D1*
X6178332Y1126241D1*
X6160482Y1118012D1*
X6142041Y1111209D1*
X6123122Y1105873D1*
X6103844Y1102039D1*
X6084324Y1099728D1*
X6064683Y1098957D1*
X6045042Y1099728D1*
X6025523Y1102039D1*
X6006244Y1105873D1*
X5987326Y1111209D1*
X5968885Y1118012D1*
X5951034Y1126241D1*
X5933885Y1135846D1*
X5917541Y1146766D1*
X5902105Y1158935D1*
X5887671Y1172278D1*
X5874328Y1186712D1*
X5862159Y1202148D1*
X5851239Y1218491D1*
X5841635Y1235641D1*
X5833405Y1253492D1*
X5826602Y1271933D1*
X5821267Y1290851D1*
X5817432Y1310129D1*
X5815122Y1329649D1*
X5814350Y1349290D1*
X5815122Y1368931D1*
X5817432Y1388451D1*
X5821267Y1407729D1*
X5826602Y1426647D1*
X5833405Y1445088D1*
X5841635Y1462939D1*
X5851239Y1480089D1*
X5862159Y1496432D1*
X5874328Y1511868D1*
X5887671Y1526302D1*
X5902105Y1539645D1*
X5917541Y1551814D1*
X5933885Y1562734D1*
X5951034Y1572339D1*
X5968885Y1580568D1*
X5987326Y1587371D1*
X6006244Y1592707D1*
X6025523Y1596541D1*
X6045042Y1598852D1*
X6064683Y1599623D1*
X6084324Y1598852D1*
X6103844Y1596541D1*
X6123122Y1592707D1*
X6142041Y1587371D1*
X6160482Y1580568D1*
X6178332Y1572339D1*
X6195482Y1562734D1*
X6211826Y1551814D1*
X6227262Y1539645D1*
X6241696Y1526302D1*
X6255038Y1511868D1*
X6267207Y1496432D1*
X6278128Y1480089D1*
X6287732Y1462939D1*
X6295961Y1445088D1*
X6302764Y1426647D1*
X6308100Y1407729D1*
X6311935Y1388451D1*
X6314245Y1368931D1*
X6315017Y1349290D1*
X6314245Y1329649D1*
X6842082Y4834680D2*
X6839385Y4811509D1*
X6834907Y4788615D1*
X6828675Y4766135D1*
X6820727Y4744204D1*
X6811110Y4722951D1*
X6799881Y4702504D1*
X6787107Y4682984D1*
X6772865Y4664509D1*
X6757239Y4647188D1*
X6740323Y4631125D1*
X6722218Y4616416D1*
X6703031Y4603148D1*
X6682877Y4591400D1*
X6661877Y4581243D1*
X6640156Y4572738D1*
X6617842Y4565934D1*
X6595070Y4560873D1*
X6571976Y4557584D1*
X6548696Y4556089D1*
X6525371Y4556394D1*
X6502138Y4558499D1*
X6479138Y4562390D1*
X6456506Y4568046D1*
X6434379Y4575431D1*
X6412887Y4584503D1*
X6392160Y4595206D1*
X6372321Y4607477D1*
X6353488Y4621242D1*
X6335774Y4636421D1*
X6319284Y4652921D1*
X6304117Y4670645D1*
X6290363Y4689487D1*
X6278105Y4709334D1*
X6267415Y4730068D1*
X6258357Y4751565D1*
X6250986Y4773697D1*
X6245344Y4796332D1*
X6241467Y4819335D1*
X6239377Y4842569D1*
X6239087Y4865895D1*
X6240598Y4889173D1*
X6243901Y4912266D1*
X6248976Y4935034D1*
X6255794Y4957343D1*
X6264314Y4979060D1*
X6274484Y5000053D1*
X6286244Y5020200D1*
X6299524Y5039378D1*
X6314245Y5057474D1*
X6330319Y5074380D1*
X6347650Y5089995D1*
X6366134Y5104225D1*
X6385662Y5116986D1*
X6406116Y5128202D1*
X6427375Y5137806D1*
X6449311Y5145740D1*
X6471795Y5151958D1*
X6494692Y5156421D1*
X6517865Y5159104D1*
X6541175Y5159990D1*
X6564485Y5159074D1*
X6587654Y5156362D1*
X6610545Y5151870D1*
X6633021Y5145624D1*
X6654947Y5137662D1*
X6676194Y5128031D1*
X6696634Y5116789D1*
X6716145Y5104003D1*
X6734611Y5089749D1*
X6751922Y5074112D1*
X6767975Y5057186D1*
X6782673Y5039071D1*
X6795928Y5019876D1*
X6807663Y4999715D1*
X6817807Y4978708D1*
X6826299Y4956981D1*
X6833088Y4934663D1*
X6838135Y4911888D1*
X6841408Y4888792D1*
X6842983Y4857990D1*
X6842082Y4834680D1*
X5243084Y4983080D2*
X5240989Y4965379D1*
X5237511Y4947898D1*
X5232673Y4930743D1*
X5226504Y4914021D1*
X5219042Y4897834D1*
X5210333Y4882283D1*
X5200430Y4867463D1*
X5189395Y4853465D1*
X5177297Y4840377D1*
X5164208Y4828278D1*
X5150211Y4817243D1*
X5135391Y4807341D1*
X5119839Y4798632D1*
X5103652Y4791169D1*
X5086930Y4785000D1*
X5069775Y4780162D1*
X5052294Y4776685D1*
X5034594Y4774590D1*
X5016783Y4773890D1*
X4998973Y4774590D1*
X4981273Y4776685D1*
X4963791Y4780162D1*
X4946636Y4785000D1*
X4929914Y4791169D1*
X4913727Y4798632D1*
X4898176Y4807341D1*
X4883356Y4817243D1*
X4869359Y4828278D1*
X4856270Y4840377D1*
X4844171Y4853465D1*
X4833136Y4867463D1*
X4823234Y4882283D1*
X4814525Y4897834D1*
X4807063Y4914021D1*
X4800894Y4930743D1*
X4796055Y4947898D1*
X4792578Y4965379D1*
X4790483Y4983080D1*
X4789783Y5000890D1*
X4790483Y5018700D1*
X4792578Y5036401D1*
X4796055Y5053882D1*
X4800894Y5071037D1*
X4807063Y5087759D1*
X4814525Y5103946D1*
X4823234Y5119497D1*
X4833136Y5134317D1*
X4844171Y5148315D1*
X4856270Y5161403D1*
X4869359Y5173502D1*
X4883356Y5184537D1*
X4898176Y5194439D1*
X4913727Y5203148D1*
X4929914Y5210611D1*
X4946636Y5216780D1*
X4963791Y5221618D1*
X4981273Y5225095D1*
X4998973Y5227190D1*
X5016783Y5227890D1*
X5034594Y5227190D1*
X5052294Y5225095D1*
X5069775Y5221618D1*
X5086930Y5216780D1*
X5103652Y5210611D1*
X5119839Y5203148D1*
X5135391Y5194439D1*
X5150211Y5184537D1*
X5164208Y5173502D1*
X5177297Y5161403D1*
X5189395Y5148315D1*
X5200430Y5134317D1*
X5210333Y5119497D1*
X5219042Y5103946D1*
X5226504Y5087759D1*
X5232673Y5071037D1*
X5237511Y5053882D1*
X5240989Y5036401D1*
X5243084Y5018700D1*
X5243783Y5000890D1*
X5243084Y4983080D1*
X6005184D2*
X6003089Y4965379D1*
X5999611Y4947898D1*
X5994773Y4930743D1*
X5988604Y4914021D1*
X5981142Y4897834D1*
X5972433Y4882283D1*
X5962530Y4867463D1*
X5951495Y4853465D1*
X5939397Y4840377D1*
X5926308Y4828278D1*
X5912311Y4817243D1*
X5897491Y4807341D1*
X5881939Y4798632D1*
X5865752Y4791169D1*
X5849030Y4785000D1*
X5831875Y4780162D1*
X5814394Y4776685D1*
X5796694Y4774590D1*
X5778883Y4773890D1*
X5761073Y4774590D1*
X5743373Y4776685D1*
X5725891Y4780162D1*
X5708736Y4785000D1*
X5692014Y4791169D1*
X5675827Y4798632D1*
X5660276Y4807341D1*
X5645456Y4817243D1*
X5631459Y4828278D1*
X5618370Y4840377D1*
X5606271Y4853465D1*
X5595236Y4867463D1*
X5585334Y4882283D1*
X5576625Y4897834D1*
X5569163Y4914021D1*
X5562994Y4930743D1*
X5558155Y4947898D1*
X5554678Y4965379D1*
X5552583Y4983080D1*
X5551883Y5000890D1*
X5552583Y5018700D1*
X5554678Y5036401D1*
X5558155Y5053882D1*
X5562994Y5071037D1*
X5569163Y5087759D1*
X5576625Y5103946D1*
X5585334Y5119497D1*
X5595236Y5134317D1*
X5606271Y5148315D1*
X5618370Y5161403D1*
X5631459Y5173502D1*
X5645456Y5184537D1*
X5660276Y5194439D1*
X5675827Y5203148D1*
X5692014Y5210611D1*
X5708736Y5216780D1*
X5725891Y5221618D1*
X5743373Y5225095D1*
X5761073Y5227190D1*
X5778883Y5227890D1*
X5796694Y5227190D1*
X5814394Y5225095D1*
X5831875Y5221618D1*
X5849030Y5216780D1*
X5865752Y5210611D1*
X5881939Y5203148D1*
X5897491Y5194439D1*
X5912311Y5184537D1*
X5926308Y5173502D1*
X5939397Y5161403D1*
X5951495Y5148315D1*
X5962530Y5134317D1*
X5972433Y5119497D1*
X5981142Y5103946D1*
X5988604Y5087759D1*
X5994773Y5071037D1*
X5999611Y5053882D1*
X6003089Y5036401D1*
X6005184Y5018700D1*
X6005883Y5000890D1*
X6005184Y4983080D1*
X8155945Y2615649D2*
X8153635Y2596129D1*
X8149800Y2576851D1*
X8144464Y2557933D1*
X8137661Y2539492D1*
X8129432Y2521641D1*
X8119828Y2504491D1*
X8108907Y2488148D1*
X8096738Y2472712D1*
X8083396Y2458278D1*
X8068962Y2444935D1*
X8053526Y2432766D1*
X8037182Y2421846D1*
X8020032Y2412241D1*
X8002182Y2404012D1*
X7983741Y2397209D1*
X7964822Y2391873D1*
X7945544Y2388039D1*
X7926024Y2385728D1*
X7906383Y2384957D1*
X7886742Y2385728D1*
X7867223Y2388039D1*
X7847944Y2391873D1*
X7829026Y2397209D1*
X7810585Y2404012D1*
X7792734Y2412241D1*
X7775585Y2421846D1*
X7759241Y2432766D1*
X7743805Y2444935D1*
X7729371Y2458278D1*
X7716028Y2472712D1*
X7703859Y2488148D1*
X7692939Y2504491D1*
X7683335Y2521641D1*
X7675105Y2539492D1*
X7668302Y2557933D1*
X7662967Y2576851D1*
X7659132Y2596129D1*
X7656822Y2615649D1*
X7656050Y2635290D1*
X7656822Y2654931D1*
X7659132Y2674451D1*
X7662967Y2693729D1*
X7668302Y2712647D1*
X7675105Y2731088D1*
X7683335Y2748939D1*
X7692939Y2766089D1*
X7703859Y2782432D1*
X7716028Y2797868D1*
X7729371Y2812302D1*
X7743805Y2825645D1*
X7759241Y2837814D1*
X7775585Y2848734D1*
X7792734Y2858339D1*
X7810585Y2866568D1*
X7829026Y2873371D1*
X7847944Y2878707D1*
X7867223Y2882541D1*
X7886742Y2884852D1*
X7906383Y2885623D1*
X7926024Y2884852D1*
X7945544Y2882541D1*
X7964822Y2878707D1*
X7983741Y2873371D1*
X8002182Y2866568D1*
X8020032Y2858339D1*
X8037182Y2848734D1*
X8053526Y2837814D1*
X8068962Y2825645D1*
X8083396Y2812302D1*
X8096738Y2797868D1*
X8108907Y2782432D1*
X8119828Y2766089D1*
X8129432Y2748939D1*
X8137661Y2731088D1*
X8144464Y2712647D1*
X8149800Y2693729D1*
X8153635Y2674451D1*
X8155945Y2654931D1*
X8156717Y2635290D1*
X8155945Y2615649D1*
X4091545Y3854049D2*
X4089235Y3834529D1*
X4085400Y3815251D1*
X4080064Y3796333D1*
X4073261Y3777892D1*
X4065032Y3760041D1*
X4055428Y3742891D1*
X4044507Y3726548D1*
X4032338Y3711112D1*
X4018996Y3696678D1*
X4004562Y3683335D1*
X3989126Y3671166D1*
X3972782Y3660246D1*
X3955632Y3650641D1*
X3937782Y3642412D1*
X3919341Y3635609D1*
X3900422Y3630273D1*
X3881144Y3626439D1*
X3861624Y3624128D1*
X3841983Y3623357D1*
X3822342Y3624128D1*
X3802823Y3626439D1*
X3783544Y3630273D1*
X3764626Y3635609D1*
X3746185Y3642412D1*
X3728334Y3650641D1*
X3711185Y3660246D1*
X3694841Y3671166D1*
X3679405Y3683335D1*
X3664971Y3696678D1*
X3651628Y3711112D1*
X3639459Y3726548D1*
X3628539Y3742891D1*
X3618935Y3760041D1*
X3610705Y3777892D1*
X3603902Y3796333D1*
X3598567Y3815251D1*
X3594732Y3834529D1*
X3592422Y3854049D1*
X3591650Y3873690D1*
X3592422Y3893331D1*
X3594732Y3912851D1*
X3598567Y3932129D1*
X3603902Y3951047D1*
X3610705Y3969488D1*
X3618935Y3987339D1*
X3628539Y4004489D1*
X3639459Y4020832D1*
X3651628Y4036268D1*
X3664971Y4050702D1*
X3679405Y4064045D1*
X3694841Y4076214D1*
X3711185Y4087134D1*
X3728334Y4096739D1*
X3746185Y4104968D1*
X3764626Y4111771D1*
X3783544Y4117107D1*
X3802823Y4120941D1*
X3822342Y4123252D1*
X3841983Y4124023D1*
X3861624Y4123252D1*
X3881144Y4120941D1*
X3900422Y4117107D1*
X3919341Y4111771D1*
X3937782Y4104968D1*
X3955632Y4096739D1*
X3972782Y4087134D1*
X3989126Y4076214D1*
X4004562Y4064045D1*
X4018996Y4050702D1*
X4032338Y4036268D1*
X4044507Y4020832D1*
X4055428Y4004489D1*
X4065032Y3987339D1*
X4073261Y3969488D1*
X4080064Y3951047D1*
X4085400Y3932129D1*
X4089235Y3912851D1*
X4091545Y3893331D1*
X4092317Y3873690D1*
X4091545Y3854049D1*
X12029845Y3234849D2*
X12027535Y3215329D1*
X12023700Y3196051D1*
X12018364Y3177133D1*
X12011561Y3158692D1*
X12003332Y3140841D1*
X11993728Y3123691D1*
X11982807Y3107348D1*
X11970638Y3091912D1*
X11957296Y3077478D1*
X11942862Y3064135D1*
X11927426Y3051966D1*
X11911082Y3041046D1*
X11893932Y3031441D1*
X11876082Y3023212D1*
X11857641Y3016409D1*
X11838722Y3011073D1*
X11819444Y3007239D1*
X11799924Y3004928D1*
X11780283Y3004157D1*
X11760642Y3004928D1*
X11741123Y3007239D1*
X11721844Y3011073D1*
X11702926Y3016409D1*
X11684485Y3023212D1*
X11666634Y3031441D1*
X11649485Y3041046D1*
X11633141Y3051966D1*
X11617705Y3064135D1*
X11603271Y3077478D1*
X11589928Y3091912D1*
X11577759Y3107348D1*
X11566839Y3123691D1*
X11557235Y3140841D1*
X11549005Y3158692D1*
X11542202Y3177133D1*
X11536867Y3196051D1*
X11533032Y3215329D1*
X11530722Y3234849D1*
X11529950Y3254490D1*
X11530722Y3274131D1*
X11533032Y3293651D1*
X11536867Y3312929D1*
X11542202Y3331847D1*
X11549005Y3350288D1*
X11557235Y3368139D1*
X11566839Y3385289D1*
X11577759Y3401632D1*
X11589928Y3417068D1*
X11603271Y3431502D1*
X11617705Y3444845D1*
X11633141Y3457014D1*
X11649485Y3467934D1*
X11666634Y3477539D1*
X11684485Y3485768D1*
X11702926Y3492571D1*
X11721844Y3497907D1*
X11741123Y3501741D1*
X11760642Y3504052D1*
X11780283Y3504823D1*
X11799924Y3504052D1*
X11819444Y3501741D1*
X11838722Y3497907D1*
X11857641Y3492571D1*
X11876082Y3485768D1*
X11893932Y3477539D1*
X11911082Y3467934D1*
X11927426Y3457014D1*
X11942862Y3444845D1*
X11957296Y3431502D1*
X11970638Y3417068D1*
X11982807Y3401632D1*
X11993728Y3385289D1*
X12003332Y3368139D1*
X12011561Y3350288D1*
X12018364Y3331847D1*
X12023700Y3312929D1*
X12027535Y3293651D1*
X12029845Y3274131D1*
X12030617Y3254490D1*
X12029845Y3234849D1*
X8255082Y4564780D2*
X8252385Y4541609D1*
X8247907Y4518715D1*
X8241675Y4496235D1*
X8233727Y4474304D1*
X8224110Y4453051D1*
X8212881Y4432604D1*
X8200107Y4413084D1*
X8185865Y4394609D1*
X8170239Y4377288D1*
X8153323Y4361225D1*
X8135218Y4346516D1*
X8116031Y4333248D1*
X8095877Y4321500D1*
X8074877Y4311343D1*
X8053156Y4302838D1*
X8030842Y4296034D1*
X8008070Y4290973D1*
X7984976Y4287684D1*
X7961696Y4286189D1*
X7938371Y4286494D1*
X7915138Y4288599D1*
X7892138Y4292490D1*
X7869506Y4298146D1*
X7847379Y4305531D1*
X7825887Y4314603D1*
X7805160Y4325306D1*
X7785321Y4337577D1*
X7766488Y4351342D1*
X7748774Y4366521D1*
X7732284Y4383021D1*
X7717117Y4400745D1*
X7703363Y4419587D1*
X7691105Y4439434D1*
X7680415Y4460168D1*
X7671357Y4481665D1*
X7663986Y4503797D1*
X7658344Y4526432D1*
X7654467Y4549435D1*
X7652377Y4572669D1*
X7652087Y4595995D1*
X7653598Y4619273D1*
X7656901Y4642366D1*
X7661976Y4665134D1*
X7668794Y4687443D1*
X7677314Y4709160D1*
X7687484Y4730153D1*
X7699244Y4750300D1*
X7712524Y4769478D1*
X7727245Y4787574D1*
X7743319Y4804480D1*
X7760650Y4820095D1*
X7779134Y4834325D1*
X7798662Y4847086D1*
X7819116Y4858302D1*
X7840375Y4867906D1*
X7862311Y4875840D1*
X7884795Y4882058D1*
X7907692Y4886521D1*
X7930865Y4889204D1*
X7954175Y4890090D1*
X7977485Y4889174D1*
X8000654Y4886462D1*
X8023545Y4881970D1*
X8046021Y4875724D1*
X8067947Y4867762D1*
X8089194Y4858131D1*
X8109634Y4846889D1*
X8129145Y4834103D1*
X8147611Y4819849D1*
X8164922Y4804212D1*
X8180975Y4787286D1*
X8195673Y4769171D1*
X8208928Y4749976D1*
X8220663Y4729815D1*
X8230807Y4708808D1*
X8239299Y4687081D1*
X8246088Y4664763D1*
X8251135Y4641988D1*
X8254408Y4618892D1*
X8255983Y4588090D1*
X8255082Y4564780D1*
X10081367Y4874900D2*
X10068606Y4850559D1*
X10058704Y4835739D1*
X10047669Y4821742D1*
X10035570Y4808653D1*
X10022481Y4796555D1*
X10008484Y4785520D1*
X9993664Y4775617D1*
X9978113Y4766908D1*
X9961926Y4759446D1*
X9945204Y4753277D1*
X9928049Y4748439D1*
X9910567Y4744961D1*
X9892867Y4742866D1*
X9875057Y4742167D1*
X9857246Y4742866D1*
X9839546Y4744961D1*
X9822065Y4748439D1*
X9804910Y4753277D1*
X9788188Y4759446D1*
X9772001Y4766908D1*
X9756449Y4775617D1*
X9741629Y4785520D1*
X9727632Y4796555D1*
X9714543Y4808653D1*
X9702445Y4821742D1*
X9691410Y4835739D1*
X9681507Y4850559D1*
X9668746Y4874900D1*
X9655813Y4850559D1*
X9645910Y4835739D1*
X9634875Y4821742D1*
X9622777Y4808653D1*
X9609688Y4796555D1*
X9595691Y4785520D1*
X9580871Y4775617D1*
X9565319Y4766908D1*
X9549132Y4759446D1*
X9532410Y4753277D1*
X9515255Y4748439D1*
X9497774Y4744961D1*
X9480074Y4742866D1*
X9462263Y4742167D1*
X9444453Y4742866D1*
X9426753Y4744961D1*
X9409271Y4748439D1*
X9392116Y4753277D1*
X9375394Y4759446D1*
X9359207Y4766908D1*
X9343656Y4775617D1*
X9328836Y4785520D1*
X9314839Y4796555D1*
X9301750Y4808653D1*
X9289651Y4821742D1*
X9278616Y4835739D1*
X9268714Y4850559D1*
X9260005Y4866111D1*
X9252543Y4882298D1*
X9246374Y4899020D1*
X9241535Y4916175D1*
X9238058Y4933656D1*
X9235963Y4951356D1*
X9235263Y4969167D1*
X9235963Y4986977D1*
X9238058Y5004677D1*
X9241535Y5022159D1*
X9246374Y5039314D1*
X9252543Y5056036D1*
X9260005Y5072223D1*
X9268714Y5087774D1*
X9278616Y5102594D1*
X9289651Y5116591D1*
X9301750Y5129680D1*
X9314839Y5141779D1*
X9328836Y5152814D1*
X9343656Y5162716D1*
X9359207Y5171425D1*
X9375394Y5178887D1*
X9392116Y5185056D1*
X9409271Y5189895D1*
X9426753Y5193372D1*
X9444453Y5195467D1*
X9462263Y5196167D1*
X9480074Y5195467D1*
X9497774Y5193372D1*
X9515255Y5189895D1*
X9532410Y5185056D1*
X9549132Y5178887D1*
X9565319Y5171425D1*
X9580871Y5162716D1*
X9595691Y5152814D1*
X9609688Y5141779D1*
X9622777Y5129680D1*
X9634875Y5116591D1*
X9645910Y5102594D1*
X9655813Y5087774D1*
X9668574Y5063434D1*
X9681507Y5087774D1*
X9691410Y5102594D1*
X9702445Y5116591D1*
X9714543Y5129680D1*
X9727632Y5141779D1*
X9741629Y5152814D1*
X9756449Y5162716D1*
X9772001Y5171425D1*
X9788188Y5178887D1*
X9804910Y5185056D1*
X9822065Y5189895D1*
X9839546Y5193372D1*
X9857246Y5195467D1*
X9875057Y5196167D1*
X9892867Y5195467D1*
X9910567Y5193372D1*
X9928049Y5189895D1*
X9945204Y5185056D1*
X9961926Y5178887D1*
X9978113Y5171425D1*
X9993664Y5162716D1*
X10008484Y5152814D1*
X10022481Y5141779D1*
X10035570Y5129680D1*
X10047669Y5116591D1*
X10058704Y5102594D1*
X10068606Y5087774D1*
X10081367Y5063434D1*
X10094301Y5087774D1*
X10104203Y5102594D1*
X10115238Y5116591D1*
X10127337Y5129680D1*
X10140425Y5141779D1*
X10154423Y5152814D1*
X10169243Y5162716D1*
X10184794Y5171425D1*
X10200981Y5178887D1*
X10217703Y5185056D1*
X10234858Y5189895D1*
X10252339Y5193372D1*
X10270040Y5195467D1*
X10287850Y5196167D1*
X10305660Y5195467D1*
X10323361Y5193372D1*
X10340842Y5189895D1*
X10357997Y5185056D1*
X10374719Y5178887D1*
X10390906Y5171425D1*
X10406457Y5162716D1*
X10421277Y5152814D1*
X10435275Y5141779D1*
X10448363Y5129680D1*
X10460462Y5116591D1*
X10471497Y5102594D1*
X10481399Y5087774D1*
X10490108Y5072223D1*
X10497571Y5056036D1*
X10503740Y5039314D1*
X10508578Y5022159D1*
X10512055Y5004677D1*
X10514150Y4986977D1*
X10514850Y4969167D1*
X10514150Y4951356D1*
X10512055Y4933656D1*
X10508578Y4916175D1*
X10503740Y4899020D1*
X10497571Y4882298D1*
X10490108Y4866111D1*
X10481399Y4850559D1*
X10471497Y4835739D1*
X10460462Y4821742D1*
X10448363Y4808653D1*
X10435275Y4796555D1*
X10421277Y4785520D1*
X10406457Y4775617D1*
X10390906Y4766908D1*
X10374719Y4759446D1*
X10357997Y4753277D1*
X10340842Y4748439D1*
X10323361Y4744961D1*
X10305660Y4742866D1*
X10287850Y4742167D1*
X10270040Y4742866D1*
X10252339Y4744961D1*
X10234858Y4748439D1*
X10217703Y4753277D1*
X10200981Y4759446D1*
X10184794Y4766908D1*
X10169243Y4775617D1*
X10154423Y4785520D1*
X10140425Y4796555D1*
X10127337Y4808653D1*
X10115238Y4821742D1*
X10104203Y4835739D1*
X10094301Y4850559D1*
X10081540Y4874900D1*
X5107371Y3712555D2*
X5079628Y3714732D1*
X5052621Y3721216D1*
X5026960Y3731845D1*
X5003279Y3746357D1*
X4982159Y3764395D1*
X4964121Y3785515D1*
X4949609Y3809197D1*
X4938980Y3834857D1*
X4932496Y3861864D1*
X4930317Y3889553D1*
X4932496Y3917242D1*
X4938980Y3944249D1*
X4949609Y3969910D1*
X4964121Y3993591D1*
X4982159Y4014711D1*
X5003279Y4032749D1*
X5026960Y4047261D1*
X5052621Y4057890D1*
X5079628Y4064374D1*
X5107371Y4066551D1*
X5321204Y4066008D1*
X5348636Y4061663D1*
X5375052Y4053080D1*
X5399799Y4040471D1*
X5422269Y4024145D1*
X5441909Y4004506D1*
X5458234Y3982036D1*
X5470843Y3957288D1*
X5479426Y3930873D1*
X5483771Y3903441D1*
Y3875666D1*
X5479426Y3848234D1*
X5470843Y3821818D1*
X5458234Y3797071D1*
X5441909Y3774601D1*
X5422269Y3754961D1*
X5399799Y3738636D1*
X5375052Y3726027D1*
X5348636Y3717444D1*
X5321204Y3713099D1*
X5260650Y3712553D1*
X5107317Y3712644D1*
X4227707Y3996293D2*
X4354308D1*
X4354373Y4218577D1*
X4298108Y4274917D1*
X3699030Y4274970D1*
X3683181Y4275593D1*
X3667430Y4277457D1*
X3651874Y4280551D1*
X3636609Y4284857D1*
X3621728Y4290346D1*
X3607324Y4296987D1*
X3593485Y4304737D1*
X3580297Y4313549D1*
X3567841Y4323368D1*
X3539695Y4350634D1*
X3402538Y4488671D1*
X3392719Y4501127D1*
X3383907Y4514315D1*
X3376157Y4528154D1*
X3369516Y4542558D1*
X3364027Y4557439D1*
X3359721Y4572704D1*
X3356627Y4588260D1*
X3354763Y4604011D1*
X3354140Y4619860D1*
X3354763Y4635709D1*
X3356627Y4651460D1*
X3359721Y4667016D1*
X3364027Y4682281D1*
X3369516Y4697162D1*
X3376157Y4711566D1*
X3383907Y4725405D1*
X3392719Y4738593D1*
X3402538Y4751049D1*
X3413304Y4762696D1*
X3424951Y4773462D1*
X3437407Y4783281D1*
X3450595Y4792093D1*
X3464434Y4799843D1*
X3478838Y4806484D1*
X3493719Y4811973D1*
X3508984Y4816279D1*
X3524540Y4819373D1*
X3540291Y4821237D1*
X3556140Y4821860D1*
X3571989Y4821237D1*
X3587740Y4819373D1*
X3603296Y4816279D1*
X3618561Y4811973D1*
X3633442Y4806484D1*
X3647846Y4799843D1*
X3661685Y4792093D1*
X3674873Y4783281D1*
X3687329Y4773462D1*
X3715475Y4746196D1*
X3782696Y4678975D1*
X4381727Y4678970D1*
X4397575Y4678347D1*
X4413326Y4676483D1*
X4428883Y4673389D1*
X4444148Y4669083D1*
X4459029Y4663594D1*
X4473433Y4656953D1*
X4487271Y4649203D1*
X4500459Y4640391D1*
X4512915Y4630572D1*
X4541061Y4603306D1*
X4709976Y4433512D1*
X4719795Y4421056D1*
X4728607Y4407868D1*
X4736357Y4394030D1*
X4742997Y4379626D1*
X4748487Y4364745D1*
X4752792Y4349479D1*
X4755887Y4333923D1*
X4757751Y4318172D1*
X4758374Y4278990D1*
Y3996347D1*
X4908373Y3996293D1*
Y3592293D1*
X4883308D1*
X4883374Y2855293D1*
X4229374D1*
X4229373Y3592343D1*
X4204373Y3592293D1*
Y3996293D1*
X4227707D1*
X4275272Y1360497D2*
X4273595Y1337234D1*
X4269540Y1314266D1*
X4263150Y1291836D1*
X4254492Y1270179D1*
X4243658Y1249525D1*
X4230761Y1230092D1*
X4215939Y1212085D1*
X4199347Y1195694D1*
X4181161Y1181092D1*
X4161572Y1168433D1*
X4140788Y1157850D1*
X4119028Y1149457D1*
X4096521Y1143340D1*
X4073505Y1139565D1*
X4050224Y1138171D1*
X4026923Y1139174D1*
X4003847Y1142562D1*
X3981241Y1148301D1*
X3959343Y1156328D1*
X3938384Y1166560D1*
X3918586Y1178889D1*
X3900157Y1193184D1*
X3883293Y1209295D1*
X3868170Y1227051D1*
X3854949Y1246265D1*
X3843770Y1266734D1*
X3834750Y1288242D1*
X3827984Y1310562D1*
X3823545Y1333459D1*
X3821478Y1356690D1*
X3821806Y1380011D1*
X3824525Y1403175D1*
X3829607Y1425938D1*
X3836997Y1448059D1*
X3846619Y1469305D1*
X3858369Y1489452D1*
X3872125Y1508287D1*
X3887741Y1525610D1*
X3905052Y1541240D1*
X3923875Y1555012D1*
X3944012Y1566779D1*
X3965250Y1576418D1*
X3987365Y1583826D1*
X4010124Y1588927D1*
X4033285Y1591665D1*
X4056606Y1592012D1*
X4079839Y1589964D1*
X4102739Y1585544D1*
X4125065Y1578797D1*
X4146581Y1569794D1*
X4167059Y1558632D1*
X4186284Y1545427D1*
X4204052Y1530319D1*
X4220177Y1513468D1*
X4234487Y1495051D1*
X4246832Y1475263D1*
X4257082Y1454313D1*
X4265127Y1432421D1*
X4270884Y1409820D1*
X4274292Y1386747D1*
X4275320Y1365163D1*
X4275272Y1360497D1*
X7774317Y3238638D2*
X7772453Y3222887D1*
X7769359Y3207331D1*
X7765053Y3192065D1*
X7759564Y3177185D1*
X7752923Y3162781D1*
X7745173Y3148942D1*
X7736361Y3135754D1*
X7726542Y3123298D1*
X7715776Y3111651D1*
X7704129Y3100885D1*
X7691673Y3091065D1*
X7678485Y3082253D1*
X7664646Y3074503D1*
X7650242Y3067863D1*
X7635361Y3062373D1*
X7620096Y3058068D1*
X7604540Y3054974D1*
X7588789Y3053109D1*
X7572940Y3052487D1*
X7557091Y3053109D1*
X7541340Y3054974D1*
X7525784Y3058068D1*
X7510519Y3062373D1*
X7495638Y3067863D1*
X7481234Y3074503D1*
X7467395Y3082253D1*
X7454207Y3091065D1*
X7441751Y3100885D1*
X7430104Y3111651D1*
X7419338Y3123298D1*
X7409519Y3135754D1*
X7400707Y3148942D1*
X7392957Y3162781D1*
X7386316Y3177185D1*
X7380827Y3192065D1*
X7376521Y3207331D1*
X7373427Y3222887D1*
X7371563Y3238638D1*
X7370940Y3254487D1*
X7371563Y3270335D1*
X7373427Y3286086D1*
X7376521Y3301643D1*
X7380827Y3316908D1*
X7386316Y3331789D1*
X7392957Y3346193D1*
X7400707Y3360031D1*
X7409519Y3373219D1*
X7419338Y3385675D1*
X7430104Y3397322D1*
X7441751Y3408089D1*
X7454207Y3417908D1*
X7467395Y3426720D1*
X7481234Y3434470D1*
X7495638Y3441110D1*
X7510519Y3446600D1*
X7525784Y3450905D1*
X7541340Y3454000D1*
X7557091Y3455864D1*
X7572940Y3456487D1*
X7588789Y3455864D1*
X7604540Y3454000D1*
X7620096Y3450905D1*
X7635361Y3446600D1*
X7650242Y3441110D1*
X7664646Y3434470D1*
X7678485Y3426720D1*
X7691673Y3417908D1*
X7704129Y3408089D1*
X7715776Y3397322D1*
X7726542Y3385675D1*
X7736361Y3373219D1*
X7745173Y3360031D1*
X7752923Y3346193D1*
X7759564Y3331789D1*
X7765053Y3316908D1*
X7769359Y3301643D1*
X7772453Y3286086D1*
X7774317Y3270335D1*
X7774940Y3254487D1*
X7774317Y3238638D1*
X7291724D2*
X7289860Y3222887D1*
X7286765Y3207331D1*
X7282460Y3192065D1*
X7276970Y3177185D1*
X7270330Y3162781D1*
X7262580Y3148942D1*
X7253768Y3135754D1*
X7243949Y3123298D1*
X7233182Y3111651D1*
X7221535Y3100885D1*
X7209079Y3091065D1*
X7195891Y3082253D1*
X7182053Y3074503D1*
X7167649Y3067863D1*
X7152768Y3062373D1*
X7137503Y3058068D1*
X7121946Y3054974D1*
X7106195Y3053109D1*
X7090347Y3052487D1*
X7074498Y3053109D1*
X7058747Y3054974D1*
X7043191Y3058068D1*
X7027925Y3062373D1*
X7013045Y3067863D1*
X6998641Y3074503D1*
X6984802Y3082253D1*
X6971614Y3091065D1*
X6959158Y3100885D1*
X6947511Y3111651D1*
X6936745Y3123298D1*
X6926925Y3135754D1*
X6918113Y3148942D1*
X6910363Y3162781D1*
X6903723Y3177185D1*
X6898233Y3192065D1*
X6893928Y3207331D1*
X6890834Y3222887D1*
X6888969Y3238638D1*
X6888347Y3254487D1*
X6888969Y3270335D1*
X6890834Y3286086D1*
X6893928Y3301643D1*
X6898233Y3316908D1*
X6903723Y3331789D1*
X6910363Y3346193D1*
X6918113Y3360031D1*
X6926925Y3373219D1*
X6936745Y3385675D1*
X6947511Y3397322D1*
X6959158Y3408089D1*
X6971614Y3417908D1*
X6984802Y3426720D1*
X6998641Y3434470D1*
X7013045Y3441110D1*
X7027925Y3446600D1*
X7043191Y3450905D1*
X7058747Y3454000D1*
X7074498Y3455864D1*
X7090347Y3456487D1*
X7106195Y3455864D1*
X7121946Y3454000D1*
X7137503Y3450905D1*
X7152768Y3446600D1*
X7167649Y3441110D1*
X7182053Y3434470D1*
X7195891Y3426720D1*
X7209079Y3417908D1*
X7221535Y3408089D1*
X7233182Y3397322D1*
X7243949Y3385675D1*
X7253768Y3373219D1*
X7262580Y3360031D1*
X7270330Y3346193D1*
X7276970Y3331789D1*
X7282460Y3316908D1*
X7286765Y3301643D1*
X7289860Y3286086D1*
X7291724Y3270335D1*
X7292347Y3254487D1*
X7291724Y3238638D1*
X11293177Y1167180D2*
X11292927Y1133124D1*
X11290942Y1120588D1*
X11287020Y1108517D1*
X11281258Y1097209D1*
X11273798Y1086940D1*
X11264823Y1077966D1*
X11254555Y1070506D1*
X11243246Y1064743D1*
X11231175Y1060821D1*
X11218639Y1058836D1*
X11205947D1*
X11193411Y1060821D1*
X11181341Y1064743D1*
X11176857Y1066810D1*
X11166338Y1062545D1*
X11153996Y1059582D1*
X11136963Y1058587D1*
X11117970Y1059546D1*
X11105597Y1062482D1*
X11096249Y1062830D1*
X11083941Y1059729D1*
X11071300Y1058592D1*
X11058637Y1059445D1*
X11052371Y1060621D1*
X11043929Y1060821D1*
X11031393Y1058836D1*
X10967657D1*
X10960411Y1059732D1*
X10947770Y1058592D1*
X10935107Y1059444D1*
X10928840Y1060618D1*
X10909269Y1058697D1*
X10896581Y1059030D1*
X10884102Y1061345D1*
X10872138Y1065583D1*
X10860985Y1071640D1*
X10850916Y1079367D1*
X10842180Y1088575D1*
X10834992Y1099035D1*
X10793847Y1184997D1*
X10789925Y1197068D1*
X10787939Y1209604D1*
Y1222296D1*
X10788691Y1228627D1*
X10783623Y1234485D1*
X10774534Y1237655D1*
X10761292Y1233353D1*
X10747541Y1231175D1*
X10733619D1*
X10719868Y1233353D1*
X10713098Y1235244D1*
X10699560Y1231994D1*
X10685680Y1230901D1*
X10568265Y1231175D1*
X10554514Y1233353D1*
X10547741Y1235244D1*
X10534203Y1231994D1*
X10520323Y1230902D1*
X10506444Y1231994D1*
X10492906Y1235244D1*
X10480043Y1240572D1*
X10468172Y1247847D1*
X10457585Y1256889D1*
X10448543Y1267475D1*
X10441269Y1279346D1*
X10435941Y1292209D1*
X10433354Y1302411D1*
X10429872Y1289775D1*
X10424174Y1277072D1*
X10416558Y1265417D1*
X10407213Y1255096D1*
X10396369Y1246365D1*
X10384292Y1239438D1*
X10371280Y1234485D1*
X10357654Y1231628D1*
X10343748Y1230939D1*
X10329906Y1232433D1*
X10316468Y1236074D1*
X10303765Y1241773D1*
X10292110Y1249388D1*
X10281790Y1258733D1*
X10278266Y1262774D1*
X10269607Y1253801D1*
X10258577Y1245305D1*
X10246354Y1238639D1*
X10233239Y1233967D1*
X10219554Y1231405D1*
X10205637Y1231015D1*
X10191830Y1232806D1*
X10182634Y1235244D1*
X10169096Y1231994D1*
X10155217Y1230902D1*
X10087616Y1231267D1*
X10073893Y1233614D1*
X10036610Y1246121D1*
X10027569Y1243976D1*
X10015164Y1237655D1*
X10001922Y1233353D1*
X9988171Y1231175D1*
X9862110Y1230901D1*
X9848230Y1231994D1*
X9834624Y1235244D1*
X9821086Y1231994D1*
X9807207Y1230901D1*
X9739610Y1231267D1*
X9725886Y1233614D1*
X9688611Y1246118D1*
X9679562Y1243976D1*
X9667157Y1237655D1*
X9653916Y1233353D1*
X9640165Y1231175D1*
X9522747Y1230902D1*
X9508867Y1231994D1*
X9495264Y1235244D1*
X9481726Y1231994D1*
X9467847Y1230902D1*
X9453967Y1231994D1*
X9440429Y1235244D1*
X9427566Y1240572D1*
X9415695Y1247847D1*
X9408326Y1253914D1*
X9398113Y1245906D1*
X9385973Y1239090D1*
X9372916Y1234258D1*
X9359264Y1231527D1*
X9345352Y1230966D1*
X9331525Y1232588D1*
X9321261Y1235244D1*
X9307723Y1231994D1*
X9293843Y1230901D1*
X9226243Y1231267D1*
X9212520Y1233614D1*
X9175261Y1246110D1*
X9162820Y1252359D1*
X9151509Y1260477D1*
X9131259Y1280109D1*
X9123617Y1267475D1*
X9114575Y1256889D1*
X9103988Y1247847D1*
X9092117Y1240572D1*
X9079254Y1235244D1*
X9065716Y1231994D1*
X9051837Y1230902D1*
X9037957Y1231994D1*
X9024419Y1235244D1*
X9011556Y1240572D1*
X8999685Y1247847D1*
X8989099Y1256889D1*
X8980057Y1267475D1*
X8972782Y1279346D1*
X8967454Y1292209D1*
X8964204Y1305747D1*
X8963112Y1319627D1*
Y1382062D1*
X8910388Y1448501D1*
X8903505Y1460603D1*
X8898600Y1473633D1*
X8895794Y1487270D1*
X8895156Y1501178D1*
X8896701Y1515014D1*
X8900391Y1528439D1*
X8906137Y1541121D1*
X8913795Y1552748D1*
X8923178Y1563034D1*
X8934054Y1571725D1*
X8946157Y1578608D1*
X8959186Y1583513D1*
X8972823Y1586319D1*
X8986731Y1586958D1*
X9000568Y1585413D1*
X9013992Y1581722D1*
X9026674Y1575977D1*
X9038301Y1568318D1*
X9048587Y1558936D1*
X9051811Y1555211D1*
X9060040Y1563828D1*
X9071030Y1572375D1*
X9083222Y1579098D1*
X9096315Y1583830D1*
X9109988Y1586457D1*
X9123903Y1586912D1*
X9137718Y1585184D1*
X9151093Y1581317D1*
X9163698Y1575405D1*
X9171476Y1570354D1*
X9191100Y1577448D1*
X9213577Y1584554D1*
X9227329Y1586732D1*
X9293843Y1587005D1*
X9307723Y1585913D1*
X9321326Y1582663D1*
X9334864Y1585913D1*
X9348743Y1587005D1*
X9362623Y1585913D1*
X9376161Y1582663D1*
X9389024Y1577335D1*
X9400895Y1570060D1*
X9408264Y1563992D1*
X9421488Y1573931D1*
X9433893Y1580251D1*
X9447134Y1584554D1*
X9460885Y1586732D1*
X9474808D1*
X9488559Y1584554D1*
X9495329Y1582663D1*
X9508867Y1585913D1*
X9522747Y1587005D1*
X9640165Y1586732D1*
X9653916Y1584554D1*
X9667157Y1580251D1*
X9679585Y1573915D1*
X9688178Y1571811D1*
X9726944Y1584554D1*
X9740695Y1586732D1*
X9807207Y1587005D1*
X9821086Y1585913D1*
X9834624Y1582663D1*
X9847487Y1577335D1*
X9853588Y1573916D1*
X9858108Y1574057D1*
X9871217Y1580308D1*
X9884489Y1584512D1*
X9898284Y1586588D1*
X9945525Y1586538D1*
X9959276Y1584360D1*
X9972542Y1580047D1*
X10001104Y1565837D1*
X10012486Y1557771D1*
X10029419Y1568673D1*
X10047364Y1575758D1*
X10074951Y1584554D1*
X10088702Y1586732D1*
X10155217Y1587005D1*
X10169096Y1585913D1*
X10182634Y1582663D1*
X10195497Y1577335D1*
X10207368Y1570060D1*
X10217423Y1562810D1*
X10228268Y1571542D1*
X10240345Y1578469D1*
X10253356Y1583422D1*
X10266983Y1586278D1*
X10280888Y1586968D1*
X10294731Y1585474D1*
X10308169Y1581832D1*
X10320872Y1576134D1*
X10332527Y1568518D1*
X10342847Y1559173D1*
X10352123Y1549109D1*
X10365628Y1561214D1*
X10377444Y1568578D1*
X10395337Y1575693D1*
X10422961Y1584554D1*
X10436712Y1586732D1*
X10520323Y1587005D1*
X10534203Y1585913D1*
X10547809Y1582663D1*
X10561347Y1585913D1*
X10575227Y1587005D1*
X10692641Y1586732D1*
X10706392Y1584554D1*
X10713123Y1582653D1*
X10729246Y1586278D1*
X10743152Y1586968D1*
X10756994Y1585474D1*
X10770432Y1581832D1*
X10783135Y1576134D1*
X10794790Y1568518D1*
X10809119Y1555902D1*
X10818964Y1565747D1*
X10830228Y1573931D1*
X10842633Y1580251D1*
X10855874Y1584554D1*
X10869625Y1586732D1*
X10883548D1*
X10897299Y1584554D1*
X10910540Y1580251D1*
X10922945Y1573931D1*
X10938793Y1562810D1*
X10949638Y1571542D1*
X10961715Y1578469D1*
X10974726Y1583422D1*
X10988353Y1586278D1*
X11002258Y1586968D1*
X11016101Y1585474D1*
X11029539Y1581832D1*
X11042242Y1576134D1*
X11053897Y1568518D1*
X11064217Y1559173D1*
X11072963Y1548306D1*
X11078557Y1545722D1*
X11091037Y1557737D1*
X11102363Y1565834D1*
X11131090Y1580251D1*
X11144331Y1584554D1*
X11158082Y1586732D1*
X11198967Y1587005D1*
X11211856Y1586076D1*
X11225433Y1582991D1*
X11241779Y1576130D1*
X11262939Y1565211D1*
X11274155Y1556963D1*
X11300417Y1530465D1*
X11308620Y1519215D1*
X11323482Y1490222D1*
X11334529Y1457698D1*
X11337780Y1444160D1*
X11338872Y1430280D1*
X11338542Y1379990D1*
X11336259Y1366256D1*
X11323769Y1328576D1*
X11312098Y1304888D1*
X11304822Y1293018D1*
X11292398Y1279052D1*
X11273574Y1260646D1*
X11268068Y1256333D1*
X11264823Y1252018D1*
X11273798Y1243043D1*
X11281258Y1232775D1*
X11287020Y1221466D1*
X11290942Y1209395D1*
X11292927Y1196859D1*
X11293177Y1167180D1*
X11389647Y1782067D2*
X11353055Y1697108D1*
X11346071Y1685420D1*
X11337346Y1674969D1*
X11327092Y1666011D1*
X11315564Y1658768D1*
X11303045Y1653417D1*
X11289842Y1650091D1*
X11276282Y1648870D1*
X11262698Y1649786D1*
X11249424Y1652816D1*
X11236788Y1657885D1*
X11229951Y1661651D1*
X11217820Y1655469D1*
X11204872Y1651262D1*
X11191424Y1649132D1*
X11177809D1*
X11164362Y1651262D1*
X11151413Y1655469D1*
X11144553Y1658699D1*
X11130220Y1652786D1*
X11116943Y1649772D1*
X11103358Y1648871D1*
X11089799Y1650107D1*
X11077341Y1653230D1*
X11064654Y1650090D1*
X11051094Y1648870D1*
X11037509Y1649787D1*
X11024236Y1652818D1*
X11011600Y1657888D1*
X11005597Y1661164D1*
X11001193Y1659688D1*
X10985912Y1653112D1*
X10972673Y1649933D1*
X10954754Y1648865D1*
X10930819Y1649113D1*
X10917365Y1651203D1*
X10904404Y1655372D1*
X10883609Y1665590D1*
X10878623Y1665804D1*
X10857814Y1655469D1*
X10844865Y1651262D1*
X10831418Y1649132D1*
X10796159Y1649112D1*
X10782705Y1651202D1*
X10769744Y1655371D1*
X10760858Y1659566D1*
X10745905Y1653111D1*
X10732666Y1649933D1*
X10719093Y1648865D1*
X10705520Y1649933D1*
X10692281Y1653111D1*
X10679029Y1658699D1*
X10665719Y1653111D1*
X10652480Y1649933D1*
X10638907Y1648865D1*
X10625334Y1649933D1*
X10612095Y1653111D1*
X10598750Y1658751D1*
X10585362Y1653111D1*
X10572123Y1649933D1*
X10558550Y1648865D1*
X10544977Y1649933D1*
X10535001Y1652110D1*
X10521646Y1649461D1*
X10508041Y1648933D1*
X10494521Y1650541D1*
X10481419Y1654243D1*
X10469058Y1659950D1*
X10457742Y1667520D1*
X10447749Y1676767D1*
X10439325Y1687464D1*
X10428345Y1703915D1*
X10426246Y1697501D1*
X10427209Y1683920D1*
X10426037Y1670356D1*
X10422757Y1657141D1*
X10417450Y1644603D1*
X10410247Y1633049D1*
X10401326Y1622765D1*
X10390905Y1614002D1*
X10376344Y1605529D1*
X10358543Y1596930D1*
X10345563Y1592822D1*
X10332073Y1590795D1*
X10297249Y1590845D1*
X10283802Y1592975D1*
X10270829Y1597194D1*
X10244971Y1610062D1*
X10233860Y1617930D1*
X10220111Y1631349D1*
X10211387Y1641802D1*
X10207654Y1647533D1*
X10204873Y1649933D1*
X10186953Y1648865D1*
X10163008Y1649113D1*
X10153996Y1649933D1*
X10140423Y1648865D1*
X10126850Y1649933D1*
X10117018Y1652151D1*
X10100171Y1649132D1*
X10086556D1*
X10073108Y1651262D1*
X10060160Y1655470D1*
X10053299Y1658699D1*
X10039989Y1653111D1*
X10026750Y1649933D1*
X10013177Y1648865D1*
X9999604Y1649933D1*
X9986365Y1653111D1*
X9973020Y1658751D1*
X9959635Y1653111D1*
X9946396Y1649933D1*
X9932823Y1648865D1*
X9919250Y1649933D1*
X9906011Y1653111D1*
X9891227Y1659557D1*
X9876189Y1653111D1*
X9862950Y1649933D1*
X9844996Y1648865D1*
X9830331D1*
X9825253Y1639252D1*
X9817250Y1628237D1*
X9807623Y1618610D1*
X9796608Y1610607D1*
X9784477Y1604426D1*
X9771528Y1600219D1*
X9758081Y1598089D1*
X9744466D1*
X9731018Y1600219D1*
X9718070Y1604426D1*
X9705939Y1610607D1*
X9694924Y1618610D1*
X9685297Y1628237D1*
X9677294Y1639252D1*
X9670035Y1654304D1*
X9647111Y1665103D1*
X9639829Y1668930D1*
X9613260Y1655469D1*
X9600312Y1651262D1*
X9586864Y1649132D1*
X9551775Y1649112D1*
X9542756Y1649933D1*
X9529183Y1648865D1*
X9515610Y1649933D1*
X9502371Y1653111D1*
X9487587Y1659557D1*
X9472545Y1653111D1*
X9459306Y1649933D1*
X9441353Y1648865D1*
X9417274Y1649113D1*
X9408266Y1649933D1*
X9394693Y1648865D1*
X9381120Y1649933D1*
X9371288Y1652150D1*
X9354441Y1649132D1*
X9245547Y1648865D1*
X9231974Y1649933D1*
X9218735Y1653112D1*
X9211111Y1656038D1*
X9196842Y1651262D1*
X9183394Y1649132D1*
X9154535Y1648865D1*
X9140937Y1649962D1*
X9118300Y1648865D1*
X9104727Y1649933D1*
X9091488Y1653111D1*
X9081205Y1657263D1*
X9063383Y1651517D1*
X9049963Y1649222D1*
X9020197Y1648865D1*
X9006624Y1649933D1*
X8993360Y1653121D1*
X8981170Y1657239D1*
X8970805Y1653111D1*
X8957566Y1649933D1*
X8943993Y1648865D1*
X8929507Y1650115D1*
X8914975Y1648866D1*
X8886142Y1649132D1*
X8872695Y1651262D1*
X8859746Y1655469D1*
X8832999Y1669143D1*
X8821979Y1677183D1*
X8798160Y1700797D1*
X8790093Y1711764D1*
X8783841Y1723859D1*
X8774187Y1752184D1*
X8770939Y1765406D1*
X8769798Y1782328D1*
X8770066Y1800728D1*
X8772195Y1814175D1*
X8781430Y1843066D1*
X8786707Y1855617D1*
X8793881Y1867188D1*
X8808317Y1883035D1*
X8822114Y1896453D1*
X8833129Y1904456D1*
X8854147Y1915325D1*
X8860381Y1918139D1*
X8863833Y1921967D1*
X8870014Y1934098D1*
X8878017Y1945113D1*
X8887644Y1954740D1*
X8898659Y1962743D1*
X8910790Y1968924D1*
X8923738Y1973131D1*
X8937186Y1975261D1*
X8950801D1*
X8964248Y1973131D1*
X8977197Y1968924D1*
X8989328Y1962743D1*
X9000343Y1954740D1*
X9009970Y1945113D1*
X9017973Y1934098D1*
X9022984Y1924505D1*
X9049359Y1924181D1*
X9062795Y1921980D1*
X9081233Y1916164D1*
X9091488Y1920239D1*
X9104727Y1923417D1*
X9118300Y1924485D1*
X9131873Y1923417D1*
X9145112Y1920239D1*
X9158364Y1914651D1*
X9171675Y1920238D1*
X9184914Y1923417D1*
X9189169Y1923920D1*
X9200311Y1936922D1*
X9211112Y1947340D1*
X9222129Y1955340D1*
X9243131Y1966199D1*
X9255749Y1971313D1*
X9269011Y1974391D1*
X9287762Y1975359D1*
X9317884Y1975091D1*
X9331332Y1972961D1*
X9344304Y1968743D1*
X9352804Y1964754D1*
X9367881Y1971282D1*
X9381120Y1974460D1*
X9394693Y1975529D1*
X9408266Y1974460D1*
X9421505Y1971282D1*
X9434084Y1966072D1*
X9445693Y1958958D1*
X9456046Y1950116D1*
X9464888Y1939763D1*
X9472002Y1928154D1*
X9475932Y1919046D1*
X9487529Y1913829D1*
X9502371Y1920239D1*
X9515610Y1923417D1*
X9529183Y1924485D1*
X9543670Y1923235D1*
X9558327Y1924485D1*
X9585805Y1924295D1*
X9599277Y1922329D1*
X9612277Y1918281D1*
X9634577Y1907541D1*
X9646207Y1907626D1*
X9667253Y1917976D1*
X9680214Y1922146D1*
X9693694Y1924238D1*
X9728934Y1924218D1*
X9737700Y1923417D1*
X9751273Y1924485D1*
X9764846Y1923417D1*
X9778085Y1920239D1*
X9789335Y1915641D1*
X9800661Y1920238D1*
X9813900Y1923417D1*
X9831854Y1924485D1*
X9855527Y1924267D1*
X9868991Y1922239D1*
X9881971Y1918130D1*
X9902043Y1908393D1*
X9922670Y1918281D1*
X9935669Y1922330D1*
X9949168Y1924295D1*
X9983431Y1924218D1*
X9996878Y1922088D1*
X10003460Y1920229D1*
X10009269Y1920558D1*
X10022546Y1923576D1*
X10043770Y1924485D1*
X10063618Y1924218D1*
X10079790Y1923417D1*
X10093363Y1924485D1*
X10106936Y1923417D1*
X10116769Y1921199D1*
X10133616Y1924218D1*
X10147231D1*
X10155994Y1923417D1*
X10173913Y1924485D1*
X10197048Y1924295D1*
X10210521Y1922330D1*
X10223520Y1918281D1*
X10240562Y1910157D1*
X10254658Y1914845D1*
X10268106Y1916974D1*
X10281721D1*
X10290730Y1916212D1*
X10308437Y1917242D1*
X10326127Y1917240D1*
X10328017Y1918667D1*
X10333723Y1931029D1*
X10341294Y1942345D1*
X10350541Y1952338D1*
X10361237Y1960761D1*
X10373120Y1967408D1*
X10385896Y1972113D1*
X10399251Y1974763D1*
X10412856Y1975290D1*
X10426375Y1973682D1*
X10439477Y1969980D1*
X10451839Y1964273D1*
X10463155Y1956703D1*
X10473148Y1947456D1*
X10481571Y1936759D1*
X10508844Y1895897D1*
X10521538Y1905006D1*
X10548400Y1918281D1*
X10561399Y1922329D1*
X10574898Y1924295D1*
X10609158Y1924218D1*
X10622605Y1922088D1*
X10629187Y1920229D1*
X10635007Y1920561D1*
X10648284Y1923577D1*
X10669500Y1924485D1*
X10689348Y1924218D1*
X10705520Y1923417D1*
X10719093Y1924485D1*
X10732666Y1923417D1*
X10745905Y1920239D1*
X10760736Y1913767D1*
X10775898Y1920239D1*
X10789137Y1923417D1*
X10807090Y1924485D1*
X10831418Y1924218D1*
X10844865Y1922088D1*
X10857838Y1917870D1*
X10878510Y1907772D1*
X10884272Y1908261D1*
X10904166Y1917881D1*
X10917115Y1922088D1*
X10930562Y1924218D1*
X10964848Y1924295D1*
X10978321Y1922330D1*
X10991320Y1918281D1*
X11013598Y1907554D1*
X11025165Y1900373D1*
X11038363Y1888539D1*
X11040117Y1886764D1*
X11050321Y1899072D1*
X11060674Y1907914D1*
X11072283Y1915028D1*
X11084861Y1920239D1*
X11098100Y1923417D1*
X11105424Y1924240D1*
X11110637Y1934098D1*
X11118640Y1945113D1*
X11128267Y1954740D1*
X11139282Y1962743D1*
X11151413Y1968924D1*
X11164362Y1973131D1*
X11177809Y1975261D1*
X11191424D1*
X11204872Y1973131D1*
X11217820Y1968924D1*
X11229951Y1962743D1*
X11240966Y1954740D1*
X11250593Y1945113D1*
X11258596Y1934098D1*
X11264777Y1921967D1*
X11266555Y1917148D1*
X11275362Y1912649D1*
X11286918Y1918292D1*
X11299918Y1922336D1*
X11313391Y1924296D1*
X11327005Y1924125D1*
X11340425Y1921826D1*
X11353320Y1917456D1*
X11365372Y1911123D1*
X11376285Y1902982D1*
X11385790Y1893235D1*
X11393654Y1882120D1*
X11399682Y1869912D1*
X11403726Y1856912D1*
X11405686Y1843439D1*
X11405515Y1829825D1*
X11403216Y1816405D1*
X11398846Y1803510D1*
X11389647Y1782067D1*
X4048320Y1592072D2*
D18*
Y1138254D1*
X3821411Y1365163D2*
X4275229D1*
D25*
X4048317Y2651153D3*
D26*
X9875057Y4969167D3*
X10287850D3*
D25*
X2254253Y2651153D3*
D27*
X5207317Y3889553D3*
D18*
X1206393Y3651383D3*
D25*
X3159223Y3540247D3*
D18*
X1428667Y3873657D3*
X1539803Y3984793D3*
D25*
X2063733Y1777937D3*
D18*
X1984350Y4429340D3*
X1762077Y4207067D3*
D25*
X6334557Y2127223D3*
D18*
X1873213Y4318203D3*
X2095487Y4540477D3*
D25*
X4683383Y2095470D3*
D18*
X2206623Y4651613D3*
X2317760Y4762750D3*
D25*
X9621027Y2063717D3*
D18*
X1650940Y4095930D3*
X2428897Y4873887D3*
D25*
X11176940Y2063717D3*
D18*
X2540033Y4985023D3*
X1095257Y3540247D3*
D25*
X11208693Y3905410D3*
D18*
X2651170Y5096160D3*
D26*
X9462263Y4969167D3*
D25*
X9605150Y3905410D3*
D18*
X2762307Y5207297D3*
D28*
X4556373Y3794293D3*
Y3540293D3*
Y3286293D3*
Y3032293D3*
Y2778187D3*
D29*
X4048320Y1365163D3*
D18*
X1317530Y3762520D3*
D31*
X7572940Y3254487D3*
X7090347D3*
X11212293Y1190513D2*
D19*
Y1139470D1*
X11319110Y1837720D2*
D22*
X11275310Y1735630D1*
X11231677Y1837720D1*
X11184617Y1888763D2*
Y1735630D1*
X11111673Y1837720D2*
X11184617Y1764777D1*
X11155473Y1793920D2*
X11104430Y1735630D1*
X11050127Y1750287D2*
X11057373Y1742877D1*
X11050127Y1735630D1*
X11042717Y1742877D1*
X11050127Y1750287D1*
X10908057Y1815820D2*
X10922713Y1830477D1*
X10937370Y1837720D1*
X10959100D1*
X10973757Y1830477D1*
X10988243Y1815820D1*
X10995657Y1793920D1*
Y1779430D1*
X10988243Y1757530D1*
X10973757Y1743043D1*
X10959100Y1735630D1*
X10937370D1*
X10922713Y1743043D1*
X10908057Y1757530D1*
X10824610Y1837720D2*
X10839097Y1830477D1*
X10853753Y1815820D1*
X10860997Y1793920D1*
Y1779430D1*
X10853753Y1757530D1*
X10839097Y1743043D1*
X10824610Y1735630D1*
X10802710D1*
X10788053Y1743043D1*
X10773567Y1757530D1*
X10766153Y1779430D1*
Y1793920D1*
X10773567Y1815820D1*
X10788053Y1830477D1*
X10802710Y1837720D1*
X10824610D1*
X10719093D2*
Y1735630D1*
Y1808577D2*
X10697193Y1830477D1*
X10682540Y1837720D1*
X10660807D1*
X10646150Y1830477D1*
X10638907Y1808577D1*
Y1735630D1*
Y1808577D2*
X10617007Y1830477D1*
X10602350Y1837720D1*
X10580620D1*
X10565963Y1830477D1*
X10558550Y1808577D1*
Y1735630D1*
X10511493D2*
X10409403Y1888593D1*
X10274913Y1830477D2*
Y1713730D1*
X10282157Y1692000D1*
X10289403Y1684587D1*
X10304057Y1677343D1*
X10325957D1*
X10340447Y1684587D1*
X10274913Y1808577D2*
X10289403Y1823063D1*
X10304057Y1830477D1*
X10325957D1*
X10340447Y1823063D1*
X10355103Y1808577D1*
X10362347Y1786677D1*
Y1772020D1*
X10355103Y1750287D1*
X10340447Y1735630D1*
X10325957Y1728390D1*
X10304057D1*
X10289403Y1735630D1*
X10274913Y1750287D1*
X10140423Y1837720D2*
Y1735630D1*
Y1815820D2*
X10154913Y1830477D1*
X10169567Y1837720D1*
X10191300D1*
X10205957Y1830477D1*
X10220443Y1815820D1*
X10227857Y1793920D1*
Y1779430D1*
X10220443Y1757530D1*
X10205957Y1743043D1*
X10191300Y1735630D1*
X10169567D1*
X10154913Y1743043D1*
X10140423Y1757530D1*
X10093363Y1837720D2*
Y1735630D1*
Y1808577D2*
X10071467Y1830477D1*
X10056810Y1837720D1*
X10035077D1*
X10020423Y1830477D1*
X10013177Y1808577D1*
Y1735630D1*
Y1808577D2*
X9991277Y1830477D1*
X9976623Y1837720D1*
X9954890D1*
X9940233Y1830477D1*
X9932823Y1808577D1*
Y1735630D1*
X9885763Y1793920D2*
X9798330D1*
Y1808577D1*
X9805573Y1823230D1*
X9812820Y1830477D1*
X9827473Y1837720D1*
X9849377D1*
X9863863Y1830477D1*
X9878520Y1815820D1*
X9885763Y1793920D1*
Y1779430D1*
X9878520Y1757530D1*
X9863863Y1743043D1*
X9849377Y1735630D1*
X9827473D1*
X9812820Y1743043D1*
X9798330Y1757530D1*
X9751273Y1837720D2*
Y1684587D1*
Y1815820D2*
X9736617Y1830307D1*
X9722127Y1837720D1*
X9700227D1*
X9685573Y1830307D1*
X9671087Y1815820D1*
X9663673Y1793920D1*
Y1779263D1*
X9671087Y1757530D1*
X9685573Y1742877D1*
X9700227Y1735630D1*
X9722127D1*
X9736617Y1742877D1*
X9751273Y1757530D1*
X9529183Y1837720D2*
Y1735630D1*
Y1815820D2*
X9543670Y1830477D1*
X9558327Y1837720D1*
X9580057D1*
X9594713Y1830477D1*
X9609200Y1815820D1*
X9616613Y1793920D1*
Y1779430D1*
X9609200Y1757530D1*
X9594713Y1743043D1*
X9580057Y1735630D1*
X9558327D1*
X9543670Y1743043D1*
X9529183Y1757530D1*
X9394693Y1888763D2*
Y1735630D1*
Y1815820D2*
X9409180Y1830477D1*
X9423833Y1837720D1*
X9445733D1*
X9460223Y1830477D1*
X9474880Y1815820D1*
X9482123Y1793920D1*
Y1779430D1*
X9474880Y1757530D1*
X9460223Y1743043D1*
X9445733Y1735630D1*
X9423833D1*
X9409180Y1743043D1*
X9394693Y1757530D1*
X9340220Y1852207D2*
Y1859450D1*
X9332977Y1874107D1*
X9325733Y1881350D1*
X9311077Y1888593D1*
X9281933D1*
X9267447Y1881350D1*
X9260200Y1874107D1*
X9252790Y1859450D1*
Y1844963D1*
X9260200Y1830307D1*
X9274690Y1808577D1*
X9347633Y1735630D1*
X9245547D1*
X9198487Y1837720D2*
Y1764777D1*
X9191243Y1743043D1*
X9176587Y1735630D1*
X9154687D1*
X9140200Y1743043D1*
X9118300Y1764777D1*
Y1837720D2*
Y1735630D1*
X8991053Y1815820D2*
X8998297Y1830477D1*
X9020197Y1837720D1*
X9042097D1*
X9063997Y1830477D1*
X9071240Y1815820D1*
X9063997Y1801330D1*
X9049340Y1793920D1*
X9012953Y1786677D1*
X8998297Y1779430D1*
X8991053Y1764777D1*
Y1757530D1*
X8998297Y1743043D1*
X9020197Y1735630D1*
X9042097D1*
X9063997Y1743043D1*
X9071240Y1757530D1*
X8943993Y1888763D2*
Y1735630D1*
Y1815820D2*
X8929337Y1830477D1*
X8914850Y1837720D1*
X8892950D1*
X8878463Y1830477D1*
X8863807Y1815820D1*
X8856563Y1793920D1*
Y1779430D1*
X8863807Y1757530D1*
X8878463Y1743043D1*
X8892950Y1735630D1*
X8914850D1*
X8929337Y1743043D1*
X8943993Y1757530D1*
X11212293Y1168613D2*
D19*
X11208587Y1179563D1*
X11201343Y1186890D1*
X11194017Y1190513D1*
X11183067D1*
X11159537Y1168613D2*
X11115820D1*
Y1175940D1*
X11119443Y1183270D1*
X11123067Y1186890D1*
X11130393Y1190513D1*
X11141343D1*
X11148587Y1186890D1*
X11155913Y1179563D1*
X11159537Y1168613D1*
Y1161370D1*
X11155913Y1150420D1*
X11148587Y1143177D1*
X11141343Y1139470D1*
X11130393D1*
X11123067Y1143177D1*
X11115820Y1150420D1*
X11092293Y1190513D2*
X11070393Y1139470D1*
X11048577Y1190513D1*
X11021340Y1197757D2*
Y1201380D1*
X11017717Y1208707D1*
X11014097Y1212327D1*
X11006767Y1215950D1*
X10992197D1*
X10984953Y1212327D1*
X10981330Y1208707D1*
X10977627Y1201380D1*
Y1194137D1*
X10981330Y1186807D1*
X10988573Y1175940D1*
X11025047Y1139470D1*
X10974003D1*
X10946850Y1146797D2*
X10950473Y1143090D1*
X10946850Y1139470D1*
X10943147Y1143090D1*
X10946850Y1146797D1*
X10905043Y1139470D2*
X10868573Y1215950D1*
X10919617D1*
X11122590Y1455830D2*
D23*
X11131043Y1472730D1*
X11148140Y1489830D1*
X11165043Y1498280D1*
X11199047D1*
X11216143Y1489830D1*
X11233047Y1472730D1*
X11241693Y1455830D1*
X11250147Y1430280D1*
Y1387630D1*
X11241693Y1362277D1*
X11233047Y1345177D1*
X11216143Y1328277D1*
X11199047Y1319627D1*
X11165043D1*
X11148140Y1328277D1*
X11131043Y1345177D1*
X11122590Y1362277D1*
Y1387630D1*
X11165043D1*
X10931487Y1319627D2*
X10999687Y1498280D1*
X11067690Y1319627D1*
X11042140Y1379180D2*
X10957037D1*
X10740580Y1319627D2*
Y1498280D1*
X10808583Y1319627D1*
X10876587Y1498280D1*
Y1319627D1*
X10575227Y1498280D2*
X10685680D1*
Y1319627D1*
X10575227D1*
X10685680Y1413180D2*
X10617677D1*
X10520323Y1404730D2*
X10443673D1*
X10418320Y1413180D1*
X10409673Y1421827D1*
X10401220Y1438730D1*
Y1464280D1*
X10409673Y1481183D1*
X10418320Y1489830D1*
X10443673Y1498280D1*
X10520323D1*
Y1319627D1*
X10210117D2*
X10278317Y1498280D1*
X10346320Y1319627D1*
X10320770Y1379180D2*
X10235667D1*
X10155217Y1498280D2*
Y1319627D1*
X10095663D1*
X10070113Y1328277D1*
X10053017Y1345177D1*
X10044563Y1362277D1*
X10036113Y1387630D1*
Y1430280D1*
X10044563Y1455830D1*
X10053017Y1472730D1*
X10070113Y1489830D1*
X10095663Y1498280D1*
X10155217D1*
X9972563Y1455633D2*
Y1464083D1*
X9964113Y1481183D1*
X9955660Y1489633D1*
X9938563Y1498087D1*
X9904560D1*
X9887660Y1489633D1*
X9879207Y1481183D1*
X9870560Y1464083D1*
Y1447180D1*
X9879207Y1430083D1*
X9896110Y1404730D1*
X9981210Y1319627D1*
X9862110D1*
X9807207Y1498280D2*
Y1319627D1*
X9747657D1*
X9722107Y1328277D1*
X9705007Y1345177D1*
X9696557Y1362277D1*
X9688107Y1387630D1*
Y1430280D1*
X9696557Y1455830D1*
X9705007Y1472730D1*
X9722107Y1489830D1*
X9747657Y1498280D1*
X9807207D1*
X9522747D2*
X9633203D1*
Y1319627D1*
X9522747D1*
X9633203Y1413180D2*
X9565200D1*
X9348743Y1498280D2*
Y1319627D1*
X9467847Y1498280D1*
Y1319627D1*
X9293843Y1498280D2*
Y1319627D1*
X9234290D1*
X9208740Y1328277D1*
X9191643Y1345177D1*
X9183190Y1362277D1*
X9174740Y1387630D1*
Y1430280D1*
X9183190Y1455830D1*
X9191643Y1472730D1*
X9208740Y1489830D1*
X9234290Y1498280D1*
X9293843D1*
X9119837D2*
X9051837Y1413180D1*
Y1319627D1*
X8983833Y1498280D2*
X9051837Y1413180D1*
X4556373Y8096870D2*
D17*
Y8604900D1*
X4381727Y8779547D1*
X3699030D1*
X3556140Y8922437D1*
D3*
D32*
X6890240Y7318893D3*
X7382417D3*
X1063046Y9497487D2*
D14*
X4382238D1*
X4762290D2*
X4893931D1*
X5139634D2*
X5656092D1*
X5901704D2*
X8383176D1*
X8763228D2*
X9433449D1*
X9491118D2*
X9846249D1*
X9903918D2*
X10258957D1*
X10316717D2*
X12066561D1*
X1063046Y9447820D2*
X1251105D1*
X1447499D2*
X4382238D1*
X4762290D2*
X4836600D1*
X5196965D2*
X5598671D1*
X5959035D2*
X6442772D1*
X6639165D2*
X8383176D1*
X8763228D2*
X9313957D1*
X9610520D2*
X9726757D1*
X10023319D2*
X10139556D1*
X10436118D2*
X11682108D1*
X11878501D2*
X12066561D1*
X1063046Y9398153D2*
X1157863D1*
X1540741D2*
X4382238D1*
X4762290D2*
X4805520D1*
X5228137D2*
X5567590D1*
X5990207D2*
X6349530D1*
X6732408D2*
X8383176D1*
X8763228D2*
X9268749D1*
X9655819D2*
X9681506D1*
X10068618D2*
X10094348D1*
X10481418D2*
X11588866D1*
X11971743D2*
X12066561D1*
X1063046Y9348487D2*
X1107915D1*
X1590689D2*
X4382238D1*
X4762199D2*
X4789296D1*
X5244270D2*
X5551366D1*
X6006340D2*
X6299582D1*
X6782355D2*
X8383176D1*
X8763137D2*
X9243592D1*
X10506483D2*
X11538918D1*
X12021691D2*
X12066561D1*
X1622772Y9298820D2*
X4415233D1*
X4729204D2*
X4784829D1*
X5248736D2*
X5546900D1*
X6010806D2*
X6267499D1*
X6814439D2*
X8416171D1*
X8730142D2*
X9231926D1*
X10518241D2*
X11506743D1*
X1643007Y9249153D2*
X4791392D1*
X5242173D2*
X5553462D1*
X6004335D2*
X6247264D1*
X6834673D2*
X9231379D1*
X10518697D2*
X11486600D1*
X1653762Y9199487D2*
X4809986D1*
X5223579D2*
X5572056D1*
X5985650D2*
X6236509D1*
X6845428D2*
X9242043D1*
X10508033D2*
X11475845D1*
X1656132Y9149820D2*
X4844712D1*
X5188853D2*
X5606783D1*
X5951014D2*
X6234139D1*
X6847798D2*
X7793918D1*
X8114087D2*
X9265741D1*
X10484335D2*
X11473475D1*
X1650207Y9100153D2*
X3455103D1*
X3657147D2*
X4910793D1*
X5122772D2*
X5672954D1*
X5884842D2*
X6240064D1*
X6841874D2*
X7731483D1*
X8176522D2*
X9308671D1*
X9615897D2*
X9721470D1*
X10028697D2*
X10134270D1*
X10441496D2*
X11479400D1*
X1635533Y9050487D2*
X3394947D1*
X3718762D2*
X6254738D1*
X6827199D2*
X7692746D1*
X8215259D2*
X9406561D1*
X9518007D2*
X9819361D1*
X9930806D2*
X10232069D1*
X10343605D2*
X11494074D1*
X1610559Y9000820D2*
X3364960D1*
X3768436D2*
X6279712D1*
X6802316D2*
X7667772D1*
X8240142D2*
X11518957D1*
X12041561D2*
X12066561D1*
X1063046Y8951153D2*
X1126691D1*
X1571913D2*
X3351197D1*
X4493319D2*
X6318358D1*
X6763579D2*
X7653098D1*
X8254908D2*
X11557694D1*
X12002915D2*
X12066561D1*
X1063046Y8901487D2*
X1189126D1*
X1509478D2*
X3350194D1*
X4550467D2*
X6380793D1*
X6701145D2*
X7647173D1*
X8260832D2*
X11620129D1*
X11940480D2*
X12066561D1*
X1063046Y8851820D2*
X3361861D1*
X4600142D2*
X7649452D1*
X8258462D2*
X12066561D1*
X1063046Y8802153D2*
X3388840D1*
X4649816D2*
X7660207D1*
X8247707D2*
X12066561D1*
X1063046Y8752487D2*
X3435415D1*
X4699491D2*
X7680441D1*
X8227473D2*
X12066561D1*
X1063046Y8702820D2*
X3485090D1*
X4738046D2*
X7712525D1*
X8195480D2*
X12066561D1*
X1063046Y8653153D2*
X3534764D1*
X4757551D2*
X7762473D1*
X8145533D2*
X12066561D1*
X1063046Y8603487D2*
X3595012D1*
X4763384D2*
X7855533D1*
X8052382D2*
X12066561D1*
X1063046Y8553820D2*
X4316796D1*
X4763384D2*
X12066561D1*
X1063046Y8504153D2*
X4349335D1*
X4763384D2*
X12066561D1*
X1063046Y8454487D2*
X4349335D1*
X4763384D2*
X12066561D1*
X1063046Y8404820D2*
X3734829D1*
X3949087D2*
X4349335D1*
X4763384D2*
X12066561D1*
X1063046Y8355153D2*
X3661822D1*
X4022095D2*
X4349335D1*
X4763384D2*
X5033384D1*
X5381262D2*
X12066561D1*
X1063046Y8305487D2*
X3622538D1*
X4061379D2*
X4349335D1*
X4763384D2*
X4966392D1*
X5448254D2*
X12066561D1*
X1063046Y8255820D2*
X3599660D1*
X4084348D2*
X4199400D1*
X5477421D2*
X12066561D1*
X1063046Y8206153D2*
X3588449D1*
X4095559D2*
X4199400D1*
X5488723D2*
X12066561D1*
X1063046Y8156487D2*
X3587447D1*
X4096561D2*
X4199400D1*
X5485715D2*
X12066561D1*
X1063046Y8106820D2*
X3596470D1*
X4087447D2*
X4199400D1*
X4913410D2*
X4947227D1*
X5467395D2*
X12066561D1*
X1063046Y8057153D2*
X3616796D1*
X4067121D2*
X4199400D1*
X4913410D2*
X4987811D1*
X5426835D2*
X12066561D1*
X1063046Y8007487D2*
X3652069D1*
X4031848D2*
X4199400D1*
X4913410D2*
X12066561D1*
X1063046Y7957820D2*
X3714686D1*
X3969230D2*
X4199400D1*
X4913410D2*
X12066561D1*
X1063046Y7908153D2*
X4199400D1*
X4913410D2*
X12066561D1*
X1063046Y7858487D2*
X4224374D1*
X4888345D2*
X12066561D1*
X1063046Y7808820D2*
X4224374D1*
X4888345D2*
X12066561D1*
X1063046Y7759153D2*
X4224374D1*
X4888345D2*
X11627512D1*
X11933007D2*
X12066561D1*
X1063046Y7709487D2*
X4224374D1*
X4888345D2*
X6952824D1*
X7227876D2*
X7435350D1*
X7710493D2*
X11576743D1*
X11983866D2*
X12066561D1*
X1063046Y7659820D2*
X4224374D1*
X4888345D2*
X6911444D1*
X7269257D2*
X7394061D1*
X7751874D2*
X11547030D1*
X12013579D2*
X12066561D1*
X1063046Y7610153D2*
X4224374D1*
X4888345D2*
X6890480D1*
X7290220D2*
X7373007D1*
X7772837D2*
X11530624D1*
X12029895D2*
X12066561D1*
X1063046Y7560487D2*
X4224374D1*
X4888345D2*
X6883371D1*
X7297329D2*
X7365988D1*
X7779947D2*
X11524973D1*
X12035637D2*
X12066561D1*
X1063046Y7510820D2*
X4224374D1*
X4888345D2*
X6888749D1*
X7291952D2*
X7371275D1*
X7774569D2*
X11529257D1*
X12031353D2*
X12066561D1*
X1063046Y7461153D2*
X4224374D1*
X4888345D2*
X6907525D1*
X7273085D2*
X7390142D1*
X7755702D2*
X11544022D1*
X12016496D2*
X12066561D1*
X1063046Y7411487D2*
X4224374D1*
X4888345D2*
X6945350D1*
X7235350D2*
X7427876D1*
X7717967D2*
X11571639D1*
X11988970D2*
X12066561D1*
X1063046Y7361820D2*
X4224374D1*
X4888345D2*
X7033579D1*
X7147121D2*
X7516105D1*
X7629738D2*
X11618579D1*
X11941939D2*
X12066561D1*
X1063046Y7312153D2*
X4224374D1*
X4888345D2*
X11723488D1*
X11837121D2*
X12066561D1*
X1063046Y7262487D2*
X4224374D1*
X4888345D2*
X12066561D1*
X1063046Y7212820D2*
X4224374D1*
X4888345D2*
X12066561D1*
X1063046Y7163153D2*
X4224374D1*
X4888345D2*
X7792277D1*
X8020572D2*
X12066561D1*
X1063046Y7113487D2*
X7723007D1*
X8089751D2*
X12066561D1*
X1063046Y7063820D2*
X7685090D1*
X8127759D2*
X12066561D1*
X1063046Y7014153D2*
X7662941D1*
X8149816D2*
X12066561D1*
X1063046Y6964487D2*
X7652460D1*
X8160298D2*
X12066561D1*
X1063046Y6914820D2*
X7652095D1*
X8160663D2*
X12066561D1*
X1063046Y6865153D2*
X7661848D1*
X8150910D2*
X12066561D1*
X1063046Y6815487D2*
X7682993D1*
X8129764D2*
X12066561D1*
X1063046Y6765820D2*
X7719543D1*
X8093215D2*
X12066561D1*
X1063046Y6716153D2*
X7785168D1*
X8027590D2*
X12066561D1*
X1063046Y6666487D2*
X12066561D1*
X1063046Y6616820D2*
X12066561D1*
X1063046Y6567153D2*
X12066561D1*
X1063046Y6517487D2*
X12066561D1*
X1063046Y6467820D2*
X12066561D1*
X1063046Y6418153D2*
X12066561D1*
X1063046Y6368487D2*
X12066561D1*
X1063046Y6318820D2*
X12066561D1*
X1063046Y6269153D2*
X8900611D1*
X8987355D2*
X9238853D1*
X9438072D2*
X10366327D1*
X10452434D2*
X11141249D1*
X11227993D2*
X12066561D1*
X1063046Y6219487D2*
X8852486D1*
X9620546D2*
X9659764D1*
X10231770D2*
X10262329D1*
X10499829D2*
X10540142D1*
X10865051D2*
X10896965D1*
X10999582D2*
X11071249D1*
X11359608D2*
X12066561D1*
X1063046Y6169820D2*
X8788957D1*
X11405728D2*
X12066561D1*
X1063046Y6120153D2*
X8768085D1*
X11408462D2*
X12066561D1*
X1063046Y6070487D2*
X8765533D1*
X11388592D2*
X12066561D1*
X1063046Y6020820D2*
X8781483D1*
X11367264D2*
X12066561D1*
X1063046Y5971153D2*
X8828970D1*
X11335363D2*
X12066561D1*
X1063046Y5921487D2*
X9689569D1*
X9812954D2*
X10227694D1*
X10402121D2*
X12066561D1*
X1063046Y5871820D2*
X1260402D1*
X1438202D2*
X3943918D1*
X4152707D2*
X5940194D1*
X6189178D2*
X8925585D1*
X9999803D2*
X10025519D1*
X10336587D2*
X10373710D1*
X11057915D2*
X11103605D1*
X11260715D2*
X11655767D1*
X11904751D2*
X12066561D1*
X1063046Y5822153D2*
X1176913D1*
X1521600D2*
X3876926D1*
X4219699D2*
X5876210D1*
X6253163D2*
X8892681D1*
X11313397D2*
X11591783D1*
X11968736D2*
X12066561D1*
X1063046Y5772487D2*
X1134439D1*
X1564074D2*
X3841926D1*
X4254699D2*
X5840298D1*
X6289074D2*
X8894777D1*
X11335454D2*
X11555871D1*
X12004647D2*
X12066561D1*
X1063046Y5722820D2*
X1109465D1*
X1589048D2*
X3823059D1*
X4273566D2*
X5819608D1*
X6309764D2*
X8927590D1*
X11343840D2*
X11535181D1*
X12025337D2*
X12066561D1*
X1063046Y5673153D2*
X1096662D1*
X1601809D2*
X3816405D1*
X4280220D2*
X5810220D1*
X6319152D2*
X8958124D1*
X11342199D2*
X11525793D1*
X12034725D2*
X12066561D1*
X1063046Y5623487D2*
X1094294D1*
X1604270D2*
X3820689D1*
X4275936D2*
X5810949D1*
X6318423D2*
X8958124D1*
X11325155D2*
X11526522D1*
X12033996D2*
X12066561D1*
X1063046Y5573820D2*
X1101809D1*
X1596796D2*
X3836639D1*
X4259986D2*
X4385155D1*
X4759283D2*
X5821796D1*
X6307577D2*
X8386092D1*
X8760220D2*
X8972434D1*
X11289608D2*
X11537368D1*
X12023150D2*
X12066561D1*
X1063046Y5524153D2*
X1120311D1*
X1578293D2*
X3867538D1*
X4229178D2*
X4382238D1*
X4762290D2*
X5844400D1*
X6284973D2*
X8383176D1*
X8763228D2*
X10782863D1*
X11291978D2*
X11559973D1*
X12000546D2*
X12066561D1*
X1063046Y5474487D2*
X1153033D1*
X1545572D2*
X3924230D1*
X4172395D2*
X4382238D1*
X4762290D2*
X5883046D1*
X6246327D2*
X8383176D1*
X8763228D2*
X10794986D1*
X11298176D2*
X11598618D1*
X11961900D2*
X12066561D1*
X1063046Y5424820D2*
X1209816D1*
X1488788D2*
X4382238D1*
X4762290D2*
X5954230D1*
X6175142D2*
X8383176D1*
X8763228D2*
X10818684D1*
X11296353D2*
X11669803D1*
X11890715D2*
X12066561D1*
X1063046Y5375153D2*
X4382238D1*
X4762290D2*
X8383176D1*
X8763228D2*
X10854595D1*
X11262720D2*
X12066561D1*
X12071554Y9081620D2*
X12067975Y9068712D1*
X12060027Y9046780D1*
X12050410Y9025527D1*
X12039181Y9005080D1*
X12026407Y8985561D1*
X12012165Y8967086D1*
X11996539Y8949765D1*
X11979623Y8933702D1*
X11961518Y8918993D1*
X11942331Y8905725D1*
X11922177Y8893977D1*
X11901177Y8883820D1*
X11879456Y8875314D1*
X11857142Y8868511D1*
X11834370Y8863450D1*
X11811276Y8860161D1*
X11787996Y8858665D1*
X11764671Y8858970D1*
X11741438Y8861075D1*
X11718438Y8864967D1*
X11695806Y8870623D1*
X11673679Y8878008D1*
X11652187Y8887079D1*
X11631460Y8897782D1*
X11611621Y8910053D1*
X11592788Y8923819D1*
X11575074Y8938997D1*
X11558584Y8955498D1*
X11543417Y8973222D1*
X11529663Y8992063D1*
X11517405Y9011910D1*
X11506715Y9032644D1*
X11497657Y9054141D1*
X11490286Y9076274D1*
X11484644Y9098909D1*
X11480767Y9121912D1*
X11478677Y9145146D1*
X11478387Y9168471D1*
X11479898Y9191750D1*
X11483201Y9214843D1*
X11488276Y9237611D1*
X11495094Y9259920D1*
X11503614Y9281636D1*
X11513784Y9302630D1*
X11525544Y9322776D1*
X11538824Y9341955D1*
X11553545Y9360051D1*
X11569619Y9376957D1*
X11586950Y9392571D1*
X11605434Y9406802D1*
X11624962Y9419563D1*
X11645416Y9430779D1*
X11666675Y9440383D1*
X11688611Y9448317D1*
X11711095Y9454534D1*
X11733992Y9458998D1*
X11757165Y9461680D1*
X11780475Y9462567D1*
X11803785Y9461651D1*
X11826954Y9458939D1*
X11849845Y9454446D1*
X11872321Y9448200D1*
X11894247Y9440238D1*
X11915494Y9430607D1*
X11935934Y9419366D1*
X11955445Y9406579D1*
X11973911Y9392325D1*
X11991222Y9376689D1*
X12007275Y9359762D1*
X12021973Y9341648D1*
X12035228Y9322452D1*
X12046963Y9302291D1*
X12057107Y9281285D1*
X12065599Y9259558D1*
X12071566Y9239943D1*
X12071543Y9547152D1*
X8758145Y9547153D1*
X8757874Y9347208D1*
X8754124Y9329842D1*
X8750025Y9322465D1*
X8740485Y9309433D1*
X8725031Y9298829D1*
X8717686Y9296120D1*
X8701159Y9293146D1*
X8442238Y9293436D1*
X8424872Y9297186D1*
X8417495Y9301285D1*
X8404463Y9310825D1*
X8393859Y9326279D1*
X8391150Y9333624D1*
X8388176Y9350151D1*
X8388157Y9547181D1*
X4757206Y9547153D1*
X4756954Y9347208D1*
X4753204Y9329842D1*
X4749105Y9322464D1*
X4739565Y9309433D1*
X4724111Y9298829D1*
X4716766Y9296119D1*
X4700239Y9293146D1*
X4441318Y9293436D1*
X4423952Y9297186D1*
X4416574Y9301285D1*
X4403543Y9310825D1*
X4392939Y9326279D1*
X4390229Y9333624D1*
X4387256Y9350151D1*
X4387236Y9547181D1*
X1057979Y9547153D1*
X1058000Y9240291D1*
X1064094Y9259920D1*
X1072614Y9281636D1*
X1082784Y9302630D1*
X1094544Y9322776D1*
X1107824Y9341955D1*
X1122545Y9360051D1*
X1138619Y9376957D1*
X1155950Y9392571D1*
X1174434Y9406802D1*
X1193962Y9419563D1*
X1214416Y9430779D1*
X1235675Y9440383D1*
X1257611Y9448317D1*
X1280095Y9454534D1*
X1302992Y9458998D1*
X1326165Y9461680D1*
X1349475Y9462567D1*
X1372785Y9461651D1*
X1395954Y9458939D1*
X1418845Y9454446D1*
X1441321Y9448200D1*
X1463247Y9440238D1*
X1484494Y9430607D1*
X1504934Y9419366D1*
X1524445Y9406579D1*
X1542911Y9392325D1*
X1560222Y9376689D1*
X1576275Y9359762D1*
X1590973Y9341648D1*
X1604228Y9322452D1*
X1615963Y9302291D1*
X1626107Y9281285D1*
X1634599Y9259558D1*
X1641388Y9237240D1*
X1646435Y9214465D1*
X1649708Y9191368D1*
X1651283Y9160567D1*
X1650382Y9137257D1*
X1647685Y9114085D1*
X1643207Y9091192D1*
X1636975Y9068712D1*
X1629027Y9046780D1*
X1619410Y9025527D1*
X1608181Y9005080D1*
X1595407Y8985561D1*
X1581165Y8967086D1*
X1565539Y8949765D1*
X1548623Y8933702D1*
X1530518Y8918993D1*
X1511331Y8905725D1*
X1491177Y8893977D1*
X1470177Y8883820D1*
X1448456Y8875314D1*
X1426142Y8868511D1*
X1403370Y8863450D1*
X1380276Y8860161D1*
X1356996Y8858665D1*
X1333671Y8858970D1*
X1310438Y8861075D1*
X1287438Y8864967D1*
X1264806Y8870623D1*
X1242679Y8878008D1*
X1221187Y8887079D1*
X1200460Y8897782D1*
X1180621Y8910053D1*
X1161788Y8923819D1*
X1144074Y8938997D1*
X1127584Y8955498D1*
X1112417Y8973222D1*
X1098663Y8992063D1*
X1086405Y9011910D1*
X1075715Y9032644D1*
X1066657Y9054141D1*
X1057985Y9081490D1*
X1058000Y5360578D1*
X4387258Y5360577D1*
X4387546Y5560522D1*
X4391296Y5577888D1*
X4395395Y5585265D1*
X4404935Y5598297D1*
X4420389Y5608901D1*
X4427734Y5611610D1*
X4444261Y5614584D1*
X4704143Y5614123D1*
X4722362Y5609793D1*
X4738076Y5599568D1*
X4743389Y5593817D1*
X4753204Y5577889D1*
X4757090Y5559544D1*
X4757264Y5360549D1*
X8388214Y5360577D1*
X8388466Y5560522D1*
X8392216Y5577888D1*
X8396315Y5585266D1*
X8405855Y5598297D1*
X8421309Y5608901D1*
X8428654Y5611611D1*
X8445181Y5614584D1*
X8704102Y5614294D1*
X8721468Y5610544D1*
X8728845Y5606445D1*
X8741877Y5596905D1*
X8752481Y5581451D1*
X8755190Y5574106D1*
X8758164Y5557579D1*
X8758183Y5360549D1*
X12071582Y5360577D1*
X12071543Y9080668D1*
X12029815Y5632226D2*
X12027505Y5612706D1*
X12023670Y5593428D1*
X12018334Y5574509D1*
X12011531Y5556068D1*
X12003302Y5538218D1*
X11993698Y5521068D1*
X11982777Y5504724D1*
X11970608Y5489288D1*
X11957266Y5474854D1*
X11942832Y5461512D1*
X11927396Y5449343D1*
X11911052Y5438422D1*
X11893902Y5428818D1*
X11876052Y5420589D1*
X11857611Y5413786D1*
X11838692Y5408450D1*
X11819414Y5404615D1*
X11799894Y5402305D1*
X11780253Y5401533D1*
X11760612Y5402305D1*
X11741093Y5404615D1*
X11721814Y5408450D1*
X11702896Y5413786D1*
X11684455Y5420589D1*
X11666604Y5428818D1*
X11649455Y5438422D1*
X11633111Y5449343D1*
X11617675Y5461512D1*
X11603241Y5474854D1*
X11589898Y5489288D1*
X11577729Y5504724D1*
X11566809Y5521068D1*
X11557205Y5538218D1*
X11548975Y5556068D1*
X11542172Y5574509D1*
X11536837Y5593428D1*
X11533002Y5612706D1*
X11530692Y5632226D1*
X11529920Y5651867D1*
X11530692Y5671508D1*
X11533002Y5691027D1*
X11536837Y5710306D1*
X11542172Y5729224D1*
X11548975Y5747665D1*
X11557205Y5765516D1*
X11566809Y5782665D1*
X11577729Y5799009D1*
X11589898Y5814445D1*
X11603241Y5828879D1*
X11617675Y5842222D1*
X11633111Y5854391D1*
X11649455Y5865311D1*
X11666604Y5874915D1*
X11684455Y5883145D1*
X11702896Y5889948D1*
X11721814Y5895283D1*
X11741093Y5899118D1*
X11760612Y5901428D1*
X11780253Y5902200D1*
X11799894Y5901428D1*
X11819414Y5899118D1*
X11838692Y5895283D1*
X11857611Y5889948D1*
X11876052Y5883145D1*
X11893902Y5874915D1*
X11911052Y5865311D1*
X11927396Y5854391D1*
X11942832Y5842222D1*
X11957266Y5828879D1*
X11970608Y5814445D1*
X11982777Y5799009D1*
X11993698Y5782665D1*
X12003302Y5765516D1*
X12011531Y5747665D1*
X12018334Y5729224D1*
X12023670Y5710306D1*
X12027505Y5691027D1*
X12029815Y5671508D1*
X12030587Y5651867D1*
X12029815Y5632226D1*
X1598845Y5616326D2*
X1596535Y5596806D1*
X1592700Y5577528D1*
X1587364Y5558609D1*
X1580561Y5540168D1*
X1572332Y5522318D1*
X1562728Y5505168D1*
X1551807Y5488824D1*
X1539638Y5473388D1*
X1526296Y5458954D1*
X1511862Y5445612D1*
X1496426Y5433443D1*
X1480082Y5422522D1*
X1462932Y5412918D1*
X1445082Y5404689D1*
X1426641Y5397886D1*
X1407722Y5392550D1*
X1388444Y5388715D1*
X1368924Y5386405D1*
X1349283Y5385633D1*
X1329642Y5386405D1*
X1310123Y5388715D1*
X1290844Y5392550D1*
X1271926Y5397886D1*
X1253485Y5404689D1*
X1235634Y5412918D1*
X1218485Y5422522D1*
X1202141Y5433443D1*
X1186705Y5445612D1*
X1172271Y5458954D1*
X1158928Y5473388D1*
X1146759Y5488824D1*
X1135839Y5505168D1*
X1126235Y5522318D1*
X1118005Y5540168D1*
X1111202Y5558609D1*
X1105867Y5577528D1*
X1102032Y5596806D1*
X1099722Y5616326D1*
X1098950Y5635967D1*
X1099722Y5655608D1*
X1102032Y5675127D1*
X1105867Y5694406D1*
X1111202Y5713324D1*
X1118005Y5731765D1*
X1126235Y5749616D1*
X1135839Y5766765D1*
X1146759Y5783109D1*
X1158928Y5798545D1*
X1172271Y5812979D1*
X1186705Y5826322D1*
X1202141Y5838491D1*
X1218485Y5849411D1*
X1235634Y5859015D1*
X1253485Y5867245D1*
X1271926Y5874048D1*
X1290844Y5879383D1*
X1310123Y5883218D1*
X1329642Y5885528D1*
X1349283Y5886300D1*
X1368924Y5885528D1*
X1388444Y5883218D1*
X1407722Y5879383D1*
X1426641Y5874048D1*
X1445082Y5867245D1*
X1462932Y5859015D1*
X1480082Y5849411D1*
X1496426Y5838491D1*
X1511862Y5826322D1*
X1526296Y5812979D1*
X1539638Y5798545D1*
X1551807Y5783109D1*
X1562728Y5766765D1*
X1572332Y5749616D1*
X1580561Y5731765D1*
X1587364Y5713324D1*
X1592700Y5694406D1*
X1596535Y5675127D1*
X1598845Y5655608D1*
X1599617Y5635967D1*
X1598845Y5616326D1*
X6314245Y5632226D2*
X6311935Y5612706D1*
X6308100Y5593428D1*
X6302764Y5574509D1*
X6295961Y5556068D1*
X6287732Y5538218D1*
X6278128Y5521068D1*
X6267207Y5504724D1*
X6255038Y5489288D1*
X6241696Y5474854D1*
X6227262Y5461512D1*
X6211826Y5449343D1*
X6195482Y5438422D1*
X6178332Y5428818D1*
X6160482Y5420589D1*
X6142041Y5413786D1*
X6123122Y5408450D1*
X6103844Y5404615D1*
X6084324Y5402305D1*
X6064683Y5401533D1*
X6045042Y5402305D1*
X6025523Y5404615D1*
X6006244Y5408450D1*
X5987326Y5413786D1*
X5968885Y5420589D1*
X5951034Y5428818D1*
X5933885Y5438422D1*
X5917541Y5449343D1*
X5902105Y5461512D1*
X5887671Y5474854D1*
X5874328Y5489288D1*
X5862159Y5504724D1*
X5851239Y5521068D1*
X5841635Y5538218D1*
X5833405Y5556068D1*
X5826602Y5574509D1*
X5821267Y5593428D1*
X5817432Y5612706D1*
X5815122Y5632226D1*
X5814350Y5651867D1*
X5815122Y5671508D1*
X5817432Y5691027D1*
X5821267Y5710306D1*
X5826602Y5729224D1*
X5833405Y5747665D1*
X5841635Y5765516D1*
X5851239Y5782665D1*
X5862159Y5799009D1*
X5874328Y5814445D1*
X5887671Y5828879D1*
X5902105Y5842222D1*
X5917541Y5854391D1*
X5933885Y5865311D1*
X5951034Y5874915D1*
X5968885Y5883145D1*
X5987326Y5889948D1*
X6006244Y5895283D1*
X6025523Y5899118D1*
X6045042Y5901428D1*
X6064683Y5902200D1*
X6084324Y5901428D1*
X6103844Y5899118D1*
X6123122Y5895283D1*
X6142041Y5889948D1*
X6160482Y5883145D1*
X6178332Y5874915D1*
X6195482Y5865311D1*
X6211826Y5854391D1*
X6227262Y5842222D1*
X6241696Y5828879D1*
X6255038Y5814445D1*
X6267207Y5799009D1*
X6278128Y5782665D1*
X6287732Y5765516D1*
X6295961Y5747665D1*
X6302764Y5729224D1*
X6308100Y5710306D1*
X6311935Y5691027D1*
X6314245Y5671508D1*
X6315017Y5651867D1*
X6314245Y5632226D1*
X6842082Y9137257D2*
X6839385Y9114085D1*
X6834907Y9091192D1*
X6828675Y9068712D1*
X6820727Y9046780D1*
X6811110Y9025527D1*
X6799881Y9005080D1*
X6787107Y8985561D1*
X6772865Y8967086D1*
X6757239Y8949765D1*
X6740323Y8933702D1*
X6722218Y8918993D1*
X6703031Y8905725D1*
X6682877Y8893977D1*
X6661877Y8883820D1*
X6640156Y8875314D1*
X6617842Y8868511D1*
X6595070Y8863450D1*
X6571976Y8860161D1*
X6548696Y8858665D1*
X6525371Y8858970D1*
X6502138Y8861075D1*
X6479138Y8864967D1*
X6456506Y8870623D1*
X6434379Y8878008D1*
X6412887Y8887079D1*
X6392160Y8897782D1*
X6372321Y8910053D1*
X6353488Y8923819D1*
X6335774Y8938997D1*
X6319284Y8955498D1*
X6304117Y8973222D1*
X6290363Y8992063D1*
X6278105Y9011910D1*
X6267415Y9032644D1*
X6258357Y9054141D1*
X6250986Y9076274D1*
X6245344Y9098909D1*
X6241467Y9121912D1*
X6239377Y9145146D1*
X6239087Y9168471D1*
X6240598Y9191750D1*
X6243901Y9214843D1*
X6248976Y9237611D1*
X6255794Y9259920D1*
X6264314Y9281636D1*
X6274484Y9302630D1*
X6286244Y9322776D1*
X6299524Y9341955D1*
X6314245Y9360051D1*
X6330319Y9376957D1*
X6347650Y9392571D1*
X6366134Y9406802D1*
X6385662Y9419563D1*
X6406116Y9430779D1*
X6427375Y9440383D1*
X6449311Y9448317D1*
X6471795Y9454534D1*
X6494692Y9458998D1*
X6517865Y9461680D1*
X6541175Y9462567D1*
X6564485Y9461651D1*
X6587654Y9458939D1*
X6610545Y9454446D1*
X6633021Y9448200D1*
X6654947Y9440238D1*
X6676194Y9430607D1*
X6696634Y9419366D1*
X6716145Y9406579D1*
X6734611Y9392325D1*
X6751922Y9376689D1*
X6767975Y9359762D1*
X6782673Y9341648D1*
X6795928Y9322452D1*
X6807663Y9302291D1*
X6817807Y9281285D1*
X6826299Y9259558D1*
X6833088Y9237240D1*
X6838135Y9214465D1*
X6841408Y9191368D1*
X6842983Y9160567D1*
X6842082Y9137257D1*
X5243084Y9285656D2*
X5240989Y9267956D1*
X5237511Y9250475D1*
X5232673Y9233320D1*
X5226504Y9216598D1*
X5219042Y9200411D1*
X5210333Y9184859D1*
X5200430Y9170039D1*
X5189395Y9156042D1*
X5177297Y9142953D1*
X5164208Y9130855D1*
X5150211Y9119820D1*
X5135391Y9109917D1*
X5119839Y9101208D1*
X5103652Y9093746D1*
X5086930Y9087577D1*
X5069775Y9082739D1*
X5052294Y9079261D1*
X5034594Y9077166D1*
X5016783Y9076467D1*
X4998973Y9077166D1*
X4981273Y9079261D1*
X4963791Y9082739D1*
X4946636Y9087577D1*
X4929914Y9093746D1*
X4913727Y9101208D1*
X4898176Y9109917D1*
X4883356Y9119820D1*
X4869359Y9130855D1*
X4856270Y9142953D1*
X4844171Y9156042D1*
X4833136Y9170039D1*
X4823234Y9184859D1*
X4814525Y9200411D1*
X4807063Y9216598D1*
X4800894Y9233320D1*
X4796055Y9250475D1*
X4792578Y9267956D1*
X4790483Y9285656D1*
X4789783Y9303467D1*
X4790483Y9321277D1*
X4792578Y9338977D1*
X4796055Y9356459D1*
X4800894Y9373614D1*
X4807063Y9390336D1*
X4814525Y9406523D1*
X4823234Y9422074D1*
X4833136Y9436894D1*
X4844171Y9450891D1*
X4856270Y9463980D1*
X4869359Y9476079D1*
X4883356Y9487114D1*
X4898176Y9497016D1*
X4913727Y9505725D1*
X4929914Y9513187D1*
X4946636Y9519356D1*
X4963791Y9524195D1*
X4981273Y9527672D1*
X4998973Y9529767D1*
X5016783Y9530467D1*
X5034594Y9529767D1*
X5052294Y9527672D1*
X5069775Y9524195D1*
X5086930Y9519356D1*
X5103652Y9513187D1*
X5119839Y9505725D1*
X5135391Y9497016D1*
X5150211Y9487114D1*
X5164208Y9476079D1*
X5177297Y9463980D1*
X5189395Y9450891D1*
X5200430Y9436894D1*
X5210333Y9422074D1*
X5219042Y9406523D1*
X5226504Y9390336D1*
X5232673Y9373614D1*
X5237511Y9356459D1*
X5240989Y9338977D1*
X5243084Y9321277D1*
X5243783Y9303467D1*
X5243084Y9285656D1*
X6005184D2*
X6003089Y9267956D1*
X5999611Y9250475D1*
X5994773Y9233320D1*
X5988604Y9216598D1*
X5981142Y9200411D1*
X5972433Y9184859D1*
X5962530Y9170039D1*
X5951495Y9156042D1*
X5939397Y9142953D1*
X5926308Y9130855D1*
X5912311Y9119820D1*
X5897491Y9109917D1*
X5881939Y9101208D1*
X5865752Y9093746D1*
X5849030Y9087577D1*
X5831875Y9082739D1*
X5814394Y9079261D1*
X5796694Y9077166D1*
X5778883Y9076467D1*
X5761073Y9077166D1*
X5743373Y9079261D1*
X5725891Y9082739D1*
X5708736Y9087577D1*
X5692014Y9093746D1*
X5675827Y9101208D1*
X5660276Y9109917D1*
X5645456Y9119820D1*
X5631459Y9130855D1*
X5618370Y9142953D1*
X5606271Y9156042D1*
X5595236Y9170039D1*
X5585334Y9184859D1*
X5576625Y9200411D1*
X5569163Y9216598D1*
X5562994Y9233320D1*
X5558155Y9250475D1*
X5554678Y9267956D1*
X5552583Y9285656D1*
X5551883Y9303467D1*
X5552583Y9321277D1*
X5554678Y9338977D1*
X5558155Y9356459D1*
X5562994Y9373614D1*
X5569163Y9390336D1*
X5576625Y9406523D1*
X5585334Y9422074D1*
X5595236Y9436894D1*
X5606271Y9450891D1*
X5618370Y9463980D1*
X5631459Y9476079D1*
X5645456Y9487114D1*
X5660276Y9497016D1*
X5675827Y9505725D1*
X5692014Y9513187D1*
X5708736Y9519356D1*
X5725891Y9524195D1*
X5743373Y9527672D1*
X5761073Y9529767D1*
X5778883Y9530467D1*
X5796694Y9529767D1*
X5814394Y9527672D1*
X5831875Y9524195D1*
X5849030Y9519356D1*
X5865752Y9513187D1*
X5881939Y9505725D1*
X5897491Y9497016D1*
X5912311Y9487114D1*
X5926308Y9476079D1*
X5939397Y9463980D1*
X5951495Y9450891D1*
X5962530Y9436894D1*
X5972433Y9422074D1*
X5981142Y9406523D1*
X5988604Y9390336D1*
X5994773Y9373614D1*
X5999611Y9356459D1*
X6003089Y9338977D1*
X6005184Y9321277D1*
X6005883Y9303467D1*
X6005184Y9285656D1*
X8155945Y6918226D2*
X8153635Y6898706D1*
X8149800Y6879428D1*
X8144464Y6860509D1*
X8137661Y6842068D1*
X8129432Y6824218D1*
X8119828Y6807068D1*
X8108907Y6790724D1*
X8096738Y6775288D1*
X8083396Y6760854D1*
X8068962Y6747512D1*
X8053526Y6735343D1*
X8037182Y6724422D1*
X8020032Y6714818D1*
X8002182Y6706589D1*
X7983741Y6699786D1*
X7964822Y6694450D1*
X7945544Y6690615D1*
X7926024Y6688305D1*
X7906383Y6687533D1*
X7886742Y6688305D1*
X7867223Y6690615D1*
X7847944Y6694450D1*
X7829026Y6699786D1*
X7810585Y6706589D1*
X7792734Y6714818D1*
X7775585Y6724422D1*
X7759241Y6735343D1*
X7743805Y6747512D1*
X7729371Y6760854D1*
X7716028Y6775288D1*
X7703859Y6790724D1*
X7692939Y6807068D1*
X7683335Y6824218D1*
X7675105Y6842068D1*
X7668302Y6860509D1*
X7662967Y6879428D1*
X7659132Y6898706D1*
X7656822Y6918226D1*
X7656050Y6937867D1*
X7656822Y6957508D1*
X7659132Y6977027D1*
X7662967Y6996306D1*
X7668302Y7015224D1*
X7675105Y7033665D1*
X7683335Y7051516D1*
X7692939Y7068665D1*
X7703859Y7085009D1*
X7716028Y7100445D1*
X7729371Y7114879D1*
X7743805Y7128222D1*
X7759241Y7140391D1*
X7775585Y7151311D1*
X7792734Y7160915D1*
X7810585Y7169145D1*
X7829026Y7175948D1*
X7847944Y7181283D1*
X7867223Y7185118D1*
X7886742Y7187428D1*
X7906383Y7188200D1*
X7926024Y7187428D1*
X7945544Y7185118D1*
X7964822Y7181283D1*
X7983741Y7175948D1*
X8002182Y7169145D1*
X8020032Y7160915D1*
X8037182Y7151311D1*
X8053526Y7140391D1*
X8068962Y7128222D1*
X8083396Y7114879D1*
X8096738Y7100445D1*
X8108907Y7085009D1*
X8119828Y7068665D1*
X8129432Y7051516D1*
X8137661Y7033665D1*
X8144464Y7015224D1*
X8149800Y6996306D1*
X8153635Y6977027D1*
X8155945Y6957508D1*
X8156717Y6937867D1*
X8155945Y6918226D1*
X4091545Y8156626D2*
X4089235Y8137106D1*
X4085400Y8117828D1*
X4080064Y8098909D1*
X4073261Y8080468D1*
X4065032Y8062618D1*
X4055428Y8045468D1*
X4044507Y8029124D1*
X4032338Y8013688D1*
X4018996Y7999254D1*
X4004562Y7985912D1*
X3989126Y7973743D1*
X3972782Y7962822D1*
X3955632Y7953218D1*
X3937782Y7944989D1*
X3919341Y7938186D1*
X3900422Y7932850D1*
X3881144Y7929015D1*
X3861624Y7926705D1*
X3841983Y7925933D1*
X3822342Y7926705D1*
X3802823Y7929015D1*
X3783544Y7932850D1*
X3764626Y7938186D1*
X3746185Y7944989D1*
X3728334Y7953218D1*
X3711185Y7962822D1*
X3694841Y7973743D1*
X3679405Y7985912D1*
X3664971Y7999254D1*
X3651628Y8013688D1*
X3639459Y8029124D1*
X3628539Y8045468D1*
X3618935Y8062618D1*
X3610705Y8080468D1*
X3603902Y8098909D1*
X3598567Y8117828D1*
X3594732Y8137106D1*
X3592422Y8156626D1*
X3591650Y8176267D1*
X3592422Y8195908D1*
X3594732Y8215427D1*
X3598567Y8234706D1*
X3603902Y8253624D1*
X3610705Y8272065D1*
X3618935Y8289916D1*
X3628539Y8307065D1*
X3639459Y8323409D1*
X3651628Y8338845D1*
X3664971Y8353279D1*
X3679405Y8366622D1*
X3694841Y8378791D1*
X3711185Y8389711D1*
X3728334Y8399315D1*
X3746185Y8407545D1*
X3764626Y8414348D1*
X3783544Y8419683D1*
X3802823Y8423518D1*
X3822342Y8425828D1*
X3841983Y8426600D1*
X3861624Y8425828D1*
X3881144Y8423518D1*
X3900422Y8419683D1*
X3919341Y8414348D1*
X3937782Y8407545D1*
X3955632Y8399315D1*
X3972782Y8389711D1*
X3989126Y8378791D1*
X4004562Y8366622D1*
X4018996Y8353279D1*
X4032338Y8338845D1*
X4044507Y8323409D1*
X4055428Y8307065D1*
X4065032Y8289916D1*
X4073261Y8272065D1*
X4080064Y8253624D1*
X4085400Y8234706D1*
X4089235Y8215427D1*
X4091545Y8195908D1*
X4092317Y8176267D1*
X4091545Y8156626D1*
X12029845Y7537426D2*
X12027535Y7517906D1*
X12023700Y7498628D1*
X12018364Y7479709D1*
X12011561Y7461268D1*
X12003332Y7443418D1*
X11993728Y7426268D1*
X11982807Y7409924D1*
X11970638Y7394488D1*
X11957296Y7380054D1*
X11942862Y7366712D1*
X11927426Y7354543D1*
X11911082Y7343622D1*
X11893932Y7334018D1*
X11876082Y7325789D1*
X11857641Y7318986D1*
X11838722Y7313650D1*
X11819444Y7309815D1*
X11799924Y7307505D1*
X11780283Y7306733D1*
X11760642Y7307505D1*
X11741123Y7309815D1*
X11721844Y7313650D1*
X11702926Y7318986D1*
X11684485Y7325789D1*
X11666634Y7334018D1*
X11649485Y7343622D1*
X11633141Y7354543D1*
X11617705Y7366712D1*
X11603271Y7380054D1*
X11589928Y7394488D1*
X11577759Y7409924D1*
X11566839Y7426268D1*
X11557235Y7443418D1*
X11549005Y7461268D1*
X11542202Y7479709D1*
X11536867Y7498628D1*
X11533032Y7517906D1*
X11530722Y7537426D1*
X11529950Y7557067D1*
X11530722Y7576708D1*
X11533032Y7596227D1*
X11536867Y7615506D1*
X11542202Y7634424D1*
X11549005Y7652865D1*
X11557235Y7670716D1*
X11566839Y7687865D1*
X11577759Y7704209D1*
X11589928Y7719645D1*
X11603271Y7734079D1*
X11617705Y7747422D1*
X11633141Y7759591D1*
X11649485Y7770511D1*
X11666634Y7780115D1*
X11684485Y7788345D1*
X11702926Y7795148D1*
X11721844Y7800483D1*
X11741123Y7804318D1*
X11760642Y7806628D1*
X11780283Y7807400D1*
X11799924Y7806628D1*
X11819444Y7804318D1*
X11838722Y7800483D1*
X11857641Y7795148D1*
X11876082Y7788345D1*
X11893932Y7780115D1*
X11911082Y7770511D1*
X11927426Y7759591D1*
X11942862Y7747422D1*
X11957296Y7734079D1*
X11970638Y7719645D1*
X11982807Y7704209D1*
X11993728Y7687865D1*
X12003332Y7670716D1*
X12011561Y7652865D1*
X12018364Y7634424D1*
X12023700Y7615506D1*
X12027535Y7596227D1*
X12029845Y7576708D1*
X12030617Y7557067D1*
X12029845Y7537426D1*
X8255082Y8867357D2*
X8252385Y8844185D1*
X8247907Y8821292D1*
X8241675Y8798812D1*
X8233727Y8776880D1*
X8224110Y8755627D1*
X8212881Y8735180D1*
X8200107Y8715661D1*
X8185865Y8697186D1*
X8170239Y8679865D1*
X8153323Y8663802D1*
X8135218Y8649093D1*
X8116031Y8635825D1*
X8095877Y8624077D1*
X8074877Y8613920D1*
X8053156Y8605414D1*
X8030842Y8598611D1*
X8008070Y8593550D1*
X7984976Y8590261D1*
X7961696Y8588765D1*
X7938371Y8589070D1*
X7915138Y8591175D1*
X7892138Y8595067D1*
X7869506Y8600723D1*
X7847379Y8608108D1*
X7825887Y8617179D1*
X7805160Y8627882D1*
X7785321Y8640153D1*
X7766488Y8653919D1*
X7748774Y8669097D1*
X7732284Y8685598D1*
X7717117Y8703322D1*
X7703363Y8722163D1*
X7691105Y8742010D1*
X7680415Y8762744D1*
X7671357Y8784241D1*
X7663986Y8806374D1*
X7658344Y8829009D1*
X7654467Y8852012D1*
X7652377Y8875246D1*
X7652087Y8898571D1*
X7653598Y8921850D1*
X7656901Y8944943D1*
X7661976Y8967711D1*
X7668794Y8990020D1*
X7677314Y9011736D1*
X7687484Y9032730D1*
X7699244Y9052876D1*
X7712524Y9072055D1*
X7727245Y9090151D1*
X7743319Y9107057D1*
X7760650Y9122671D1*
X7779134Y9136902D1*
X7798662Y9149663D1*
X7819116Y9160879D1*
X7840375Y9170483D1*
X7862311Y9178417D1*
X7884795Y9184634D1*
X7907692Y9189098D1*
X7930865Y9191780D1*
X7954175Y9192667D1*
X7977485Y9191751D1*
X8000654Y9189039D1*
X8023545Y9184546D1*
X8046021Y9178300D1*
X8067947Y9170338D1*
X8089194Y9160707D1*
X8109634Y9149466D1*
X8129145Y9136679D1*
X8147611Y9122425D1*
X8164922Y9106789D1*
X8180975Y9089862D1*
X8195673Y9071748D1*
X8208928Y9052552D1*
X8220663Y9032391D1*
X8230807Y9011385D1*
X8239299Y8989658D1*
X8246088Y8967340D1*
X8251135Y8944565D1*
X8254408Y8921468D1*
X8255983Y8890667D1*
X8255082Y8867357D1*
X10081367Y9177476D2*
X10068606Y9153136D1*
X10058704Y9138316D1*
X10047669Y9124319D1*
X10035570Y9111230D1*
X10022481Y9099131D1*
X10008484Y9088096D1*
X9993664Y9078194D1*
X9978113Y9069485D1*
X9961926Y9062023D1*
X9945204Y9055854D1*
X9928049Y9051015D1*
X9910567Y9047538D1*
X9892867Y9045443D1*
X9875057Y9044743D1*
X9857246Y9045443D1*
X9839546Y9047538D1*
X9822065Y9051015D1*
X9804910Y9055854D1*
X9788188Y9062023D1*
X9772001Y9069485D1*
X9756449Y9078194D1*
X9741629Y9088096D1*
X9727632Y9099131D1*
X9714543Y9111230D1*
X9702445Y9124319D1*
X9691410Y9138316D1*
X9681507Y9153136D1*
X9668746Y9177476D1*
X9655813Y9153136D1*
X9645910Y9138316D1*
X9634875Y9124319D1*
X9622777Y9111230D1*
X9609688Y9099131D1*
X9595691Y9088096D1*
X9580871Y9078194D1*
X9565319Y9069485D1*
X9549132Y9062023D1*
X9532410Y9055854D1*
X9515255Y9051015D1*
X9497774Y9047538D1*
X9480074Y9045443D1*
X9462263Y9044743D1*
X9444453Y9045443D1*
X9426753Y9047538D1*
X9409271Y9051015D1*
X9392116Y9055854D1*
X9375394Y9062023D1*
X9359207Y9069485D1*
X9343656Y9078194D1*
X9328836Y9088096D1*
X9314839Y9099131D1*
X9301750Y9111230D1*
X9289651Y9124319D1*
X9278616Y9138316D1*
X9268714Y9153136D1*
X9260005Y9168687D1*
X9252543Y9184874D1*
X9246374Y9201596D1*
X9241535Y9218751D1*
X9238058Y9236233D1*
X9235963Y9253933D1*
X9235263Y9271743D1*
X9235963Y9289554D1*
X9238058Y9307254D1*
X9241535Y9324735D1*
X9246374Y9341890D1*
X9252543Y9358612D1*
X9260005Y9374799D1*
X9268714Y9390351D1*
X9278616Y9405171D1*
X9289651Y9419168D1*
X9301750Y9432257D1*
X9314839Y9444355D1*
X9328836Y9455390D1*
X9343656Y9465293D1*
X9359207Y9474002D1*
X9375394Y9481464D1*
X9392116Y9487633D1*
X9409271Y9492471D1*
X9426753Y9495949D1*
X9444453Y9498044D1*
X9462263Y9498743D1*
X9480074Y9498044D1*
X9497774Y9495949D1*
X9515255Y9492471D1*
X9532410Y9487633D1*
X9549132Y9481464D1*
X9565319Y9474002D1*
X9580871Y9465293D1*
X9595691Y9455390D1*
X9609688Y9444355D1*
X9622777Y9432257D1*
X9634875Y9419168D1*
X9645910Y9405171D1*
X9655813Y9390351D1*
X9668574Y9366010D1*
X9681507Y9390351D1*
X9691410Y9405171D1*
X9702445Y9419168D1*
X9714543Y9432257D1*
X9727632Y9444355D1*
X9741629Y9455390D1*
X9756449Y9465293D1*
X9772001Y9474002D1*
X9788188Y9481464D1*
X9804910Y9487633D1*
X9822065Y9492471D1*
X9839546Y9495949D1*
X9857246Y9498044D1*
X9875057Y9498743D1*
X9892867Y9498044D1*
X9910567Y9495949D1*
X9928049Y9492471D1*
X9945204Y9487633D1*
X9961926Y9481464D1*
X9978113Y9474002D1*
X9993664Y9465293D1*
X10008484Y9455390D1*
X10022481Y9444355D1*
X10035570Y9432257D1*
X10047669Y9419168D1*
X10058704Y9405171D1*
X10068606Y9390351D1*
X10081367Y9366010D1*
X10094301Y9390351D1*
X10104203Y9405171D1*
X10115238Y9419168D1*
X10127337Y9432257D1*
X10140425Y9444355D1*
X10154423Y9455390D1*
X10169243Y9465293D1*
X10184794Y9474002D1*
X10200981Y9481464D1*
X10217703Y9487633D1*
X10234858Y9492471D1*
X10252339Y9495949D1*
X10270040Y9498044D1*
X10287850Y9498743D1*
X10305660Y9498044D1*
X10323361Y9495949D1*
X10340842Y9492471D1*
X10357997Y9487633D1*
X10374719Y9481464D1*
X10390906Y9474002D1*
X10406457Y9465293D1*
X10421277Y9455390D1*
X10435275Y9444355D1*
X10448363Y9432257D1*
X10460462Y9419168D1*
X10471497Y9405171D1*
X10481399Y9390351D1*
X10490108Y9374799D1*
X10497571Y9358612D1*
X10503740Y9341890D1*
X10508578Y9324735D1*
X10512055Y9307254D1*
X10514150Y9289554D1*
X10514850Y9271743D1*
X10514150Y9253933D1*
X10512055Y9236233D1*
X10508578Y9218751D1*
X10503740Y9201596D1*
X10497571Y9184874D1*
X10490108Y9168687D1*
X10481399Y9153136D1*
X10471497Y9138316D1*
X10460462Y9124319D1*
X10448363Y9111230D1*
X10435275Y9099131D1*
X10421277Y9088096D1*
X10406457Y9078194D1*
X10390906Y9069485D1*
X10374719Y9062023D1*
X10357997Y9055854D1*
X10340842Y9051015D1*
X10323361Y9047538D1*
X10305660Y9045443D1*
X10287850Y9044743D1*
X10270040Y9045443D1*
X10252339Y9047538D1*
X10234858Y9051015D1*
X10217703Y9055854D1*
X10200981Y9062023D1*
X10184794Y9069485D1*
X10169243Y9078194D1*
X10154423Y9088096D1*
X10140425Y9099131D1*
X10127337Y9111230D1*
X10115238Y9124319D1*
X10104203Y9138316D1*
X10094301Y9153136D1*
X10081540Y9177476D1*
X5107371Y8015132D2*
X5079628Y8017309D1*
X5052621Y8023793D1*
X5026960Y8034422D1*
X5003279Y8048934D1*
X4982159Y8066972D1*
X4964121Y8088092D1*
X4949609Y8111774D1*
X4938980Y8137434D1*
X4932496Y8164441D1*
X4930317Y8192130D1*
X4932496Y8219819D1*
X4938980Y8246826D1*
X4949609Y8272486D1*
X4964121Y8296168D1*
X4982159Y8317288D1*
X5003279Y8335326D1*
X5026960Y8349838D1*
X5052621Y8360467D1*
X5079628Y8366951D1*
X5107371Y8369128D1*
X5321204Y8368584D1*
X5348636Y8364239D1*
X5375052Y8355657D1*
X5399799Y8343047D1*
X5422269Y8326722D1*
X5441909Y8307082D1*
X5458234Y8284612D1*
X5470843Y8259865D1*
X5479426Y8233450D1*
X5483771Y8206017D1*
Y8178243D1*
X5479426Y8150810D1*
X5470843Y8124395D1*
X5458234Y8099648D1*
X5441909Y8077178D1*
X5422269Y8057538D1*
X5399799Y8041213D1*
X5375052Y8028603D1*
X5348636Y8020021D1*
X5321204Y8015676D1*
X5260650Y8015130D1*
X5107317Y8015221D1*
X4227707Y8298870D2*
X4354308D1*
X4354373Y8521154D1*
X4298108Y8577494D1*
X3699030Y8577547D1*
X3683181Y8578169D1*
X3667430Y8580034D1*
X3651874Y8583128D1*
X3636609Y8587433D1*
X3621728Y8592923D1*
X3607324Y8599563D1*
X3593485Y8607313D1*
X3580297Y8616125D1*
X3567841Y8625945D1*
X3539695Y8653210D1*
X3402538Y8791248D1*
X3392719Y8803704D1*
X3383907Y8816892D1*
X3376157Y8830731D1*
X3369516Y8845135D1*
X3364027Y8860015D1*
X3359721Y8875281D1*
X3356627Y8890837D1*
X3354763Y8906588D1*
X3354140Y8922437D1*
X3354763Y8938285D1*
X3356627Y8954036D1*
X3359721Y8969593D1*
X3364027Y8984858D1*
X3369516Y8999739D1*
X3376157Y9014143D1*
X3383907Y9027981D1*
X3392719Y9041169D1*
X3402538Y9053625D1*
X3413304Y9065272D1*
X3424951Y9076039D1*
X3437407Y9085858D1*
X3450595Y9094670D1*
X3464434Y9102420D1*
X3478838Y9109060D1*
X3493719Y9114550D1*
X3508984Y9118855D1*
X3524540Y9121950D1*
X3540291Y9123814D1*
X3556140Y9124437D1*
X3571989Y9123814D1*
X3587740Y9121950D1*
X3603296Y9118855D1*
X3618561Y9114550D1*
X3633442Y9109060D1*
X3647846Y9102420D1*
X3661685Y9094670D1*
X3674873Y9085858D1*
X3687329Y9076039D1*
X3715475Y9048773D1*
X3782696Y8981552D1*
X4381727Y8981547D1*
X4397575Y8980924D1*
X4413326Y8979060D1*
X4428883Y8975965D1*
X4444148Y8971660D1*
X4459029Y8966170D1*
X4473433Y8959530D1*
X4487271Y8951780D1*
X4500459Y8942968D1*
X4512915Y8933149D1*
X4541061Y8905883D1*
X4709976Y8736089D1*
X4719795Y8723633D1*
X4728607Y8710445D1*
X4736357Y8696606D1*
X4742997Y8682202D1*
X4748487Y8667322D1*
X4752792Y8652056D1*
X4755887Y8636500D1*
X4757751Y8620749D1*
X4758374Y8581567D1*
Y8298923D1*
X4908373Y8298870D1*
Y7894870D1*
X4883308D1*
X4883374Y7157870D1*
X4229374D1*
X4229373Y7894919D1*
X4204373Y7894870D1*
Y8298870D1*
X4227707D1*
X4275272Y5663074D2*
X4273595Y5639811D1*
X4269540Y5616843D1*
X4263150Y5594412D1*
X4254492Y5572756D1*
X4243658Y5552102D1*
X4230761Y5532669D1*
X4215939Y5514662D1*
X4199347Y5498271D1*
X4181161Y5483668D1*
X4161572Y5471009D1*
X4140788Y5460427D1*
X4119028Y5452033D1*
X4096521Y5445917D1*
X4073505Y5442141D1*
X4050224Y5440748D1*
X4026923Y5441751D1*
X4003847Y5445139D1*
X3981241Y5450877D1*
X3959343Y5458905D1*
X3938384Y5469137D1*
X3918586Y5481466D1*
X3900157Y5495761D1*
X3883293Y5511872D1*
X3868170Y5529628D1*
X3854949Y5548842D1*
X3843770Y5569311D1*
X3834750Y5590819D1*
X3827984Y5613139D1*
X3823545Y5636036D1*
X3821478Y5659267D1*
X3821806Y5682588D1*
X3824525Y5705752D1*
X3829607Y5728515D1*
X3836997Y5750636D1*
X3846619Y5771882D1*
X3858369Y5792029D1*
X3872125Y5810863D1*
X3887741Y5828187D1*
X3905052Y5843817D1*
X3923875Y5857588D1*
X3944012Y5869355D1*
X3965250Y5878994D1*
X3987365Y5886403D1*
X4010124Y5891503D1*
X4033285Y5894242D1*
X4056606Y5894589D1*
X4079839Y5892541D1*
X4102739Y5888120D1*
X4125065Y5881373D1*
X4146581Y5872371D1*
X4167059Y5861208D1*
X4186284Y5848004D1*
X4204052Y5832896D1*
X4220177Y5816045D1*
X4234487Y5797628D1*
X4246832Y5777840D1*
X4257082Y5756889D1*
X4265127Y5734998D1*
X4270884Y5712397D1*
X4274292Y5689324D1*
X4275320Y5667740D1*
X4275272Y5663074D1*
X7774317Y7541215D2*
X7772453Y7525464D1*
X7769359Y7509907D1*
X7765053Y7494642D1*
X7759564Y7479761D1*
X7752923Y7465357D1*
X7745173Y7451519D1*
X7736361Y7438331D1*
X7726542Y7425875D1*
X7715776Y7414228D1*
X7704129Y7403461D1*
X7691673Y7393642D1*
X7678485Y7384830D1*
X7664646Y7377080D1*
X7650242Y7370440D1*
X7635361Y7364950D1*
X7620096Y7360645D1*
X7604540Y7357550D1*
X7588789Y7355686D1*
X7572940Y7355063D1*
X7557091Y7355686D1*
X7541340Y7357550D1*
X7525784Y7360645D1*
X7510519Y7364950D1*
X7495638Y7370440D1*
X7481234Y7377080D1*
X7467395Y7384830D1*
X7454207Y7393642D1*
X7441751Y7403461D1*
X7430104Y7414228D1*
X7419338Y7425875D1*
X7409519Y7438331D1*
X7400707Y7451519D1*
X7392957Y7465357D1*
X7386316Y7479761D1*
X7380827Y7494642D1*
X7376521Y7509907D1*
X7373427Y7525464D1*
X7371563Y7541215D1*
X7370940Y7557063D1*
X7371563Y7572912D1*
X7373427Y7588663D1*
X7376521Y7604219D1*
X7380827Y7619485D1*
X7386316Y7634365D1*
X7392957Y7648769D1*
X7400707Y7662608D1*
X7409519Y7675796D1*
X7419338Y7688252D1*
X7430104Y7699899D1*
X7441751Y7710665D1*
X7454207Y7720485D1*
X7467395Y7729297D1*
X7481234Y7737047D1*
X7495638Y7743687D1*
X7510519Y7749177D1*
X7525784Y7753482D1*
X7541340Y7756576D1*
X7557091Y7758441D1*
X7572940Y7759063D1*
X7588789Y7758441D1*
X7604540Y7756576D1*
X7620096Y7753482D1*
X7635361Y7749177D1*
X7650242Y7743687D1*
X7664646Y7737047D1*
X7678485Y7729297D1*
X7691673Y7720485D1*
X7704129Y7710665D1*
X7715776Y7699899D1*
X7726542Y7688252D1*
X7736361Y7675796D1*
X7745173Y7662608D1*
X7752923Y7648769D1*
X7759564Y7634365D1*
X7765053Y7619485D1*
X7769359Y7604219D1*
X7772453Y7588663D1*
X7774317Y7572912D1*
X7774940Y7557063D1*
X7774317Y7541215D1*
X7291724D2*
X7289860Y7525464D1*
X7286765Y7509907D1*
X7282460Y7494642D1*
X7276970Y7479761D1*
X7270330Y7465357D1*
X7262580Y7451519D1*
X7253768Y7438331D1*
X7243949Y7425875D1*
X7233182Y7414228D1*
X7221535Y7403461D1*
X7209079Y7393642D1*
X7195891Y7384830D1*
X7182053Y7377080D1*
X7167649Y7370440D1*
X7152768Y7364950D1*
X7137503Y7360645D1*
X7121946Y7357550D1*
X7106195Y7355686D1*
X7090347Y7355063D1*
X7074498Y7355686D1*
X7058747Y7357550D1*
X7043191Y7360645D1*
X7027925Y7364950D1*
X7013045Y7370440D1*
X6998641Y7377080D1*
X6984802Y7384830D1*
X6971614Y7393642D1*
X6959158Y7403461D1*
X6947511Y7414228D1*
X6936745Y7425875D1*
X6926925Y7438331D1*
X6918113Y7451519D1*
X6910363Y7465357D1*
X6903723Y7479761D1*
X6898233Y7494642D1*
X6893928Y7509907D1*
X6890834Y7525464D1*
X6888969Y7541215D1*
X6888347Y7557063D1*
X6888969Y7572912D1*
X6890834Y7588663D1*
X6893928Y7604219D1*
X6898233Y7619485D1*
X6903723Y7634365D1*
X6910363Y7648769D1*
X6918113Y7662608D1*
X6926925Y7675796D1*
X6936745Y7688252D1*
X6947511Y7699899D1*
X6959158Y7710665D1*
X6971614Y7720485D1*
X6984802Y7729297D1*
X6998641Y7737047D1*
X7013045Y7743687D1*
X7027925Y7749177D1*
X7043191Y7753482D1*
X7058747Y7756576D1*
X7074498Y7758441D1*
X7090347Y7759063D1*
X7106195Y7758441D1*
X7121946Y7756576D1*
X7137503Y7753482D1*
X7152768Y7749177D1*
X7167649Y7743687D1*
X7182053Y7737047D1*
X7195891Y7729297D1*
X7209079Y7720485D1*
X7221535Y7710665D1*
X7233182Y7699899D1*
X7243949Y7688252D1*
X7253768Y7675796D1*
X7262580Y7662608D1*
X7270330Y7648769D1*
X7276970Y7634365D1*
X7282460Y7619485D1*
X7286765Y7604219D1*
X7289860Y7588663D1*
X7291724Y7572912D1*
X7292347Y7557063D1*
X7291724Y7541215D1*
X11293177Y5469757D2*
X11292927Y5435701D1*
X11290942Y5423165D1*
X11287020Y5411094D1*
X11281258Y5399785D1*
X11273798Y5389517D1*
X11264823Y5380542D1*
X11254555Y5373082D1*
X11243246Y5367320D1*
X11231175Y5363398D1*
X11218639Y5361413D1*
X11205947D1*
X11193411Y5363398D1*
X11181341Y5367320D1*
X11176857Y5369387D1*
X11166338Y5365122D1*
X11153996Y5362159D1*
X11136963Y5361163D1*
X11117970Y5362123D1*
X11105597Y5365059D1*
X11096249Y5365407D1*
X11083941Y5362306D1*
X11071300Y5361168D1*
X11058637Y5362022D1*
X11052371Y5363198D1*
X11043929Y5363398D1*
X11031393Y5361412D1*
X10967657D1*
X10960411Y5362308D1*
X10947770Y5361169D1*
X10935107Y5362020D1*
X10928840Y5363195D1*
X10909269Y5361274D1*
X10896581Y5361607D1*
X10884102Y5363921D1*
X10872138Y5368159D1*
X10860985Y5374216D1*
X10850916Y5381944D1*
X10842180Y5391151D1*
X10834992Y5401612D1*
X10793847Y5487574D1*
X10789925Y5499645D1*
X10787939Y5512181D1*
Y5524873D1*
X10788691Y5531204D1*
X10783623Y5537061D1*
X10774534Y5540232D1*
X10761292Y5535930D1*
X10747541Y5533752D1*
X10733619D1*
X10719868Y5535930D1*
X10713098Y5537821D1*
X10699560Y5534570D1*
X10685680Y5533478D1*
X10568265Y5533752D1*
X10554514Y5535930D1*
X10547741Y5537821D1*
X10534203Y5534571D1*
X10520323Y5533478D1*
X10506444Y5534571D1*
X10492906Y5537821D1*
X10480043Y5543149D1*
X10468172Y5550423D1*
X10457585Y5559465D1*
X10448543Y5570052D1*
X10441269Y5581923D1*
X10435941Y5594786D1*
X10433354Y5604987D1*
X10429872Y5592351D1*
X10424174Y5579648D1*
X10416558Y5567993D1*
X10407213Y5557673D1*
X10396369Y5548942D1*
X10384292Y5542014D1*
X10371280Y5537061D1*
X10357654Y5534205D1*
X10343748Y5533516D1*
X10329906Y5535010D1*
X10316468Y5538651D1*
X10303765Y5544349D1*
X10292110Y5551965D1*
X10281790Y5561310D1*
X10278266Y5565351D1*
X10269607Y5556378D1*
X10258577Y5547882D1*
X10246354Y5541216D1*
X10233239Y5536544D1*
X10219554Y5533982D1*
X10205637Y5533591D1*
X10191830Y5535383D1*
X10182634Y5537821D1*
X10169096Y5534571D1*
X10155217Y5533478D1*
X10087616Y5533844D1*
X10073893Y5536190D1*
X10036610Y5548698D1*
X10027569Y5546553D1*
X10015164Y5540232D1*
X10001922Y5535930D1*
X9988171Y5533752D1*
X9862110Y5533478D1*
X9848230Y5534570D1*
X9834624Y5537821D1*
X9821086Y5534570D1*
X9807207Y5533478D1*
X9739610Y5533844D1*
X9725886Y5536190D1*
X9688611Y5548695D1*
X9679562Y5546553D1*
X9667157Y5540232D1*
X9653916Y5535930D1*
X9640165Y5533752D1*
X9522747Y5533478D1*
X9508867Y5534571D1*
X9495264Y5537821D1*
X9481726Y5534571D1*
X9467847Y5533478D1*
X9453967Y5534571D1*
X9440429Y5537821D1*
X9427566Y5543149D1*
X9415695Y5550423D1*
X9408326Y5556491D1*
X9398113Y5548482D1*
X9385973Y5541667D1*
X9372916Y5536834D1*
X9359264Y5534104D1*
X9345352Y5533543D1*
X9331525Y5535165D1*
X9321261Y5537821D1*
X9307723Y5534570D1*
X9293843Y5533478D1*
X9226243Y5533844D1*
X9212520Y5536190D1*
X9175261Y5548687D1*
X9162820Y5554936D1*
X9151509Y5563054D1*
X9131259Y5582686D1*
X9123617Y5570052D1*
X9114575Y5559465D1*
X9103988Y5550423D1*
X9092117Y5543149D1*
X9079254Y5537821D1*
X9065716Y5534571D1*
X9051837Y5533478D1*
X9037957Y5534571D1*
X9024419Y5537821D1*
X9011556Y5543149D1*
X8999685Y5550423D1*
X8989099Y5559465D1*
X8980057Y5570052D1*
X8972782Y5581923D1*
X8967454Y5594786D1*
X8964204Y5608324D1*
X8963112Y5622203D1*
Y5684638D1*
X8910388Y5751078D1*
X8903505Y5763180D1*
X8898600Y5776210D1*
X8895794Y5789847D1*
X8895156Y5803755D1*
X8896701Y5817591D1*
X8900391Y5831016D1*
X8906137Y5843698D1*
X8913795Y5855325D1*
X8923178Y5865610D1*
X8934054Y5874302D1*
X8946157Y5881185D1*
X8959186Y5886090D1*
X8972823Y5888896D1*
X8986731Y5889534D1*
X9000568Y5887989D1*
X9013992Y5884299D1*
X9026674Y5878553D1*
X9038301Y5870895D1*
X9048587Y5861512D1*
X9051811Y5857788D1*
X9060040Y5866404D1*
X9071030Y5874952D1*
X9083222Y5881674D1*
X9096315Y5886407D1*
X9109988Y5889033D1*
X9123903Y5889488D1*
X9137718Y5887761D1*
X9151093Y5883894D1*
X9163698Y5877982D1*
X9171476Y5872931D1*
X9191100Y5880025D1*
X9213577Y5887131D1*
X9227329Y5889309D1*
X9293843Y5889582D1*
X9307723Y5888490D1*
X9321326Y5885239D1*
X9334864Y5888489D1*
X9348743Y5889582D1*
X9362623Y5888489D1*
X9376161Y5885239D1*
X9389024Y5879911D1*
X9400895Y5872637D1*
X9408264Y5866569D1*
X9421488Y5876507D1*
X9433893Y5882828D1*
X9447134Y5887130D1*
X9460885Y5889308D1*
X9474808D1*
X9488559Y5887130D1*
X9495329Y5885239D1*
X9508867Y5888489D1*
X9522747Y5889582D1*
X9640165Y5889308D1*
X9653916Y5887130D1*
X9667157Y5882828D1*
X9679585Y5876492D1*
X9688178Y5874388D1*
X9726944Y5887130D1*
X9740695Y5889308D1*
X9807207Y5889582D1*
X9821086Y5888490D1*
X9834624Y5885239D1*
X9847487Y5879911D1*
X9853588Y5876492D1*
X9858108Y5876634D1*
X9871217Y5882885D1*
X9884489Y5887088D1*
X9898284Y5889165D1*
X9945525Y5889115D1*
X9959276Y5886937D1*
X9972542Y5882623D1*
X10001104Y5868413D1*
X10012486Y5860348D1*
X10029419Y5871249D1*
X10047364Y5878335D1*
X10074951Y5887131D1*
X10088702Y5889309D1*
X10155217Y5889582D1*
X10169096Y5888490D1*
X10182634Y5885239D1*
X10195497Y5879912D1*
X10207368Y5872637D1*
X10217423Y5865387D1*
X10228268Y5874118D1*
X10240345Y5881046D1*
X10253356Y5885999D1*
X10266983Y5888855D1*
X10280888Y5889544D1*
X10294731Y5888050D1*
X10308169Y5884409D1*
X10320872Y5878711D1*
X10332527Y5871095D1*
X10342847Y5861750D1*
X10352123Y5851686D1*
X10365628Y5863791D1*
X10377444Y5871155D1*
X10395337Y5878270D1*
X10422961Y5887130D1*
X10436712Y5889308D1*
X10520323Y5889582D1*
X10534203Y5888489D1*
X10547809Y5885239D1*
X10561347Y5888490D1*
X10575227Y5889582D1*
X10692641Y5889308D1*
X10706392Y5887130D1*
X10713123Y5885230D1*
X10729246Y5888855D1*
X10743152Y5889545D1*
X10756994Y5888050D1*
X10770432Y5884409D1*
X10783135Y5878711D1*
X10794790Y5871095D1*
X10809119Y5858479D1*
X10818964Y5868324D1*
X10830228Y5876507D1*
X10842633Y5882828D1*
X10855874Y5887130D1*
X10869625Y5889308D1*
X10883548D1*
X10897299Y5887130D1*
X10910540Y5882828D1*
X10922945Y5876507D1*
X10938793Y5865387D1*
X10949638Y5874118D1*
X10961715Y5881046D1*
X10974726Y5885999D1*
X10988353Y5888855D1*
X11002258Y5889544D1*
X11016101Y5888050D1*
X11029539Y5884409D1*
X11042242Y5878711D1*
X11053897Y5871095D1*
X11064217Y5861750D1*
X11072963Y5850882D1*
X11078557Y5848299D1*
X11091037Y5860314D1*
X11102363Y5868411D1*
X11131090Y5882828D1*
X11144331Y5887130D1*
X11158082Y5889308D1*
X11198967Y5889582D1*
X11211856Y5888652D1*
X11225433Y5885568D1*
X11241779Y5878707D1*
X11262939Y5867788D1*
X11274155Y5859539D1*
X11300417Y5833042D1*
X11308620Y5821792D1*
X11323482Y5792799D1*
X11334529Y5760274D1*
X11337780Y5746736D1*
X11338872Y5732857D1*
X11338542Y5682567D1*
X11336259Y5668833D1*
X11323769Y5631152D1*
X11312098Y5607465D1*
X11304822Y5595595D1*
X11292398Y5581629D1*
X11273574Y5563222D1*
X11268068Y5558910D1*
X11264823Y5554594D1*
X11273798Y5545620D1*
X11281258Y5535351D1*
X11287020Y5524043D1*
X11290942Y5511972D1*
X11292927Y5499436D1*
X11293177Y5469757D1*
X11389647Y6084644D2*
X11353055Y5999685D1*
X11346071Y5987997D1*
X11337346Y5977546D1*
X11327092Y5968588D1*
X11315564Y5961345D1*
X11303045Y5955994D1*
X11289842Y5952667D1*
X11276282Y5951447D1*
X11262698Y5952363D1*
X11249424Y5955393D1*
X11236788Y5960462D1*
X11229951Y5964227D1*
X11217820Y5958046D1*
X11204872Y5953839D1*
X11191424Y5951709D1*
X11177809D1*
X11164362Y5953839D1*
X11151413Y5958046D1*
X11144553Y5961275D1*
X11130220Y5955363D1*
X11116943Y5952349D1*
X11103358Y5951448D1*
X11089799Y5952684D1*
X11077341Y5955807D1*
X11064654Y5952666D1*
X11051094Y5951447D1*
X11037509Y5952364D1*
X11024236Y5955394D1*
X11011600Y5960464D1*
X11005597Y5963741D1*
X11001193Y5962265D1*
X10985912Y5955688D1*
X10972673Y5952510D1*
X10954754Y5951442D1*
X10930819Y5951689D1*
X10917365Y5953779D1*
X10904404Y5957948D1*
X10883609Y5968166D1*
X10878623Y5968381D1*
X10857814Y5958046D1*
X10844865Y5953839D1*
X10831418Y5951709D1*
X10796159Y5951689D1*
X10782705Y5953779D1*
X10769744Y5957948D1*
X10760858Y5962143D1*
X10745905Y5955688D1*
X10732666Y5952509D1*
X10719093Y5951441D1*
X10705520Y5952509D1*
X10692281Y5955688D1*
X10679029Y5961275D1*
X10665719Y5955688D1*
X10652480Y5952510D1*
X10638907Y5951442D1*
X10625334Y5952510D1*
X10612095Y5955688D1*
X10598750Y5961328D1*
X10585362Y5955688D1*
X10572123Y5952510D1*
X10558550Y5951441D1*
X10544977Y5952510D1*
X10535001Y5954687D1*
X10521646Y5952037D1*
X10508041Y5951510D1*
X10494521Y5953118D1*
X10481419Y5956820D1*
X10469058Y5962527D1*
X10457742Y5970097D1*
X10447749Y5979344D1*
X10439325Y5990041D1*
X10428345Y6006492D1*
X10426246Y6000078D1*
X10427209Y5986497D1*
X10426037Y5972932D1*
X10422757Y5959718D1*
X10417450Y5947180D1*
X10410247Y5935626D1*
X10401326Y5925341D1*
X10390905Y5916579D1*
X10376344Y5908106D1*
X10358543Y5899507D1*
X10345563Y5895399D1*
X10332073Y5893372D1*
X10297249Y5893422D1*
X10283802Y5895552D1*
X10270829Y5899770D1*
X10244971Y5912638D1*
X10233860Y5920507D1*
X10220111Y5933926D1*
X10211387Y5944379D1*
X10207654Y5950109D1*
X10204873Y5952510D1*
X10186953Y5951442D1*
X10163008Y5951690D1*
X10153996Y5952510D1*
X10140423Y5951441D1*
X10126850Y5952510D1*
X10117018Y5954727D1*
X10100171Y5951709D1*
X10086556D1*
X10073108Y5953839D1*
X10060160Y5958046D1*
X10053299Y5961276D1*
X10039989Y5955688D1*
X10026750Y5952510D1*
X10013177Y5951441D1*
X9999604Y5952510D1*
X9986365Y5955688D1*
X9973020Y5961327D1*
X9959635Y5955688D1*
X9946396Y5952510D1*
X9932823Y5951441D1*
X9919250Y5952510D1*
X9906011Y5955688D1*
X9891227Y5962134D1*
X9876189Y5955688D1*
X9862950Y5952510D1*
X9844996Y5951441D1*
X9830331D1*
X9825253Y5941829D1*
X9817250Y5930814D1*
X9807623Y5921187D1*
X9796608Y5913184D1*
X9784477Y5907003D1*
X9771528Y5902795D1*
X9758081Y5900666D1*
X9744466D1*
X9731018Y5902795D1*
X9718070Y5907003D1*
X9705939Y5913184D1*
X9694924Y5921187D1*
X9685297Y5930814D1*
X9677294Y5941829D1*
X9670035Y5956881D1*
X9647111Y5967679D1*
X9639829Y5971506D1*
X9613260Y5958046D1*
X9600312Y5953839D1*
X9586864Y5951709D1*
X9551775Y5951689D1*
X9542756Y5952510D1*
X9529183Y5951442D1*
X9515610Y5952510D1*
X9502371Y5955688D1*
X9487587Y5962134D1*
X9472545Y5955688D1*
X9459306Y5952510D1*
X9441353Y5951441D1*
X9417274Y5951690D1*
X9408266Y5952510D1*
X9394693Y5951441D1*
X9381120Y5952510D1*
X9371288Y5954727D1*
X9354441Y5951709D1*
X9245547Y5951442D1*
X9231974Y5952510D1*
X9218735Y5955688D1*
X9211111Y5958614D1*
X9196842Y5953839D1*
X9183394Y5951709D1*
X9154535Y5951442D1*
X9140937Y5952539D1*
X9118300Y5951441D1*
X9104727Y5952510D1*
X9091488Y5955688D1*
X9081205Y5959840D1*
X9063383Y5954093D1*
X9049963Y5951799D1*
X9020197Y5951442D1*
X9006624Y5952510D1*
X8993360Y5955697D1*
X8981170Y5959816D1*
X8970805Y5955688D1*
X8957566Y5952510D1*
X8943993Y5951442D1*
X8929507Y5952691D1*
X8914975Y5951442D1*
X8886142Y5951709D1*
X8872695Y5953839D1*
X8859746Y5958046D1*
X8832999Y5971720D1*
X8821979Y5979760D1*
X8798160Y6003373D1*
X8790093Y6014341D1*
X8783841Y6026436D1*
X8774187Y6054761D1*
X8770939Y6067983D1*
X8769798Y6084905D1*
X8770066Y6103304D1*
X8772195Y6116752D1*
X8781430Y6145642D1*
X8786707Y6158193D1*
X8793881Y6169765D1*
X8808317Y6185612D1*
X8822114Y6199030D1*
X8833129Y6207033D1*
X8854147Y6217902D1*
X8860381Y6220716D1*
X8863833Y6224544D1*
X8870014Y6236675D1*
X8878017Y6247689D1*
X8887644Y6257317D1*
X8898659Y6265319D1*
X8910790Y6271501D1*
X8923738Y6275708D1*
X8937186Y6277838D1*
X8950801D1*
X8964248Y6275708D1*
X8977197Y6271501D1*
X8989328Y6265319D1*
X9000343Y6257317D1*
X9009970Y6247689D1*
X9017973Y6236675D1*
X9022984Y6227081D1*
X9049359Y6226757D1*
X9062795Y6224557D1*
X9081233Y6218740D1*
X9091488Y6222815D1*
X9104727Y6225994D1*
X9118300Y6227062D1*
X9131873Y6225994D1*
X9145112Y6222815D1*
X9158364Y6217228D1*
X9171675Y6222815D1*
X9184914Y6225994D1*
X9189169Y6226497D1*
X9200311Y6239498D1*
X9211112Y6249917D1*
X9222129Y6257917D1*
X9243131Y6268775D1*
X9255749Y6273890D1*
X9269011Y6276968D1*
X9287762Y6277935D1*
X9317884Y6277668D1*
X9331332Y6275538D1*
X9344304Y6271320D1*
X9352804Y6267331D1*
X9367881Y6273859D1*
X9381120Y6277037D1*
X9394693Y6278105D1*
X9408266Y6277037D1*
X9421505Y6273859D1*
X9434084Y6268649D1*
X9445693Y6261535D1*
X9456046Y6252692D1*
X9464888Y6242339D1*
X9472002Y6230731D1*
X9475932Y6221622D1*
X9487529Y6216406D1*
X9502371Y6222815D1*
X9515610Y6225994D1*
X9529183Y6227062D1*
X9543670Y6225812D1*
X9558327Y6227062D1*
X9585805Y6226871D1*
X9599277Y6224906D1*
X9612277Y6220858D1*
X9634577Y6210117D1*
X9646207Y6210203D1*
X9667253Y6220552D1*
X9680214Y6224722D1*
X9693694Y6226815D1*
X9728934Y6226794D1*
X9737700Y6225994D1*
X9751273Y6227062D1*
X9764846Y6225994D1*
X9778085Y6222815D1*
X9789335Y6218218D1*
X9800661Y6222815D1*
X9813900Y6225993D1*
X9831854Y6227062D1*
X9855527Y6226843D1*
X9868991Y6224816D1*
X9881971Y6220707D1*
X9902043Y6210970D1*
X9922670Y6220858D1*
X9935669Y6224906D1*
X9949168Y6226872D1*
X9983431Y6226794D1*
X9996878Y6224665D1*
X10003460Y6222806D1*
X10009269Y6223135D1*
X10022546Y6226152D1*
X10043770Y6227062D1*
X10063618Y6226794D1*
X10079790Y6225994D1*
X10093363Y6227062D1*
X10106936Y6225994D1*
X10116769Y6223776D1*
X10133616Y6226794D1*
X10147231D1*
X10155994Y6225994D1*
X10173913Y6227062D1*
X10197048Y6226871D1*
X10210521Y6224906D1*
X10223520Y6220858D1*
X10240562Y6212734D1*
X10254658Y6217421D1*
X10268106Y6219551D1*
X10281721D1*
X10290730Y6218789D1*
X10308437Y6219818D1*
X10326127Y6219817D1*
X10328017Y6221244D1*
X10333723Y6233605D1*
X10341294Y6244922D1*
X10350541Y6254915D1*
X10361237Y6263338D1*
X10373120Y6269984D1*
X10385896Y6274690D1*
X10399251Y6277339D1*
X10412856Y6277867D1*
X10426375Y6276259D1*
X10439477Y6272557D1*
X10451839Y6266850D1*
X10463155Y6259280D1*
X10473148Y6250033D1*
X10481571Y6239336D1*
X10508844Y6198474D1*
X10521538Y6207582D1*
X10548400Y6220858D1*
X10561399Y6224906D1*
X10574898Y6226872D1*
X10609158Y6226794D1*
X10622605Y6224664D1*
X10629187Y6222806D1*
X10635007Y6223137D1*
X10648284Y6226153D1*
X10669500Y6227062D1*
X10689348Y6226794D1*
X10705520Y6225994D1*
X10719093Y6227062D1*
X10732666Y6225994D1*
X10745905Y6222815D1*
X10760736Y6216344D1*
X10775898Y6222815D1*
X10789137Y6225994D1*
X10807090Y6227062D1*
X10831418Y6226795D1*
X10844865Y6224665D1*
X10857838Y6220446D1*
X10878510Y6210349D1*
X10884272Y6210838D1*
X10904166Y6220457D1*
X10917115Y6224665D1*
X10930562Y6226794D1*
X10964848Y6226871D1*
X10978321Y6224906D1*
X10991320Y6220858D1*
X11013598Y6210131D1*
X11025165Y6202949D1*
X11038363Y6191115D1*
X11040117Y6189341D1*
X11050321Y6201649D1*
X11060674Y6210491D1*
X11072283Y6217605D1*
X11084861Y6222815D1*
X11098100Y6225994D1*
X11105424Y6226816D1*
X11110637Y6236675D1*
X11118640Y6247689D1*
X11128267Y6257317D1*
X11139282Y6265319D1*
X11151413Y6271501D1*
X11164362Y6275708D1*
X11177809Y6277838D1*
X11191424D1*
X11204872Y6275708D1*
X11217820Y6271501D1*
X11229951Y6265319D1*
X11240966Y6257317D1*
X11250593Y6247689D1*
X11258596Y6236675D1*
X11264777Y6224544D1*
X11266555Y6219725D1*
X11275362Y6215225D1*
X11286918Y6220869D1*
X11299918Y6224913D1*
X11313391Y6226873D1*
X11327005Y6226702D1*
X11340425Y6224403D1*
X11353320Y6220033D1*
X11365372Y6213700D1*
X11376285Y6205559D1*
X11385790Y6195811D1*
X11393654Y6184697D1*
X11399682Y6172489D1*
X11403726Y6159488D1*
X11405686Y6146015D1*
X11405515Y6132401D1*
X11403216Y6118982D1*
X11398846Y6106087D1*
X11389647Y6084644D1*
X4048320Y5894649D2*
D18*
Y5440831D1*
X3821411Y5667740D2*
X4275229D1*
D25*
X4048317Y6953730D3*
D26*
X9875057Y9271743D3*
X10287850D3*
D25*
X2254253Y6953730D3*
D27*
X5207317Y8192130D3*
D18*
X1206393Y7953960D3*
D25*
X3159223Y7842823D3*
D18*
X1428667Y8176233D3*
X1539803Y8287370D3*
D25*
X2063733Y6080513D3*
D18*
X1984350Y8731917D3*
X1762077Y8509643D3*
D25*
X6334557Y6429800D3*
D18*
X1873213Y8620780D3*
X2095487Y8843053D3*
D25*
X4683383Y6398047D3*
D18*
X2206623Y8954190D3*
X2317760Y9065327D3*
D25*
X9621027Y6366293D3*
D18*
X1650940Y8398507D3*
X2428897Y9176463D3*
D25*
X11176940Y6366293D3*
D18*
X2540033Y9287600D3*
X1095257Y7842823D3*
D25*
X11208693Y8207987D3*
D18*
X2651170Y9398737D3*
D26*
X9462263Y9271743D3*
D25*
X9605150Y8207987D3*
D18*
X2762307Y9509873D3*
D28*
X4556373Y8096870D3*
Y7842870D3*
Y7588870D3*
Y7334870D3*
Y7080763D3*
D29*
X4048320Y5667740D3*
D18*
X1317530Y8065097D3*
D31*
X7572940Y7557063D3*
X7090347D3*
X11212293Y5493090D2*
D19*
Y5442047D1*
X11319110Y6140297D2*
D22*
X11275310Y6038207D1*
X11231677Y6140297D1*
X11184617Y6191340D2*
Y6038207D1*
X11111673Y6140297D2*
X11184617Y6067353D1*
X11155473Y6096497D2*
X11104430Y6038207D1*
X11050127Y6052863D2*
X11057373Y6045453D1*
X11050127Y6038207D1*
X11042717Y6045453D1*
X11050127Y6052863D1*
X10908057Y6118397D2*
X10922713Y6133053D1*
X10937370Y6140297D1*
X10959100D1*
X10973757Y6133053D1*
X10988243Y6118397D1*
X10995657Y6096497D1*
Y6082007D1*
X10988243Y6060107D1*
X10973757Y6045620D1*
X10959100Y6038207D1*
X10937370D1*
X10922713Y6045620D1*
X10908057Y6060107D1*
X10824610Y6140297D2*
X10839097Y6133053D1*
X10853753Y6118397D1*
X10860997Y6096497D1*
Y6082007D1*
X10853753Y6060107D1*
X10839097Y6045620D1*
X10824610Y6038207D1*
X10802710D1*
X10788053Y6045620D1*
X10773567Y6060107D1*
X10766153Y6082007D1*
Y6096497D1*
X10773567Y6118397D1*
X10788053Y6133053D1*
X10802710Y6140297D1*
X10824610D1*
X10719093D2*
Y6038207D1*
Y6111153D2*
X10697193Y6133053D1*
X10682540Y6140297D1*
X10660807D1*
X10646150Y6133053D1*
X10638907Y6111153D1*
Y6038207D1*
Y6111153D2*
X10617007Y6133053D1*
X10602350Y6140297D1*
X10580620D1*
X10565963Y6133053D1*
X10558550Y6111153D1*
Y6038207D1*
X10511493D2*
X10409403Y6191170D1*
X10274913Y6133053D2*
Y6016307D1*
X10282157Y5994577D1*
X10289403Y5987163D1*
X10304057Y5979920D1*
X10325957D1*
X10340447Y5987163D1*
X10274913Y6111153D2*
X10289403Y6125640D1*
X10304057Y6133053D1*
X10325957D1*
X10340447Y6125640D1*
X10355103Y6111153D1*
X10362347Y6089253D1*
Y6074597D1*
X10355103Y6052863D1*
X10340447Y6038207D1*
X10325957Y6030967D1*
X10304057D1*
X10289403Y6038207D1*
X10274913Y6052863D1*
X10140423Y6140297D2*
Y6038207D1*
Y6118397D2*
X10154913Y6133053D1*
X10169567Y6140297D1*
X10191300D1*
X10205957Y6133053D1*
X10220443Y6118397D1*
X10227857Y6096497D1*
Y6082007D1*
X10220443Y6060107D1*
X10205957Y6045620D1*
X10191300Y6038207D1*
X10169567D1*
X10154913Y6045620D1*
X10140423Y6060107D1*
X10093363Y6140297D2*
Y6038207D1*
Y6111153D2*
X10071467Y6133053D1*
X10056810Y6140297D1*
X10035077D1*
X10020423Y6133053D1*
X10013177Y6111153D1*
Y6038207D1*
Y6111153D2*
X9991277Y6133053D1*
X9976623Y6140297D1*
X9954890D1*
X9940233Y6133053D1*
X9932823Y6111153D1*
Y6038207D1*
X9885763Y6096497D2*
X9798330D1*
Y6111153D1*
X9805573Y6125807D1*
X9812820Y6133053D1*
X9827473Y6140297D1*
X9849377D1*
X9863863Y6133053D1*
X9878520Y6118397D1*
X9885763Y6096497D1*
Y6082007D1*
X9878520Y6060107D1*
X9863863Y6045620D1*
X9849377Y6038207D1*
X9827473D1*
X9812820Y6045620D1*
X9798330Y6060107D1*
X9751273Y6140297D2*
Y5987163D1*
Y6118397D2*
X9736617Y6132883D1*
X9722127Y6140297D1*
X9700227D1*
X9685573Y6132883D1*
X9671087Y6118397D1*
X9663673Y6096497D1*
Y6081840D1*
X9671087Y6060107D1*
X9685573Y6045453D1*
X9700227Y6038207D1*
X9722127D1*
X9736617Y6045453D1*
X9751273Y6060107D1*
X9529183Y6140297D2*
Y6038207D1*
Y6118397D2*
X9543670Y6133053D1*
X9558327Y6140297D1*
X9580057D1*
X9594713Y6133053D1*
X9609200Y6118397D1*
X9616613Y6096497D1*
Y6082007D1*
X9609200Y6060107D1*
X9594713Y6045620D1*
X9580057Y6038207D1*
X9558327D1*
X9543670Y6045620D1*
X9529183Y6060107D1*
X9394693Y6191340D2*
Y6038207D1*
Y6118397D2*
X9409180Y6133053D1*
X9423833Y6140297D1*
X9445733D1*
X9460223Y6133053D1*
X9474880Y6118397D1*
X9482123Y6096497D1*
Y6082007D1*
X9474880Y6060107D1*
X9460223Y6045620D1*
X9445733Y6038207D1*
X9423833D1*
X9409180Y6045620D1*
X9394693Y6060107D1*
X9340220Y6154783D2*
Y6162027D1*
X9332977Y6176683D1*
X9325733Y6183927D1*
X9311077Y6191170D1*
X9281933D1*
X9267447Y6183927D1*
X9260200Y6176683D1*
X9252790Y6162027D1*
Y6147540D1*
X9260200Y6132883D1*
X9274690Y6111153D1*
X9347633Y6038207D1*
X9245547D1*
X9198487Y6140297D2*
Y6067353D1*
X9191243Y6045620D1*
X9176587Y6038207D1*
X9154687D1*
X9140200Y6045620D1*
X9118300Y6067353D1*
Y6140297D2*
Y6038207D1*
X8991053Y6118397D2*
X8998297Y6133053D1*
X9020197Y6140297D1*
X9042097D1*
X9063997Y6133053D1*
X9071240Y6118397D1*
X9063997Y6103907D1*
X9049340Y6096497D1*
X9012953Y6089253D1*
X8998297Y6082007D1*
X8991053Y6067353D1*
Y6060107D1*
X8998297Y6045620D1*
X9020197Y6038207D1*
X9042097D1*
X9063997Y6045620D1*
X9071240Y6060107D1*
X8943993Y6191340D2*
Y6038207D1*
Y6118397D2*
X8929337Y6133053D1*
X8914850Y6140297D1*
X8892950D1*
X8878463Y6133053D1*
X8863807Y6118397D1*
X8856563Y6096497D1*
Y6082007D1*
X8863807Y6060107D1*
X8878463Y6045620D1*
X8892950Y6038207D1*
X8914850D1*
X8929337Y6045620D1*
X8943993Y6060107D1*
X11212293Y5471190D2*
D19*
X11208587Y5482140D1*
X11201343Y5489467D1*
X11194017Y5493090D1*
X11183067D1*
X11159537Y5471190D2*
X11115820D1*
Y5478517D1*
X11119443Y5485847D1*
X11123067Y5489467D1*
X11130393Y5493090D1*
X11141343D1*
X11148587Y5489467D1*
X11155913Y5482140D1*
X11159537Y5471190D1*
Y5463947D1*
X11155913Y5452997D1*
X11148587Y5445753D1*
X11141343Y5442047D1*
X11130393D1*
X11123067Y5445753D1*
X11115820Y5452997D1*
X11092293Y5493090D2*
X11070393Y5442047D1*
X11048577Y5493090D1*
X11021340Y5500333D2*
Y5503957D1*
X11017717Y5511283D1*
X11014097Y5514903D1*
X11006767Y5518527D1*
X10992197D1*
X10984953Y5514903D1*
X10981330Y5511283D1*
X10977627Y5503957D1*
Y5496713D1*
X10981330Y5489383D1*
X10988573Y5478517D1*
X11025047Y5442047D1*
X10974003D1*
X10946850Y5449373D2*
X10950473Y5445667D1*
X10946850Y5442047D1*
X10943147Y5445667D1*
X10946850Y5449373D1*
X10905043Y5442047D2*
X10868573Y5518527D1*
X10919617D1*
X11122590Y5758407D2*
D23*
X11131043Y5775307D1*
X11148140Y5792407D1*
X11165043Y5800857D1*
X11199047D1*
X11216143Y5792407D1*
X11233047Y5775307D1*
X11241693Y5758407D1*
X11250147Y5732857D1*
Y5690207D1*
X11241693Y5664853D1*
X11233047Y5647753D1*
X11216143Y5630853D1*
X11199047Y5622203D1*
X11165043D1*
X11148140Y5630853D1*
X11131043Y5647753D1*
X11122590Y5664853D1*
Y5690207D1*
X11165043D1*
X10931487Y5622203D2*
X10999687Y5800857D1*
X11067690Y5622203D1*
X11042140Y5681757D2*
X10957037D1*
X10740580Y5622203D2*
Y5800857D1*
X10808583Y5622203D1*
X10876587Y5800857D1*
Y5622203D1*
X10575227Y5800857D2*
X10685680D1*
Y5622203D1*
X10575227D1*
X10685680Y5715757D2*
X10617677D1*
X10520323Y5707307D2*
X10443673D1*
X10418320Y5715757D1*
X10409673Y5724403D1*
X10401220Y5741307D1*
Y5766857D1*
X10409673Y5783760D1*
X10418320Y5792407D1*
X10443673Y5800857D1*
X10520323D1*
Y5622203D1*
X10210117D2*
X10278317Y5800857D1*
X10346320Y5622203D1*
X10320770Y5681757D2*
X10235667D1*
X10155217Y5800857D2*
Y5622203D1*
X10095663D1*
X10070113Y5630853D1*
X10053017Y5647753D1*
X10044563Y5664853D1*
X10036113Y5690207D1*
Y5732857D1*
X10044563Y5758407D1*
X10053017Y5775307D1*
X10070113Y5792407D1*
X10095663Y5800857D1*
X10155217D1*
X9972563Y5758210D2*
Y5766660D1*
X9964113Y5783760D1*
X9955660Y5792210D1*
X9938563Y5800663D1*
X9904560D1*
X9887660Y5792210D1*
X9879207Y5783760D1*
X9870560Y5766660D1*
Y5749757D1*
X9879207Y5732660D1*
X9896110Y5707307D1*
X9981210Y5622203D1*
X9862110D1*
X9807207Y5800857D2*
Y5622203D1*
X9747657D1*
X9722107Y5630853D1*
X9705007Y5647753D1*
X9696557Y5664853D1*
X9688107Y5690207D1*
Y5732857D1*
X9696557Y5758407D1*
X9705007Y5775307D1*
X9722107Y5792407D1*
X9747657Y5800857D1*
X9807207D1*
X9522747D2*
X9633203D1*
Y5622203D1*
X9522747D1*
X9633203Y5715757D2*
X9565200D1*
X9348743Y5800857D2*
Y5622203D1*
X9467847Y5800857D1*
Y5622203D1*
X9293843Y5800857D2*
Y5622203D1*
X9234290D1*
X9208740Y5630853D1*
X9191643Y5647753D1*
X9183190Y5664853D1*
X9174740Y5690207D1*
Y5732857D1*
X9183190Y5758407D1*
X9191643Y5775307D1*
X9208740Y5792407D1*
X9234290Y5800857D1*
X9293843D1*
X9119837D2*
X9051837Y5715757D1*
Y5622203D1*
X8983833Y5800857D2*
X9051837Y5715757D1*
G04 Bottom Clear*
%LPC*%
D14*
X3556140Y4619860D3*
D21*
X6890240Y3016317D3*
X7382417D3*
D14*
X4048317Y2651153D3*
D15*
X9875057Y4969167D3*
X10287850D3*
D14*
X2254253Y2651153D3*
D15*
X5207317Y3889553D3*
X1206393Y3651383D3*
D14*
X3159223Y3540247D3*
D15*
X1428667Y3873657D3*
X1539803Y3984793D3*
D14*
X2063733Y1777937D3*
D15*
X1984350Y4429340D3*
X1762077Y4207067D3*
D14*
X6334557Y2127223D3*
D15*
X1873213Y4318203D3*
X2095487Y4540477D3*
D14*
X4683383Y2095470D3*
D15*
X2206623Y4651613D3*
X2317760Y4762750D3*
D14*
X9621027Y2063717D3*
D15*
X1650940Y4095930D3*
X2428897Y4873887D3*
D14*
X11176940Y2063717D3*
D15*
X2540033Y4985023D3*
X1095257Y3540247D3*
D14*
X11208693Y3905410D3*
D15*
X2651170Y5096160D3*
X9462263Y4969167D3*
D14*
X9605150Y3905410D3*
D15*
X2762307Y5207297D3*
X4556373Y3794293D3*
Y3540293D3*
Y3286293D3*
Y3032293D3*
Y2778187D3*
D14*
X4048320Y1365163D3*
D15*
X1317530Y3762520D3*
X7572940Y3254487D3*
X7090347D3*
D14*
X3556140Y8922437D3*
D21*
X6890240Y7318893D3*
X7382417D3*
D14*
X4048317Y6953730D3*
D15*
X9875057Y9271743D3*
X10287850D3*
D14*
X2254253Y6953730D3*
D15*
X5207317Y8192130D3*
X1206393Y7953960D3*
D14*
X3159223Y7842823D3*
D15*
X1428667Y8176233D3*
X1539803Y8287370D3*
D14*
X2063733Y6080513D3*
D15*
X1984350Y8731917D3*
X1762077Y8509643D3*
D14*
X6334557Y6429800D3*
D15*
X1873213Y8620780D3*
X2095487Y8843053D3*
D14*
X4683383Y6398047D3*
D15*
X2206623Y8954190D3*
X2317760Y9065327D3*
D14*
X9621027Y6366293D3*
D15*
X1650940Y8398507D3*
X2428897Y9176463D3*
D14*
X11176940Y6366293D3*
D15*
X2540033Y9287600D3*
X1095257Y7842823D3*
D14*
X11208693Y8207987D3*
D15*
X2651170Y9398737D3*
X9462263Y9271743D3*
D14*
X9605150Y8207987D3*
D15*
X2762307Y9509873D3*
X4556373Y8096870D3*
Y7842870D3*
Y7588870D3*
Y7334870D3*
Y7080763D3*
D14*
X4048320Y5667740D3*
D15*
X1317530Y8065097D3*
X7572940Y7557063D3*
X7090347D3*
M02*
