M48
METRIC,0000.00
T01C0.3
T02C0.5
T03C1.0
T04C2.0
T05C2.5
T06C3.0
T07C4.5
%
T01
X+006890Y+003016
X+007382Y+003016
X+007382Y+007319
X+006890Y+007319
T02
X+004048Y+002651
X+004683Y+002095
X+004048Y+001365
X+002064Y+001778
X+002254Y+002651
X+003159Y+003540
X+003556Y+004620
X+004048Y+005668
X+004683Y+006398
X+004048Y+006954
X+003159Y+007843
X+003556Y+008922
X+002254Y+006954
X+002064Y+006081
X+006335Y+006430
X+009621Y+006366
X+011177Y+006366
X+011209Y+008208
X+009605Y+008208
X+009605Y+003905
X+011209Y+003905
X+011177Y+002064
X+009621Y+002064
X+006335Y+002127
T03
X+009875Y+004969
X+010288Y+004969
X+009462Y+004969
X+007573Y+003254
X+007090Y+003254
X+005207Y+003890
X+004556Y+003794
X+004556Y+003540
X+004556Y+003286
X+004556Y+003032
X+004556Y+002778
X+002429Y+004874
X+002318Y+004763
X+002207Y+004652
X+002095Y+004540
X+001984Y+004429
X+001873Y+004318
X+001762Y+004207
X+001651Y+004096
X+001540Y+003985
X+001429Y+003874
X+001318Y+003763
X+001206Y+003651
X+001095Y+003540
X+002540Y+004985
X+002651Y+005096
X+002762Y+005207
X+004556Y+007081
X+004556Y+007335
X+004556Y+007589
X+004556Y+007843
X+004556Y+008097
X+005207Y+008192
X+007090Y+007557
X+007573Y+007557
X+009462Y+009272
X+009875Y+009272
X+010288Y+009272
X+002762Y+009510
X+002651Y+009399
X+002540Y+009288
X+002429Y+009176
X+002318Y+009065
X+002207Y+008954
X+002095Y+008843
X+001984Y+008732
X+001873Y+008621
X+001762Y+008510
X+001651Y+008399
X+001540Y+008287
X+001429Y+008176
X+001318Y+008065
X+001206Y+007954
X+001095Y+007843
T04
X+011780Y+003254
X+011780Y+007557
T05
X+007906Y+002635
X+003842Y+003874
X+003842Y+008176
X+007906Y+006938
T06
X+011780Y+001349
X+011780Y+005652
X+006065Y+005652
X+005779Y+005001
X+005017Y+005001
X+001349Y+005636
X+001349Y+001333
X+006065Y+001349
X+005779Y+009303
X+005017Y+009303
T07
X+011780Y+004858
X+007954Y+004588
X+006541Y+004858
X+007954Y+008891
X+006541Y+009161
X+001349Y+009161
X+001349Y+004858
X+011780Y+009161
T00
M30
